<?xml version="1.0" encoding="UTF-8" standalone="no"?>
<!DOCTYPE svg PUBLIC "-//W3C//DTD SVG 1.1//EN"
 "http://www.w3.org/Graphics/SVG/1.1/DTD/svg11.dtd">
<!-- Generated by graphviz version 14.0.4 (0)
 -->
<!-- Title: G Pages: 1 -->
<svg width="2735pt" height="215pt"
 viewBox="0.00 0.00 2735.00 215.00" xmlns="http://www.w3.org/2000/svg" xmlns:xlink="http://www.w3.org/1999/xlink">
<g id="graph0" class="graph" transform="scale(1.33333 1.33333) rotate(0) translate(4 157)">
<title>G</title>
<polygon fill="white" stroke="none" points="-4,4 -4,-157 2046.96,-157 2046.96,4 -4,4"/>
<!-- 1 -->
<g id="node1" class="node">
<title>1</title>
<polygon fill="none" stroke="black" points="0,-31.7 0,-121.3 252.5,-121.3 252.5,-31.7 0,-31.7"/>
<text xml:space="preserve" text-anchor="start" x="109.51" y="-105.7" font-family="Times New Roman,serif" font-weight="bold" font-size="14.00">Input</text>
<text xml:space="preserve" text-anchor="start" x="122.75" y="-91.7" font-family="Times New Roman,serif" font-size="14.00">x</text>
<polyline fill="none" stroke="black" points="0,-85.3 252.5,-85.3"/>
<text xml:space="preserve" text-anchor="start" x="34" y="-68.7" font-family="Times New Roman,serif" font-size="14.00">input: ?</text>
<polyline fill="none" stroke="black" points="110.38,-60.5 110.38,-85.3"/>
<text xml:space="preserve" text-anchor="start" x="144.38" y="-68.7" font-family="Times New Roman,serif" font-size="14.00">output: (5, 5)</text>
<polyline fill="none" stroke="black" points="0,-60.5 252.5,-60.5"/>
<text xml:space="preserve" text-anchor="start" x="10" y="-41.9" font-family="Times New Roman,serif" font-size="14.00">output (5, 5):</text>
<text xml:space="preserve" text-anchor="start" x="87.49" y="-41.9" font-family="Times New Roman,serif" font-size="14.00">fixed&lt;16,6,TRN,WRAP,0&gt;</text>
</g>
<!-- 2 -->
<g id="node2" class="node">
<title>2</title>
<polygon fill="none" stroke="black" points="288.5,-31.7 288.5,-121.3 537.5,-121.3 537.5,-31.7 288.5,-31.7"/>
<text xml:space="preserve" text-anchor="start" x="387.72" y="-105.7" font-family="Times New Roman,serif" font-weight="bold" font-size="14.00">Reshape</text>
<text xml:space="preserve" text-anchor="start" x="388.5" y="-91.7" font-family="Times New Roman,serif" font-size="14.00">model_0</text>
<polyline fill="none" stroke="black" points="288.5,-85.3 537.5,-85.3"/>
<text xml:space="preserve" text-anchor="start" x="316.5" y="-68.7" font-family="Times New Roman,serif" font-size="14.00">input: (5, 5)</text>
<polyline fill="none" stroke="black" points="410.99,-60.5 410.99,-85.3"/>
<text xml:space="preserve" text-anchor="start" x="438.99" y="-68.7" font-family="Times New Roman,serif" font-size="14.00">output: (25,)</text>
<polyline fill="none" stroke="black" points="288.5,-60.5 537.5,-60.5"/>
<text xml:space="preserve" text-anchor="start" x="298.5" y="-41.9" font-family="Times New Roman,serif" font-size="14.00">output (25,):</text>
<text xml:space="preserve" text-anchor="start" x="372.49" y="-41.9" font-family="Times New Roman,serif" font-size="14.00">fixed&lt;16,6,TRN,WRAP,0&gt;</text>
</g>
<!-- 1&#45;&gt;2 -->
<g id="edge1" class="edge">
<title>1&#45;&gt;2</title>
<path fill="none" stroke="black" d="M252.97,-76.5C260.97,-76.5 269.04,-76.5 277.08,-76.5"/>
<polygon fill="black" stroke="black" points="276.9,-80 286.9,-76.5 276.9,-73 276.9,-80"/>
</g>
<!-- 3 -->
<g id="node3" class="node">
<title>3</title>
<polygon fill="none" stroke="black" points="573.5,-0.5 573.5,-152.5 849.32,-152.5 849.32,-0.5 573.5,-0.5"/>
<text xml:space="preserve" text-anchor="start" x="686.91" y="-136.9" font-family="Times New Roman,serif" font-weight="bold" font-size="14.00">Dense</text>
<text xml:space="preserve" text-anchor="start" x="686.91" y="-122.9" font-family="Times New Roman,serif" font-size="14.00">model_1</text>
<polyline fill="none" stroke="black" points="573.5,-116.5 849.32,-116.5"/>
<text xml:space="preserve" text-anchor="start" x="609" y="-99.9" font-family="Times New Roman,serif" font-size="14.00">input: (25,)</text>
<polyline fill="none" stroke="black" points="707.49,-91.7 707.49,-116.5"/>
<text xml:space="preserve" text-anchor="start" x="742.99" y="-99.9" font-family="Times New Roman,serif" font-size="14.00">output: (32,)</text>
<polyline fill="none" stroke="black" points="573.5,-91.7 849.32,-91.7"/>
<text xml:space="preserve" text-anchor="start" x="583.5" y="-73.1" font-family="Times New Roman,serif" font-size="14.00">weight (32, 25):</text>
<text xml:space="preserve" text-anchor="start" x="677.31" y="-73.1" font-family="Times New Roman,serif" font-size="14.00">fixed&lt;16,6,TRN,WRAP,0&gt;</text>
<text xml:space="preserve" text-anchor="start" x="583.5" y="-52.3" font-family="Times New Roman,serif" font-size="14.00">bias (32,):</text>
<text xml:space="preserve" text-anchor="start" x="677.31" y="-52.3" font-family="Times New Roman,serif" font-size="14.00">fixed&lt;16,6,TRN,WRAP,0&gt;</text>
<text xml:space="preserve" text-anchor="start" x="583.5" y="-31.5" font-family="Times New Roman,serif" font-size="14.00">output (32,):</text>
<text xml:space="preserve" text-anchor="start" x="677.31" y="-31.5" font-family="Times New Roman,serif" font-size="14.00">fixed&lt;38,18,TRN,WRAP,0&gt;</text>
<text xml:space="preserve" text-anchor="start" x="583.5" y="-10.7" font-family="Times New Roman,serif" font-size="14.00">accum:</text>
<text xml:space="preserve" text-anchor="start" x="677.31" y="-10.7" font-family="Times New Roman,serif" font-size="14.00">fixed&lt;16,6,TRN,WRAP,0&gt;</text>
</g>
<!-- 2&#45;&gt;3 -->
<g id="edge2" class="edge">
<title>2&#45;&gt;3</title>
<path fill="none" stroke="black" d="M537.98,-76.5C545.86,-76.5 553.82,-76.5 561.79,-76.5"/>
<polygon fill="black" stroke="black" points="561.53,-80 571.53,-76.5 561.53,-73 561.53,-80"/>
</g>
<!-- 4 -->
<g id="node4" class="node">
<title>4</title>
<polygon fill="none" stroke="black" points="885.32,-31.7 885.32,-121.3 1134.32,-121.3 1134.32,-31.7 885.32,-31.7"/>
<text xml:space="preserve" text-anchor="start" x="978.71" y="-105.7" font-family="Times New Roman,serif" font-weight="bold" font-size="14.00">Activation</text>
<text xml:space="preserve" text-anchor="start" x="985.32" y="-91.7" font-family="Times New Roman,serif" font-size="14.00">model_2</text>
<polyline fill="none" stroke="black" points="885.32,-85.3 1134.32,-85.3"/>
<text xml:space="preserve" text-anchor="start" x="914.32" y="-68.7" font-family="Times New Roman,serif" font-size="14.00">input: (32,)</text>
<polyline fill="none" stroke="black" points="1006.31,-60.5 1006.31,-85.3"/>
<text xml:space="preserve" text-anchor="start" x="1035.31" y="-68.7" font-family="Times New Roman,serif" font-size="14.00">output: (32,)</text>
<polyline fill="none" stroke="black" points="885.32,-60.5 1134.32,-60.5"/>
<text xml:space="preserve" text-anchor="start" x="895.32" y="-41.9" font-family="Times New Roman,serif" font-size="14.00">output (32,):</text>
<text xml:space="preserve" text-anchor="start" x="969.31" y="-41.9" font-family="Times New Roman,serif" font-size="14.00">fixed&lt;16,6,TRN,WRAP,0&gt;</text>
</g>
<!-- 3&#45;&gt;4 -->
<g id="edge3" class="edge">
<title>3&#45;&gt;4</title>
<path fill="none" stroke="black" d="M849.77,-76.5C857.79,-76.5 865.87,-76.5 873.88,-76.5"/>
<polygon fill="black" stroke="black" points="873.66,-80 883.66,-76.5 873.66,-73 873.66,-80"/>
</g>
<!-- 5 -->
<g id="node5" class="node">
<title>5</title>
<polygon fill="none" stroke="black" points="1170.32,-0.5 1170.32,-152.5 1446.14,-152.5 1446.14,-0.5 1170.32,-0.5"/>
<text xml:space="preserve" text-anchor="start" x="1283.73" y="-136.9" font-family="Times New Roman,serif" font-weight="bold" font-size="14.00">Dense</text>
<text xml:space="preserve" text-anchor="start" x="1283.73" y="-122.9" font-family="Times New Roman,serif" font-size="14.00">model_3</text>
<polyline fill="none" stroke="black" points="1170.32,-116.5 1446.14,-116.5"/>
<text xml:space="preserve" text-anchor="start" x="1205.82" y="-99.9" font-family="Times New Roman,serif" font-size="14.00">input: (32,)</text>
<polyline fill="none" stroke="black" points="1304.31,-91.7 1304.31,-116.5"/>
<text xml:space="preserve" text-anchor="start" x="1339.81" y="-99.9" font-family="Times New Roman,serif" font-size="14.00">output: (16,)</text>
<polyline fill="none" stroke="black" points="1170.32,-91.7 1446.14,-91.7"/>
<text xml:space="preserve" text-anchor="start" x="1180.32" y="-73.1" font-family="Times New Roman,serif" font-size="14.00">weight (16, 32):</text>
<text xml:space="preserve" text-anchor="start" x="1274.13" y="-73.1" font-family="Times New Roman,serif" font-size="14.00">fixed&lt;16,6,TRN,WRAP,0&gt;</text>
<text xml:space="preserve" text-anchor="start" x="1180.32" y="-52.3" font-family="Times New Roman,serif" font-size="14.00">bias (16,):</text>
<text xml:space="preserve" text-anchor="start" x="1274.13" y="-52.3" font-family="Times New Roman,serif" font-size="14.00">fixed&lt;16,6,TRN,WRAP,0&gt;</text>
<text xml:space="preserve" text-anchor="start" x="1180.32" y="-31.5" font-family="Times New Roman,serif" font-size="14.00">output (16,):</text>
<text xml:space="preserve" text-anchor="start" x="1274.13" y="-31.5" font-family="Times New Roman,serif" font-size="14.00">fixed&lt;38,18,TRN,WRAP,0&gt;</text>
<text xml:space="preserve" text-anchor="start" x="1180.32" y="-10.7" font-family="Times New Roman,serif" font-size="14.00">accum:</text>
<text xml:space="preserve" text-anchor="start" x="1274.13" y="-10.7" font-family="Times New Roman,serif" font-size="14.00">fixed&lt;16,6,TRN,WRAP,0&gt;</text>
</g>
<!-- 4&#45;&gt;5 -->
<g id="edge4" class="edge">
<title>4&#45;&gt;5</title>
<path fill="none" stroke="black" d="M1134.8,-76.5C1142.68,-76.5 1150.64,-76.5 1158.61,-76.5"/>
<polygon fill="black" stroke="black" points="1158.35,-80 1168.35,-76.5 1158.35,-73 1158.35,-80"/>
</g>
<!-- 6 -->
<g id="node6" class="node">
<title>6</title>
<polygon fill="none" stroke="black" points="1482.14,-31.7 1482.14,-121.3 1731.14,-121.3 1731.14,-31.7 1482.14,-31.7"/>
<text xml:space="preserve" text-anchor="start" x="1575.53" y="-105.7" font-family="Times New Roman,serif" font-weight="bold" font-size="14.00">Activation</text>
<text xml:space="preserve" text-anchor="start" x="1582.14" y="-91.7" font-family="Times New Roman,serif" font-size="14.00">model_4</text>
<polyline fill="none" stroke="black" points="1482.14,-85.3 1731.14,-85.3"/>
<text xml:space="preserve" text-anchor="start" x="1511.14" y="-68.7" font-family="Times New Roman,serif" font-size="14.00">input: (16,)</text>
<polyline fill="none" stroke="black" points="1603.13,-60.5 1603.13,-85.3"/>
<text xml:space="preserve" text-anchor="start" x="1632.13" y="-68.7" font-family="Times New Roman,serif" font-size="14.00">output: (16,)</text>
<polyline fill="none" stroke="black" points="1482.14,-60.5 1731.14,-60.5"/>
<text xml:space="preserve" text-anchor="start" x="1492.14" y="-41.9" font-family="Times New Roman,serif" font-size="14.00">output (16,):</text>
<text xml:space="preserve" text-anchor="start" x="1566.13" y="-41.9" font-family="Times New Roman,serif" font-size="14.00">fixed&lt;16,6,TRN,WRAP,0&gt;</text>
</g>
<!-- 5&#45;&gt;6 -->
<g id="edge5" class="edge">
<title>5&#45;&gt;6</title>
<path fill="none" stroke="black" d="M1446.59,-76.5C1454.61,-76.5 1462.69,-76.5 1470.71,-76.5"/>
<polygon fill="black" stroke="black" points="1470.48,-80 1480.48,-76.5 1470.48,-73 1470.48,-80"/>
</g>
<!-- 7 -->
<g id="node7" class="node">
<title>7</title>
<polygon fill="none" stroke="black" points="1767.14,-0.5 1767.14,-152.5 2042.96,-152.5 2042.96,-0.5 1767.14,-0.5"/>
<text xml:space="preserve" text-anchor="start" x="1880.55" y="-136.9" font-family="Times New Roman,serif" font-weight="bold" font-size="14.00">Dense</text>
<text xml:space="preserve" text-anchor="start" x="1880.55" y="-122.9" font-family="Times New Roman,serif" font-size="14.00">model_5</text>
<polyline fill="none" stroke="black" points="1767.14,-116.5 2042.96,-116.5"/>
<text xml:space="preserve" text-anchor="start" x="1802.64" y="-99.9" font-family="Times New Roman,serif" font-size="14.00">input: (16,)</text>
<polyline fill="none" stroke="black" points="1901.13,-91.7 1901.13,-116.5"/>
<text xml:space="preserve" text-anchor="start" x="1936.63" y="-99.9" font-family="Times New Roman,serif" font-size="14.00">output: (10,)</text>
<polyline fill="none" stroke="black" points="1767.14,-91.7 2042.96,-91.7"/>
<text xml:space="preserve" text-anchor="start" x="1777.14" y="-73.1" font-family="Times New Roman,serif" font-size="14.00">weight (10, 16):</text>
<text xml:space="preserve" text-anchor="start" x="1870.95" y="-73.1" font-family="Times New Roman,serif" font-size="14.00">fixed&lt;16,6,TRN,WRAP,0&gt;</text>
<text xml:space="preserve" text-anchor="start" x="1777.14" y="-52.3" font-family="Times New Roman,serif" font-size="14.00">bias (10,):</text>
<text xml:space="preserve" text-anchor="start" x="1870.95" y="-52.3" font-family="Times New Roman,serif" font-size="14.00">fixed&lt;16,6,TRN,WRAP,0&gt;</text>
<text xml:space="preserve" text-anchor="start" x="1777.14" y="-31.5" font-family="Times New Roman,serif" font-size="14.00">output (10,):</text>
<text xml:space="preserve" text-anchor="start" x="1870.95" y="-31.5" font-family="Times New Roman,serif" font-size="14.00">fixed&lt;37,17,TRN,WRAP,0&gt;</text>
<text xml:space="preserve" text-anchor="start" x="1777.14" y="-10.7" font-family="Times New Roman,serif" font-size="14.00">accum:</text>
<text xml:space="preserve" text-anchor="start" x="1870.95" y="-10.7" font-family="Times New Roman,serif" font-size="14.00">fixed&lt;16,6,TRN,WRAP,0&gt;</text>
</g>
<!-- 6&#45;&gt;7 -->
<g id="edge6" class="edge">
<title>6&#45;&gt;7</title>
<path fill="none" stroke="black" d="M1731.62,-76.5C1739.5,-76.5 1747.46,-76.5 1755.43,-76.5"/>
<polygon fill="black" stroke="black" points="1755.17,-80 1765.17,-76.5 1755.17,-73 1755.17,-80"/>
</g>
</g>
</svg>
