M48
; DRILL file {KiCad 9.0.6} date 2026-02-05T23:01:50+0100
; FORMAT={-:-/ absolute / metric / decimal}
; #@! TF.CreationDate,2026-02-05T23:01:50+01:00
; #@! TF.GenerationSoftware,Kicad,Pcbnew,9.0.6
; #@! TF.FileFunction,NonPlated,1,2,NPTH
FMAT,2
METRIC
; #@! TA.AperFunction,NonPlated,NPTH,ComponentDrill
T1C1.000
%
G90
G05
T1
X99.312Y-61.062
X99.312Y-71.638
X99.312Y-82.087
X99.312Y-92.587
X99.312Y-102.887
X102.812Y-61.062
X102.812Y-71.638
X102.812Y-82.087
X102.812Y-92.587
X102.812Y-102.887
X109.812Y-61.062
X109.812Y-82.037
X109.812Y-92.638
X109.812Y-102.887
X109.822Y-71.638
X113.312Y-61.062
X113.312Y-82.037
X113.312Y-92.638
X113.312Y-102.887
X113.322Y-71.638
X120.312Y-61.037
X120.312Y-71.638
X120.312Y-81.888
X120.312Y-92.638
X120.312Y-102.887
X123.812Y-61.037
X123.812Y-71.638
X123.812Y-81.888
X123.812Y-92.638
X123.812Y-102.887
X130.812Y-61.062
X130.812Y-71.638
X130.812Y-81.888
X130.812Y-92.638
X130.812Y-102.887
X134.312Y-61.062
X134.312Y-71.638
X134.312Y-81.888
X134.312Y-92.638
X134.312Y-102.887
X141.312Y-61.037
X141.312Y-71.638
X141.312Y-81.888
X141.312Y-92.638
X141.312Y-102.887
X144.812Y-61.037
X144.812Y-71.638
X144.812Y-81.888
X144.812Y-92.638
X144.812Y-102.887
M30
