M48
; DRILL file {KiCad 9.0.6} date 2026-02-05T23:01:50+0100
; FORMAT={-:-/ absolute / metric / decimal}
; #@! TF.CreationDate,2026-02-05T23:01:50+01:00
; #@! TF.GenerationSoftware,Kicad,Pcbnew,9.0.6
; #@! TF.FileFunction,Plated,1,2,PTH
FMAT,2
METRIC
; #@! TA.AperFunction,Plated,PTH,ViaDrill
T1C0.300
; #@! TA.AperFunction,Plated,PTH,ComponentDrill
T2C0.500
; #@! TA.AperFunction,Plated,PTH,ComponentDrill
T3C0.800
; #@! TA.AperFunction,Plated,PTH,ComponentDrill
T4C1.000
; #@! TA.AperFunction,Plated,PTH,ComponentDrill
T5C3.200
%
G90
G05
T1
X90.212Y-66.2
X90.212Y-88.45
X91.462Y-97.2
X91.712Y-112.45
X91.962Y-83.2
X100.712Y-71.95
X100.962Y-92.95
X101.75Y-65.925
X101.75Y-76.325
X101.75Y-86.925
X101.75Y-107.725
X101.762Y-97.325
X102.812Y-63.737
X102.812Y-74.337
X102.812Y-84.737
X102.812Y-95.337
X102.812Y-105.537
X103.212Y-55.7
X104.212Y-67.95
X104.462Y-89.2
X104.712Y-99.7
X104.962Y-139.95
X105.55Y-93.6
X105.575Y-62.175
X105.575Y-72.775
X105.612Y-83.138
X105.637Y-103.912
X109.712Y-72.95
X109.962Y-62.7
X110.212Y-83.45
X110.462Y-93.95
X112.35Y-65.925
X112.35Y-76.325
X112.35Y-107.525
X112.362Y-97.325
X112.4Y-86.725
X112.462Y-50.7
X113.212Y-74.337
X113.212Y-84.737
X113.212Y-95.337
X113.212Y-105.537
X113.312Y-63.737
X116.062Y-83.087
X116.075Y-62.275
X116.095Y-103.855
X116.112Y-72.638
X116.212Y-93.737
X116.962Y-78.45
X116.962Y-99.2
X117.212Y-67.95
X119.212Y-72.7
X119.712Y-119.45
X120.462Y-62.7
X120.462Y-83.45
X122.75Y-65.925
X122.75Y-76.125
X122.75Y-107.525
X122.762Y-97.125
X122.95Y-86.725
X123.712Y-115.2
X123.812Y-63.737
X123.812Y-74.337
X123.812Y-84.537
X123.812Y-95.337
X123.812Y-105.537
X126.412Y-103.938
X126.512Y-83.037
X126.612Y-62.137
X126.662Y-72.688
X126.662Y-93.688
X127.462Y-66.45
X130.963Y-93.95
X131.213Y-62.7
X131.213Y-83.2
X132.963Y-53.95
X133.35Y-65.925
X133.35Y-76.325
X133.35Y-86.725
X133.35Y-107.525
X133.362Y-97.325
X134.213Y-74.337
X134.213Y-84.537
X134.213Y-95.337
X134.312Y-63.737
X134.412Y-105.537
X136.963Y-82.987
X136.963Y-103.987
X137.025Y-93.725
X137.062Y-62.087
X137.112Y-72.638
X139.713Y-120.95
X141.713Y-83.45
X142.963Y-61.45
X143.75Y-65.925
X143.75Y-76.125
X143.75Y-86.725
X143.762Y-97.325
X143.95Y-107.525
X144.713Y-132.45
X144.812Y-63.737
X144.812Y-74.337
X144.812Y-84.537
X144.812Y-95.337
X144.812Y-105.537
X146.463Y-56.7
X149.463Y-81.95
X151.713Y-63.7
X158.112Y-59.4
X158.963Y-121.2
X158.963Y-126.2
X159.8Y-99.4
X160.0Y-71.7
X160.612Y-59.0
X160.612Y-60.1
X160.912Y-55.9
X160.912Y-62.9
X162.612Y-112.9
X164.963Y-128.7
X167.3Y-85.7
X175.463Y-117.2
X175.963Y-60.2
X176.713Y-73.45
X177.713Y-82.45
X180.713Y-131.95
X183.463Y-64.95
T2
X88.312Y-53.7
X88.312Y-143.7
X89.015Y-52.003
X89.015Y-55.397
X89.015Y-142.003
X89.015Y-145.397
X90.712Y-51.3
X90.712Y-56.1
X90.712Y-141.3
X90.712Y-146.1
X92.41Y-52.003
X92.41Y-55.397
X92.41Y-142.003
X92.41Y-145.397
X93.112Y-53.7
X93.112Y-143.7
X178.312Y-53.7
X178.312Y-143.7
X179.015Y-52.003
X179.015Y-55.397
X179.015Y-142.003
X179.015Y-145.397
X180.713Y-51.3
X180.713Y-56.1
X180.713Y-141.3
X180.713Y-146.1
X182.41Y-52.003
X182.41Y-55.397
X182.41Y-142.003
X182.41Y-145.397
X183.112Y-53.7
X183.112Y-143.7
T3
X114.442Y-119.81
X114.442Y-122.35
X114.442Y-124.89
X114.442Y-127.43
X114.442Y-132.51
X114.442Y-137.59
X129.683Y-119.81
X129.683Y-124.89
X129.683Y-127.43
X129.683Y-129.97
X129.683Y-132.51
X129.683Y-135.05
X129.683Y-137.59
T4
X155.343Y-51.25
X155.343Y-53.79
X155.343Y-56.33
X155.343Y-58.87
X155.343Y-61.41
X155.343Y-63.95
X155.343Y-66.49
X155.343Y-69.03
X155.343Y-71.57
X155.343Y-74.11
X155.343Y-76.65
X155.343Y-79.19
X155.343Y-81.73
X155.343Y-84.27
X155.343Y-86.81
X155.343Y-89.35
X155.343Y-91.89
X155.343Y-94.43
X155.343Y-96.97
X155.343Y-99.51
X155.343Y-102.05
X155.343Y-104.59
X155.343Y-107.13
X155.343Y-109.67
X170.582Y-51.25
X170.582Y-53.79
X170.582Y-56.33
X170.582Y-58.87
X170.582Y-61.41
X170.582Y-63.95
X170.582Y-66.49
X170.582Y-69.03
X170.582Y-71.57
X170.582Y-74.11
X170.582Y-76.65
X170.582Y-79.19
X170.582Y-81.73
X170.582Y-84.27
X170.582Y-86.81
X170.582Y-89.35
X170.582Y-91.89
X170.582Y-94.43
X170.582Y-96.97
X170.582Y-99.51
X170.582Y-102.05
X170.582Y-104.59
X170.582Y-107.13
X170.582Y-109.67
T5
X90.712Y-53.7
X90.712Y-143.7
X180.713Y-53.7
X180.713Y-143.7
M30
