%TF.GenerationSoftware,KiCad,Pcbnew,9.0.6*%
%TF.CreationDate,2026-02-05T23:01:48+01:00*%
%TF.ProjectId,BrakeoutBoard,4272616b-656f-4757-9442-6f6172642e6b,rev?*%
%TF.SameCoordinates,Original*%
%TF.FileFunction,Legend,Top*%
%TF.FilePolarity,Positive*%
%FSLAX46Y46*%
G04 Gerber Fmt 4.6, Leading zero omitted, Abs format (unit mm)*
G04 Created by KiCad (PCBNEW 9.0.6) date 2026-02-05 23:01:48*
%MOMM*%
%LPD*%
G01*
G04 APERTURE LIST*
%ADD10C,0.150000*%
%ADD11C,0.300000*%
%ADD12C,0.100000*%
%ADD13C,0.120000*%
%ADD14C,0.000000*%
G04 APERTURE END LIST*
D10*
G36*
X117118048Y-142733343D02*
G01*
X117232250Y-142762607D01*
X117331088Y-142809476D01*
X117417001Y-142873998D01*
X117486974Y-142954499D01*
X117537787Y-143049854D01*
X117569693Y-143163038D01*
X117581010Y-143298126D01*
X117571614Y-143413376D01*
X117544132Y-143518852D01*
X117498792Y-143616411D01*
X117434709Y-143707477D01*
X117355936Y-143780719D01*
X117257849Y-143834674D01*
X117136231Y-143869172D01*
X116985302Y-143881622D01*
X116354057Y-143881622D01*
X116354057Y-144730000D01*
X116082214Y-144730000D01*
X116082214Y-143652034D01*
X116354057Y-143652034D01*
X116895054Y-143652034D01*
X117015021Y-143642469D01*
X117112677Y-143615885D01*
X117192298Y-143574242D01*
X117239772Y-143530861D01*
X117275016Y-143473201D01*
X117297930Y-143397774D01*
X117306359Y-143299591D01*
X117294807Y-143192082D01*
X117263071Y-143109615D01*
X117212890Y-143046315D01*
X117142350Y-142998928D01*
X117042889Y-142968556D01*
X116895054Y-142956674D01*
X116354057Y-142956674D01*
X116354057Y-143652034D01*
X116082214Y-143652034D01*
X116082214Y-142723056D01*
X116985302Y-142723056D01*
X117118048Y-142733343D01*
G37*
G36*
X117896328Y-143266741D02*
G01*
X118129946Y-143266741D01*
X118129946Y-143519532D01*
X118173413Y-143445616D01*
X118270630Y-143339891D01*
X118350269Y-143280404D01*
X118435515Y-143245693D01*
X118528917Y-143234012D01*
X118551998Y-143235355D01*
X118608052Y-143240851D01*
X118608052Y-143500359D01*
X118567752Y-143494986D01*
X118527452Y-143493520D01*
X118436102Y-143501712D01*
X118359876Y-143524821D01*
X118295835Y-143561780D01*
X118241932Y-143613077D01*
X118186304Y-143697189D01*
X118153343Y-143788128D01*
X118142158Y-143888339D01*
X118142158Y-144730000D01*
X117896328Y-144730000D01*
X117896328Y-143266741D01*
G37*
G36*
X119533000Y-143242045D02*
G01*
X119633296Y-143266208D01*
X119732790Y-143307163D01*
X119824907Y-143362362D01*
X119898319Y-143425350D01*
X119955417Y-143496329D01*
X120016254Y-143614331D01*
X120053847Y-143754494D01*
X120069156Y-143870630D01*
X120075707Y-144076894D01*
X119003237Y-144076894D01*
X119019316Y-144222450D01*
X119055128Y-144339758D01*
X119108383Y-144434221D01*
X119162575Y-144491669D01*
X119229429Y-144533200D01*
X119311609Y-144559404D01*
X119413076Y-144568799D01*
X119507438Y-144560305D01*
X119588566Y-144536035D01*
X119658982Y-144496730D01*
X119720456Y-144441671D01*
X119776362Y-144362323D01*
X119813390Y-144270945D01*
X120055191Y-144270945D01*
X120035899Y-144352296D01*
X119991687Y-144450586D01*
X119932885Y-144542707D01*
X119870787Y-144612519D01*
X119791053Y-144676888D01*
X119699263Y-144726003D01*
X119593449Y-144760041D01*
X119501487Y-144776143D01*
X119392560Y-144781901D01*
X119260025Y-144769256D01*
X119140378Y-144732306D01*
X119030836Y-144670988D01*
X118929475Y-144583210D01*
X118849413Y-144478854D01*
X118790387Y-144354154D01*
X118752933Y-144205056D01*
X118739576Y-144026336D01*
X118750359Y-143881622D01*
X119010075Y-143881622D01*
X119822916Y-143881622D01*
X119796257Y-143731512D01*
X119753306Y-143626022D01*
X119695071Y-143549110D01*
X119621748Y-143494655D01*
X119530370Y-143460648D01*
X119415763Y-143448457D01*
X119308112Y-143462269D01*
X119214590Y-143502592D01*
X119131586Y-143570823D01*
X119067928Y-143658212D01*
X119027334Y-143760526D01*
X119010075Y-143881622D01*
X118750359Y-143881622D01*
X118752619Y-143851294D01*
X118789754Y-143700041D01*
X118849192Y-143568625D01*
X118930819Y-143453953D01*
X119033823Y-143357698D01*
X119149547Y-143289830D01*
X119280582Y-143248393D01*
X119430784Y-143234012D01*
X119533000Y-143242045D01*
G37*
G36*
X121569496Y-144730000D02*
G01*
X121348212Y-144730000D01*
X121348212Y-144526423D01*
X121285042Y-144610865D01*
X121217317Y-144675105D01*
X121144636Y-144721817D01*
X121064317Y-144754634D01*
X120975144Y-144774885D01*
X120875480Y-144781901D01*
X120758427Y-144769302D01*
X120650384Y-144731975D01*
X120548782Y-144668808D01*
X120451963Y-144576371D01*
X120376073Y-144469268D01*
X120320429Y-144344688D01*
X120285422Y-144199361D01*
X120273055Y-144029145D01*
X120273983Y-144015467D01*
X120532563Y-144015467D01*
X120544586Y-144169380D01*
X120578490Y-144299103D01*
X120632336Y-144408942D01*
X120688704Y-144477345D01*
X120758659Y-144526069D01*
X120844941Y-144556551D01*
X120952050Y-144567456D01*
X121033578Y-144558282D01*
X121106222Y-144531430D01*
X121172168Y-144486359D01*
X121232685Y-144420544D01*
X121277809Y-144345525D01*
X121312216Y-144252806D01*
X121334606Y-144138763D01*
X121342717Y-143999103D01*
X121334142Y-143857504D01*
X121310771Y-143745345D01*
X121275319Y-143657189D01*
X121229266Y-143588531D01*
X121146430Y-143513599D01*
X121054311Y-143470061D01*
X120949241Y-143455296D01*
X120859471Y-143464454D01*
X120780772Y-143490964D01*
X120710775Y-143534732D01*
X120647968Y-143597445D01*
X120600685Y-143670452D01*
X120564631Y-143761719D01*
X120541112Y-143875155D01*
X120532563Y-144015467D01*
X120273983Y-144015467D01*
X120283810Y-143870606D01*
X120315013Y-143726865D01*
X120365781Y-143595677D01*
X120436209Y-143475202D01*
X120507606Y-143390363D01*
X120588383Y-143325769D01*
X120679701Y-143279443D01*
X120783597Y-143250831D01*
X120902835Y-143240851D01*
X121012936Y-143249403D01*
X121105743Y-143273518D01*
X121184325Y-143311803D01*
X121249093Y-143363199D01*
X121333191Y-143455296D01*
X121333191Y-142716217D01*
X121569496Y-142716217D01*
X121569496Y-144730000D01*
G37*
G36*
X121932197Y-143273579D02*
G01*
X122182179Y-143273579D01*
X122182179Y-144730000D01*
X121932197Y-144730000D01*
X121932197Y-143273579D01*
G37*
G36*
X121932197Y-142723056D02*
G01*
X122182179Y-142723056D01*
X122182179Y-143001737D01*
X121932197Y-143001737D01*
X121932197Y-142723056D01*
G37*
G36*
X123241367Y-143232673D02*
G01*
X123347947Y-143256248D01*
X123440149Y-143293722D01*
X123520142Y-143344654D01*
X123585524Y-143409857D01*
X123639111Y-143497032D01*
X123680259Y-143611137D01*
X123706621Y-143758646D01*
X123467507Y-143758646D01*
X123445971Y-143671382D01*
X123412605Y-143597156D01*
X123367734Y-143533942D01*
X123309668Y-143486607D01*
X123228904Y-143455891D01*
X123117752Y-143444427D01*
X123027950Y-143453866D01*
X122951755Y-143480860D01*
X122886250Y-143525034D01*
X122829682Y-143588147D01*
X122781673Y-143673893D01*
X122746693Y-143775255D01*
X122724169Y-143896533D01*
X122716094Y-144041357D01*
X122727262Y-144185549D01*
X122758821Y-144307725D01*
X122809029Y-144411751D01*
X122861692Y-144477033D01*
X122926169Y-144523152D01*
X123004760Y-144551778D01*
X123101387Y-144561960D01*
X123199423Y-144550823D01*
X123278868Y-144519431D01*
X123343920Y-144468415D01*
X123395568Y-144401358D01*
X123437037Y-144317103D01*
X123467507Y-144212205D01*
X123706621Y-144212205D01*
X123675764Y-144357057D01*
X123630397Y-144473152D01*
X123572223Y-144565461D01*
X123501579Y-144637798D01*
X123416533Y-144695250D01*
X123319784Y-144737107D01*
X123209228Y-144763224D01*
X123082214Y-144772376D01*
X122942932Y-144758631D01*
X122822579Y-144719137D01*
X122717277Y-144654507D01*
X122624503Y-144562693D01*
X122551171Y-144453760D01*
X122498105Y-144331780D01*
X122465226Y-144194406D01*
X122453777Y-144038670D01*
X122467099Y-143845213D01*
X122504325Y-143684290D01*
X122562598Y-143550349D01*
X122640867Y-143438932D01*
X122741750Y-143344400D01*
X122853161Y-143278247D01*
X122977358Y-143238177D01*
X123117752Y-143224364D01*
X123241367Y-143232673D01*
G37*
G36*
X124001789Y-142858244D02*
G01*
X124250428Y-142858244D01*
X124250428Y-143266741D01*
X124484046Y-143266741D01*
X124484046Y-143467630D01*
X124250428Y-143467630D01*
X124250428Y-144422620D01*
X124256950Y-144470482D01*
X124274407Y-144503244D01*
X124302329Y-144525080D01*
X124336069Y-144535588D01*
X124397950Y-144540101D01*
X124436174Y-144539490D01*
X124484046Y-144535949D01*
X124484046Y-144730000D01*
X124395874Y-144747707D01*
X124296834Y-144753203D01*
X124185853Y-144741463D01*
X124111487Y-144710991D01*
X124063216Y-144665153D01*
X124030264Y-144603525D01*
X124009309Y-144528316D01*
X124001789Y-144436297D01*
X124001789Y-143467630D01*
X123803585Y-143467630D01*
X123803585Y-143266741D01*
X124001789Y-143266741D01*
X124001789Y-142858244D01*
G37*
G36*
X124730243Y-143273579D02*
G01*
X124980225Y-143273579D01*
X124980225Y-144730000D01*
X124730243Y-144730000D01*
X124730243Y-143273579D01*
G37*
G36*
X124730243Y-142723056D02*
G01*
X124980225Y-142723056D01*
X124980225Y-143001737D01*
X124730243Y-143001737D01*
X124730243Y-142723056D01*
G37*
G36*
X126079983Y-143236556D02*
G01*
X126204015Y-143272003D01*
X126316659Y-143330331D01*
X126419915Y-143412920D01*
X126501833Y-143512697D01*
X126562528Y-143634988D01*
X126601347Y-143784548D01*
X126615309Y-143967595D01*
X126603540Y-144144240D01*
X126569969Y-144298423D01*
X126516327Y-144433556D01*
X126443118Y-144552435D01*
X126369261Y-144633251D01*
X126281465Y-144696521D01*
X126177666Y-144743189D01*
X126054793Y-144772742D01*
X125908959Y-144783244D01*
X125761327Y-144769628D01*
X125634694Y-144730724D01*
X125524982Y-144667645D01*
X125429388Y-144579057D01*
X125354265Y-144472717D01*
X125299022Y-144348266D01*
X125264167Y-144202293D01*
X125251823Y-144030488D01*
X125252117Y-144026336D01*
X125504615Y-144026336D01*
X125516961Y-144179155D01*
X125551759Y-144307481D01*
X125607075Y-144415781D01*
X125664501Y-144482737D01*
X125735667Y-144530656D01*
X125823394Y-144560721D01*
X125932162Y-144571486D01*
X126050615Y-144558579D01*
X126142336Y-144522954D01*
X126213544Y-144466318D01*
X126267629Y-144386350D01*
X126317552Y-144260112D01*
X126348037Y-144123471D01*
X126358488Y-143974434D01*
X126350248Y-143838780D01*
X126327599Y-143729225D01*
X126292909Y-143641165D01*
X126231831Y-143552924D01*
X126154301Y-143491077D01*
X126057276Y-143452680D01*
X125934971Y-143438932D01*
X125825914Y-143450605D01*
X125737634Y-143483384D01*
X125665561Y-143536207D01*
X125607075Y-143611123D01*
X125551524Y-143729840D01*
X125516818Y-143866980D01*
X125504615Y-144026336D01*
X125252117Y-144026336D01*
X125264864Y-143846163D01*
X125301656Y-143689724D01*
X125359884Y-143556552D01*
X125438913Y-143442962D01*
X125539865Y-143347838D01*
X125655193Y-143280350D01*
X125787763Y-143238856D01*
X125941810Y-143224364D01*
X126079983Y-143236556D01*
G37*
G36*
X126906935Y-143266741D02*
G01*
X127140553Y-143266741D01*
X127140553Y-143474469D01*
X127214299Y-143393833D01*
X127287448Y-143333277D01*
X127360494Y-143290066D01*
X127481572Y-143248360D01*
X127618659Y-143234012D01*
X127743867Y-143244153D01*
X127844362Y-143272190D01*
X127925008Y-143315891D01*
X127989393Y-143374977D01*
X128039489Y-143451144D01*
X128070480Y-143532966D01*
X128091612Y-143643839D01*
X128099573Y-143791374D01*
X128099573Y-144730000D01*
X127849590Y-144730000D01*
X127849590Y-143807739D01*
X127838670Y-143681431D01*
X127810023Y-143591950D01*
X127770824Y-143532446D01*
X127719917Y-143490697D01*
X127655130Y-143464669D01*
X127572253Y-143455296D01*
X127488905Y-143460201D01*
X127428760Y-143473004D01*
X127365142Y-143499239D01*
X127306212Y-143538837D01*
X127251195Y-143593293D01*
X127199621Y-143668587D01*
X127171328Y-143742892D01*
X127158226Y-143828347D01*
X127152888Y-143963565D01*
X127152888Y-144730000D01*
X126906935Y-144730000D01*
X126906935Y-143266741D01*
G37*
D11*
G36*
X145253866Y-145070145D02*
G01*
X145353394Y-145092937D01*
X145452585Y-145137559D01*
X145537722Y-145200979D01*
X145610581Y-145284821D01*
X145657798Y-145362576D01*
X145693497Y-145443790D01*
X145718109Y-145529094D01*
X145739895Y-145659197D01*
X145746869Y-145779412D01*
X145738595Y-145930897D01*
X145714922Y-146065098D01*
X145677147Y-146184254D01*
X145625969Y-146290307D01*
X145565355Y-146377757D01*
X145496565Y-146447326D01*
X145419094Y-146501025D01*
X145331748Y-146539922D01*
X145232729Y-146564070D01*
X145119745Y-146572500D01*
X144469082Y-146572500D01*
X144469082Y-146314579D01*
X144775454Y-146314579D01*
X145066439Y-146314579D01*
X145151563Y-146305399D01*
X145222933Y-146279240D01*
X145283548Y-146236490D01*
X145335138Y-146175304D01*
X145377940Y-146091830D01*
X145403804Y-146009000D01*
X145420277Y-145912693D01*
X145426117Y-145800753D01*
X145416622Y-145646042D01*
X145391315Y-145529449D01*
X145353852Y-145442907D01*
X145312266Y-145391341D01*
X145253832Y-145352864D01*
X145174087Y-145327526D01*
X145066439Y-145318068D01*
X144775454Y-145318068D01*
X144775454Y-146314579D01*
X144469082Y-146314579D01*
X144469082Y-145060148D01*
X145119745Y-145060148D01*
X145253866Y-145070145D01*
G37*
G36*
X146493170Y-145429639D02*
G01*
X146576405Y-145447213D01*
X146652430Y-145475788D01*
X146721872Y-145516775D01*
X146783127Y-145571202D01*
X146836894Y-145640560D01*
X146874957Y-145709058D01*
X146903402Y-145785419D01*
X146921982Y-145870820D01*
X146929551Y-145956019D01*
X146931233Y-146091830D01*
X146166814Y-146091830D01*
X146176983Y-146176619D01*
X146198779Y-146242186D01*
X146230582Y-146292565D01*
X146272327Y-146330607D01*
X146314448Y-146353887D01*
X146362494Y-146368206D01*
X146417865Y-146373197D01*
X146475953Y-146367077D01*
X146524057Y-146349744D01*
X146564319Y-146321632D01*
X146592303Y-146289749D01*
X146618633Y-146244237D01*
X146916853Y-146244237D01*
X146901649Y-146307120D01*
X146868405Y-146373623D01*
X146813355Y-146445371D01*
X146752848Y-146502658D01*
X146683877Y-146547356D01*
X146605237Y-146580046D01*
X146515225Y-146600496D01*
X146411728Y-146607670D01*
X146307537Y-146598953D01*
X146211144Y-146573324D01*
X146120930Y-146530782D01*
X146035656Y-146470284D01*
X145980328Y-146412770D01*
X145935850Y-146342007D01*
X145902238Y-146255673D01*
X145880533Y-146150680D01*
X145872715Y-146023319D01*
X145881739Y-145898389D01*
X146173958Y-145898389D01*
X146627883Y-145898389D01*
X146615947Y-145824218D01*
X146592204Y-145767174D01*
X146557725Y-145723542D01*
X146512696Y-145690602D01*
X146461249Y-145670777D01*
X146401470Y-145663916D01*
X146336638Y-145671499D01*
X146285226Y-145692726D01*
X146244117Y-145727114D01*
X146212673Y-145772127D01*
X146189042Y-145828402D01*
X146173958Y-145898389D01*
X145881739Y-145898389D01*
X145883223Y-145877841D01*
X145912489Y-145758086D01*
X145958223Y-145659465D01*
X146019719Y-145578370D01*
X146098074Y-145511107D01*
X146186367Y-145463233D01*
X146286572Y-145433818D01*
X146401470Y-145423581D01*
X146493170Y-145429639D01*
G37*
G36*
X147354842Y-146203204D02*
G01*
X147370976Y-146274284D01*
X147394775Y-146314487D01*
X147435515Y-146344355D01*
X147499357Y-146365071D01*
X147595635Y-146373197D01*
X147676597Y-146366062D01*
X147732380Y-146347552D01*
X147761265Y-146326894D01*
X147777563Y-146301758D01*
X147783122Y-146270615D01*
X147772836Y-146227224D01*
X147742180Y-146195785D01*
X147674125Y-146169716D01*
X147437823Y-146109140D01*
X147312504Y-146071696D01*
X147226522Y-146032712D01*
X147170377Y-145993369D01*
X147128231Y-145942707D01*
X147101979Y-145878120D01*
X147092525Y-145795349D01*
X147100071Y-145721958D01*
X147122313Y-145654764D01*
X147159672Y-145592197D01*
X147213883Y-145533216D01*
X147277203Y-145487291D01*
X147353432Y-145453163D01*
X147445152Y-145431378D01*
X147555609Y-145423581D01*
X147692889Y-145433819D01*
X147804867Y-145462238D01*
X147896236Y-145506563D01*
X147952951Y-145553247D01*
X147997088Y-145614383D01*
X148029037Y-145692841D01*
X148047453Y-145792876D01*
X147755461Y-145792876D01*
X147743816Y-145741379D01*
X147723679Y-145704949D01*
X147687235Y-145674193D01*
X147634544Y-145653978D01*
X147559731Y-145646331D01*
X147472398Y-145654981D01*
X147423993Y-145675640D01*
X147392986Y-145708487D01*
X147383510Y-145744150D01*
X147388445Y-145774513D01*
X147402491Y-145797800D01*
X147426557Y-145815774D01*
X147496019Y-145839606D01*
X147730823Y-145895000D01*
X147844161Y-145929133D01*
X147929437Y-145970708D01*
X147992132Y-146018465D01*
X148039861Y-146079289D01*
X148068383Y-146148782D01*
X148078228Y-146229674D01*
X148070248Y-146310526D01*
X148047149Y-146381635D01*
X148009089Y-146445035D01*
X147954763Y-146502066D01*
X147891119Y-146544909D01*
X147809247Y-146577909D01*
X147704916Y-146599679D01*
X147573012Y-146607670D01*
X147439013Y-146599111D01*
X147332848Y-146575749D01*
X147249301Y-146540191D01*
X147184116Y-146493731D01*
X147129069Y-146432606D01*
X147090335Y-146364844D01*
X147066776Y-146289055D01*
X147058636Y-146203204D01*
X147354842Y-146203204D01*
G37*
G36*
X148594069Y-145323930D02*
G01*
X148297955Y-145323930D01*
X148297955Y-145060148D01*
X148594069Y-145060148D01*
X148594069Y-145323930D01*
G37*
G36*
X148297955Y-145452890D02*
G01*
X148594069Y-145452890D01*
X148594069Y-146572500D01*
X148297955Y-146572500D01*
X148297955Y-145452890D01*
G37*
G36*
X149364534Y-145430448D02*
G01*
X149430387Y-145449593D01*
X149495428Y-145486607D01*
X149552594Y-145540425D01*
X149602578Y-145613816D01*
X149602578Y-145452890D01*
X149886419Y-145452890D01*
X149886419Y-146514339D01*
X149876795Y-146657814D01*
X149851311Y-146763837D01*
X149813695Y-146840861D01*
X149759697Y-146904170D01*
X149688741Y-146955337D01*
X149597483Y-146994520D01*
X149481208Y-147020279D01*
X149334125Y-147029722D01*
X149193332Y-147019377D01*
X149078416Y-146990664D01*
X148984613Y-146945916D01*
X148924357Y-146898632D01*
X148880122Y-146842260D01*
X148850317Y-146775409D01*
X148835045Y-146695598D01*
X149152683Y-146695598D01*
X149169805Y-146740539D01*
X149192616Y-146767863D01*
X149226611Y-146787760D01*
X149277549Y-146801597D01*
X149351527Y-146806973D01*
X149429277Y-146799348D01*
X149487608Y-146778700D01*
X149531121Y-146746738D01*
X149562644Y-146702834D01*
X149579931Y-146656350D01*
X149592487Y-146584449D01*
X149597449Y-146478252D01*
X149597449Y-146407452D01*
X149552011Y-146471188D01*
X149507232Y-146513057D01*
X149446017Y-146548217D01*
X149371626Y-146570421D01*
X149280819Y-146578361D01*
X149175978Y-146568339D01*
X149085476Y-146539589D01*
X149006451Y-146492702D01*
X148936986Y-146426412D01*
X148882834Y-146347579D01*
X148842792Y-146254609D01*
X148817410Y-146144825D01*
X148808723Y-146019656D01*
X149110734Y-146019656D01*
X149119273Y-146114495D01*
X149143524Y-146194870D01*
X149180181Y-146258843D01*
X149226658Y-146302324D01*
X149284305Y-146328690D01*
X149356656Y-146338026D01*
X149421485Y-146329301D01*
X149478466Y-146303630D01*
X149529763Y-146259716D01*
X149566462Y-146203001D01*
X149591116Y-146122507D01*
X149600471Y-146010314D01*
X149591849Y-145904907D01*
X149568627Y-145825225D01*
X149533335Y-145765491D01*
X149483604Y-145718860D01*
X149424673Y-145691136D01*
X149353542Y-145681502D01*
X149281438Y-145690990D01*
X149224060Y-145717814D01*
X149177840Y-145762191D01*
X149141509Y-145827773D01*
X149119064Y-145910749D01*
X149110734Y-146019656D01*
X148808723Y-146019656D01*
X148808392Y-146014893D01*
X148816756Y-145890266D01*
X148840762Y-145779965D01*
X148879380Y-145681838D01*
X148932406Y-145594124D01*
X148986280Y-145532604D01*
X149047167Y-145485594D01*
X149115966Y-145451788D01*
X149194187Y-145430877D01*
X149283841Y-145423581D01*
X149364534Y-145430448D01*
G37*
G36*
X150778241Y-145423581D02*
G01*
X150890550Y-145434351D01*
X150983678Y-145464734D01*
X151061532Y-145513524D01*
X151106944Y-145562069D01*
X151141130Y-145625795D01*
X151163492Y-145708430D01*
X151171716Y-145814950D01*
X151171716Y-146572500D01*
X150872488Y-146572500D01*
X150872488Y-145887215D01*
X150865767Y-145803989D01*
X150848949Y-145750744D01*
X150823351Y-145713588D01*
X150788969Y-145686995D01*
X150743939Y-145670089D01*
X150685001Y-145663916D01*
X150614234Y-145672462D01*
X150558751Y-145696326D01*
X150514925Y-145735042D01*
X150481120Y-145791045D01*
X150460305Y-145863571D01*
X150452452Y-145962686D01*
X150452452Y-146572500D01*
X150161375Y-146572500D01*
X150161375Y-145452890D01*
X150443201Y-145452890D01*
X150443201Y-145613449D01*
X150501442Y-145536176D01*
X150549721Y-145490626D01*
X150612992Y-145454321D01*
X150688205Y-145431624D01*
X150778241Y-145423581D01*
G37*
G36*
X151973979Y-145429639D02*
G01*
X152057214Y-145447213D01*
X152133239Y-145475788D01*
X152202681Y-145516775D01*
X152263936Y-145571202D01*
X152317704Y-145640560D01*
X152355766Y-145709058D01*
X152384211Y-145785419D01*
X152402792Y-145870820D01*
X152410360Y-145956019D01*
X152412042Y-146091830D01*
X151647623Y-146091830D01*
X151657792Y-146176619D01*
X151679588Y-146242186D01*
X151711392Y-146292565D01*
X151753136Y-146330607D01*
X151795257Y-146353887D01*
X151843303Y-146368206D01*
X151898675Y-146373197D01*
X151956763Y-146367077D01*
X152004866Y-146349744D01*
X152045129Y-146321632D01*
X152073113Y-146289749D01*
X152099442Y-146244237D01*
X152397663Y-146244237D01*
X152382459Y-146307120D01*
X152349215Y-146373623D01*
X152294165Y-146445371D01*
X152233657Y-146502658D01*
X152164686Y-146547356D01*
X152086047Y-146580046D01*
X151996034Y-146600496D01*
X151892538Y-146607670D01*
X151788346Y-146598953D01*
X151691953Y-146573324D01*
X151601739Y-146530782D01*
X151516465Y-146470284D01*
X151461138Y-146412770D01*
X151416659Y-146342007D01*
X151383048Y-146255673D01*
X151361342Y-146150680D01*
X151353525Y-146023319D01*
X151362549Y-145898389D01*
X151654768Y-145898389D01*
X152108693Y-145898389D01*
X152096756Y-145824218D01*
X152073013Y-145767174D01*
X152038534Y-145723542D01*
X151993506Y-145690602D01*
X151942059Y-145670777D01*
X151882280Y-145663916D01*
X151817447Y-145671499D01*
X151766035Y-145692726D01*
X151724926Y-145727114D01*
X151693483Y-145772127D01*
X151669852Y-145828402D01*
X151654768Y-145898389D01*
X151362549Y-145898389D01*
X151364033Y-145877841D01*
X151393299Y-145758086D01*
X151439032Y-145659465D01*
X151500528Y-145578370D01*
X151578884Y-145511107D01*
X151667177Y-145463233D01*
X151767382Y-145433818D01*
X151882280Y-145423581D01*
X151973979Y-145429639D01*
G37*
G36*
X153624617Y-146572500D02*
G01*
X153340776Y-146572500D01*
X153340776Y-146422107D01*
X153295261Y-146483282D01*
X153247856Y-146529729D01*
X153198352Y-146563524D01*
X153143344Y-146587211D01*
X153077805Y-146602291D01*
X152999599Y-146607670D01*
X152905578Y-146597720D01*
X152820672Y-146568522D01*
X152742663Y-146519596D01*
X152670146Y-146448577D01*
X152613000Y-146365846D01*
X152571426Y-146271707D01*
X152545505Y-146164086D01*
X152536423Y-146040355D01*
X152537557Y-146022862D01*
X152837666Y-146022862D01*
X152845292Y-146125896D01*
X152866246Y-146208075D01*
X152898574Y-146273455D01*
X152932839Y-146314368D01*
X152974046Y-146343209D01*
X153023540Y-146361030D01*
X153083588Y-146367336D01*
X153143617Y-146361115D01*
X153193788Y-146343447D01*
X153236187Y-146314749D01*
X153272083Y-146274004D01*
X153306731Y-146208751D01*
X153328756Y-146129271D01*
X153336654Y-146032204D01*
X153328884Y-145927355D01*
X153307781Y-145845974D01*
X153275625Y-145783236D01*
X153233156Y-145735449D01*
X153188355Y-145705399D01*
X153139625Y-145687566D01*
X153085603Y-145681502D01*
X153023683Y-145688118D01*
X152973192Y-145706752D01*
X152931633Y-145736854D01*
X152897567Y-145779596D01*
X152865281Y-145847388D01*
X152844902Y-145927595D01*
X152837666Y-146022862D01*
X152537557Y-146022862D01*
X152545798Y-145895729D01*
X152572033Y-145774637D01*
X152613082Y-145673232D01*
X152668040Y-145588353D01*
X152739760Y-145516005D01*
X152820895Y-145465252D01*
X152913353Y-145434325D01*
X153020116Y-145423581D01*
X153086498Y-145428797D01*
X153146194Y-145443925D01*
X153200367Y-145468644D01*
X153271637Y-145522152D01*
X153328503Y-145593483D01*
X153328503Y-145060148D01*
X153624617Y-145060148D01*
X153624617Y-146572500D01*
G37*
G36*
X154754392Y-145595498D02*
G01*
X154814101Y-145524577D01*
X154876300Y-145475330D01*
X154931205Y-145447518D01*
X154997313Y-145429882D01*
X155077159Y-145423581D01*
X155184179Y-145434212D01*
X155275336Y-145464589D01*
X155353883Y-145514057D01*
X155421908Y-145584140D01*
X155474732Y-145666981D01*
X155513530Y-145762122D01*
X155537897Y-145871737D01*
X155546472Y-145998498D01*
X155538045Y-146130076D01*
X155514013Y-146245064D01*
X155475665Y-146345912D01*
X155423465Y-146434655D01*
X155369789Y-146497538D01*
X155309720Y-146545279D01*
X155242465Y-146579393D01*
X155166619Y-146600378D01*
X155080273Y-146607670D01*
X154989435Y-146600723D01*
X154916460Y-146581552D01*
X154857890Y-146551800D01*
X154809389Y-146510274D01*
X154749263Y-146436029D01*
X154749263Y-146572500D01*
X154463408Y-146572500D01*
X154463408Y-146030097D01*
X154745233Y-146030097D01*
X154752914Y-146125441D01*
X154774499Y-146204979D01*
X154808706Y-146271623D01*
X154844276Y-146313162D01*
X154887285Y-146342592D01*
X154939198Y-146360855D01*
X155002421Y-146367336D01*
X155072634Y-146356825D01*
X155129919Y-146326495D01*
X155177543Y-146274737D01*
X155210945Y-146210057D01*
X155232365Y-146130092D01*
X155240100Y-146031196D01*
X155231678Y-145916273D01*
X155209325Y-145831345D01*
X155172764Y-145764130D01*
X155125977Y-145718691D01*
X155067678Y-145691226D01*
X154994178Y-145681502D01*
X154919352Y-145691126D01*
X154860173Y-145718220D01*
X154812872Y-145762776D01*
X154776008Y-145828230D01*
X154753739Y-145912552D01*
X154745233Y-146030097D01*
X154463408Y-146030097D01*
X154463408Y-145060148D01*
X154754392Y-145060148D01*
X154754392Y-145595498D01*
G37*
G36*
X155801004Y-146789387D02*
G01*
X155837915Y-146792318D01*
X155919889Y-146789937D01*
X155956479Y-146780868D01*
X155985468Y-146765390D01*
X156008043Y-146740740D01*
X156033095Y-146689736D01*
X156050107Y-146637027D01*
X156051047Y-146619394D01*
X155641177Y-145452890D01*
X155965959Y-145452890D01*
X156209866Y-146278767D01*
X156440401Y-145452890D01*
X156750895Y-145452890D01*
X156367678Y-146553998D01*
X156286442Y-146772211D01*
X156230191Y-146893950D01*
X156192464Y-146952511D01*
X156157833Y-146982729D01*
X156106954Y-147006800D01*
X156034623Y-147023384D01*
X155934269Y-147029722D01*
X155871712Y-147028989D01*
X155801004Y-147023860D01*
X155801004Y-146789387D01*
G37*
G36*
X158530326Y-145060148D02*
G01*
X158984343Y-145060148D01*
X158984343Y-146572500D01*
X158690244Y-146572500D01*
X158690244Y-145549610D01*
X158691251Y-145425963D01*
X158692259Y-145303322D01*
X158406403Y-146572500D01*
X158100031Y-146572500D01*
X157816190Y-145303322D01*
X157817198Y-145425963D01*
X157818205Y-145549610D01*
X157818205Y-146572500D01*
X157524106Y-146572500D01*
X157524106Y-145060148D01*
X157983161Y-145060148D01*
X158257842Y-146249275D01*
X158530326Y-145060148D01*
G37*
G36*
X159554222Y-145323930D02*
G01*
X159258108Y-145323930D01*
X159258108Y-145060148D01*
X159554222Y-145060148D01*
X159554222Y-145323930D01*
G37*
G36*
X159258108Y-145452890D02*
G01*
X159554222Y-145452890D01*
X159554222Y-146572500D01*
X159258108Y-146572500D01*
X159258108Y-145452890D01*
G37*
G36*
X160504296Y-145845633D02*
G01*
X160489551Y-145785427D01*
X160462256Y-145732060D01*
X160424711Y-145695075D01*
X160375137Y-145672198D01*
X160309574Y-145663916D01*
X160240909Y-145673358D01*
X160186269Y-145700146D01*
X160142209Y-145744828D01*
X160107707Y-145811561D01*
X160087078Y-145898539D01*
X160079039Y-146024327D01*
X160087050Y-146144135D01*
X160107707Y-146227659D01*
X160140818Y-146290415D01*
X160183511Y-146332733D01*
X160236930Y-146358284D01*
X160304536Y-146367336D01*
X160370360Y-146360206D01*
X160417175Y-146341211D01*
X160449983Y-146311923D01*
X160483790Y-146250347D01*
X160502281Y-146168033D01*
X160800410Y-146168033D01*
X160785459Y-146253316D01*
X160753791Y-146336156D01*
X160704057Y-146417802D01*
X160644584Y-146485474D01*
X160575783Y-146537681D01*
X160496407Y-146575621D01*
X160404453Y-146599329D01*
X160297301Y-146607670D01*
X160187822Y-146600357D01*
X160096056Y-146579863D01*
X160019086Y-146547725D01*
X159954536Y-146504563D01*
X159900711Y-146450042D01*
X159847117Y-146368521D01*
X159807543Y-146273351D01*
X159782531Y-146162030D01*
X159773675Y-146031471D01*
X159783803Y-145883310D01*
X159811936Y-145761696D01*
X159855679Y-145661968D01*
X159914084Y-145580385D01*
X159989284Y-145512959D01*
X160077073Y-145464444D01*
X160179948Y-145434232D01*
X160301422Y-145423581D01*
X160406857Y-145430055D01*
X160497938Y-145448408D01*
X160576781Y-145477476D01*
X160645164Y-145516729D01*
X160701836Y-145568173D01*
X160747555Y-145637284D01*
X160782076Y-145727988D01*
X160803525Y-145845633D01*
X160504296Y-145845633D01*
G37*
G36*
X161619601Y-145423581D02*
G01*
X161719738Y-145432846D01*
X161807637Y-145459576D01*
X161860771Y-145487833D01*
X161906815Y-145524280D01*
X161946489Y-145569486D01*
X161984124Y-145634312D01*
X162002818Y-145698538D01*
X162009982Y-145775277D01*
X162013076Y-145914784D01*
X162013076Y-146572500D01*
X161714856Y-146572500D01*
X161714856Y-145888772D01*
X161706432Y-145803400D01*
X161684081Y-145742318D01*
X161650856Y-145699896D01*
X161602228Y-145673635D01*
X161532498Y-145663916D01*
X161459125Y-145673219D01*
X161401829Y-145699248D01*
X161356735Y-145741769D01*
X161325165Y-145796885D01*
X161304477Y-145869366D01*
X161296834Y-145964060D01*
X161296834Y-146572500D01*
X161005758Y-146572500D01*
X161005758Y-145060148D01*
X161296834Y-145060148D01*
X161296834Y-145595956D01*
X161343388Y-145536060D01*
X161392268Y-145492042D01*
X161443838Y-145461591D01*
X161529491Y-145433095D01*
X161619601Y-145423581D01*
G37*
G36*
X162846123Y-145432106D02*
G01*
X162954065Y-145456731D01*
X163051444Y-145496671D01*
X163112150Y-145539761D01*
X163155817Y-145597689D01*
X163183678Y-145673695D01*
X163193868Y-145773276D01*
X163193868Y-146289849D01*
X163195883Y-146420092D01*
X163202803Y-146475143D01*
X163213286Y-146501883D01*
X163230676Y-146520977D01*
X163256425Y-146537329D01*
X163256425Y-146572500D01*
X162938695Y-146572500D01*
X162920286Y-146509485D01*
X162912134Y-146442349D01*
X162847275Y-146502626D01*
X162772732Y-146553540D01*
X162708004Y-146583316D01*
X162637392Y-146601447D01*
X162559600Y-146607670D01*
X162461775Y-146597427D01*
X162379335Y-146568216D01*
X162309007Y-146520567D01*
X162266752Y-146473856D01*
X162236162Y-146418418D01*
X162216983Y-146352497D01*
X162210180Y-146273638D01*
X162211922Y-146253213D01*
X162503272Y-146253213D01*
X162508549Y-146301962D01*
X162522733Y-146337373D01*
X162544762Y-146362848D01*
X162590069Y-146387968D01*
X162645696Y-146396645D01*
X162706773Y-146390428D01*
X162764276Y-146371907D01*
X162819352Y-146340499D01*
X162852108Y-146309453D01*
X162877235Y-146267099D01*
X162894389Y-146210536D01*
X162901876Y-146135793D01*
X162901876Y-146025609D01*
X162846005Y-146054186D01*
X162768611Y-146074427D01*
X162703032Y-146086884D01*
X162617933Y-146107235D01*
X162570866Y-146127459D01*
X162533426Y-146159326D01*
X162511153Y-146200243D01*
X162503272Y-146253213D01*
X162211922Y-146253213D01*
X162217165Y-146191740D01*
X162236899Y-146122868D01*
X162268423Y-146064587D01*
X162311982Y-146015134D01*
X162368999Y-145973586D01*
X162429270Y-145945619D01*
X162512698Y-145921041D01*
X162625179Y-145901412D01*
X162724556Y-145889047D01*
X162799521Y-145876149D01*
X162840418Y-145863218D01*
X162876425Y-145840878D01*
X162896221Y-145813573D01*
X162902883Y-145779687D01*
X162896983Y-145736407D01*
X162880980Y-145705745D01*
X162855164Y-145684341D01*
X162801245Y-145665582D01*
X162715305Y-145658054D01*
X162648265Y-145664725D01*
X162601223Y-145682301D01*
X162568851Y-145708887D01*
X162543976Y-145751175D01*
X162527818Y-145810462D01*
X162246084Y-145810462D01*
X162260097Y-145715618D01*
X162287733Y-145636600D01*
X162328058Y-145570585D01*
X162376845Y-145521005D01*
X162438272Y-145480987D01*
X162514677Y-145450556D01*
X162609206Y-145430760D01*
X162725655Y-145423581D01*
X162846123Y-145432106D01*
G37*
G36*
X163750742Y-146572500D02*
G01*
X163458658Y-146572500D01*
X163458658Y-145060148D01*
X163750742Y-145060148D01*
X163750742Y-146572500D01*
G37*
G36*
X165526876Y-145060148D02*
G01*
X165854772Y-145060148D01*
X165339389Y-146572500D01*
X165041168Y-146572500D01*
X164530915Y-145060148D01*
X164868061Y-145060148D01*
X165195957Y-146208242D01*
X165526876Y-145060148D01*
G37*
G36*
X166464336Y-145432106D02*
G01*
X166572278Y-145456731D01*
X166669658Y-145496671D01*
X166730364Y-145539761D01*
X166774031Y-145597689D01*
X166801891Y-145673695D01*
X166812082Y-145773276D01*
X166812082Y-146289849D01*
X166814097Y-146420092D01*
X166821017Y-146475143D01*
X166831499Y-146501883D01*
X166848890Y-146520977D01*
X166874638Y-146537329D01*
X166874638Y-146572500D01*
X166556909Y-146572500D01*
X166538499Y-146509485D01*
X166530348Y-146442349D01*
X166465489Y-146502626D01*
X166390946Y-146553540D01*
X166326217Y-146583316D01*
X166255606Y-146601447D01*
X166177814Y-146607670D01*
X166079989Y-146597427D01*
X165997549Y-146568216D01*
X165927220Y-146520567D01*
X165884966Y-146473856D01*
X165854376Y-146418418D01*
X165835196Y-146352497D01*
X165828394Y-146273638D01*
X165830136Y-146253213D01*
X166121485Y-146253213D01*
X166126763Y-146301962D01*
X166140947Y-146337373D01*
X166162976Y-146362848D01*
X166208282Y-146387968D01*
X166263909Y-146396645D01*
X166324987Y-146390428D01*
X166382490Y-146371907D01*
X166437566Y-146340499D01*
X166470322Y-146309453D01*
X166495449Y-146267099D01*
X166512602Y-146210536D01*
X166520089Y-146135793D01*
X166520089Y-146025609D01*
X166464219Y-146054186D01*
X166386824Y-146074427D01*
X166321245Y-146086884D01*
X166236147Y-146107235D01*
X166189079Y-146127459D01*
X166151639Y-146159326D01*
X166129366Y-146200243D01*
X166121485Y-146253213D01*
X165830136Y-146253213D01*
X165835378Y-146191740D01*
X165855113Y-146122868D01*
X165886637Y-146064587D01*
X165930195Y-146015134D01*
X165987213Y-145973586D01*
X166047483Y-145945619D01*
X166130912Y-145921041D01*
X166243393Y-145901412D01*
X166342769Y-145889047D01*
X166417734Y-145876149D01*
X166458632Y-145863218D01*
X166494639Y-145840878D01*
X166514435Y-145813573D01*
X166521097Y-145779687D01*
X166515196Y-145736407D01*
X166499194Y-145705745D01*
X166473378Y-145684341D01*
X166419458Y-145665582D01*
X166333518Y-145658054D01*
X166266479Y-145664725D01*
X166219437Y-145682301D01*
X166187064Y-145708887D01*
X166162190Y-145751175D01*
X166146031Y-145810462D01*
X165864297Y-145810462D01*
X165878311Y-145715618D01*
X165905947Y-145636600D01*
X165946271Y-145570585D01*
X165995058Y-145521005D01*
X166056486Y-145480987D01*
X166132890Y-145450556D01*
X166227420Y-145430760D01*
X166343868Y-145423581D01*
X166464336Y-145432106D01*
G37*
G36*
X167677343Y-145423581D02*
G01*
X167691081Y-145423581D01*
X167716269Y-145423581D01*
X167716269Y-145722534D01*
X167667084Y-145722534D01*
X167632280Y-145722534D01*
X167545310Y-145730972D01*
X167479930Y-145753828D01*
X167431055Y-145789184D01*
X167395517Y-145837664D01*
X167378378Y-145882454D01*
X167366353Y-145946935D01*
X167361720Y-146037058D01*
X167361720Y-146572500D01*
X167067621Y-146572500D01*
X167067621Y-145452890D01*
X167346332Y-145452890D01*
X167346332Y-145647704D01*
X167414966Y-145545559D01*
X167464210Y-145493099D01*
X167522402Y-145455393D01*
X167592415Y-145431915D01*
X167677343Y-145423581D01*
G37*
G36*
X168114507Y-146203204D02*
G01*
X168130641Y-146274284D01*
X168154440Y-146314487D01*
X168195180Y-146344355D01*
X168259022Y-146365071D01*
X168355300Y-146373197D01*
X168436262Y-146366062D01*
X168492045Y-146347552D01*
X168520930Y-146326894D01*
X168537228Y-146301758D01*
X168542787Y-146270615D01*
X168532501Y-146227224D01*
X168501845Y-146195785D01*
X168433790Y-146169716D01*
X168197488Y-146109140D01*
X168072169Y-146071696D01*
X167986187Y-146032712D01*
X167930042Y-145993369D01*
X167887896Y-145942707D01*
X167861644Y-145878120D01*
X167852190Y-145795349D01*
X167859736Y-145721958D01*
X167881978Y-145654764D01*
X167919337Y-145592197D01*
X167973548Y-145533216D01*
X168036868Y-145487291D01*
X168113097Y-145453163D01*
X168204817Y-145431378D01*
X168315274Y-145423581D01*
X168452554Y-145433819D01*
X168564532Y-145462238D01*
X168655902Y-145506563D01*
X168712616Y-145553247D01*
X168756753Y-145614383D01*
X168788702Y-145692841D01*
X168807118Y-145792876D01*
X168515126Y-145792876D01*
X168503481Y-145741379D01*
X168483344Y-145704949D01*
X168446900Y-145674193D01*
X168394209Y-145653978D01*
X168319396Y-145646331D01*
X168232063Y-145654981D01*
X168183658Y-145675640D01*
X168152651Y-145708487D01*
X168143175Y-145744150D01*
X168148110Y-145774513D01*
X168162157Y-145797800D01*
X168186223Y-145815774D01*
X168255684Y-145839606D01*
X168490488Y-145895000D01*
X168603826Y-145929133D01*
X168689103Y-145970708D01*
X168751797Y-146018465D01*
X168799526Y-146079289D01*
X168828048Y-146148782D01*
X168837893Y-146229674D01*
X168829913Y-146310526D01*
X168806814Y-146381635D01*
X168768754Y-146445035D01*
X168714428Y-146502066D01*
X168650784Y-146544909D01*
X168568912Y-146577909D01*
X168464581Y-146599679D01*
X168332677Y-146607670D01*
X168198678Y-146599111D01*
X168092514Y-146575749D01*
X168008966Y-146540191D01*
X167943781Y-146493731D01*
X167888734Y-146432606D01*
X167850000Y-146364844D01*
X167826441Y-146289055D01*
X167818301Y-146203204D01*
X168114507Y-146203204D01*
G37*
G36*
X169613604Y-145432106D02*
G01*
X169721545Y-145456731D01*
X169818925Y-145496671D01*
X169879631Y-145539761D01*
X169923298Y-145597689D01*
X169951158Y-145673695D01*
X169961349Y-145773276D01*
X169961349Y-146289849D01*
X169963364Y-146420092D01*
X169970284Y-146475143D01*
X169980766Y-146501883D01*
X169998157Y-146520977D01*
X170023906Y-146537329D01*
X170023906Y-146572500D01*
X169706176Y-146572500D01*
X169687766Y-146509485D01*
X169679615Y-146442349D01*
X169614756Y-146502626D01*
X169540213Y-146553540D01*
X169475485Y-146583316D01*
X169404873Y-146601447D01*
X169327081Y-146607670D01*
X169229256Y-146597427D01*
X169146816Y-146568216D01*
X169076488Y-146520567D01*
X169034233Y-146473856D01*
X169003643Y-146418418D01*
X168984464Y-146352497D01*
X168977661Y-146273638D01*
X168979403Y-146253213D01*
X169270752Y-146253213D01*
X169276030Y-146301962D01*
X169290214Y-146337373D01*
X169312243Y-146362848D01*
X169357550Y-146387968D01*
X169413176Y-146396645D01*
X169474254Y-146390428D01*
X169531757Y-146371907D01*
X169586833Y-146340499D01*
X169619589Y-146309453D01*
X169644716Y-146267099D01*
X169661869Y-146210536D01*
X169669357Y-146135793D01*
X169669357Y-146025609D01*
X169613486Y-146054186D01*
X169536092Y-146074427D01*
X169470512Y-146086884D01*
X169385414Y-146107235D01*
X169338347Y-146127459D01*
X169300907Y-146159326D01*
X169278633Y-146200243D01*
X169270752Y-146253213D01*
X168979403Y-146253213D01*
X168984645Y-146191740D01*
X169004380Y-146122868D01*
X169035904Y-146064587D01*
X169079463Y-146015134D01*
X169136480Y-145973586D01*
X169196751Y-145945619D01*
X169280179Y-145921041D01*
X169392660Y-145901412D01*
X169492036Y-145889047D01*
X169567001Y-145876149D01*
X169607899Y-145863218D01*
X169643906Y-145840878D01*
X169663702Y-145813573D01*
X169670364Y-145779687D01*
X169664463Y-145736407D01*
X169648461Y-145705745D01*
X169622645Y-145684341D01*
X169568726Y-145665582D01*
X169482786Y-145658054D01*
X169415746Y-145664725D01*
X169368704Y-145682301D01*
X169336332Y-145708887D01*
X169311457Y-145751175D01*
X169295299Y-145810462D01*
X169013565Y-145810462D01*
X169027578Y-145715618D01*
X169055214Y-145636600D01*
X169095539Y-145570585D01*
X169144326Y-145521005D01*
X169205753Y-145480987D01*
X169282158Y-145450556D01*
X169376687Y-145430760D01*
X169493135Y-145423581D01*
X169613604Y-145432106D01*
G37*
G36*
X170838883Y-145423581D02*
G01*
X170951192Y-145434351D01*
X171044320Y-145464734D01*
X171122174Y-145513524D01*
X171167586Y-145562069D01*
X171201772Y-145625795D01*
X171224134Y-145708430D01*
X171232358Y-145814950D01*
X171232358Y-146572500D01*
X170933130Y-146572500D01*
X170933130Y-145887215D01*
X170926409Y-145803989D01*
X170909591Y-145750744D01*
X170883993Y-145713588D01*
X170849611Y-145686995D01*
X170804581Y-145670089D01*
X170745643Y-145663916D01*
X170674876Y-145672462D01*
X170619393Y-145696326D01*
X170575567Y-145735042D01*
X170541762Y-145791045D01*
X170520947Y-145863571D01*
X170513094Y-145962686D01*
X170513094Y-146572500D01*
X170222017Y-146572500D01*
X170222017Y-145452890D01*
X170503843Y-145452890D01*
X170503843Y-145613449D01*
X170562084Y-145536176D01*
X170610363Y-145490626D01*
X170673634Y-145454321D01*
X170748847Y-145431624D01*
X170838883Y-145423581D01*
G37*
G36*
X171547340Y-146789387D02*
G01*
X171584251Y-146792318D01*
X171666225Y-146789937D01*
X171702815Y-146780868D01*
X171731804Y-146765390D01*
X171754379Y-146740740D01*
X171779432Y-146689736D01*
X171796443Y-146637027D01*
X171797384Y-146619394D01*
X171387514Y-145452890D01*
X171712295Y-145452890D01*
X171956202Y-146278767D01*
X172186737Y-145452890D01*
X172497231Y-145452890D01*
X172114014Y-146553998D01*
X172032778Y-146772211D01*
X171976527Y-146893950D01*
X171938800Y-146952511D01*
X171904169Y-146982729D01*
X171853290Y-147006800D01*
X171780960Y-147023384D01*
X171680605Y-147029722D01*
X171618048Y-147028989D01*
X171547340Y-147023860D01*
X171547340Y-146789387D01*
G37*
G36*
X172969016Y-145323930D02*
G01*
X172672903Y-145323930D01*
X172672903Y-145060148D01*
X172969016Y-145060148D01*
X172969016Y-145323930D01*
G37*
G36*
X172672903Y-145452890D02*
G01*
X172969016Y-145452890D01*
X172969016Y-146572500D01*
X172672903Y-146572500D01*
X172672903Y-145452890D01*
G37*
D10*
G36*
X119226475Y-55123056D02*
G01*
X119501004Y-55123056D01*
X119501004Y-57130000D01*
X119226475Y-57130000D01*
X119226475Y-55123056D01*
G37*
G36*
X119909866Y-55666741D02*
G01*
X120143484Y-55666741D01*
X120143484Y-55874469D01*
X120217230Y-55793833D01*
X120290379Y-55733277D01*
X120363425Y-55690066D01*
X120484503Y-55648360D01*
X120621590Y-55634012D01*
X120746798Y-55644153D01*
X120847293Y-55672190D01*
X120927939Y-55715891D01*
X120992323Y-55774977D01*
X121042420Y-55851144D01*
X121073411Y-55932966D01*
X121094543Y-56043839D01*
X121102504Y-56191374D01*
X121102504Y-57130000D01*
X120852521Y-57130000D01*
X120852521Y-56207739D01*
X120841601Y-56081431D01*
X120812954Y-55991950D01*
X120773755Y-55932446D01*
X120722848Y-55890697D01*
X120658061Y-55864669D01*
X120575184Y-55855296D01*
X120491836Y-55860201D01*
X120431691Y-55873004D01*
X120368073Y-55899239D01*
X120309143Y-55938837D01*
X120254126Y-55993293D01*
X120202552Y-56068587D01*
X120174259Y-56142892D01*
X120161157Y-56228347D01*
X120155819Y-56363565D01*
X120155819Y-57130000D01*
X119909866Y-57130000D01*
X119909866Y-55666741D01*
G37*
G36*
X122258781Y-55643212D02*
G01*
X122367573Y-55678413D01*
X122467689Y-55737154D01*
X122560878Y-55821835D01*
X122633320Y-55921243D01*
X122687351Y-56042022D01*
X122721977Y-56188533D01*
X122734412Y-56366252D01*
X122722314Y-56563439D01*
X122688832Y-56724830D01*
X122637169Y-56856475D01*
X122569017Y-56963410D01*
X122484430Y-57049399D01*
X122373006Y-57121510D01*
X122251144Y-57164535D01*
X122115501Y-57179214D01*
X122007321Y-57170520D01*
X121915880Y-57145950D01*
X121838163Y-57106796D01*
X121773707Y-57055728D01*
X121691984Y-56965990D01*
X121691984Y-57713374D01*
X121446031Y-57713374D01*
X121446031Y-56449661D01*
X121682459Y-56449661D01*
X121695997Y-56611426D01*
X121733017Y-56737868D01*
X121778742Y-56821119D01*
X121835126Y-56883221D01*
X121902860Y-56927419D01*
X121984215Y-56954901D01*
X122082773Y-56964647D01*
X122165182Y-56955641D01*
X122239090Y-56929247D01*
X122306576Y-56884985D01*
X122368903Y-56820544D01*
X122415310Y-56746752D01*
X122450980Y-56653330D01*
X122474407Y-56535950D01*
X122482964Y-56389455D01*
X122469512Y-56221952D01*
X122432528Y-56088914D01*
X122386061Y-55999098D01*
X122329104Y-55932796D01*
X122261226Y-55886090D01*
X122180300Y-55857283D01*
X122082773Y-55847114D01*
X121985402Y-55857700D01*
X121904555Y-55887760D01*
X121836604Y-55936762D01*
X121779494Y-56006853D01*
X121733017Y-56102592D01*
X121706374Y-56195117D01*
X121688841Y-56309450D01*
X121682459Y-56449661D01*
X121446031Y-56449661D01*
X121446031Y-55673579D01*
X121685145Y-55673579D01*
X121685145Y-55867630D01*
X121764209Y-55777358D01*
X121846345Y-55713269D01*
X121932515Y-55668298D01*
X122029163Y-55640750D01*
X122138704Y-55631203D01*
X122258781Y-55643212D01*
G37*
G36*
X123266496Y-55666741D02*
G01*
X123266496Y-56638094D01*
X123276164Y-56744042D01*
X123301911Y-56821277D01*
X123340807Y-56877621D01*
X123392447Y-56917782D01*
X123459465Y-56943193D01*
X123546520Y-56952435D01*
X123646119Y-56942534D01*
X123727872Y-56914675D01*
X123795523Y-56869942D01*
X123851431Y-56807119D01*
X123896276Y-56722847D01*
X123922460Y-56639122D01*
X123940207Y-56528710D01*
X123946834Y-56385425D01*
X123946834Y-55666741D01*
X124192787Y-55666741D01*
X124192787Y-57130000D01*
X123960512Y-57130000D01*
X123963198Y-56914089D01*
X123909252Y-56991428D01*
X123844374Y-57054895D01*
X123745267Y-57117946D01*
X123632621Y-57156273D01*
X123502800Y-57169567D01*
X123376454Y-57159736D01*
X123274791Y-57132565D01*
X123193054Y-57090309D01*
X123127653Y-57033442D01*
X123076475Y-56960617D01*
X123044121Y-56883356D01*
X123022847Y-56785229D01*
X123015048Y-56661420D01*
X123015048Y-55666741D01*
X123266496Y-55666741D01*
G37*
G36*
X124625096Y-55258244D02*
G01*
X124873736Y-55258244D01*
X124873736Y-55666741D01*
X125107354Y-55666741D01*
X125107354Y-55867630D01*
X124873736Y-55867630D01*
X124873736Y-56822620D01*
X124880258Y-56870482D01*
X124897715Y-56903244D01*
X124925637Y-56925080D01*
X124959377Y-56935588D01*
X125021258Y-56940101D01*
X125059482Y-56939490D01*
X125107354Y-56935949D01*
X125107354Y-57130000D01*
X125019182Y-57147707D01*
X124920142Y-57153203D01*
X124809161Y-57141463D01*
X124734795Y-57110991D01*
X124686523Y-57065153D01*
X124653571Y-57003525D01*
X124632616Y-56928316D01*
X124625096Y-56836297D01*
X124625096Y-55867630D01*
X124426893Y-55867630D01*
X124426893Y-55666741D01*
X124625096Y-55666741D01*
X124625096Y-55258244D01*
G37*
G36*
X92868938Y-134523056D02*
G01*
X93258383Y-134523056D01*
X93834918Y-136219811D01*
X94407301Y-134523056D01*
X94792594Y-134523056D01*
X94792594Y-136530000D01*
X94534430Y-136530000D01*
X94534430Y-135345422D01*
X94537116Y-135141967D01*
X94539925Y-134837274D01*
X93967420Y-136530000D01*
X93698264Y-136530000D01*
X93121729Y-134837274D01*
X93121729Y-134898702D01*
X93125148Y-135123527D01*
X93128568Y-135345422D01*
X93128568Y-136530000D01*
X92868938Y-136530000D01*
X92868938Y-134523056D01*
G37*
G36*
X95268379Y-134523056D02*
G01*
X95542908Y-134523056D01*
X95542908Y-136530000D01*
X95268379Y-136530000D01*
X95268379Y-134523056D01*
G37*
G36*
X97445072Y-134523056D02*
G01*
X97445072Y-134762048D01*
X96768763Y-134762048D01*
X96768763Y-136530000D01*
X96492769Y-136530000D01*
X96492769Y-134762048D01*
X95816460Y-134762048D01*
X95816460Y-134523056D01*
X97445072Y-134523056D01*
G37*
G36*
X99268711Y-134468346D02*
G01*
X99459138Y-134482511D01*
X99617657Y-134522190D01*
X99749906Y-134584639D01*
X99860267Y-134669235D01*
X99956389Y-134776474D01*
X100025773Y-134887345D01*
X100071204Y-135003079D01*
X100094007Y-135125481D01*
X99828882Y-135125481D01*
X99787664Y-135002411D01*
X99727831Y-134901100D01*
X99649241Y-134818101D01*
X99579592Y-134770827D01*
X99495450Y-134735460D01*
X99393939Y-134712784D01*
X99271520Y-134704651D01*
X99127080Y-134718332D01*
X99001394Y-134757698D01*
X98890729Y-134822046D01*
X98792559Y-134913112D01*
X98718249Y-135020849D01*
X98661317Y-135158418D01*
X98623921Y-135332639D01*
X98610232Y-135551807D01*
X98621680Y-135728433D01*
X98654086Y-135880161D01*
X98705410Y-136010822D01*
X98774852Y-136123579D01*
X98845662Y-136201141D01*
X98928137Y-136261368D01*
X99023905Y-136305395D01*
X99135465Y-136333034D01*
X99266024Y-136342787D01*
X99384323Y-136332894D01*
X99486781Y-136304606D01*
X99576252Y-136258924D01*
X99654841Y-136195359D01*
X99723735Y-136111978D01*
X99772091Y-136027602D01*
X99813913Y-135922300D01*
X99848055Y-135792264D01*
X100113058Y-135792264D01*
X100084191Y-135947555D01*
X100035290Y-136086419D01*
X99966799Y-136211217D01*
X99878097Y-136323736D01*
X99777494Y-136415375D01*
X99664741Y-136486609D01*
X99538131Y-136538436D01*
X99395263Y-136570662D01*
X99233173Y-136581901D01*
X99061085Y-136567962D01*
X98907911Y-136527678D01*
X98770315Y-136462017D01*
X98645769Y-136370143D01*
X98555017Y-136274426D01*
X98479251Y-136162687D01*
X98418177Y-136032870D01*
X98372364Y-135882272D01*
X98343213Y-135707643D01*
X98332894Y-135505279D01*
X98343206Y-135326251D01*
X98372853Y-135166235D01*
X98420453Y-135022727D01*
X98485394Y-134893578D01*
X98567856Y-134777069D01*
X98676364Y-134666646D01*
X98798393Y-134581503D01*
X98935793Y-134519892D01*
X99091370Y-134481677D01*
X99268711Y-134468346D01*
G37*
G36*
X101442263Y-134532981D02*
G01*
X101560125Y-134560567D01*
X101656828Y-134603501D01*
X101735976Y-134660894D01*
X101800044Y-134733349D01*
X101848314Y-134819770D01*
X101877479Y-134914680D01*
X101887483Y-135020334D01*
X101874735Y-135142849D01*
X101838514Y-135245271D01*
X101779649Y-135331866D01*
X101714729Y-135390790D01*
X101618449Y-135449347D01*
X101760016Y-135515731D01*
X101849259Y-135581849D01*
X101906961Y-135651380D01*
X101948919Y-135733155D01*
X101975248Y-135829591D01*
X101984569Y-135943939D01*
X101971058Y-136069124D01*
X101930946Y-136185261D01*
X101862936Y-136295038D01*
X101785589Y-136376314D01*
X101692194Y-136440602D01*
X101580201Y-136488489D01*
X101445985Y-136519068D01*
X101285058Y-136530000D01*
X100436558Y-136530000D01*
X100436558Y-136297725D01*
X100703027Y-136297725D01*
X101289088Y-136297725D01*
X101413771Y-136287148D01*
X101511205Y-136258198D01*
X101587146Y-136213400D01*
X101645682Y-136152889D01*
X101682290Y-136088976D01*
X101704769Y-136015952D01*
X101712605Y-135931605D01*
X101699622Y-135828138D01*
X101663273Y-135747063D01*
X101603928Y-135682999D01*
X101517333Y-135633750D01*
X101404283Y-135603178D01*
X101242681Y-135591374D01*
X100703027Y-135591374D01*
X100703027Y-136297725D01*
X100436558Y-136297725D01*
X100436558Y-135371434D01*
X100703027Y-135371434D01*
X101197619Y-135371434D01*
X101312199Y-135365160D01*
X101399663Y-135348384D01*
X101465431Y-135323562D01*
X101530526Y-135279070D01*
X101576476Y-135221243D01*
X101605255Y-135147500D01*
X101615640Y-135053063D01*
X101604647Y-134958713D01*
X101574252Y-134886113D01*
X101525531Y-134830063D01*
X101455783Y-134788060D01*
X101354217Y-134760962D01*
X101187971Y-134749836D01*
X100703027Y-134749836D01*
X100703027Y-135371434D01*
X100436558Y-135371434D01*
X100436558Y-134523056D01*
X101298735Y-134523056D01*
X101442263Y-134532981D01*
G37*
G36*
X103928376Y-136530000D02*
G01*
X103630644Y-136530000D01*
X103427067Y-135928796D01*
X102633278Y-135928796D01*
X102416024Y-136530000D01*
X102137343Y-136530000D01*
X102446939Y-135707512D01*
X102711069Y-135707512D01*
X103339628Y-135707512D01*
X103034935Y-134820788D01*
X102711069Y-135707512D01*
X102446939Y-135707512D01*
X102892786Y-134523056D01*
X103200288Y-134523056D01*
X103928376Y-136530000D01*
G37*
D11*
G36*
X137303820Y-124150296D02*
G01*
X139445403Y-124150296D01*
X139445403Y-124666137D01*
X137931036Y-124666137D01*
X137931036Y-125381280D01*
X139256908Y-125381280D01*
X139256908Y-125897121D01*
X137931036Y-125897121D01*
X137931036Y-127175000D01*
X137303820Y-127175000D01*
X137303820Y-124150296D01*
G37*
G36*
X141425588Y-124166549D02*
G01*
X141618612Y-124212442D01*
X141783201Y-124285169D01*
X141923857Y-124384036D01*
X142037063Y-124509352D01*
X142120972Y-124666532D01*
X142174893Y-124862652D01*
X142194417Y-125107240D01*
X142174008Y-125377397D01*
X142118755Y-125585260D01*
X142034764Y-125743959D01*
X141923857Y-125863415D01*
X141784511Y-125954923D01*
X141613805Y-126023986D01*
X141405346Y-126068605D01*
X141151378Y-126084699D01*
X140509874Y-126084699D01*
X140509874Y-127175000D01*
X139882842Y-127175000D01*
X139882842Y-125568859D01*
X140509874Y-125568859D01*
X141098072Y-125568859D01*
X141243053Y-125555178D01*
X141356521Y-125517543D01*
X141445385Y-125458583D01*
X141511042Y-125376628D01*
X141553570Y-125263632D01*
X141569400Y-125109255D01*
X141553349Y-124954903D01*
X141510698Y-124845097D01*
X141445385Y-124768169D01*
X141357167Y-124713906D01*
X141243713Y-124678921D01*
X141098072Y-124666137D01*
X140509874Y-124666137D01*
X140509874Y-125568859D01*
X139882842Y-125568859D01*
X139882842Y-124150296D01*
X141198456Y-124150296D01*
X141425588Y-124166549D01*
G37*
G36*
X144698334Y-125099912D02*
G01*
X144648279Y-124956517D01*
X144574126Y-124840323D01*
X144475191Y-124746875D01*
X144347906Y-124674197D01*
X144185983Y-124624679D01*
X144001509Y-124607519D01*
X143824948Y-124625107D01*
X143668851Y-124676146D01*
X143528865Y-124760486D01*
X143402137Y-124881193D01*
X143306152Y-125022529D01*
X143232884Y-125201051D01*
X143184958Y-125425006D01*
X143167480Y-125704413D01*
X143186969Y-125986141D01*
X143239485Y-126201987D01*
X143318575Y-126365650D01*
X143421554Y-126487883D01*
X143555651Y-126590125D01*
X143695285Y-126661142D01*
X143842374Y-126703480D01*
X143999494Y-126717777D01*
X144204571Y-126696682D01*
X144375720Y-126636820D01*
X144520097Y-126539724D01*
X144637184Y-126409930D01*
X144720261Y-126256031D01*
X144770141Y-126072976D01*
X144071301Y-126072976D01*
X144071301Y-125557135D01*
X145329579Y-125557135D01*
X145329579Y-127175000D01*
X144911558Y-127175000D01*
X144847993Y-126799842D01*
X144664023Y-126988242D01*
X144520097Y-127095498D01*
X144347392Y-127176386D01*
X144144569Y-127227311D01*
X143905338Y-127245341D01*
X143667947Y-127227878D01*
X143454340Y-127177294D01*
X143260646Y-127094933D01*
X143083788Y-126980277D01*
X142921650Y-126830983D01*
X142782176Y-126658812D01*
X142672060Y-126462801D01*
X142590864Y-126239506D01*
X142539855Y-125984453D01*
X142521947Y-125692323D01*
X142539831Y-125397573D01*
X142591002Y-125137483D01*
X142672831Y-124907214D01*
X142784226Y-124702675D01*
X142925680Y-124520690D01*
X143096160Y-124363130D01*
X143285053Y-124241375D01*
X143494941Y-124153316D01*
X143729530Y-124098863D01*
X143993449Y-124079954D01*
X144280871Y-124100187D01*
X144526547Y-124157442D01*
X144737281Y-124248324D01*
X144918519Y-124371946D01*
X145076815Y-124529479D01*
X145194402Y-124701530D01*
X145274906Y-124890441D01*
X145319321Y-125099912D01*
X144698334Y-125099912D01*
G37*
G36*
X148580329Y-127175000D02*
G01*
X147895778Y-127175000D01*
X147701055Y-126541922D01*
X146588224Y-126541922D01*
X146379213Y-127175000D01*
X145719391Y-127175000D01*
X146128804Y-126026081D01*
X146758400Y-126026081D01*
X147524834Y-126026081D01*
X147147662Y-124841809D01*
X146758400Y-126026081D01*
X146128804Y-126026081D01*
X146797234Y-124150296D01*
X147510546Y-124150296D01*
X148580329Y-127175000D01*
G37*
G36*
X149966835Y-124150296D02*
G01*
X150628855Y-124150296D01*
X151831812Y-126245717D01*
X151831812Y-124150296D01*
X152420010Y-124150296D01*
X152420010Y-127175000D01*
X151788764Y-127175000D01*
X150555033Y-125026090D01*
X150555033Y-127175000D01*
X149966835Y-127175000D01*
X149966835Y-124150296D01*
G37*
G36*
X154025269Y-124889279D02*
G01*
X154191739Y-124924427D01*
X154343789Y-124981577D01*
X154482673Y-125063551D01*
X154605183Y-125172404D01*
X154712718Y-125311121D01*
X154788843Y-125448117D01*
X154845733Y-125600838D01*
X154882894Y-125771641D01*
X154898031Y-125942039D01*
X154901395Y-126213660D01*
X153372557Y-126213660D01*
X153392895Y-126383238D01*
X153436487Y-126514372D01*
X153500094Y-126615131D01*
X153583583Y-126691215D01*
X153667824Y-126737774D01*
X153763917Y-126766412D01*
X153874659Y-126776395D01*
X153990836Y-126764154D01*
X154087043Y-126729488D01*
X154167568Y-126673264D01*
X154223536Y-126609499D01*
X154276195Y-126518475D01*
X154872636Y-126518475D01*
X154842228Y-126644241D01*
X154775740Y-126777246D01*
X154665640Y-126920743D01*
X154544625Y-127035317D01*
X154406683Y-127124712D01*
X154249404Y-127190093D01*
X154069379Y-127230993D01*
X153862386Y-127245341D01*
X153654003Y-127227906D01*
X153461217Y-127176648D01*
X153280789Y-127091564D01*
X153110240Y-126970568D01*
X152999586Y-126855541D01*
X152910628Y-126714014D01*
X152843406Y-126541347D01*
X152799995Y-126331361D01*
X152784359Y-126076639D01*
X152802407Y-125826779D01*
X153386845Y-125826779D01*
X154294696Y-125826779D01*
X154270823Y-125678436D01*
X154223337Y-125564348D01*
X154154379Y-125477084D01*
X154064322Y-125411204D01*
X153961428Y-125371555D01*
X153841870Y-125357833D01*
X153712205Y-125372998D01*
X153609381Y-125415452D01*
X153527163Y-125484228D01*
X153464276Y-125574255D01*
X153417014Y-125686805D01*
X153386845Y-125826779D01*
X152802407Y-125826779D01*
X152805376Y-125785682D01*
X152863908Y-125546173D01*
X152955375Y-125348931D01*
X153078367Y-125186741D01*
X153235078Y-125052215D01*
X153411664Y-124956467D01*
X153612074Y-124897636D01*
X153841870Y-124877163D01*
X154025269Y-124889279D01*
G37*
G36*
X155875558Y-124935781D02*
G01*
X155875558Y-126283635D01*
X155888644Y-126461906D01*
X155920621Y-126570865D01*
X155968844Y-126643879D01*
X156034298Y-126695995D01*
X156120597Y-126729113D01*
X156234229Y-126741224D01*
X156377906Y-126724655D01*
X156489763Y-126678659D01*
X156577287Y-126604763D01*
X156644190Y-126499057D01*
X156685602Y-126356129D01*
X156701526Y-126152477D01*
X156701526Y-124935781D01*
X157293754Y-124935781D01*
X157293754Y-127175000D01*
X156726073Y-127175000D01*
X156726073Y-126856812D01*
X156685040Y-126918361D01*
X156607187Y-127008670D01*
X156466857Y-127115435D01*
X156341756Y-127176648D01*
X156207247Y-127209882D01*
X156041521Y-127221894D01*
X155843013Y-127205364D01*
X155683604Y-127159610D01*
X155555518Y-127088101D01*
X155453117Y-126991015D01*
X155373456Y-126865239D01*
X155324182Y-126729676D01*
X155290084Y-126540954D01*
X155277102Y-126284368D01*
X155277102Y-124935781D01*
X155875558Y-124935781D01*
G37*
G36*
X159071353Y-124877163D02*
G01*
X159098831Y-124877163D01*
X159149206Y-124877163D01*
X159149206Y-125475069D01*
X159050837Y-125475069D01*
X158981228Y-125475069D01*
X158807289Y-125491944D01*
X158676529Y-125537656D01*
X158578778Y-125608369D01*
X158507702Y-125705329D01*
X158473424Y-125794909D01*
X158449375Y-125923871D01*
X158440108Y-126104117D01*
X158440108Y-127175000D01*
X157851910Y-127175000D01*
X157851910Y-124935781D01*
X158409333Y-124935781D01*
X158409333Y-125325409D01*
X158546600Y-125121119D01*
X158645089Y-125016198D01*
X158761472Y-124940786D01*
X158901499Y-124893830D01*
X159071353Y-124877163D01*
G37*
G36*
X160610868Y-124894212D02*
G01*
X160826752Y-124943462D01*
X161021510Y-125023342D01*
X161142923Y-125109523D01*
X161230256Y-125225378D01*
X161285978Y-125377391D01*
X161306359Y-125576552D01*
X161306359Y-126609699D01*
X161310389Y-126870184D01*
X161324228Y-126980287D01*
X161345193Y-127033766D01*
X161379975Y-127071954D01*
X161431472Y-127104658D01*
X161431472Y-127175000D01*
X160796013Y-127175000D01*
X160759194Y-127048970D01*
X160742890Y-126914698D01*
X160613173Y-127035252D01*
X160464087Y-127137081D01*
X160334630Y-127196632D01*
X160193406Y-127232894D01*
X160037822Y-127245341D01*
X159842173Y-127224854D01*
X159677292Y-127166433D01*
X159536636Y-127071135D01*
X159452126Y-126977712D01*
X159390947Y-126866837D01*
X159352588Y-126734995D01*
X159338983Y-126577276D01*
X159342467Y-126536427D01*
X159925165Y-126536427D01*
X159935721Y-126633924D01*
X159964089Y-126704746D01*
X160008147Y-126755696D01*
X160098760Y-126805937D01*
X160210014Y-126823290D01*
X160332169Y-126810857D01*
X160447175Y-126773815D01*
X160557327Y-126710999D01*
X160622838Y-126648907D01*
X160673092Y-126564198D01*
X160707400Y-126451073D01*
X160722374Y-126301587D01*
X160722374Y-126081219D01*
X160610633Y-126138372D01*
X160455844Y-126178855D01*
X160324686Y-126203768D01*
X160154489Y-126244470D01*
X160060354Y-126284918D01*
X159985474Y-126348653D01*
X159940928Y-126430486D01*
X159925165Y-126536427D01*
X159342467Y-126536427D01*
X159352952Y-126413480D01*
X159392421Y-126275737D01*
X159455468Y-126159174D01*
X159542586Y-126060269D01*
X159656620Y-125977172D01*
X159777162Y-125921239D01*
X159944019Y-125872083D01*
X160168981Y-125832824D01*
X160367733Y-125808094D01*
X160517664Y-125782298D01*
X160599459Y-125756437D01*
X160671473Y-125711757D01*
X160711065Y-125657147D01*
X160724389Y-125589375D01*
X160712588Y-125502815D01*
X160680583Y-125441490D01*
X160628951Y-125398682D01*
X160521112Y-125361164D01*
X160349232Y-125346109D01*
X160215153Y-125359450D01*
X160121068Y-125394602D01*
X160056324Y-125447775D01*
X160006575Y-125532351D01*
X159974258Y-125650924D01*
X159410790Y-125650924D01*
X159438817Y-125461236D01*
X159494089Y-125303201D01*
X159574738Y-125171170D01*
X159672312Y-125072011D01*
X159795167Y-124991974D01*
X159947976Y-124931112D01*
X160137035Y-124891520D01*
X160369932Y-124877163D01*
X160610868Y-124894212D01*
G37*
G36*
X162420106Y-127175000D02*
G01*
X161835938Y-127175000D01*
X161835938Y-124162020D01*
X162420106Y-124162020D01*
X162420106Y-127175000D01*
G37*
G36*
X164193492Y-124150296D02*
G01*
X164855513Y-124150296D01*
X166058470Y-126245717D01*
X166058470Y-124150296D01*
X166646668Y-124150296D01*
X166646668Y-127175000D01*
X166015422Y-127175000D01*
X164781690Y-125026090D01*
X164781690Y-127175000D01*
X164193492Y-127175000D01*
X164193492Y-124150296D01*
G37*
G36*
X168251927Y-124889279D02*
G01*
X168418397Y-124924427D01*
X168570446Y-124981577D01*
X168709330Y-125063551D01*
X168831840Y-125172404D01*
X168939375Y-125311121D01*
X169015500Y-125448117D01*
X169072391Y-125600838D01*
X169109551Y-125771641D01*
X169124689Y-125942039D01*
X169128053Y-126213660D01*
X167599215Y-126213660D01*
X167619552Y-126383238D01*
X167663144Y-126514372D01*
X167726752Y-126615131D01*
X167810240Y-126691215D01*
X167894482Y-126737774D01*
X167990574Y-126766412D01*
X168101317Y-126776395D01*
X168217493Y-126764154D01*
X168313700Y-126729488D01*
X168394225Y-126673264D01*
X168450193Y-126609499D01*
X168502852Y-126518475D01*
X169099293Y-126518475D01*
X169068885Y-126644241D01*
X169002397Y-126777246D01*
X168892297Y-126920743D01*
X168771282Y-127035317D01*
X168633340Y-127124712D01*
X168476061Y-127190093D01*
X168296036Y-127230993D01*
X168089044Y-127245341D01*
X167880660Y-127227906D01*
X167687874Y-127176648D01*
X167507447Y-127091564D01*
X167336898Y-126970568D01*
X167226243Y-126855541D01*
X167137286Y-126714014D01*
X167070064Y-126541347D01*
X167026653Y-126331361D01*
X167011017Y-126076639D01*
X167029065Y-125826779D01*
X167613503Y-125826779D01*
X168521353Y-125826779D01*
X168497481Y-125678436D01*
X168449994Y-125564348D01*
X168381036Y-125477084D01*
X168290979Y-125411204D01*
X168188085Y-125371555D01*
X168068527Y-125357833D01*
X167938862Y-125372998D01*
X167836038Y-125415452D01*
X167753820Y-125484228D01*
X167690933Y-125574255D01*
X167643671Y-125686805D01*
X167613503Y-125826779D01*
X167029065Y-125826779D01*
X167032033Y-125785682D01*
X167090566Y-125546173D01*
X167182033Y-125348931D01*
X167305024Y-125186741D01*
X167461735Y-125052215D01*
X167638321Y-124956467D01*
X167838731Y-124897636D01*
X168068527Y-124877163D01*
X168251927Y-124889279D01*
G37*
G36*
X169290718Y-125369556D02*
G01*
X169290718Y-124959228D01*
X169602128Y-124959228D01*
X169602128Y-124326151D01*
X170180068Y-124326151D01*
X170180068Y-124959228D01*
X170542952Y-124959228D01*
X170542952Y-125369556D01*
X170180068Y-125369556D01*
X170180068Y-126558225D01*
X170191389Y-126682079D01*
X170214872Y-126730600D01*
X170268549Y-126753004D01*
X170428096Y-126764672D01*
X170484516Y-126761741D01*
X170542952Y-126752948D01*
X170542952Y-127186723D01*
X170266163Y-127210170D01*
X170051387Y-127204243D01*
X169893737Y-127174596D01*
X169780249Y-127127326D01*
X169700497Y-127065640D01*
X169648739Y-126992090D01*
X169614800Y-126891206D01*
X169602128Y-126754230D01*
X169602128Y-125369556D01*
X169290718Y-125369556D01*
G37*
G36*
X171971589Y-124935781D02*
G01*
X172564000Y-124935781D01*
X172904169Y-126548517D01*
X173252582Y-124935781D01*
X173861113Y-124935781D01*
X173213564Y-127175000D01*
X172613093Y-127175000D01*
X172262665Y-125543946D01*
X171908208Y-127175000D01*
X171301509Y-127175000D01*
X170674476Y-124935781D01*
X171301509Y-124935781D01*
X171649921Y-126542288D01*
X171971589Y-124935781D01*
G37*
G36*
X175419969Y-124893228D02*
G01*
X175616902Y-124938480D01*
X175784001Y-125009913D01*
X175925973Y-125106534D01*
X176046109Y-125229422D01*
X176169359Y-125412690D01*
X176257121Y-125610519D01*
X176310595Y-125825829D01*
X176328942Y-126062351D01*
X176310418Y-126303161D01*
X176256669Y-126520186D01*
X176168875Y-126717481D01*
X176046109Y-126898211D01*
X175926258Y-127019075D01*
X175784462Y-127114276D01*
X175617383Y-127184764D01*
X175420293Y-127229463D01*
X175187351Y-127245341D01*
X174954493Y-127229465D01*
X174757460Y-127184770D01*
X174590413Y-127114285D01*
X174448630Y-127019083D01*
X174328777Y-126898211D01*
X174206011Y-126717481D01*
X174118217Y-126520186D01*
X174064468Y-126303161D01*
X174045943Y-126062351D01*
X174046114Y-126060153D01*
X174652643Y-126060153D01*
X174670286Y-126281751D01*
X174718063Y-126451746D01*
X174790945Y-126581306D01*
X174866800Y-126660979D01*
X174955861Y-126717480D01*
X175060745Y-126752384D01*
X175185520Y-126764672D01*
X175310203Y-126752370D01*
X175414816Y-126717451D01*
X175503472Y-126660956D01*
X175578812Y-126581306D01*
X175651182Y-126451818D01*
X175698658Y-126281825D01*
X175716198Y-126060153D01*
X175698634Y-125838479D01*
X175651139Y-125668903D01*
X175578812Y-125540099D01*
X175475581Y-125439839D01*
X175347163Y-125379263D01*
X175185520Y-125357833D01*
X175023712Y-125379243D01*
X174894840Y-125439812D01*
X174790945Y-125540099D01*
X174718106Y-125668976D01*
X174670311Y-125838554D01*
X174652643Y-126060153D01*
X174046114Y-126060153D01*
X174064291Y-125825829D01*
X174117765Y-125610519D01*
X174205527Y-125412690D01*
X174328777Y-125229422D01*
X174448915Y-125106526D01*
X174590874Y-125009904D01*
X174757940Y-124938474D01*
X174954818Y-124893226D01*
X175187351Y-124877163D01*
X175419969Y-124893228D01*
G37*
G36*
X177961095Y-124877163D02*
G01*
X177988573Y-124877163D01*
X178038948Y-124877163D01*
X178038948Y-125475069D01*
X177940579Y-125475069D01*
X177870970Y-125475069D01*
X177697031Y-125491944D01*
X177566271Y-125537656D01*
X177468520Y-125608369D01*
X177397444Y-125705329D01*
X177363166Y-125794909D01*
X177339116Y-125923871D01*
X177329850Y-126104117D01*
X177329850Y-127175000D01*
X176741652Y-127175000D01*
X176741652Y-124935781D01*
X177299075Y-124935781D01*
X177299075Y-125325409D01*
X177436342Y-125121119D01*
X177534830Y-125016198D01*
X177651214Y-124940786D01*
X177791240Y-124893830D01*
X177961095Y-124877163D01*
G37*
G36*
X178374171Y-124162020D02*
G01*
X178948081Y-124162020D01*
X178948081Y-125788494D01*
X179675497Y-124947505D01*
X180399066Y-124947505D01*
X179618161Y-125781899D01*
X180429658Y-127175000D01*
X179724773Y-127175000D01*
X179188782Y-126218239D01*
X178948081Y-126470847D01*
X178948081Y-127175000D01*
X178374171Y-127175000D01*
X178374171Y-124162020D01*
G37*
G36*
X148124820Y-129210291D02*
G01*
X148323875Y-129255875D01*
X148522257Y-129345118D01*
X148692532Y-129471959D01*
X148838250Y-129639642D01*
X148932683Y-129795153D01*
X149004082Y-129957581D01*
X149053306Y-130128189D01*
X149096878Y-130388394D01*
X149110825Y-130628825D01*
X149094278Y-130931795D01*
X149046931Y-131200197D01*
X148971382Y-131438509D01*
X148869025Y-131650615D01*
X148747797Y-131825515D01*
X148610217Y-131964652D01*
X148455275Y-132072050D01*
X148280584Y-132149845D01*
X148082546Y-132198141D01*
X147856577Y-132215000D01*
X146555251Y-132215000D01*
X146555251Y-131699159D01*
X147167996Y-131699159D01*
X147749965Y-131699159D01*
X147920213Y-131680799D01*
X148062954Y-131628481D01*
X148184183Y-131542981D01*
X148287363Y-131420609D01*
X148372968Y-131253660D01*
X148424695Y-131088001D01*
X148457642Y-130895387D01*
X148469321Y-130671507D01*
X148450331Y-130362085D01*
X148399718Y-130128899D01*
X148324791Y-129955814D01*
X148241619Y-129852682D01*
X148124752Y-129775729D01*
X147965262Y-129725052D01*
X147749965Y-129706137D01*
X147167996Y-129706137D01*
X147167996Y-131699159D01*
X146555251Y-131699159D01*
X146555251Y-129190296D01*
X147856577Y-129190296D01*
X148124820Y-129210291D01*
G37*
G36*
X150603427Y-129929279D02*
G01*
X150769897Y-129964427D01*
X150921947Y-130021577D01*
X151060831Y-130103551D01*
X151183341Y-130212404D01*
X151290876Y-130351121D01*
X151367001Y-130488117D01*
X151423891Y-130640838D01*
X151461052Y-130811641D01*
X151476189Y-130982039D01*
X151479553Y-131253660D01*
X149950715Y-131253660D01*
X149971053Y-131423238D01*
X150014645Y-131554372D01*
X150078252Y-131655131D01*
X150161741Y-131731215D01*
X150245983Y-131777774D01*
X150342075Y-131806412D01*
X150452818Y-131816395D01*
X150568994Y-131804154D01*
X150665201Y-131769488D01*
X150745726Y-131713264D01*
X150801694Y-131649499D01*
X150854353Y-131558475D01*
X151450794Y-131558475D01*
X151420386Y-131684241D01*
X151353898Y-131817246D01*
X151243798Y-131960743D01*
X151122783Y-132075317D01*
X150984841Y-132164712D01*
X150827562Y-132230093D01*
X150647537Y-132270993D01*
X150440544Y-132285341D01*
X150232161Y-132267906D01*
X150039375Y-132216648D01*
X149858947Y-132131564D01*
X149688399Y-132010568D01*
X149577744Y-131895541D01*
X149488787Y-131754014D01*
X149421564Y-131581347D01*
X149378153Y-131371361D01*
X149362518Y-131116639D01*
X149380566Y-130866779D01*
X149965004Y-130866779D01*
X150872854Y-130866779D01*
X150848981Y-130718436D01*
X150801495Y-130604348D01*
X150732537Y-130517084D01*
X150642480Y-130451204D01*
X150539586Y-130411555D01*
X150420028Y-130397833D01*
X150290363Y-130412998D01*
X150187539Y-130455452D01*
X150105321Y-130524228D01*
X150042434Y-130614255D01*
X149995172Y-130726805D01*
X149965004Y-130866779D01*
X149380566Y-130866779D01*
X149383534Y-130825682D01*
X149442066Y-130586173D01*
X149533533Y-130388931D01*
X149656525Y-130226741D01*
X149813236Y-130092215D01*
X149989822Y-129996467D01*
X150190232Y-129937636D01*
X150420028Y-129917163D01*
X150603427Y-129929279D01*
G37*
G36*
X154367786Y-129917163D02*
G01*
X154513619Y-129931121D01*
X154658863Y-129973583D01*
X154792820Y-130049067D01*
X154919164Y-130171236D01*
X154996815Y-130299986D01*
X155046110Y-130460847D01*
X155060643Y-130587821D01*
X155066626Y-130793872D01*
X155062596Y-132215000D01*
X154464140Y-132215000D01*
X154464140Y-130768777D01*
X154452984Y-130646552D01*
X154423107Y-130556285D01*
X154358177Y-130469609D01*
X154265802Y-130417012D01*
X154136244Y-130397833D01*
X154020833Y-130411582D01*
X153930023Y-130449997D01*
X153858021Y-130512255D01*
X153802120Y-130602081D01*
X153767591Y-130717101D01*
X153755042Y-130862566D01*
X153755042Y-132215000D01*
X153166844Y-132215000D01*
X153166844Y-130875389D01*
X153154609Y-130689338D01*
X153125811Y-130584312D01*
X153062721Y-130495315D01*
X152970020Y-130441171D01*
X152836933Y-130421280D01*
X152713576Y-130433226D01*
X152620773Y-130465594D01*
X152551341Y-130515668D01*
X152500794Y-130584312D01*
X152467333Y-130689570D01*
X152453716Y-130860917D01*
X152453716Y-132215000D01*
X151861488Y-132215000D01*
X151861488Y-129975781D01*
X152429170Y-129975781D01*
X152429170Y-130286458D01*
X152541725Y-130133091D01*
X152634150Y-130044841D01*
X152753616Y-129976041D01*
X152898395Y-129932659D01*
X153074704Y-129917163D01*
X153242469Y-129930682D01*
X153378406Y-129968194D01*
X153488695Y-130026889D01*
X153599744Y-130142272D01*
X153681403Y-130288473D01*
X153766465Y-130169146D01*
X153861195Y-130076369D01*
X153966251Y-130006922D01*
X154089230Y-129957597D01*
X154222414Y-129927486D01*
X154367786Y-129917163D01*
G37*
G36*
X156842370Y-129933228D02*
G01*
X157039303Y-129978480D01*
X157206402Y-130049913D01*
X157348374Y-130146534D01*
X157468510Y-130269422D01*
X157591760Y-130452690D01*
X157679522Y-130650519D01*
X157732996Y-130865829D01*
X157751343Y-131102351D01*
X157732819Y-131343161D01*
X157679070Y-131560186D01*
X157591276Y-131757481D01*
X157468510Y-131938211D01*
X157348659Y-132059075D01*
X157206863Y-132154276D01*
X157039784Y-132224764D01*
X156842694Y-132269463D01*
X156609752Y-132285341D01*
X156376894Y-132269465D01*
X156179861Y-132224770D01*
X156012814Y-132154285D01*
X155871031Y-132059083D01*
X155751178Y-131938211D01*
X155628412Y-131757481D01*
X155540618Y-131560186D01*
X155486869Y-131343161D01*
X155468344Y-131102351D01*
X155468515Y-131100153D01*
X156075044Y-131100153D01*
X156092687Y-131321751D01*
X156140464Y-131491746D01*
X156213346Y-131621306D01*
X156289201Y-131700979D01*
X156378262Y-131757480D01*
X156483146Y-131792384D01*
X156607921Y-131804672D01*
X156732604Y-131792370D01*
X156837217Y-131757451D01*
X156925873Y-131700956D01*
X157001213Y-131621306D01*
X157073583Y-131491818D01*
X157121059Y-131321825D01*
X157138599Y-131100153D01*
X157121035Y-130878479D01*
X157073540Y-130708903D01*
X157001213Y-130580099D01*
X156897982Y-130479839D01*
X156769564Y-130419263D01*
X156607921Y-130397833D01*
X156446113Y-130419243D01*
X156317240Y-130479812D01*
X156213346Y-130580099D01*
X156140507Y-130708976D01*
X156092712Y-130878554D01*
X156075044Y-131100153D01*
X155468515Y-131100153D01*
X155486692Y-130865829D01*
X155540166Y-130650519D01*
X155627928Y-130452690D01*
X155751178Y-130269422D01*
X155871316Y-130146526D01*
X156013275Y-130049904D01*
X156180341Y-129978474D01*
X156377219Y-129933226D01*
X156609752Y-129917163D01*
X156842370Y-129933228D01*
G37*
G36*
X161088737Y-129208559D02*
G01*
X161274671Y-129252612D01*
X161426335Y-129318863D01*
X161549521Y-129405697D01*
X161648360Y-129513613D01*
X161724753Y-129648674D01*
X161771517Y-129801643D01*
X161787762Y-129976880D01*
X161770831Y-130157438D01*
X161723526Y-130304092D01*
X161648360Y-130423845D01*
X161556974Y-130510687D01*
X161418833Y-130596769D01*
X161563813Y-130665584D01*
X161678811Y-130754017D01*
X161768161Y-130862749D01*
X161832266Y-130989008D01*
X161872134Y-131134857D01*
X161886131Y-131304584D01*
X161870717Y-131479280D01*
X161825616Y-131638509D01*
X161750942Y-131785437D01*
X161653746Y-131915640D01*
X161535703Y-132022658D01*
X161379291Y-132114816D01*
X161192420Y-132174150D01*
X160989879Y-132204430D01*
X160763041Y-132215000D01*
X159394121Y-132215000D01*
X159394121Y-131699159D01*
X159996607Y-131699159D01*
X160738495Y-131699159D01*
X160925027Y-131684030D01*
X161048072Y-131645669D01*
X161133953Y-131586755D01*
X161195438Y-131507423D01*
X161234549Y-131403320D01*
X161248840Y-131266849D01*
X161235599Y-131153494D01*
X161198753Y-131064903D01*
X161139361Y-130995246D01*
X161054117Y-130941700D01*
X160933507Y-130905864D01*
X160748753Y-130890226D01*
X159996607Y-130890226D01*
X159996607Y-131699159D01*
X159394121Y-131699159D01*
X159394121Y-130386109D01*
X159996607Y-130386109D01*
X160738495Y-130386109D01*
X160869212Y-130376636D01*
X160975276Y-130350422D01*
X161061261Y-130309722D01*
X161127780Y-130248941D01*
X161169704Y-130161831D01*
X161185276Y-130038796D01*
X161165192Y-129905928D01*
X161110765Y-129814861D01*
X161021328Y-129754314D01*
X160869560Y-129719436D01*
X160660642Y-129706137D01*
X159996607Y-129706137D01*
X159996607Y-130386109D01*
X159394121Y-130386109D01*
X159394121Y-129190296D01*
X160861410Y-129190296D01*
X161088737Y-129208559D01*
G37*
G36*
X163603989Y-129933228D02*
G01*
X163800922Y-129978480D01*
X163968021Y-130049913D01*
X164109993Y-130146534D01*
X164230129Y-130269422D01*
X164353379Y-130452690D01*
X164441141Y-130650519D01*
X164494615Y-130865829D01*
X164512962Y-131102351D01*
X164494438Y-131343161D01*
X164440689Y-131560186D01*
X164352895Y-131757481D01*
X164230129Y-131938211D01*
X164110278Y-132059075D01*
X163968482Y-132154276D01*
X163801403Y-132224764D01*
X163604313Y-132269463D01*
X163371371Y-132285341D01*
X163138513Y-132269465D01*
X162941480Y-132224770D01*
X162774433Y-132154285D01*
X162632650Y-132059083D01*
X162512797Y-131938211D01*
X162390031Y-131757481D01*
X162302237Y-131560186D01*
X162248488Y-131343161D01*
X162229963Y-131102351D01*
X162230134Y-131100153D01*
X162836663Y-131100153D01*
X162854306Y-131321751D01*
X162902083Y-131491746D01*
X162974965Y-131621306D01*
X163050820Y-131700979D01*
X163139881Y-131757480D01*
X163244765Y-131792384D01*
X163369540Y-131804672D01*
X163494223Y-131792370D01*
X163598836Y-131757451D01*
X163687492Y-131700956D01*
X163762832Y-131621306D01*
X163835202Y-131491818D01*
X163882678Y-131321825D01*
X163900218Y-131100153D01*
X163882654Y-130878479D01*
X163835159Y-130708903D01*
X163762832Y-130580099D01*
X163659601Y-130479839D01*
X163531183Y-130419263D01*
X163369540Y-130397833D01*
X163207732Y-130419243D01*
X163078859Y-130479812D01*
X162974965Y-130580099D01*
X162902126Y-130708976D01*
X162854331Y-130878554D01*
X162836663Y-131100153D01*
X162230134Y-131100153D01*
X162248311Y-130865829D01*
X162301785Y-130650519D01*
X162389547Y-130452690D01*
X162512797Y-130269422D01*
X162632935Y-130146526D01*
X162774894Y-130049904D01*
X162941960Y-129978474D01*
X163138838Y-129933226D01*
X163371371Y-129917163D01*
X163603989Y-129933228D01*
G37*
G36*
X166052111Y-129934212D02*
G01*
X166267994Y-129983462D01*
X166462753Y-130063342D01*
X166584166Y-130149523D01*
X166671499Y-130265378D01*
X166727220Y-130417391D01*
X166747601Y-130616552D01*
X166747601Y-131649699D01*
X166751631Y-131910184D01*
X166765471Y-132020287D01*
X166786436Y-132073766D01*
X166821217Y-132111954D01*
X166872715Y-132144658D01*
X166872715Y-132215000D01*
X166237256Y-132215000D01*
X166200436Y-132088970D01*
X166184133Y-131954698D01*
X166054415Y-132075252D01*
X165905330Y-132177081D01*
X165775873Y-132236632D01*
X165634649Y-132272894D01*
X165479065Y-132285341D01*
X165283416Y-132264854D01*
X165118535Y-132206433D01*
X164977879Y-132111135D01*
X164893369Y-132017712D01*
X164832189Y-131906837D01*
X164793831Y-131774995D01*
X164780225Y-131617276D01*
X164783709Y-131576427D01*
X165366408Y-131576427D01*
X165376964Y-131673924D01*
X165405332Y-131744746D01*
X165449389Y-131795696D01*
X165540002Y-131845937D01*
X165651256Y-131863290D01*
X165773411Y-131850857D01*
X165888418Y-131813815D01*
X165998570Y-131750999D01*
X166064081Y-131688907D01*
X166114335Y-131604198D01*
X166148642Y-131491073D01*
X166163617Y-131341587D01*
X166163617Y-131121219D01*
X166051876Y-131178372D01*
X165897087Y-131218855D01*
X165765928Y-131243768D01*
X165595732Y-131284470D01*
X165501596Y-131324918D01*
X165426716Y-131388653D01*
X165382170Y-131470486D01*
X165366408Y-131576427D01*
X164783709Y-131576427D01*
X164794194Y-131453480D01*
X164833663Y-131315737D01*
X164896711Y-131199174D01*
X164983828Y-131100269D01*
X165097863Y-131017172D01*
X165218405Y-130961239D01*
X165385261Y-130912083D01*
X165610223Y-130872824D01*
X165808976Y-130848094D01*
X165958906Y-130822298D01*
X166040701Y-130796437D01*
X166112715Y-130751757D01*
X166152308Y-130697147D01*
X166165632Y-130629375D01*
X166153830Y-130542815D01*
X166121825Y-130481490D01*
X166070194Y-130438682D01*
X165962355Y-130401164D01*
X165790475Y-130386109D01*
X165656395Y-130399450D01*
X165562311Y-130434602D01*
X165497566Y-130487775D01*
X165447817Y-130572351D01*
X165415501Y-130690924D01*
X164852033Y-130690924D01*
X164880059Y-130501236D01*
X164935331Y-130343201D01*
X165015981Y-130211170D01*
X165113555Y-130112011D01*
X165236409Y-130031974D01*
X165389219Y-129971112D01*
X165578278Y-129931520D01*
X165811174Y-129917163D01*
X166052111Y-129934212D01*
G37*
G36*
X168478123Y-129917163D02*
G01*
X168505600Y-129917163D01*
X168555975Y-129917163D01*
X168555975Y-130515069D01*
X168457607Y-130515069D01*
X168387997Y-130515069D01*
X168214059Y-130531944D01*
X168083298Y-130577656D01*
X167985547Y-130648369D01*
X167914471Y-130745329D01*
X167880194Y-130834909D01*
X167856144Y-130963871D01*
X167846877Y-131144117D01*
X167846877Y-132215000D01*
X167258679Y-132215000D01*
X167258679Y-129975781D01*
X167816103Y-129975781D01*
X167816103Y-130365409D01*
X167953370Y-130161119D01*
X168051858Y-130056198D01*
X168168242Y-129980786D01*
X168308268Y-129933830D01*
X168478123Y-129917163D01*
G37*
G36*
X170930382Y-132215000D02*
G01*
X170362701Y-132215000D01*
X170362701Y-131914214D01*
X170271672Y-132036564D01*
X170176862Y-132129459D01*
X170077853Y-132197048D01*
X169967837Y-132244422D01*
X169836759Y-132274582D01*
X169680347Y-132285341D01*
X169492305Y-132265441D01*
X169322493Y-132207045D01*
X169166474Y-132109192D01*
X169021441Y-131967154D01*
X168907148Y-131801692D01*
X168824001Y-131613414D01*
X168772158Y-131398173D01*
X168753995Y-131150711D01*
X168756263Y-131115724D01*
X169356481Y-131115724D01*
X169371733Y-131321793D01*
X169413641Y-131486151D01*
X169478297Y-131616910D01*
X169546827Y-131698737D01*
X169629241Y-131756418D01*
X169728228Y-131792060D01*
X169848325Y-131804672D01*
X169968383Y-131792231D01*
X170068724Y-131756894D01*
X170153523Y-131699498D01*
X170225314Y-131618009D01*
X170294611Y-131487502D01*
X170338660Y-131328543D01*
X170354458Y-131134408D01*
X170338918Y-130924710D01*
X170296711Y-130761948D01*
X170232400Y-130636472D01*
X170147462Y-130540898D01*
X170057860Y-130480798D01*
X169960399Y-130445132D01*
X169852355Y-130433004D01*
X169728515Y-130446237D01*
X169627533Y-130483505D01*
X169544415Y-130543709D01*
X169476282Y-130629192D01*
X169411711Y-130764776D01*
X169370953Y-130925190D01*
X169356481Y-131115724D01*
X168756263Y-131115724D01*
X168772744Y-130861459D01*
X168825214Y-130619274D01*
X168907313Y-130416464D01*
X169017228Y-130246707D01*
X169160669Y-130102010D01*
X169322939Y-130000505D01*
X169507855Y-129938651D01*
X169721380Y-129917163D01*
X169854144Y-129927595D01*
X169973538Y-129957851D01*
X170081883Y-130007288D01*
X170224422Y-130114304D01*
X170338154Y-130256966D01*
X170338154Y-129202020D01*
X170930382Y-129202020D01*
X170930382Y-132215000D01*
G37*
D12*
X159248214Y-51352419D02*
X159248214Y-52161942D01*
X159248214Y-52161942D02*
X159295833Y-52257180D01*
X159295833Y-52257180D02*
X159343452Y-52304800D01*
X159343452Y-52304800D02*
X159438690Y-52352419D01*
X159438690Y-52352419D02*
X159629166Y-52352419D01*
X159629166Y-52352419D02*
X159724404Y-52304800D01*
X159724404Y-52304800D02*
X159772023Y-52257180D01*
X159772023Y-52257180D02*
X159819642Y-52161942D01*
X159819642Y-52161942D02*
X159819642Y-51352419D01*
X160248214Y-52304800D02*
X160391071Y-52352419D01*
X160391071Y-52352419D02*
X160629166Y-52352419D01*
X160629166Y-52352419D02*
X160724404Y-52304800D01*
X160724404Y-52304800D02*
X160772023Y-52257180D01*
X160772023Y-52257180D02*
X160819642Y-52161942D01*
X160819642Y-52161942D02*
X160819642Y-52066704D01*
X160819642Y-52066704D02*
X160772023Y-51971466D01*
X160772023Y-51971466D02*
X160724404Y-51923847D01*
X160724404Y-51923847D02*
X160629166Y-51876228D01*
X160629166Y-51876228D02*
X160438690Y-51828609D01*
X160438690Y-51828609D02*
X160343452Y-51780990D01*
X160343452Y-51780990D02*
X160295833Y-51733371D01*
X160295833Y-51733371D02*
X160248214Y-51638133D01*
X160248214Y-51638133D02*
X160248214Y-51542895D01*
X160248214Y-51542895D02*
X160295833Y-51447657D01*
X160295833Y-51447657D02*
X160343452Y-51400038D01*
X160343452Y-51400038D02*
X160438690Y-51352419D01*
X160438690Y-51352419D02*
X160676785Y-51352419D01*
X160676785Y-51352419D02*
X160819642Y-51400038D01*
X161581547Y-51828609D02*
X161724404Y-51876228D01*
X161724404Y-51876228D02*
X161772023Y-51923847D01*
X161772023Y-51923847D02*
X161819642Y-52019085D01*
X161819642Y-52019085D02*
X161819642Y-52161942D01*
X161819642Y-52161942D02*
X161772023Y-52257180D01*
X161772023Y-52257180D02*
X161724404Y-52304800D01*
X161724404Y-52304800D02*
X161629166Y-52352419D01*
X161629166Y-52352419D02*
X161248214Y-52352419D01*
X161248214Y-52352419D02*
X161248214Y-51352419D01*
X161248214Y-51352419D02*
X161581547Y-51352419D01*
X161581547Y-51352419D02*
X161676785Y-51400038D01*
X161676785Y-51400038D02*
X161724404Y-51447657D01*
X161724404Y-51447657D02*
X161772023Y-51542895D01*
X161772023Y-51542895D02*
X161772023Y-51638133D01*
X161772023Y-51638133D02*
X161724404Y-51733371D01*
X161724404Y-51733371D02*
X161676785Y-51780990D01*
X161676785Y-51780990D02*
X161581547Y-51828609D01*
X161581547Y-51828609D02*
X161248214Y-51828609D01*
X163581547Y-52257180D02*
X163533928Y-52304800D01*
X163533928Y-52304800D02*
X163391071Y-52352419D01*
X163391071Y-52352419D02*
X163295833Y-52352419D01*
X163295833Y-52352419D02*
X163152976Y-52304800D01*
X163152976Y-52304800D02*
X163057738Y-52209561D01*
X163057738Y-52209561D02*
X163010119Y-52114323D01*
X163010119Y-52114323D02*
X162962500Y-51923847D01*
X162962500Y-51923847D02*
X162962500Y-51780990D01*
X162962500Y-51780990D02*
X163010119Y-51590514D01*
X163010119Y-51590514D02*
X163057738Y-51495276D01*
X163057738Y-51495276D02*
X163152976Y-51400038D01*
X163152976Y-51400038D02*
X163295833Y-51352419D01*
X163295833Y-51352419D02*
X163391071Y-51352419D01*
X163391071Y-51352419D02*
X163533928Y-51400038D01*
X163533928Y-51400038D02*
X163581547Y-51447657D01*
X164200595Y-51352419D02*
X164391071Y-51352419D01*
X164391071Y-51352419D02*
X164486309Y-51400038D01*
X164486309Y-51400038D02*
X164581547Y-51495276D01*
X164581547Y-51495276D02*
X164629166Y-51685752D01*
X164629166Y-51685752D02*
X164629166Y-52019085D01*
X164629166Y-52019085D02*
X164581547Y-52209561D01*
X164581547Y-52209561D02*
X164486309Y-52304800D01*
X164486309Y-52304800D02*
X164391071Y-52352419D01*
X164391071Y-52352419D02*
X164200595Y-52352419D01*
X164200595Y-52352419D02*
X164105357Y-52304800D01*
X164105357Y-52304800D02*
X164010119Y-52209561D01*
X164010119Y-52209561D02*
X163962500Y-52019085D01*
X163962500Y-52019085D02*
X163962500Y-51685752D01*
X163962500Y-51685752D02*
X164010119Y-51495276D01*
X164010119Y-51495276D02*
X164105357Y-51400038D01*
X164105357Y-51400038D02*
X164200595Y-51352419D01*
X165057738Y-52352419D02*
X165057738Y-51352419D01*
X165057738Y-51352419D02*
X165629166Y-52352419D01*
X165629166Y-52352419D02*
X165629166Y-51352419D01*
X166105357Y-52352419D02*
X166105357Y-51352419D01*
X166105357Y-51352419D02*
X166676785Y-52352419D01*
X166676785Y-52352419D02*
X166676785Y-51352419D01*
D13*
%TO.C,R8*%
X100687742Y-98977500D02*
X101162258Y-98977500D01*
X100687742Y-100022500D02*
X101162258Y-100022500D01*
%TO.C,R27*%
X175550242Y-103987500D02*
X176024758Y-103987500D01*
X175550242Y-105032500D02*
X176024758Y-105032500D01*
%TO.C,R36*%
X126790000Y-105425242D02*
X126790000Y-105899758D01*
X127835000Y-105425242D02*
X127835000Y-105899758D01*
%TO.C,R19*%
X116280000Y-105150242D02*
X116280000Y-105624758D01*
X117325000Y-105150242D02*
X117325000Y-105624758D01*
%TO.C,R35*%
X121712742Y-98777500D02*
X122187258Y-98777500D01*
X121712742Y-99822500D02*
X122187258Y-99822500D01*
%TO.C,R44*%
X137290000Y-95100242D02*
X137290000Y-95574758D01*
X138335000Y-95100242D02*
X138335000Y-95574758D01*
%TO.C,R31*%
X121687742Y-77777500D02*
X122162258Y-77777500D01*
X121687742Y-78822500D02*
X122162258Y-78822500D01*
%TO.C,R20*%
X111287742Y-109177500D02*
X111762258Y-109177500D01*
X111287742Y-110222500D02*
X111762258Y-110222500D01*
%TO.C,R50*%
X147790000Y-73950242D02*
X147790000Y-74424758D01*
X148835000Y-73950242D02*
X148835000Y-74424758D01*
%TO.C,R30*%
X126790000Y-73925242D02*
X126790000Y-74399758D01*
X127835000Y-73925242D02*
X127835000Y-74399758D01*
D12*
%TO.C,U20*%
X129162500Y-79987500D02*
X135962500Y-79987500D01*
X129162500Y-87187500D02*
X135962500Y-87187500D01*
%TO.C,U23*%
X139662500Y-59137500D02*
X146462500Y-59137500D01*
X139662500Y-66337500D02*
X146462500Y-66337500D01*
D13*
%TO.C,R21*%
X175550242Y-88927500D02*
X176024758Y-88927500D01*
X175550242Y-89972500D02*
X176024758Y-89972500D01*
%TO.C,R53*%
X142687742Y-88377500D02*
X143162258Y-88377500D01*
X142687742Y-89422500D02*
X143162258Y-89422500D01*
D12*
%TO.C,U3*%
X97662500Y-80187500D02*
X104462500Y-80187500D01*
X97662500Y-87387500D02*
X104462500Y-87387500D01*
D13*
%TO.C,R38*%
X137290000Y-63425242D02*
X137290000Y-63899758D01*
X138335000Y-63425242D02*
X138335000Y-63899758D01*
%TO.C,R45*%
X132287742Y-98977500D02*
X132762258Y-98977500D01*
X132287742Y-100022500D02*
X132762258Y-100022500D01*
D12*
%TO.C,U26*%
X139662500Y-90737500D02*
X146462500Y-90737500D01*
X139662500Y-97937500D02*
X146462500Y-97937500D01*
%TO.C,U10*%
X108162500Y-100987500D02*
X114962500Y-100987500D01*
X108162500Y-108187500D02*
X114962500Y-108187500D01*
D13*
%TO.C,R49*%
X142712742Y-67577500D02*
X143187258Y-67577500D01*
X142712742Y-68622500D02*
X143187258Y-68622500D01*
D12*
%TO.C,U24*%
X139662500Y-69737500D02*
X146462500Y-69737500D01*
X139662500Y-76937500D02*
X146462500Y-76937500D01*
D13*
%TO.C,R23*%
X175550242Y-93947500D02*
X176024758Y-93947500D01*
X175550242Y-94992500D02*
X176024758Y-94992500D01*
%TO.C,R57*%
X142887742Y-109177500D02*
X143362258Y-109177500D01*
X142887742Y-110222500D02*
X143362258Y-110222500D01*
%TO.C,R52*%
X147790000Y-84425242D02*
X147790000Y-84899758D01*
X148835000Y-84425242D02*
X148835000Y-84899758D01*
%TO.C,R32*%
X126790000Y-84425242D02*
X126790000Y-84899758D01*
X127835000Y-84425242D02*
X127835000Y-84899758D01*
D12*
%TO.C,U4*%
X97662500Y-90687500D02*
X104462500Y-90687500D01*
X97662500Y-97887500D02*
X104462500Y-97887500D01*
D13*
%TO.C,R47*%
X132287742Y-109177500D02*
X132762258Y-109177500D01*
X132287742Y-110222500D02*
X132762258Y-110222500D01*
%TO.C,R3*%
X105790000Y-74100242D02*
X105790000Y-74574758D01*
X106835000Y-74100242D02*
X106835000Y-74574758D01*
%TO.C,R34*%
X126790000Y-94925242D02*
X126790000Y-95399758D01*
X127835000Y-94925242D02*
X127835000Y-95399758D01*
%TO.C,R25*%
X175550242Y-98967500D02*
X176024758Y-98967500D01*
X175550242Y-100012500D02*
X176024758Y-100012500D01*
D12*
%TO.C,U6*%
X108162500Y-59162500D02*
X114962500Y-59162500D01*
X108162500Y-66362500D02*
X114962500Y-66362500D01*
D13*
%TO.C,R28*%
X126790000Y-63425242D02*
X126790000Y-63899758D01*
X127835000Y-63425242D02*
X127835000Y-63899758D01*
%TO.C,R29*%
X121737742Y-67577500D02*
X122212258Y-67577500D01*
X121737742Y-68622500D02*
X122212258Y-68622500D01*
%TO.C,R46*%
X137290000Y-105425242D02*
X137290000Y-105899758D01*
X138335000Y-105425242D02*
X138335000Y-105899758D01*
D12*
%TO.C,U13*%
X118662500Y-59137500D02*
X125462500Y-59137500D01*
X118662500Y-66337500D02*
X125462500Y-66337500D01*
%TO.C,U19*%
X129162500Y-69737500D02*
X135962500Y-69737500D01*
X129162500Y-76937500D02*
X135962500Y-76937500D01*
D13*
%TO.C,C1*%
X163273752Y-55165000D02*
X162751248Y-55165000D01*
X163273752Y-56635000D02*
X162751248Y-56635000D01*
D12*
%TO.C,U25*%
X139662500Y-79987500D02*
X146462500Y-79987500D01*
X139662500Y-87187500D02*
X146462500Y-87187500D01*
D13*
%TO.C,R42*%
X137290000Y-84425242D02*
X137290000Y-84899758D01*
X138335000Y-84425242D02*
X138335000Y-84899758D01*
%TO.C,R41*%
X132312742Y-77977500D02*
X132787258Y-77977500D01*
X132312742Y-79022500D02*
X132787258Y-79022500D01*
%TO.C,R2*%
X100712742Y-67577500D02*
X101187258Y-67577500D01*
X100712742Y-68622500D02*
X101187258Y-68622500D01*
%TO.C,R39*%
X132312742Y-67577500D02*
X132787258Y-67577500D01*
X132312742Y-68622500D02*
X132787258Y-68622500D01*
%TO.C,R48*%
X147790000Y-63425242D02*
X147790000Y-63899758D01*
X148835000Y-63425242D02*
X148835000Y-63899758D01*
%TO.C,R55*%
X142712742Y-98977500D02*
X143187258Y-98977500D01*
X142712742Y-100022500D02*
X143187258Y-100022500D01*
%TO.C,R1*%
X105790000Y-63500242D02*
X105790000Y-63974758D01*
X106835000Y-63500242D02*
X106835000Y-63974758D01*
%TO.C,R10*%
X100712742Y-109377500D02*
X101187258Y-109377500D01*
X100712742Y-110422500D02*
X101187258Y-110422500D01*
%TO.C,R37*%
X121712742Y-109177500D02*
X122187258Y-109177500D01*
X121712742Y-110222500D02*
X122187258Y-110222500D01*
D12*
%TO.C,U9*%
X108162500Y-90737500D02*
X114962500Y-90737500D01*
X108162500Y-97937500D02*
X114962500Y-97937500D01*
%TO.C,U22*%
X129162500Y-100987500D02*
X135962500Y-100987500D01*
X129162500Y-108187500D02*
X135962500Y-108187500D01*
D13*
%TO.C,R9*%
X105790000Y-105175242D02*
X105790000Y-105649758D01*
X106835000Y-105175242D02*
X106835000Y-105649758D01*
D12*
%TO.C,U2*%
X97662500Y-69737500D02*
X104462500Y-69737500D01*
X97662500Y-76937500D02*
X104462500Y-76937500D01*
D13*
%TO.C,R4*%
X100687742Y-77977500D02*
X101162258Y-77977500D01*
X100687742Y-79022500D02*
X101162258Y-79022500D01*
%TO.C,R15*%
X116290000Y-84425242D02*
X116290000Y-84899758D01*
X117335000Y-84425242D02*
X117335000Y-84899758D01*
%TO.C,R12*%
X111287742Y-67577500D02*
X111762258Y-67577500D01*
X111287742Y-68622500D02*
X111762258Y-68622500D01*
D12*
%TO.C,U1*%
X97662500Y-59162500D02*
X104462500Y-59162500D01*
X97662500Y-66362500D02*
X104462500Y-66362500D01*
D13*
%TO.C,R14*%
X111287742Y-77977500D02*
X111762258Y-77977500D01*
X111287742Y-79022500D02*
X111762258Y-79022500D01*
%TO.C,R43*%
X132312742Y-88377500D02*
X132787258Y-88377500D01*
X132312742Y-89422500D02*
X132787258Y-89422500D01*
D12*
%TO.C,U17*%
X118662500Y-100987500D02*
X125462500Y-100987500D01*
X118662500Y-108187500D02*
X125462500Y-108187500D01*
%TO.C,U16*%
X118662500Y-90737500D02*
X125462500Y-90737500D01*
X118662500Y-97937500D02*
X125462500Y-97937500D01*
D13*
%TO.C,R18*%
X111287742Y-98977500D02*
X111762258Y-98977500D01*
X111287742Y-100022500D02*
X111762258Y-100022500D01*
%TO.C,R56*%
X147790000Y-105425242D02*
X147790000Y-105899758D01*
X148835000Y-105425242D02*
X148835000Y-105899758D01*
%TO.C,R51*%
X142687742Y-77777500D02*
X143162258Y-77777500D01*
X142687742Y-78822500D02*
X143162258Y-78822500D01*
D12*
%TO.C,U5*%
X97662500Y-100987500D02*
X104462500Y-100987500D01*
X97662500Y-108187500D02*
X104462500Y-108187500D01*
%TO.C,U8*%
X108162500Y-80137500D02*
X114962500Y-80137500D01*
X108162500Y-87337500D02*
X114962500Y-87337500D01*
%TO.C,U14*%
X118662500Y-69737500D02*
X125462500Y-69737500D01*
X118662500Y-76937500D02*
X125462500Y-76937500D01*
D13*
%TO.C,R11*%
X116290000Y-63600242D02*
X116290000Y-64074758D01*
X117335000Y-63600242D02*
X117335000Y-64074758D01*
%TO.C,C2*%
X163273752Y-62165000D02*
X162751248Y-62165000D01*
X163273752Y-63635000D02*
X162751248Y-63635000D01*
D14*
%TO.C,G\u002A\u002A\u002A*%
G36*
X95306582Y-126999376D02*
G01*
X95306582Y-128850000D01*
X93477365Y-128850000D01*
X91648149Y-128850000D01*
X91661290Y-127012500D01*
X91674432Y-125175000D01*
X93490507Y-125161876D01*
X95306582Y-125148752D01*
X95306582Y-126999376D01*
G37*
G36*
X95306582Y-131775000D02*
G01*
X95306582Y-133600000D01*
X93477983Y-133600000D01*
X91649383Y-133600000D01*
X91649383Y-131775000D01*
X91649383Y-129950000D01*
X93477983Y-129950000D01*
X95306582Y-129950000D01*
X95306582Y-131775000D01*
G37*
G36*
X100141099Y-122250000D02*
G01*
X100141099Y-124075000D01*
X98299357Y-124088116D01*
X96457615Y-124101233D01*
X96470757Y-122263116D01*
X96483900Y-120425000D01*
X98312499Y-120425000D01*
X100141099Y-120425000D01*
X100141099Y-122250000D01*
G37*
G36*
X100166148Y-131775000D02*
G01*
X100166148Y-133600000D01*
X98312499Y-133600000D01*
X96458850Y-133600000D01*
X96458850Y-131775000D01*
X96458850Y-129950000D01*
X98312499Y-129950000D01*
X100166148Y-129950000D01*
X100166148Y-131775000D01*
G37*
G36*
X104925517Y-122249376D02*
G01*
X104925517Y-124100000D01*
X103096300Y-124100000D01*
X101267083Y-124100000D01*
X101280225Y-122262500D01*
X101293367Y-120425000D01*
X103109442Y-120411876D01*
X104925517Y-120398752D01*
X104925517Y-122249376D01*
G37*
G36*
X104925517Y-126999376D02*
G01*
X104925517Y-128850000D01*
X103096300Y-128850000D01*
X101267083Y-128850000D01*
X101280225Y-127012500D01*
X101293367Y-125175000D01*
X103109442Y-125161876D01*
X104925517Y-125148752D01*
X104925517Y-126999376D01*
G37*
G36*
X104925517Y-131775000D02*
G01*
X104925517Y-133600000D01*
X103096918Y-133600000D01*
X101268318Y-133600000D01*
X101268318Y-131775000D01*
X101268318Y-129950000D01*
X103096918Y-129950000D01*
X104925517Y-129950000D01*
X104925517Y-131775000D01*
G37*
G36*
X93933299Y-120292033D02*
G01*
X94172070Y-120351387D01*
X94567224Y-120523813D01*
X94912253Y-120776594D01*
X95197600Y-121098649D01*
X95413709Y-121478897D01*
X95551024Y-121906256D01*
X95562373Y-121963527D01*
X95590482Y-122378376D01*
X95526884Y-122783114D01*
X95380055Y-123165764D01*
X95158467Y-123514346D01*
X94870595Y-123816884D01*
X94524913Y-124061398D01*
X94129895Y-124235910D01*
X93913880Y-124293736D01*
X93675353Y-124334182D01*
X93469003Y-124339939D01*
X93239648Y-124311209D01*
X93161174Y-124296499D01*
X92741849Y-124166358D01*
X92371492Y-123957304D01*
X92057244Y-123681293D01*
X91806247Y-123350283D01*
X91625643Y-122976231D01*
X91522574Y-122571095D01*
X91504183Y-122146833D01*
X91577610Y-121715400D01*
X91591467Y-121668448D01*
X91763949Y-121267981D01*
X92010270Y-120925345D01*
X92318540Y-120646609D01*
X92676868Y-120437841D01*
X93073364Y-120305111D01*
X93496138Y-120254485D01*
X93933299Y-120292033D01*
G37*
G36*
X98975162Y-125084258D02*
G01*
X99357439Y-125264042D01*
X99708145Y-125537623D01*
X99747767Y-125576262D01*
X100027997Y-125920179D01*
X100220763Y-126296454D01*
X100328202Y-126692684D01*
X100352449Y-127096468D01*
X100295642Y-127495405D01*
X100159916Y-127877091D01*
X99947407Y-128229125D01*
X99660253Y-128539105D01*
X99300589Y-128794630D01*
X99182662Y-128856955D01*
X98999009Y-128939105D01*
X98833026Y-128989219D01*
X98643778Y-129016630D01*
X98426571Y-129029341D01*
X98200156Y-129031743D01*
X97988456Y-129023107D01*
X97828882Y-129005249D01*
X97798784Y-128998880D01*
X97413578Y-128852804D01*
X97056503Y-128623454D01*
X96747171Y-128327195D01*
X96505194Y-127980392D01*
X96451262Y-127874499D01*
X96308394Y-127461211D01*
X96258213Y-127045297D01*
X96294200Y-126638153D01*
X96409834Y-126251178D01*
X96598597Y-125895771D01*
X96853968Y-125583327D01*
X97169428Y-125325247D01*
X97538458Y-125132927D01*
X97954536Y-125017766D01*
X98095997Y-124999126D01*
X98556340Y-124996532D01*
X98975162Y-125084258D01*
G37*
D12*
%TO.C,U27*%
X139662500Y-100987500D02*
X146462500Y-100987500D01*
X139662500Y-108187500D02*
X146462500Y-108187500D01*
%TO.C,U7*%
X108172500Y-69737500D02*
X114972500Y-69737500D01*
X108172500Y-76937500D02*
X114972500Y-76937500D01*
%TO.C,U21*%
X129162500Y-90737500D02*
X135962500Y-90737500D01*
X129162500Y-97937500D02*
X135962500Y-97937500D01*
D13*
%TO.C,R40*%
X137290000Y-73925242D02*
X137290000Y-74399758D01*
X138335000Y-73925242D02*
X138335000Y-74399758D01*
D12*
%TO.C,IC1*%
X161212500Y-58800000D02*
X161212500Y-58800000D01*
X161312500Y-58800000D02*
X161312500Y-58800000D01*
X161762500Y-58000000D02*
X161977500Y-58000000D01*
X161762500Y-58050000D02*
X161762500Y-58000000D01*
X161762500Y-58500000D02*
X161762500Y-58050000D01*
X161762500Y-61000000D02*
X164262500Y-61000000D01*
X164262500Y-58000000D02*
X164012500Y-58000000D01*
X164262500Y-58500000D02*
X164262500Y-58000000D01*
X161212500Y-58800000D02*
G75*
G02*
X161312500Y-58800000I50000J0D01*
G01*
X161312500Y-58800000D02*
G75*
G02*
X161212500Y-58800000I-50000J0D01*
G01*
D13*
%TO.C,R6*%
X100687742Y-88577500D02*
X101162258Y-88577500D01*
X100687742Y-89622500D02*
X101162258Y-89622500D01*
%TO.C,R7*%
X105790000Y-94950242D02*
X105790000Y-95424758D01*
X106835000Y-94950242D02*
X106835000Y-95424758D01*
%TO.C,R22*%
X175550242Y-91437500D02*
X176024758Y-91437500D01*
X175550242Y-92482500D02*
X176024758Y-92482500D01*
%TO.C,R5*%
X105790000Y-84425242D02*
X105790000Y-84899758D01*
X106835000Y-84425242D02*
X106835000Y-84899758D01*
%TO.C,R24*%
X175550242Y-96457500D02*
X176024758Y-96457500D01*
X175550242Y-97502500D02*
X176024758Y-97502500D01*
D12*
%TO.C,U15*%
X118662500Y-79987500D02*
X125462500Y-79987500D01*
X118662500Y-87187500D02*
X125462500Y-87187500D01*
D13*
%TO.C,U11*%
X153962500Y-49870000D02*
X155342500Y-49870000D01*
X153962500Y-51250000D02*
X153962500Y-49870000D01*
X153962500Y-52520000D02*
X153962500Y-111050000D01*
X153962500Y-52520000D02*
X156722500Y-52520000D01*
X153962500Y-111050000D02*
X156722500Y-111050000D01*
X156722500Y-52520000D02*
X156722500Y-111050000D01*
X169202500Y-49870000D02*
X170582500Y-49870000D01*
X169202500Y-51250000D02*
X169202500Y-49870000D01*
X169202500Y-52520000D02*
X169202500Y-111050000D01*
X169202500Y-52520000D02*
X171962500Y-52520000D01*
X169202500Y-111050000D02*
X171962500Y-111050000D01*
X171962500Y-52520000D02*
X171962500Y-111050000D01*
%TO.C,R33*%
X121887742Y-88377500D02*
X122362258Y-88377500D01*
X121887742Y-89422500D02*
X122362258Y-89422500D01*
%TO.C,R54*%
X147790000Y-94925242D02*
X147790000Y-95399758D01*
X148835000Y-94925242D02*
X148835000Y-95399758D01*
D12*
%TO.C,U18*%
X129162500Y-59162500D02*
X135962500Y-59162500D01*
X129162500Y-66362500D02*
X135962500Y-66362500D01*
D13*
%TO.C,R26*%
X175550242Y-101477500D02*
X176024758Y-101477500D01*
X175550242Y-102522500D02*
X176024758Y-102522500D01*
%TO.C,R16*%
X111337742Y-88377500D02*
X111812258Y-88377500D01*
X111337742Y-89422500D02*
X111812258Y-89422500D01*
%TO.C,R13*%
X116290000Y-73925242D02*
X116290000Y-74399758D01*
X117335000Y-73925242D02*
X117335000Y-74399758D01*
%TO.C,R17*%
X116290000Y-94925242D02*
X116290000Y-95399758D01*
X117335000Y-94925242D02*
X117335000Y-95399758D01*
%TD*%
M02*
