%TF.GenerationSoftware,KiCad,Pcbnew,9.0.6*%
%TF.CreationDate,2026-02-05T23:01:48+01:00*%
%TF.ProjectId,BrakeoutBoard,4272616b-656f-4757-9442-6f6172642e6b,rev?*%
%TF.SameCoordinates,Original*%
%TF.FileFunction,Copper,L2,Bot*%
%TF.FilePolarity,Positive*%
%FSLAX46Y46*%
G04 Gerber Fmt 4.6, Leading zero omitted, Abs format (unit mm)*
G04 Created by KiCad (PCBNEW 9.0.6) date 2026-02-05 23:01:48*
%MOMM*%
%LPD*%
G01*
G04 APERTURE LIST*
%TA.AperFunction,ComponentPad*%
%ADD10C,0.800000*%
%TD*%
%TA.AperFunction,ComponentPad*%
%ADD11C,6.400000*%
%TD*%
%TA.AperFunction,ComponentPad*%
%ADD12C,1.500000*%
%TD*%
%TA.AperFunction,ComponentPad*%
%ADD13C,1.700000*%
%TD*%
%TA.AperFunction,ComponentPad*%
%ADD14R,1.700000X1.700000*%
%TD*%
%TA.AperFunction,ViaPad*%
%ADD15C,0.600000*%
%TD*%
%TA.AperFunction,Conductor*%
%ADD16C,0.500000*%
%TD*%
G04 APERTURE END LIST*
D10*
%TO.P,H3,1,1*%
%TO.N,GND*%
X88312500Y-143700000D03*
X89015444Y-142002944D03*
X89015444Y-145397056D03*
X90712500Y-141300000D03*
D11*
X90712500Y-143700000D03*
D10*
X90712500Y-146100000D03*
X92409556Y-142002944D03*
X92409556Y-145397056D03*
X93112500Y-143700000D03*
%TD*%
%TO.P,H1,1,1*%
%TO.N,GND*%
X88312500Y-53700000D03*
X89015444Y-52002944D03*
X89015444Y-55397056D03*
X90712500Y-51300000D03*
D11*
X90712500Y-53700000D03*
D10*
X90712500Y-56100000D03*
X92409556Y-52002944D03*
X92409556Y-55397056D03*
X93112500Y-53700000D03*
%TD*%
D12*
%TO.P,U12,2,A*%
%TO.N,Net-(U12-A)*%
X114442500Y-119810000D03*
%TO.P,U12,3,F*%
%TO.N,Net-(U12-F)*%
X114442500Y-122350000D03*
%TO.P,U12,4,CA*%
%TO.N,+3V3*%
X114442500Y-124890000D03*
%TO.P,U12,5,E*%
%TO.N,Net-(U12-E)*%
X114442500Y-127430000D03*
X114442500Y-132510000D03*
%TO.P,U12,10,DP*%
%TO.N,unconnected-(U12-DP-Pad10)*%
X129682500Y-137590000D03*
%TO.P,U12,11,D*%
%TO.N,Net-(U12-D)*%
X114442500Y-137590000D03*
X129682500Y-135050000D03*
%TO.P,U12,12,CA*%
%TO.N,+3V3*%
X129682500Y-119810000D03*
X129682500Y-132510000D03*
%TO.P,U12,13,C*%
%TO.N,Net-(U12-C)*%
X129682500Y-129970000D03*
%TO.P,U12,14,G*%
%TO.N,Net-(U12-G)*%
X129682500Y-127430000D03*
%TO.P,U12,15,B*%
%TO.N,Net-(U12-B)*%
X129682500Y-124890000D03*
%TD*%
D10*
%TO.P,H4,1,1*%
%TO.N,GND*%
X178312500Y-143700000D03*
X179015444Y-142002944D03*
X179015444Y-145397056D03*
X180712500Y-141300000D03*
D11*
X180712500Y-143700000D03*
D10*
X180712500Y-146100000D03*
X182409556Y-142002944D03*
X182409556Y-145397056D03*
X183112500Y-143700000D03*
%TD*%
%TO.P,H2,1,1*%
%TO.N,GND*%
X178312500Y-53700000D03*
X179015444Y-52002944D03*
X179015444Y-55397056D03*
X180712500Y-51300000D03*
D11*
X180712500Y-53700000D03*
D10*
X180712500Y-56100000D03*
X182409556Y-52002944D03*
X182409556Y-55397056D03*
X183112500Y-53700000D03*
%TD*%
D13*
%TO.P,U11,1,M3*%
%TO.N,/GPIO25*%
X170582500Y-109670000D03*
%TO.P,U11,2,L3*%
%TO.N,/GPIO24*%
X170582500Y-107130000D03*
%TO.P,U11,3,A16*%
%TO.N,Net-(U11-A16)*%
X170582500Y-104590000D03*
%TO.P,U11,4,K3*%
%TO.N,Net-(U11-K3)*%
X170582500Y-102050000D03*
%TO.P,U11,5,C15*%
%TO.N,Net-(U11-C15)*%
X170582500Y-99510000D03*
%TO.P,U11,6,H1*%
%TO.N,Net-(U11-H1)*%
X170582500Y-96970000D03*
%TO.P,U11,7,A15*%
%TO.N,Net-(U11-A15)*%
X170582500Y-94430000D03*
%TO.P,U11,8,B15*%
%TO.N,Net-(U11-B15)*%
X170582500Y-91890000D03*
%TO.P,U11,9,A14*%
%TO.N,Net-(U11-A14)*%
X170582500Y-89350000D03*
%TO.P,U11,10,J3*%
%TO.N,unconnected-(U11-J3-Pad10)*%
X170582500Y-86810000D03*
%TO.P,U11,11,J1*%
%TO.N,unconnected-(U11-J1-Pad11)*%
X170582500Y-84270000D03*
%TO.P,U11,12,K2*%
%TO.N,unconnected-(U11-K2-Pad12)*%
X170582500Y-81730000D03*
%TO.P,U11,13,L1*%
%TO.N,unconnected-(U11-L1-Pad13)*%
X170582500Y-79190000D03*
%TO.P,U11,14,L2*%
%TO.N,unconnected-(U11-L2-Pad14)*%
X170582500Y-76650000D03*
%TO.P,U11,15,AIN15*%
%TO.N,unconnected-(U11-AIN15-Pad15)*%
X170582500Y-74110000D03*
%TO.P,U11,16,AIN16*%
%TO.N,unconnected-(U11-AIN16-Pad16)*%
X170582500Y-71570000D03*
%TO.P,U11,17,M1*%
%TO.N,unconnected-(U11-M1-Pad17)*%
X170582500Y-69030000D03*
%TO.P,U11,18,N3*%
%TO.N,unconnected-(U11-N3-Pad18)*%
X170582500Y-66490000D03*
%TO.P,U11,19,P3*%
%TO.N,unconnected-(U11-P3-Pad19)*%
X170582500Y-63950000D03*
%TO.P,U11,20,M2*%
%TO.N,unconnected-(U11-M2-Pad20)*%
X170582500Y-61410000D03*
%TO.P,U11,21,N1*%
%TO.N,unconnected-(U11-N1-Pad21)*%
X170582500Y-58870000D03*
%TO.P,U11,22,N2*%
%TO.N,unconnected-(U11-N2-Pad22)*%
X170582500Y-56330000D03*
%TO.P,U11,23,P1*%
%TO.N,unconnected-(U11-P1-Pad23)*%
X170582500Y-53790000D03*
D14*
%TO.P,U11,24,+5V*%
%TO.N,+5V*%
X170582500Y-51250000D03*
%TO.P,U11,25,GND*%
%TO.N,GND*%
X155342500Y-51250000D03*
D13*
%TO.P,U11,26,R3*%
%TO.N,/GPIO1*%
X155342500Y-53790000D03*
%TO.P,U11,27,T3*%
%TO.N,/GPIO2*%
X155342500Y-56330000D03*
%TO.P,U11,28,R2*%
%TO.N,/GPIO3*%
X155342500Y-58870000D03*
%TO.P,U11,29,T1*%
%TO.N,/GPIO4*%
X155342500Y-61410000D03*
%TO.P,U11,30,T2*%
%TO.N,/GPIO5*%
X155342500Y-63950000D03*
%TO.P,U11,31,U1*%
%TO.N,/GPIO6*%
X155342500Y-66490000D03*
%TO.P,U11,32,W2*%
%TO.N,/GPIO7*%
X155342500Y-69030000D03*
%TO.P,U11,33,V2*%
%TO.N,/GPIO8*%
X155342500Y-71570000D03*
%TO.P,U11,34,W3*%
%TO.N,/GPIO9*%
X155342500Y-74110000D03*
%TO.P,U11,35,V3*%
%TO.N,/GPIO10*%
X155342500Y-76650000D03*
%TO.P,U11,36,W5*%
%TO.N,/GPIO11*%
X155342500Y-79190000D03*
%TO.P,U11,37,V4*%
%TO.N,/GPIO12*%
X155342500Y-81730000D03*
%TO.P,U11,38,U4*%
%TO.N,/GPIO13*%
X155342500Y-84270000D03*
%TO.P,U11,39,V5*%
%TO.N,/GPIO14*%
X155342500Y-86810000D03*
%TO.P,U11,40,W4*%
%TO.N,/GPIO15*%
X155342500Y-89350000D03*
%TO.P,U11,41,U5*%
%TO.N,/GPIO16*%
X155342500Y-91890000D03*
%TO.P,U11,42,U2*%
%TO.N,/GPIO17*%
X155342500Y-94430000D03*
%TO.P,U11,43,W6*%
%TO.N,/GPIO18*%
X155342500Y-96970000D03*
%TO.P,U11,44,U3*%
%TO.N,/GPIO19*%
X155342500Y-99510000D03*
%TO.P,U11,45,U7*%
%TO.N,/GPIO20*%
X155342500Y-102050000D03*
%TO.P,U11,46,W7*%
%TO.N,/GPIO21*%
X155342500Y-104590000D03*
%TO.P,U11,47,U8*%
%TO.N,/GPIO22*%
X155342500Y-107130000D03*
%TO.P,U11,48,V8*%
%TO.N,/GPIO23*%
X155342500Y-109670000D03*
%TD*%
D15*
%TO.N,GND*%
X131212500Y-62700000D03*
X116962500Y-78450000D03*
X91712500Y-112450000D03*
X133350000Y-65925000D03*
X133362500Y-97325000D03*
X90212500Y-88450000D03*
X158962500Y-126200000D03*
X110212500Y-83450000D03*
X101750000Y-107725000D03*
X119212500Y-72700000D03*
X133350000Y-107525000D03*
X134412500Y-105537500D03*
X176712500Y-73450000D03*
X158112500Y-59400000D03*
X144812500Y-84537500D03*
X101762500Y-97325000D03*
X160612500Y-60100000D03*
X175962500Y-60200000D03*
X112350000Y-107525000D03*
X113212500Y-105537500D03*
X112362500Y-97325000D03*
X117212500Y-67950000D03*
X130962500Y-93950000D03*
X143750000Y-76125000D03*
X134212500Y-74337500D03*
X104212500Y-67950000D03*
X102812500Y-105537500D03*
X113212500Y-95337500D03*
X104962500Y-139950000D03*
X101750000Y-76325000D03*
X102812500Y-74337500D03*
X123812500Y-95337500D03*
X134212500Y-84537500D03*
X113212500Y-74337500D03*
X175462500Y-117200000D03*
X144812500Y-63737500D03*
X160912500Y-62900000D03*
X112462500Y-50700000D03*
X158962500Y-121200000D03*
X159800000Y-99400000D03*
X183462500Y-64950000D03*
X122762500Y-97125000D03*
X132962500Y-53950000D03*
X112350000Y-65925000D03*
X109962500Y-62700000D03*
X109712500Y-72950000D03*
X141712500Y-83450000D03*
X119712500Y-119450000D03*
X123812500Y-105537500D03*
X143762500Y-97325000D03*
X113312500Y-63737500D03*
X112350000Y-76325000D03*
X123712500Y-115200000D03*
X123812500Y-63737500D03*
X131212500Y-83200000D03*
X144812500Y-74337500D03*
X102812500Y-63737500D03*
X164962500Y-128700000D03*
X149462500Y-81950000D03*
X91962500Y-83200000D03*
X122750000Y-76125000D03*
X100962500Y-92950000D03*
X160612500Y-59000000D03*
X104712500Y-99700000D03*
X134212500Y-95337500D03*
X122750000Y-65925000D03*
X162612500Y-112900000D03*
X134312500Y-63737500D03*
X90212500Y-66200000D03*
X120462500Y-83450000D03*
X116962500Y-99200000D03*
X123812500Y-74337500D03*
X143750000Y-86725000D03*
X144812500Y-95337500D03*
X120462500Y-62700000D03*
X110462500Y-93950000D03*
X100712500Y-71950000D03*
X133350000Y-76325000D03*
X104462500Y-89200000D03*
X160000000Y-71700000D03*
X101750000Y-86925000D03*
X133350000Y-86725000D03*
X101750000Y-65925000D03*
X160912500Y-55900000D03*
X102812500Y-84737500D03*
X122750000Y-107525000D03*
X91462500Y-97200000D03*
X122950000Y-86725000D03*
X143750000Y-65925000D03*
X144812500Y-105537500D03*
X146462500Y-56700000D03*
X151712500Y-63700000D03*
X144712500Y-132450000D03*
X139712500Y-120950000D03*
X127462500Y-66450000D03*
X167300000Y-85700000D03*
X112400000Y-86725000D03*
X102812500Y-95337500D03*
X123812500Y-84537500D03*
X177712500Y-82450000D03*
X113212500Y-84737500D03*
X103212500Y-55700000D03*
X180712500Y-131950000D03*
X142962500Y-61450000D03*
X143950000Y-107525000D03*
%TO.N,/GPIO2*%
X137062500Y-62087500D03*
%TO.N,/GPIO3*%
X126612500Y-62137500D03*
%TO.N,/GPIO4*%
X116075000Y-62275000D03*
%TO.N,/GPIO5*%
X105575000Y-62175000D03*
%TO.N,/GPIO7*%
X137112500Y-72637500D03*
%TO.N,/GPIO8*%
X126662500Y-72687500D03*
%TO.N,/GPIO9*%
X116112500Y-72637500D03*
%TO.N,/GPIO10*%
X105575000Y-72775000D03*
%TO.N,/GPIO12*%
X136962500Y-82987500D03*
%TO.N,/GPIO13*%
X126512500Y-83037500D03*
%TO.N,/GPIO14*%
X116062500Y-83087500D03*
%TO.N,/GPIO15*%
X105612500Y-83137500D03*
%TO.N,/GPIO17*%
X137025000Y-93725000D03*
%TO.N,/GPIO18*%
X126662500Y-93687500D03*
%TO.N,/GPIO19*%
X116212500Y-93737500D03*
%TO.N,/GPIO20*%
X105550000Y-93600000D03*
%TO.N,/GPIO22*%
X136962500Y-103987500D03*
%TO.N,/GPIO23*%
X126412500Y-103937500D03*
%TO.N,/GPIO24*%
X116095000Y-103855000D03*
%TO.N,/GPIO25*%
X105637500Y-103912500D03*
%TD*%
D16*
%TO.N,/GPIO17*%
X140050000Y-96400000D02*
X153372500Y-96400000D01*
X153372500Y-96400000D02*
X155342500Y-94430000D01*
X137375000Y-93725000D02*
X140050000Y-96400000D01*
X137025000Y-93725000D02*
X137375000Y-93725000D01*
%TO.N,/GPIO18*%
X154212500Y-98100000D02*
X155342500Y-96970000D01*
X131250000Y-98100000D02*
X154212500Y-98100000D01*
X126837500Y-93687500D02*
X131250000Y-98100000D01*
X126662500Y-93687500D02*
X126837500Y-93687500D01*
%TO.N,/GPIO20*%
X154192500Y-100900000D02*
X155342500Y-102050000D01*
X108850000Y-100900000D02*
X154192500Y-100900000D01*
X105612500Y-97662500D02*
X108850000Y-100900000D01*
X105612500Y-93662500D02*
X105612500Y-97662500D01*
X105550000Y-93600000D02*
X105612500Y-93662500D01*
%TO.N,/GPIO19*%
X155332500Y-99500000D02*
X155342500Y-99510000D01*
X121975000Y-99500000D02*
X155332500Y-99500000D01*
X116212500Y-93737500D02*
X121975000Y-99500000D01*
%TO.N,/GPIO23*%
X154172500Y-108500000D02*
X155342500Y-109670000D01*
X131312500Y-108500000D02*
X154172500Y-108500000D01*
X126750000Y-103937500D02*
X131312500Y-108500000D01*
X126412500Y-103937500D02*
X126750000Y-103937500D01*
%TO.N,/GPIO22*%
X154712500Y-106500000D02*
X155342500Y-107130000D01*
X139812500Y-106500000D02*
X154712500Y-106500000D01*
X137300000Y-103987500D02*
X139812500Y-106500000D01*
X136962500Y-103987500D02*
X137300000Y-103987500D01*
%TO.N,/GPIO2*%
X146772500Y-64900000D02*
X155342500Y-56330000D01*
X139875000Y-64900000D02*
X146772500Y-64900000D01*
X137062500Y-62087500D02*
X139875000Y-64900000D01*
%TO.N,/GPIO3*%
X126612500Y-62137500D02*
X131375000Y-66900000D01*
X147312500Y-66900000D02*
X155342500Y-58870000D01*
X131375000Y-66900000D02*
X147312500Y-66900000D01*
%TO.N,/GPIO4*%
X121737500Y-67937500D02*
X148815000Y-67937500D01*
X116075000Y-62275000D02*
X121737500Y-67937500D01*
X148815000Y-67937500D02*
X155342500Y-61410000D01*
%TO.N,/GPIO5*%
X105575000Y-62175000D02*
X105575000Y-66300000D01*
X105575000Y-66300000D02*
X108612500Y-69337500D01*
X108612500Y-69337500D02*
X149955000Y-69337500D01*
X149955000Y-69337500D02*
X155342500Y-63950000D01*
%TO.N,/GPIO7*%
X151135000Y-73237500D02*
X155342500Y-69030000D01*
X137112500Y-72637500D02*
X137712500Y-73237500D01*
X137712500Y-73237500D02*
X151135000Y-73237500D01*
%TO.N,/GPIO8*%
X149812500Y-77100000D02*
X155342500Y-71570000D01*
X126650000Y-72700000D02*
X131050000Y-77100000D01*
X131050000Y-77100000D02*
X149812500Y-77100000D01*
%TO.N,/GPIO9*%
X121775000Y-78500000D02*
X150952500Y-78500000D01*
X150952500Y-78500000D02*
X155342500Y-74110000D01*
X116112500Y-72837500D02*
X121775000Y-78500000D01*
%TO.N,/GPIO10*%
X105612500Y-72737500D02*
X105612500Y-76862500D01*
X105612500Y-76862500D02*
X108650000Y-79900000D01*
X152092500Y-79900000D02*
X155342500Y-76650000D01*
X108650000Y-79900000D02*
X152092500Y-79900000D01*
%TO.N,/GPIO12*%
X151172500Y-85900000D02*
X155342500Y-81730000D01*
X137100000Y-83050000D02*
X139950000Y-85900000D01*
X139950000Y-85900000D02*
X151172500Y-85900000D01*
%TO.N,/GPIO13*%
X131050000Y-87500000D02*
X152112500Y-87500000D01*
X152112500Y-87500000D02*
X155342500Y-84270000D01*
X126650000Y-83100000D02*
X131050000Y-87500000D01*
%TO.N,/GPIO14*%
X153252500Y-88900000D02*
X155342500Y-86810000D01*
X121775000Y-88900000D02*
X153252500Y-88900000D01*
X116112500Y-83237500D02*
X121775000Y-88900000D01*
%TO.N,/GPIO15*%
X108650000Y-90300000D02*
X154392500Y-90300000D01*
X154392500Y-90300000D02*
X155342500Y-89350000D01*
X105612500Y-87262500D02*
X108650000Y-90300000D01*
X105612500Y-83137500D02*
X105612500Y-87262500D01*
%TO.N,/GPIO24*%
X151512500Y-111900000D02*
X163712500Y-111900000D01*
X122037500Y-109900000D02*
X149512500Y-109900000D01*
X149512500Y-109900000D02*
X151512500Y-111900000D01*
X163712500Y-111900000D02*
X168482500Y-107130000D01*
X168482500Y-107130000D02*
X170582500Y-107130000D01*
X116112500Y-103975000D02*
X122037500Y-109900000D01*
%TO.N,/GPIO25*%
X150912500Y-113900000D02*
X164712500Y-113900000D01*
X105612500Y-108000000D02*
X108912500Y-111300000D01*
X148312500Y-111300000D02*
X150912500Y-113900000D01*
X108912500Y-111300000D02*
X148312500Y-111300000D01*
X105612500Y-103875000D02*
X105612500Y-108000000D01*
X164712500Y-113900000D02*
X168942500Y-109670000D01*
X168942500Y-109670000D02*
X170582500Y-109670000D01*
%TD*%
%TA.AperFunction,Conductor*%
%TO.N,GND*%
G36*
X154164157Y-60929380D02*
G01*
X154220090Y-60971252D01*
X154244507Y-61036716D01*
X154238755Y-61083878D01*
X154220328Y-61140591D01*
X154192000Y-61319448D01*
X154192000Y-61500551D01*
X154220595Y-61681091D01*
X154211641Y-61750384D01*
X154185803Y-61788170D01*
X148623294Y-67350681D01*
X148561971Y-67384166D01*
X148535613Y-67387000D01*
X147903387Y-67387000D01*
X147836348Y-67367315D01*
X147790593Y-67314511D01*
X147780649Y-67245353D01*
X147809674Y-67181797D01*
X147815706Y-67175319D01*
X149250526Y-65740499D01*
X154033144Y-60957879D01*
X154094465Y-60924396D01*
X154164157Y-60929380D01*
G37*
%TD.AperFunction*%
%TA.AperFunction,Conductor*%
G36*
X182715972Y-48900695D02*
G01*
X183019003Y-48917713D01*
X183032801Y-48919267D01*
X183328580Y-48969522D01*
X183342136Y-48972616D01*
X183630427Y-49055672D01*
X183643551Y-49060265D01*
X183920722Y-49175072D01*
X183933244Y-49181101D01*
X184135684Y-49292986D01*
X184195828Y-49326227D01*
X184207602Y-49333625D01*
X184452289Y-49507239D01*
X184463157Y-49515907D01*
X184686852Y-49715815D01*
X184696684Y-49725647D01*
X184896592Y-49949342D01*
X184905263Y-49960214D01*
X185078874Y-50204897D01*
X185086272Y-50216671D01*
X185231394Y-50479248D01*
X185237427Y-50491777D01*
X185352234Y-50768948D01*
X185356827Y-50782072D01*
X185439883Y-51070363D01*
X185442977Y-51083920D01*
X185493230Y-51379688D01*
X185494787Y-51393506D01*
X185511805Y-51696527D01*
X185512000Y-51703480D01*
X185512000Y-145696519D01*
X185511805Y-145703472D01*
X185494787Y-146006493D01*
X185493230Y-146020311D01*
X185442977Y-146316079D01*
X185439883Y-146329636D01*
X185356827Y-146617927D01*
X185352234Y-146631051D01*
X185237427Y-146908222D01*
X185231394Y-146920751D01*
X185086272Y-147183328D01*
X185078874Y-147195102D01*
X184905263Y-147439785D01*
X184896592Y-147450657D01*
X184696684Y-147674352D01*
X184686852Y-147684184D01*
X184463157Y-147884092D01*
X184452285Y-147892763D01*
X184207602Y-148066374D01*
X184195828Y-148073772D01*
X183933251Y-148218894D01*
X183920722Y-148224927D01*
X183643551Y-148339734D01*
X183630427Y-148344327D01*
X183342136Y-148427383D01*
X183328579Y-148430477D01*
X183032811Y-148480730D01*
X183018993Y-148482287D01*
X182715972Y-148499305D01*
X182709019Y-148499500D01*
X88715981Y-148499500D01*
X88709028Y-148499305D01*
X88406006Y-148482287D01*
X88392188Y-148480730D01*
X88096420Y-148430477D01*
X88082863Y-148427383D01*
X87794572Y-148344327D01*
X87781448Y-148339734D01*
X87504277Y-148224927D01*
X87491748Y-148218894D01*
X87229171Y-148073772D01*
X87217397Y-148066374D01*
X86972714Y-147892763D01*
X86961842Y-147884092D01*
X86738147Y-147684184D01*
X86728315Y-147674352D01*
X86528407Y-147450657D01*
X86519736Y-147439785D01*
X86346125Y-147195102D01*
X86338727Y-147183328D01*
X86193605Y-146920751D01*
X86187572Y-146908222D01*
X86072765Y-146631051D01*
X86068172Y-146617927D01*
X85985116Y-146329636D01*
X85982022Y-146316079D01*
X85962530Y-146201356D01*
X85931767Y-146020301D01*
X85930213Y-146006503D01*
X85913195Y-145703472D01*
X85913000Y-145696519D01*
X85913000Y-137486530D01*
X113392000Y-137486530D01*
X113392000Y-137693469D01*
X113432368Y-137896412D01*
X113432370Y-137896420D01*
X113511558Y-138087596D01*
X113626524Y-138259657D01*
X113772842Y-138405975D01*
X113772845Y-138405977D01*
X113944902Y-138520941D01*
X114136080Y-138600130D01*
X114339030Y-138640499D01*
X114339034Y-138640500D01*
X114339035Y-138640500D01*
X114545966Y-138640500D01*
X114545967Y-138640499D01*
X114748920Y-138600130D01*
X114940098Y-138520941D01*
X115112155Y-138405977D01*
X115258477Y-138259655D01*
X115373441Y-138087598D01*
X115452630Y-137896420D01*
X115493000Y-137693465D01*
X115493000Y-137486535D01*
X115492999Y-137486530D01*
X128632000Y-137486530D01*
X128632000Y-137693469D01*
X128672368Y-137896412D01*
X128672370Y-137896420D01*
X128751558Y-138087596D01*
X128866524Y-138259657D01*
X129012842Y-138405975D01*
X129012845Y-138405977D01*
X129184902Y-138520941D01*
X129376080Y-138600130D01*
X129579030Y-138640499D01*
X129579034Y-138640500D01*
X129579035Y-138640500D01*
X129785966Y-138640500D01*
X129785967Y-138640499D01*
X129988920Y-138600130D01*
X130180098Y-138520941D01*
X130352155Y-138405977D01*
X130498477Y-138259655D01*
X130613441Y-138087598D01*
X130692630Y-137896420D01*
X130733000Y-137693465D01*
X130733000Y-137486535D01*
X130692630Y-137283580D01*
X130613441Y-137092402D01*
X130498477Y-136920345D01*
X130498475Y-136920342D01*
X130352157Y-136774024D01*
X130266126Y-136716541D01*
X130180098Y-136659059D01*
X129988920Y-136579870D01*
X129988912Y-136579868D01*
X129785969Y-136539500D01*
X129785965Y-136539500D01*
X129579035Y-136539500D01*
X129579030Y-136539500D01*
X129376087Y-136579868D01*
X129376079Y-136579870D01*
X129184903Y-136659058D01*
X129012842Y-136774024D01*
X128866524Y-136920342D01*
X128751558Y-137092403D01*
X128672370Y-137283579D01*
X128672368Y-137283587D01*
X128632000Y-137486530D01*
X115492999Y-137486530D01*
X115452630Y-137283580D01*
X115373441Y-137092402D01*
X115258477Y-136920345D01*
X115258475Y-136920342D01*
X115112157Y-136774024D01*
X115026126Y-136716541D01*
X114940098Y-136659059D01*
X114748920Y-136579870D01*
X114748912Y-136579868D01*
X114545969Y-136539500D01*
X114545965Y-136539500D01*
X114339035Y-136539500D01*
X114339030Y-136539500D01*
X114136087Y-136579868D01*
X114136079Y-136579870D01*
X113944903Y-136659058D01*
X113772842Y-136774024D01*
X113626524Y-136920342D01*
X113511558Y-137092403D01*
X113432370Y-137283579D01*
X113432368Y-137283587D01*
X113392000Y-137486530D01*
X85913000Y-137486530D01*
X85913000Y-134946530D01*
X128632000Y-134946530D01*
X128632000Y-135153469D01*
X128672368Y-135356412D01*
X128672370Y-135356420D01*
X128751558Y-135547596D01*
X128866524Y-135719657D01*
X129012842Y-135865975D01*
X129012845Y-135865977D01*
X129184902Y-135980941D01*
X129376080Y-136060130D01*
X129579030Y-136100499D01*
X129579034Y-136100500D01*
X129579035Y-136100500D01*
X129785966Y-136100500D01*
X129785967Y-136100499D01*
X129988920Y-136060130D01*
X130180098Y-135980941D01*
X130352155Y-135865977D01*
X130498477Y-135719655D01*
X130613441Y-135547598D01*
X130692630Y-135356420D01*
X130733000Y-135153465D01*
X130733000Y-134946535D01*
X130692630Y-134743580D01*
X130613441Y-134552402D01*
X130498477Y-134380345D01*
X130498475Y-134380342D01*
X130352157Y-134234024D01*
X130266126Y-134176541D01*
X130180098Y-134119059D01*
X129988920Y-134039870D01*
X129988912Y-134039868D01*
X129785969Y-133999500D01*
X129785965Y-133999500D01*
X129579035Y-133999500D01*
X129579030Y-133999500D01*
X129376087Y-134039868D01*
X129376079Y-134039870D01*
X129184903Y-134119058D01*
X129012842Y-134234024D01*
X128866524Y-134380342D01*
X128751558Y-134552403D01*
X128672370Y-134743579D01*
X128672368Y-134743587D01*
X128632000Y-134946530D01*
X85913000Y-134946530D01*
X85913000Y-132406530D01*
X113392000Y-132406530D01*
X113392000Y-132613469D01*
X113432368Y-132816412D01*
X113432370Y-132816420D01*
X113511558Y-133007596D01*
X113626524Y-133179657D01*
X113772842Y-133325975D01*
X113772845Y-133325977D01*
X113944902Y-133440941D01*
X114136080Y-133520130D01*
X114339030Y-133560499D01*
X114339034Y-133560500D01*
X114339035Y-133560500D01*
X114545966Y-133560500D01*
X114545967Y-133560499D01*
X114748920Y-133520130D01*
X114940098Y-133440941D01*
X115112155Y-133325977D01*
X115258477Y-133179655D01*
X115373441Y-133007598D01*
X115452630Y-132816420D01*
X115493000Y-132613465D01*
X115493000Y-132406535D01*
X115492999Y-132406530D01*
X128632000Y-132406530D01*
X128632000Y-132613469D01*
X128672368Y-132816412D01*
X128672370Y-132816420D01*
X128751558Y-133007596D01*
X128866524Y-133179657D01*
X129012842Y-133325975D01*
X129012845Y-133325977D01*
X129184902Y-133440941D01*
X129376080Y-133520130D01*
X129579030Y-133560499D01*
X129579034Y-133560500D01*
X129579035Y-133560500D01*
X129785966Y-133560500D01*
X129785967Y-133560499D01*
X129988920Y-133520130D01*
X130180098Y-133440941D01*
X130352155Y-133325977D01*
X130498477Y-133179655D01*
X130613441Y-133007598D01*
X130692630Y-132816420D01*
X130733000Y-132613465D01*
X130733000Y-132406535D01*
X130692630Y-132203580D01*
X130613441Y-132012402D01*
X130498477Y-131840345D01*
X130498475Y-131840342D01*
X130352157Y-131694024D01*
X130266126Y-131636541D01*
X130180098Y-131579059D01*
X129988920Y-131499870D01*
X129988912Y-131499868D01*
X129785969Y-131459500D01*
X129785965Y-131459500D01*
X129579035Y-131459500D01*
X129579030Y-131459500D01*
X129376087Y-131499868D01*
X129376079Y-131499870D01*
X129184903Y-131579058D01*
X129012842Y-131694024D01*
X128866524Y-131840342D01*
X128751558Y-132012403D01*
X128672370Y-132203579D01*
X128672368Y-132203587D01*
X128632000Y-132406530D01*
X115492999Y-132406530D01*
X115452630Y-132203580D01*
X115373441Y-132012402D01*
X115258477Y-131840345D01*
X115258475Y-131840342D01*
X115112157Y-131694024D01*
X115026126Y-131636541D01*
X114940098Y-131579059D01*
X114748920Y-131499870D01*
X114748912Y-131499868D01*
X114545969Y-131459500D01*
X114545965Y-131459500D01*
X114339035Y-131459500D01*
X114339030Y-131459500D01*
X114136087Y-131499868D01*
X114136079Y-131499870D01*
X113944903Y-131579058D01*
X113772842Y-131694024D01*
X113626524Y-131840342D01*
X113511558Y-132012403D01*
X113432370Y-132203579D01*
X113432368Y-132203587D01*
X113392000Y-132406530D01*
X85913000Y-132406530D01*
X85913000Y-129866530D01*
X128632000Y-129866530D01*
X128632000Y-130073469D01*
X128672368Y-130276412D01*
X128672370Y-130276420D01*
X128751558Y-130467596D01*
X128866524Y-130639657D01*
X129012842Y-130785975D01*
X129012845Y-130785977D01*
X129184902Y-130900941D01*
X129376080Y-130980130D01*
X129579030Y-131020499D01*
X129579034Y-131020500D01*
X129579035Y-131020500D01*
X129785966Y-131020500D01*
X129785967Y-131020499D01*
X129988920Y-130980130D01*
X130180098Y-130900941D01*
X130352155Y-130785977D01*
X130498477Y-130639655D01*
X130613441Y-130467598D01*
X130692630Y-130276420D01*
X130733000Y-130073465D01*
X130733000Y-129866535D01*
X130692630Y-129663580D01*
X130613441Y-129472402D01*
X130498477Y-129300345D01*
X130498475Y-129300342D01*
X130352157Y-129154024D01*
X130266126Y-129096541D01*
X130180098Y-129039059D01*
X129988920Y-128959870D01*
X129988912Y-128959868D01*
X129785969Y-128919500D01*
X129785965Y-128919500D01*
X129579035Y-128919500D01*
X129579030Y-128919500D01*
X129376087Y-128959868D01*
X129376079Y-128959870D01*
X129184903Y-129039058D01*
X129012842Y-129154024D01*
X128866524Y-129300342D01*
X128751558Y-129472403D01*
X128672370Y-129663579D01*
X128672368Y-129663587D01*
X128632000Y-129866530D01*
X85913000Y-129866530D01*
X85913000Y-127326530D01*
X113392000Y-127326530D01*
X113392000Y-127533469D01*
X113432368Y-127736412D01*
X113432370Y-127736420D01*
X113511558Y-127927596D01*
X113626524Y-128099657D01*
X113772842Y-128245975D01*
X113772845Y-128245977D01*
X113944902Y-128360941D01*
X114136080Y-128440130D01*
X114339030Y-128480499D01*
X114339034Y-128480500D01*
X114339035Y-128480500D01*
X114545966Y-128480500D01*
X114545967Y-128480499D01*
X114748920Y-128440130D01*
X114940098Y-128360941D01*
X115112155Y-128245977D01*
X115258477Y-128099655D01*
X115373441Y-127927598D01*
X115452630Y-127736420D01*
X115493000Y-127533465D01*
X115493000Y-127326535D01*
X115492999Y-127326530D01*
X128632000Y-127326530D01*
X128632000Y-127533469D01*
X128672368Y-127736412D01*
X128672370Y-127736420D01*
X128751558Y-127927596D01*
X128866524Y-128099657D01*
X129012842Y-128245975D01*
X129012845Y-128245977D01*
X129184902Y-128360941D01*
X129376080Y-128440130D01*
X129579030Y-128480499D01*
X129579034Y-128480500D01*
X129579035Y-128480500D01*
X129785966Y-128480500D01*
X129785967Y-128480499D01*
X129988920Y-128440130D01*
X130180098Y-128360941D01*
X130352155Y-128245977D01*
X130498477Y-128099655D01*
X130613441Y-127927598D01*
X130692630Y-127736420D01*
X130733000Y-127533465D01*
X130733000Y-127326535D01*
X130692630Y-127123580D01*
X130613441Y-126932402D01*
X130498477Y-126760345D01*
X130498475Y-126760342D01*
X130352157Y-126614024D01*
X130266126Y-126556541D01*
X130180098Y-126499059D01*
X129988920Y-126419870D01*
X129988912Y-126419868D01*
X129785969Y-126379500D01*
X129785965Y-126379500D01*
X129579035Y-126379500D01*
X129579030Y-126379500D01*
X129376087Y-126419868D01*
X129376079Y-126419870D01*
X129184903Y-126499058D01*
X129012842Y-126614024D01*
X128866524Y-126760342D01*
X128751558Y-126932403D01*
X128672370Y-127123579D01*
X128672368Y-127123587D01*
X128632000Y-127326530D01*
X115492999Y-127326530D01*
X115452630Y-127123580D01*
X115373441Y-126932402D01*
X115258477Y-126760345D01*
X115258475Y-126760342D01*
X115112157Y-126614024D01*
X115026126Y-126556541D01*
X114940098Y-126499059D01*
X114748920Y-126419870D01*
X114748912Y-126419868D01*
X114545969Y-126379500D01*
X114545965Y-126379500D01*
X114339035Y-126379500D01*
X114339030Y-126379500D01*
X114136087Y-126419868D01*
X114136079Y-126419870D01*
X113944903Y-126499058D01*
X113772842Y-126614024D01*
X113626524Y-126760342D01*
X113511558Y-126932403D01*
X113432370Y-127123579D01*
X113432368Y-127123587D01*
X113392000Y-127326530D01*
X85913000Y-127326530D01*
X85913000Y-124786530D01*
X113392000Y-124786530D01*
X113392000Y-124993469D01*
X113432368Y-125196412D01*
X113432370Y-125196420D01*
X113511558Y-125387596D01*
X113626524Y-125559657D01*
X113772842Y-125705975D01*
X113772845Y-125705977D01*
X113944902Y-125820941D01*
X114136080Y-125900130D01*
X114339030Y-125940499D01*
X114339034Y-125940500D01*
X114339035Y-125940500D01*
X114545966Y-125940500D01*
X114545967Y-125940499D01*
X114748920Y-125900130D01*
X114940098Y-125820941D01*
X115112155Y-125705977D01*
X115258477Y-125559655D01*
X115373441Y-125387598D01*
X115452630Y-125196420D01*
X115493000Y-124993465D01*
X115493000Y-124786535D01*
X115492999Y-124786530D01*
X128632000Y-124786530D01*
X128632000Y-124993469D01*
X128672368Y-125196412D01*
X128672370Y-125196420D01*
X128751558Y-125387596D01*
X128866524Y-125559657D01*
X129012842Y-125705975D01*
X129012845Y-125705977D01*
X129184902Y-125820941D01*
X129376080Y-125900130D01*
X129579030Y-125940499D01*
X129579034Y-125940500D01*
X129579035Y-125940500D01*
X129785966Y-125940500D01*
X129785967Y-125940499D01*
X129988920Y-125900130D01*
X130180098Y-125820941D01*
X130352155Y-125705977D01*
X130498477Y-125559655D01*
X130613441Y-125387598D01*
X130692630Y-125196420D01*
X130733000Y-124993465D01*
X130733000Y-124786535D01*
X130692630Y-124583580D01*
X130613441Y-124392402D01*
X130498477Y-124220345D01*
X130498475Y-124220342D01*
X130352157Y-124074024D01*
X130266126Y-124016541D01*
X130180098Y-123959059D01*
X129988920Y-123879870D01*
X129988912Y-123879868D01*
X129785969Y-123839500D01*
X129785965Y-123839500D01*
X129579035Y-123839500D01*
X129579030Y-123839500D01*
X129376087Y-123879868D01*
X129376079Y-123879870D01*
X129184903Y-123959058D01*
X129012842Y-124074024D01*
X128866524Y-124220342D01*
X128751558Y-124392403D01*
X128672370Y-124583579D01*
X128672368Y-124583587D01*
X128632000Y-124786530D01*
X115492999Y-124786530D01*
X115452630Y-124583580D01*
X115373441Y-124392402D01*
X115258477Y-124220345D01*
X115258475Y-124220342D01*
X115112157Y-124074024D01*
X115026126Y-124016541D01*
X114940098Y-123959059D01*
X114748920Y-123879870D01*
X114748912Y-123879868D01*
X114545969Y-123839500D01*
X114545965Y-123839500D01*
X114339035Y-123839500D01*
X114339030Y-123839500D01*
X114136087Y-123879868D01*
X114136079Y-123879870D01*
X113944903Y-123959058D01*
X113772842Y-124074024D01*
X113626524Y-124220342D01*
X113511558Y-124392403D01*
X113432370Y-124583579D01*
X113432368Y-124583587D01*
X113392000Y-124786530D01*
X85913000Y-124786530D01*
X85913000Y-122246530D01*
X113392000Y-122246530D01*
X113392000Y-122453469D01*
X113432368Y-122656412D01*
X113432370Y-122656420D01*
X113511558Y-122847596D01*
X113626524Y-123019657D01*
X113772842Y-123165975D01*
X113772845Y-123165977D01*
X113944902Y-123280941D01*
X114136080Y-123360130D01*
X114339030Y-123400499D01*
X114339034Y-123400500D01*
X114339035Y-123400500D01*
X114545966Y-123400500D01*
X114545967Y-123400499D01*
X114748920Y-123360130D01*
X114940098Y-123280941D01*
X115112155Y-123165977D01*
X115258477Y-123019655D01*
X115373441Y-122847598D01*
X115452630Y-122656420D01*
X115493000Y-122453465D01*
X115493000Y-122246535D01*
X115452630Y-122043580D01*
X115373441Y-121852402D01*
X115258477Y-121680345D01*
X115258475Y-121680342D01*
X115112157Y-121534024D01*
X115026126Y-121476541D01*
X114940098Y-121419059D01*
X114748920Y-121339870D01*
X114748912Y-121339868D01*
X114545969Y-121299500D01*
X114545965Y-121299500D01*
X114339035Y-121299500D01*
X114339030Y-121299500D01*
X114136087Y-121339868D01*
X114136079Y-121339870D01*
X113944903Y-121419058D01*
X113772842Y-121534024D01*
X113626524Y-121680342D01*
X113511558Y-121852403D01*
X113432370Y-122043579D01*
X113432368Y-122043587D01*
X113392000Y-122246530D01*
X85913000Y-122246530D01*
X85913000Y-119706530D01*
X113392000Y-119706530D01*
X113392000Y-119913469D01*
X113432368Y-120116412D01*
X113432370Y-120116420D01*
X113511558Y-120307596D01*
X113626524Y-120479657D01*
X113772842Y-120625975D01*
X113772845Y-120625977D01*
X113944902Y-120740941D01*
X114136080Y-120820130D01*
X114339030Y-120860499D01*
X114339034Y-120860500D01*
X114339035Y-120860500D01*
X114545966Y-120860500D01*
X114545967Y-120860499D01*
X114748920Y-120820130D01*
X114940098Y-120740941D01*
X115112155Y-120625977D01*
X115258477Y-120479655D01*
X115373441Y-120307598D01*
X115452630Y-120116420D01*
X115493000Y-119913465D01*
X115493000Y-119706535D01*
X115492999Y-119706530D01*
X128632000Y-119706530D01*
X128632000Y-119913469D01*
X128672368Y-120116412D01*
X128672370Y-120116420D01*
X128751558Y-120307596D01*
X128866524Y-120479657D01*
X129012842Y-120625975D01*
X129012845Y-120625977D01*
X129184902Y-120740941D01*
X129376080Y-120820130D01*
X129579030Y-120860499D01*
X129579034Y-120860500D01*
X129579035Y-120860500D01*
X129785966Y-120860500D01*
X129785967Y-120860499D01*
X129988920Y-120820130D01*
X130180098Y-120740941D01*
X130352155Y-120625977D01*
X130498477Y-120479655D01*
X130613441Y-120307598D01*
X130692630Y-120116420D01*
X130733000Y-119913465D01*
X130733000Y-119706535D01*
X130692630Y-119503580D01*
X130613441Y-119312402D01*
X130498477Y-119140345D01*
X130498475Y-119140342D01*
X130352157Y-118994024D01*
X130266126Y-118936541D01*
X130180098Y-118879059D01*
X129988920Y-118799870D01*
X129988912Y-118799868D01*
X129785969Y-118759500D01*
X129785965Y-118759500D01*
X129579035Y-118759500D01*
X129579030Y-118759500D01*
X129376087Y-118799868D01*
X129376079Y-118799870D01*
X129184903Y-118879058D01*
X129012842Y-118994024D01*
X128866524Y-119140342D01*
X128751558Y-119312403D01*
X128672370Y-119503579D01*
X128672368Y-119503587D01*
X128632000Y-119706530D01*
X115492999Y-119706530D01*
X115452630Y-119503580D01*
X115373441Y-119312402D01*
X115258477Y-119140345D01*
X115258475Y-119140342D01*
X115112157Y-118994024D01*
X115026126Y-118936541D01*
X114940098Y-118879059D01*
X114748920Y-118799870D01*
X114748912Y-118799868D01*
X114545969Y-118759500D01*
X114545965Y-118759500D01*
X114339035Y-118759500D01*
X114339030Y-118759500D01*
X114136087Y-118799868D01*
X114136079Y-118799870D01*
X113944903Y-118879058D01*
X113772842Y-118994024D01*
X113626524Y-119140342D01*
X113511558Y-119312403D01*
X113432370Y-119503579D01*
X113432368Y-119503587D01*
X113392000Y-119706530D01*
X85913000Y-119706530D01*
X85913000Y-103833443D01*
X105037000Y-103833443D01*
X105037000Y-103991557D01*
X105043699Y-104016557D01*
X105057775Y-104069090D01*
X105062000Y-104101183D01*
X105062000Y-108072475D01*
X105095155Y-108196211D01*
X105095156Y-108196214D01*
X105099514Y-108212482D01*
X105099517Y-108212488D01*
X105171987Y-108338011D01*
X105171989Y-108338014D01*
X105171990Y-108338015D01*
X108574485Y-111740510D01*
X108700015Y-111812984D01*
X108840025Y-111850500D01*
X108840026Y-111850500D01*
X108984974Y-111850500D01*
X148033113Y-111850500D01*
X148100152Y-111870185D01*
X148120794Y-111886819D01*
X150574485Y-114340510D01*
X150700015Y-114412984D01*
X150840025Y-114450500D01*
X150840028Y-114450500D01*
X164784972Y-114450500D01*
X164784974Y-114450500D01*
X164784975Y-114450500D01*
X164924985Y-114412984D01*
X165050515Y-114340510D01*
X169134206Y-110256819D01*
X169195529Y-110223334D01*
X169221887Y-110220500D01*
X169497183Y-110220500D01*
X169564222Y-110240185D01*
X169597501Y-110271615D01*
X169704941Y-110419494D01*
X169704945Y-110419499D01*
X169833000Y-110547554D01*
X169833005Y-110547558D01*
X169960787Y-110640396D01*
X169979506Y-110653996D01*
X170084984Y-110707740D01*
X170140860Y-110736211D01*
X170140863Y-110736212D01*
X170226976Y-110764191D01*
X170313091Y-110792171D01*
X170395929Y-110805291D01*
X170491949Y-110820500D01*
X170491954Y-110820500D01*
X170673051Y-110820500D01*
X170759759Y-110806765D01*
X170851909Y-110792171D01*
X171024139Y-110736211D01*
X171185494Y-110653996D01*
X171332001Y-110547553D01*
X171460053Y-110419501D01*
X171566496Y-110272994D01*
X171648711Y-110111639D01*
X171704671Y-109939409D01*
X171719265Y-109847259D01*
X171733000Y-109760551D01*
X171733000Y-109579448D01*
X171713999Y-109459489D01*
X171704671Y-109400591D01*
X171648711Y-109228361D01*
X171648711Y-109228360D01*
X171576591Y-109086819D01*
X171566496Y-109067006D01*
X171474592Y-108940510D01*
X171460058Y-108920505D01*
X171460054Y-108920500D01*
X171331999Y-108792445D01*
X171331994Y-108792441D01*
X171185497Y-108686006D01*
X171185496Y-108686005D01*
X171185494Y-108686004D01*
X171133800Y-108659664D01*
X171024139Y-108603788D01*
X171024136Y-108603787D01*
X170851910Y-108547829D01*
X170691821Y-108522473D01*
X170628686Y-108492544D01*
X170591755Y-108433232D01*
X170592753Y-108363370D01*
X170631363Y-108305137D01*
X170691821Y-108277527D01*
X170761925Y-108266422D01*
X170851909Y-108252171D01*
X171024139Y-108196211D01*
X171185494Y-108113996D01*
X171332001Y-108007553D01*
X171460053Y-107879501D01*
X171566496Y-107732994D01*
X171648711Y-107571639D01*
X171704671Y-107399409D01*
X171719265Y-107307259D01*
X171733000Y-107220551D01*
X171733000Y-107039448D01*
X171716519Y-106935397D01*
X171704671Y-106860591D01*
X171648711Y-106688361D01*
X171648711Y-106688360D01*
X171588938Y-106571051D01*
X171566496Y-106527006D01*
X171552896Y-106508287D01*
X171460058Y-106380505D01*
X171460054Y-106380500D01*
X171331999Y-106252445D01*
X171331994Y-106252441D01*
X171185497Y-106146006D01*
X171185496Y-106146005D01*
X171185494Y-106146004D01*
X171133800Y-106119664D01*
X171024139Y-106063788D01*
X171024136Y-106063787D01*
X170851910Y-106007829D01*
X170691821Y-105982473D01*
X170628686Y-105952544D01*
X170591755Y-105893232D01*
X170592753Y-105823370D01*
X170631363Y-105765137D01*
X170691821Y-105737527D01*
X170761925Y-105726422D01*
X170851909Y-105712171D01*
X171024139Y-105656211D01*
X171185494Y-105573996D01*
X171332001Y-105467553D01*
X171460053Y-105339501D01*
X171566496Y-105192994D01*
X171648711Y-105031639D01*
X171704671Y-104859409D01*
X171719265Y-104767259D01*
X171733000Y-104680551D01*
X171733000Y-104499448D01*
X171716519Y-104395397D01*
X171704671Y-104320591D01*
X171648711Y-104148361D01*
X171648711Y-104148360D01*
X171608320Y-104069090D01*
X171566496Y-103987006D01*
X171509417Y-103908443D01*
X171460058Y-103840505D01*
X171460054Y-103840500D01*
X171331999Y-103712445D01*
X171331994Y-103712441D01*
X171185497Y-103606006D01*
X171185496Y-103606005D01*
X171185494Y-103606004D01*
X171112446Y-103568784D01*
X171024139Y-103523788D01*
X171024136Y-103523787D01*
X170851910Y-103467829D01*
X170691821Y-103442473D01*
X170628686Y-103412544D01*
X170591755Y-103353232D01*
X170592753Y-103283370D01*
X170631363Y-103225137D01*
X170691821Y-103197527D01*
X170761925Y-103186422D01*
X170851909Y-103172171D01*
X171024139Y-103116211D01*
X171185494Y-103033996D01*
X171332001Y-102927553D01*
X171460053Y-102799501D01*
X171566496Y-102652994D01*
X171648711Y-102491639D01*
X171704671Y-102319409D01*
X171719265Y-102227259D01*
X171733000Y-102140551D01*
X171733000Y-101959448D01*
X171716519Y-101855397D01*
X171704671Y-101780591D01*
X171648711Y-101608361D01*
X171648711Y-101608360D01*
X171620240Y-101552484D01*
X171566496Y-101447006D01*
X171489123Y-101340510D01*
X171460058Y-101300505D01*
X171460054Y-101300500D01*
X171331999Y-101172445D01*
X171331994Y-101172441D01*
X171185497Y-101066006D01*
X171185496Y-101066005D01*
X171185494Y-101066004D01*
X171133800Y-101039664D01*
X171024139Y-100983788D01*
X171024136Y-100983787D01*
X170851910Y-100927829D01*
X170691821Y-100902473D01*
X170628686Y-100872544D01*
X170591755Y-100813232D01*
X170592753Y-100743370D01*
X170631363Y-100685137D01*
X170691821Y-100657527D01*
X170761925Y-100646422D01*
X170851909Y-100632171D01*
X171024139Y-100576211D01*
X171185494Y-100493996D01*
X171332001Y-100387553D01*
X171460053Y-100259501D01*
X171566496Y-100112994D01*
X171648711Y-99951639D01*
X171704671Y-99779409D01*
X171719265Y-99687259D01*
X171733000Y-99600551D01*
X171733000Y-99419448D01*
X171716519Y-99315397D01*
X171704671Y-99240591D01*
X171648711Y-99068361D01*
X171648711Y-99068360D01*
X171620240Y-99012484D01*
X171566496Y-98907006D01*
X171552896Y-98888287D01*
X171460058Y-98760505D01*
X171460054Y-98760500D01*
X171331999Y-98632445D01*
X171331994Y-98632441D01*
X171185497Y-98526006D01*
X171185496Y-98526005D01*
X171185494Y-98526004D01*
X171133800Y-98499664D01*
X171024139Y-98443788D01*
X171024136Y-98443787D01*
X170851910Y-98387829D01*
X170691821Y-98362473D01*
X170628686Y-98332544D01*
X170591755Y-98273232D01*
X170592753Y-98203370D01*
X170631363Y-98145137D01*
X170691821Y-98117527D01*
X170761925Y-98106422D01*
X170851909Y-98092171D01*
X171024139Y-98036211D01*
X171185494Y-97953996D01*
X171332001Y-97847553D01*
X171460053Y-97719501D01*
X171566496Y-97572994D01*
X171648711Y-97411639D01*
X171704671Y-97239409D01*
X171719265Y-97147259D01*
X171733000Y-97060551D01*
X171733000Y-96879448D01*
X171704671Y-96700593D01*
X171704671Y-96700591D01*
X171670921Y-96596717D01*
X171648712Y-96528363D01*
X171648711Y-96528360D01*
X171620240Y-96472484D01*
X171566496Y-96367006D01*
X171552896Y-96348287D01*
X171460058Y-96220505D01*
X171460054Y-96220500D01*
X171331999Y-96092445D01*
X171331994Y-96092441D01*
X171185497Y-95986006D01*
X171185496Y-95986005D01*
X171185494Y-95986004D01*
X171133800Y-95959664D01*
X171024139Y-95903788D01*
X171024136Y-95903787D01*
X170851910Y-95847829D01*
X170691821Y-95822473D01*
X170628686Y-95792544D01*
X170591755Y-95733232D01*
X170592753Y-95663370D01*
X170631363Y-95605137D01*
X170691821Y-95577527D01*
X170761925Y-95566422D01*
X170851909Y-95552171D01*
X171024139Y-95496211D01*
X171185494Y-95413996D01*
X171332001Y-95307553D01*
X171460053Y-95179501D01*
X171566496Y-95032994D01*
X171648711Y-94871639D01*
X171704671Y-94699409D01*
X171719265Y-94607259D01*
X171733000Y-94520551D01*
X171733000Y-94339448D01*
X171713767Y-94218020D01*
X171704671Y-94160591D01*
X171648711Y-93988361D01*
X171648711Y-93988360D01*
X171613514Y-93919283D01*
X171566496Y-93827006D01*
X171549822Y-93804056D01*
X171460058Y-93680505D01*
X171460054Y-93680500D01*
X171331999Y-93552445D01*
X171331994Y-93552441D01*
X171185497Y-93446006D01*
X171185496Y-93446005D01*
X171185494Y-93446004D01*
X171133800Y-93419664D01*
X171024139Y-93363788D01*
X171024136Y-93363787D01*
X170851910Y-93307829D01*
X170691821Y-93282473D01*
X170628686Y-93252544D01*
X170591755Y-93193232D01*
X170592753Y-93123370D01*
X170631363Y-93065137D01*
X170691821Y-93037527D01*
X170761925Y-93026422D01*
X170851909Y-93012171D01*
X171024139Y-92956211D01*
X171185494Y-92873996D01*
X171332001Y-92767553D01*
X171460053Y-92639501D01*
X171566496Y-92492994D01*
X171648711Y-92331639D01*
X171704671Y-92159409D01*
X171725496Y-92027926D01*
X171733000Y-91980551D01*
X171733000Y-91799448D01*
X171716519Y-91695397D01*
X171704671Y-91620591D01*
X171648711Y-91448361D01*
X171648711Y-91448360D01*
X171620240Y-91392484D01*
X171566496Y-91287006D01*
X171552896Y-91268287D01*
X171460058Y-91140505D01*
X171460054Y-91140500D01*
X171331999Y-91012445D01*
X171331994Y-91012441D01*
X171185497Y-90906006D01*
X171185496Y-90906005D01*
X171185494Y-90906004D01*
X171115196Y-90870185D01*
X171024139Y-90823788D01*
X171024136Y-90823787D01*
X170851910Y-90767829D01*
X170691821Y-90742473D01*
X170628686Y-90712544D01*
X170591755Y-90653232D01*
X170592753Y-90583370D01*
X170631363Y-90525137D01*
X170691821Y-90497527D01*
X170761925Y-90486422D01*
X170851909Y-90472171D01*
X171024139Y-90416211D01*
X171185494Y-90333996D01*
X171332001Y-90227553D01*
X171460053Y-90099501D01*
X171566496Y-89952994D01*
X171648711Y-89791639D01*
X171704671Y-89619409D01*
X171719265Y-89527259D01*
X171733000Y-89440551D01*
X171733000Y-89259448D01*
X171704671Y-89080593D01*
X171704671Y-89080591D01*
X171670921Y-88976717D01*
X171648712Y-88908363D01*
X171648711Y-88908360D01*
X171620240Y-88852484D01*
X171566496Y-88747006D01*
X171552896Y-88728287D01*
X171460058Y-88600505D01*
X171460054Y-88600500D01*
X171331999Y-88472445D01*
X171331994Y-88472441D01*
X171185497Y-88366006D01*
X171185496Y-88366005D01*
X171185494Y-88366004D01*
X171114470Y-88329815D01*
X171024139Y-88283788D01*
X171024136Y-88283787D01*
X170851910Y-88227829D01*
X170691821Y-88202473D01*
X170628686Y-88172544D01*
X170591755Y-88113232D01*
X170592753Y-88043370D01*
X170631363Y-87985137D01*
X170691821Y-87957527D01*
X170761925Y-87946422D01*
X170851909Y-87932171D01*
X171024139Y-87876211D01*
X171185494Y-87793996D01*
X171332001Y-87687553D01*
X171460053Y-87559501D01*
X171566496Y-87412994D01*
X171648711Y-87251639D01*
X171704671Y-87079409D01*
X171719923Y-86983113D01*
X171733000Y-86900551D01*
X171733000Y-86719448D01*
X171716519Y-86615397D01*
X171704671Y-86540591D01*
X171663209Y-86412982D01*
X171648712Y-86368363D01*
X171648711Y-86368360D01*
X171620240Y-86312484D01*
X171566496Y-86207006D01*
X171552896Y-86188287D01*
X171460058Y-86060505D01*
X171460054Y-86060500D01*
X171331999Y-85932445D01*
X171331994Y-85932441D01*
X171185497Y-85826006D01*
X171185496Y-85826005D01*
X171185494Y-85826004D01*
X171133800Y-85799664D01*
X171024139Y-85743788D01*
X171024136Y-85743787D01*
X170851910Y-85687829D01*
X170691821Y-85662473D01*
X170628686Y-85632544D01*
X170591755Y-85573232D01*
X170592753Y-85503370D01*
X170631363Y-85445137D01*
X170691821Y-85417527D01*
X170761925Y-85406422D01*
X170851909Y-85392171D01*
X171024139Y-85336211D01*
X171185494Y-85253996D01*
X171332001Y-85147553D01*
X171460053Y-85019501D01*
X171566496Y-84872994D01*
X171648711Y-84711639D01*
X171704671Y-84539409D01*
X171719265Y-84447259D01*
X171733000Y-84360551D01*
X171733000Y-84179448D01*
X171716519Y-84075397D01*
X171704671Y-84000591D01*
X171648711Y-83828361D01*
X171648711Y-83828360D01*
X171620240Y-83772484D01*
X171566496Y-83667006D01*
X171532800Y-83620627D01*
X171460058Y-83520505D01*
X171460054Y-83520500D01*
X171331999Y-83392445D01*
X171331994Y-83392441D01*
X171185497Y-83286006D01*
X171185496Y-83286005D01*
X171185494Y-83286004D01*
X171133800Y-83259664D01*
X171024139Y-83203788D01*
X171024136Y-83203787D01*
X170851910Y-83147829D01*
X170691821Y-83122473D01*
X170628686Y-83092544D01*
X170591755Y-83033232D01*
X170592753Y-82963370D01*
X170631363Y-82905137D01*
X170691821Y-82877527D01*
X170761925Y-82866422D01*
X170851909Y-82852171D01*
X171024139Y-82796211D01*
X171185494Y-82713996D01*
X171332001Y-82607553D01*
X171460053Y-82479501D01*
X171566496Y-82332994D01*
X171648711Y-82171639D01*
X171704671Y-81999409D01*
X171727431Y-81855709D01*
X171733000Y-81820551D01*
X171733000Y-81639448D01*
X171713888Y-81518784D01*
X171704671Y-81460591D01*
X171648711Y-81288361D01*
X171648711Y-81288360D01*
X171620240Y-81232484D01*
X171566496Y-81127006D01*
X171552896Y-81108287D01*
X171460058Y-80980505D01*
X171460054Y-80980500D01*
X171331999Y-80852445D01*
X171331994Y-80852441D01*
X171185497Y-80746006D01*
X171185496Y-80746005D01*
X171185494Y-80746004D01*
X171133800Y-80719664D01*
X171024139Y-80663788D01*
X171024136Y-80663787D01*
X170851910Y-80607829D01*
X170691821Y-80582473D01*
X170628686Y-80552544D01*
X170591755Y-80493232D01*
X170592753Y-80423370D01*
X170631363Y-80365137D01*
X170691821Y-80337527D01*
X170761925Y-80326422D01*
X170851909Y-80312171D01*
X171024139Y-80256211D01*
X171185494Y-80173996D01*
X171332001Y-80067553D01*
X171460053Y-79939501D01*
X171566496Y-79792994D01*
X171648711Y-79631639D01*
X171704671Y-79459409D01*
X171725197Y-79329815D01*
X171733000Y-79280551D01*
X171733000Y-79099448D01*
X171716519Y-78995397D01*
X171704671Y-78920591D01*
X171670921Y-78816716D01*
X171648712Y-78748363D01*
X171648711Y-78748360D01*
X171620240Y-78692484D01*
X171566496Y-78587006D01*
X171552896Y-78568287D01*
X171460058Y-78440505D01*
X171460054Y-78440500D01*
X171331999Y-78312445D01*
X171331994Y-78312441D01*
X171185497Y-78206006D01*
X171185496Y-78206005D01*
X171185494Y-78206004D01*
X171133800Y-78179664D01*
X171024139Y-78123788D01*
X171024136Y-78123787D01*
X170851910Y-78067829D01*
X170691821Y-78042473D01*
X170628686Y-78012544D01*
X170591755Y-77953232D01*
X170592753Y-77883370D01*
X170631363Y-77825137D01*
X170691821Y-77797527D01*
X170761925Y-77786422D01*
X170851909Y-77772171D01*
X171024139Y-77716211D01*
X171185494Y-77633996D01*
X171332001Y-77527553D01*
X171460053Y-77399501D01*
X171566496Y-77252994D01*
X171648711Y-77091639D01*
X171704671Y-76919409D01*
X171719265Y-76827259D01*
X171733000Y-76740551D01*
X171733000Y-76559448D01*
X171716519Y-76455397D01*
X171704671Y-76380591D01*
X171648711Y-76208361D01*
X171648711Y-76208360D01*
X171620240Y-76152484D01*
X171566496Y-76047006D01*
X171552896Y-76028287D01*
X171460058Y-75900505D01*
X171460054Y-75900500D01*
X171331999Y-75772445D01*
X171331994Y-75772441D01*
X171185497Y-75666006D01*
X171185496Y-75666005D01*
X171185494Y-75666004D01*
X171133800Y-75639664D01*
X171024139Y-75583788D01*
X171024136Y-75583787D01*
X170851910Y-75527829D01*
X170691821Y-75502473D01*
X170628686Y-75472544D01*
X170591755Y-75413232D01*
X170592753Y-75343370D01*
X170631363Y-75285137D01*
X170691821Y-75257527D01*
X170761925Y-75246422D01*
X170851909Y-75232171D01*
X171024139Y-75176211D01*
X171185494Y-75093996D01*
X171332001Y-74987553D01*
X171460053Y-74859501D01*
X171566496Y-74712994D01*
X171648711Y-74551639D01*
X171704671Y-74379409D01*
X171719265Y-74287259D01*
X171733000Y-74200551D01*
X171733000Y-74019448D01*
X171716519Y-73915397D01*
X171704671Y-73840591D01*
X171651846Y-73678010D01*
X171648712Y-73668363D01*
X171648711Y-73668360D01*
X171620240Y-73612484D01*
X171566496Y-73507006D01*
X171552896Y-73488287D01*
X171460058Y-73360505D01*
X171460054Y-73360500D01*
X171331999Y-73232445D01*
X171331994Y-73232441D01*
X171185497Y-73126006D01*
X171185496Y-73126005D01*
X171185494Y-73126004D01*
X171109844Y-73087458D01*
X171024139Y-73043788D01*
X171024136Y-73043787D01*
X170851910Y-72987829D01*
X170691821Y-72962473D01*
X170628686Y-72932544D01*
X170591755Y-72873232D01*
X170592753Y-72803370D01*
X170631363Y-72745137D01*
X170691821Y-72717527D01*
X170761925Y-72706422D01*
X170851909Y-72692171D01*
X171024139Y-72636211D01*
X171185494Y-72553996D01*
X171332001Y-72447553D01*
X171460053Y-72319501D01*
X171566496Y-72172994D01*
X171648711Y-72011639D01*
X171704671Y-71839409D01*
X171724129Y-71716555D01*
X171733000Y-71660551D01*
X171733000Y-71479448D01*
X171716519Y-71375397D01*
X171704671Y-71300591D01*
X171648711Y-71128361D01*
X171648711Y-71128360D01*
X171602160Y-71037000D01*
X171566496Y-70967006D01*
X171552896Y-70948287D01*
X171460058Y-70820505D01*
X171460054Y-70820500D01*
X171331999Y-70692445D01*
X171331994Y-70692441D01*
X171185497Y-70586006D01*
X171185496Y-70586005D01*
X171185494Y-70586004D01*
X171133800Y-70559664D01*
X171024139Y-70503788D01*
X171024136Y-70503787D01*
X170851910Y-70447829D01*
X170691821Y-70422473D01*
X170628686Y-70392544D01*
X170591755Y-70333232D01*
X170592753Y-70263370D01*
X170631363Y-70205137D01*
X170691821Y-70177527D01*
X170761925Y-70166422D01*
X170851909Y-70152171D01*
X171024139Y-70096211D01*
X171185494Y-70013996D01*
X171332001Y-69907553D01*
X171460053Y-69779501D01*
X171566496Y-69632994D01*
X171648711Y-69471639D01*
X171704671Y-69299409D01*
X171719265Y-69207259D01*
X171733000Y-69120551D01*
X171733000Y-68939448D01*
X171716519Y-68835397D01*
X171704671Y-68760591D01*
X171648711Y-68588361D01*
X171648711Y-68588360D01*
X171597574Y-68488000D01*
X171566496Y-68427006D01*
X171530897Y-68378008D01*
X171460058Y-68280505D01*
X171460054Y-68280500D01*
X171331999Y-68152445D01*
X171331994Y-68152441D01*
X171185497Y-68046006D01*
X171185496Y-68046005D01*
X171185494Y-68046004D01*
X171133800Y-68019664D01*
X171024139Y-67963788D01*
X171024136Y-67963787D01*
X170851910Y-67907829D01*
X170691821Y-67882473D01*
X170628686Y-67852544D01*
X170591755Y-67793232D01*
X170592753Y-67723370D01*
X170631363Y-67665137D01*
X170691821Y-67637527D01*
X170761925Y-67626422D01*
X170851909Y-67612171D01*
X171024139Y-67556211D01*
X171185494Y-67473996D01*
X171332001Y-67367553D01*
X171460053Y-67239501D01*
X171566496Y-67092994D01*
X171648711Y-66931639D01*
X171704671Y-66759409D01*
X171723898Y-66638013D01*
X171733000Y-66580551D01*
X171733000Y-66399448D01*
X171716519Y-66295397D01*
X171704671Y-66220591D01*
X171648711Y-66048361D01*
X171648711Y-66048360D01*
X171620240Y-65992484D01*
X171566496Y-65887006D01*
X171552896Y-65868287D01*
X171460058Y-65740505D01*
X171460054Y-65740500D01*
X171331999Y-65612445D01*
X171331994Y-65612441D01*
X171185497Y-65506006D01*
X171185496Y-65506005D01*
X171185494Y-65506004D01*
X171133800Y-65479664D01*
X171024139Y-65423788D01*
X171024136Y-65423787D01*
X170851910Y-65367829D01*
X170691821Y-65342473D01*
X170628686Y-65312544D01*
X170591755Y-65253232D01*
X170592753Y-65183370D01*
X170631363Y-65125137D01*
X170691821Y-65097527D01*
X170761925Y-65086422D01*
X170851909Y-65072171D01*
X171024139Y-65016211D01*
X171185494Y-64933996D01*
X171332001Y-64827553D01*
X171460053Y-64699501D01*
X171566496Y-64552994D01*
X171648711Y-64391639D01*
X171704671Y-64219409D01*
X171719265Y-64127259D01*
X171733000Y-64040551D01*
X171733000Y-63859448D01*
X171716519Y-63755397D01*
X171704671Y-63680591D01*
X171670921Y-63576716D01*
X171648712Y-63508363D01*
X171648711Y-63508360D01*
X171620240Y-63452484D01*
X171566496Y-63347006D01*
X171552896Y-63328287D01*
X171460058Y-63200505D01*
X171460054Y-63200500D01*
X171331999Y-63072445D01*
X171331994Y-63072441D01*
X171185497Y-62966006D01*
X171185496Y-62966005D01*
X171185494Y-62966004D01*
X171133800Y-62939664D01*
X171024139Y-62883788D01*
X171024136Y-62883787D01*
X170851910Y-62827829D01*
X170691821Y-62802473D01*
X170628686Y-62772544D01*
X170591755Y-62713232D01*
X170592753Y-62643370D01*
X170631363Y-62585137D01*
X170691821Y-62557527D01*
X170761925Y-62546422D01*
X170851909Y-62532171D01*
X171024139Y-62476211D01*
X171185494Y-62393996D01*
X171332001Y-62287553D01*
X171460053Y-62159501D01*
X171566496Y-62012994D01*
X171648711Y-61851639D01*
X171704671Y-61679409D01*
X171721287Y-61574500D01*
X171733000Y-61500551D01*
X171733000Y-61319448D01*
X171716519Y-61215397D01*
X171704671Y-61140591D01*
X171653612Y-60983445D01*
X171648712Y-60968363D01*
X171648711Y-60968360D01*
X171620240Y-60912484D01*
X171566496Y-60807006D01*
X171552896Y-60788287D01*
X171460058Y-60660505D01*
X171460054Y-60660500D01*
X171331999Y-60532445D01*
X171331994Y-60532441D01*
X171185497Y-60426006D01*
X171185496Y-60426005D01*
X171185494Y-60426004D01*
X171133800Y-60399664D01*
X171024139Y-60343788D01*
X171024136Y-60343787D01*
X170851910Y-60287829D01*
X170691821Y-60262473D01*
X170628686Y-60232544D01*
X170591755Y-60173232D01*
X170592753Y-60103370D01*
X170631363Y-60045137D01*
X170691821Y-60017527D01*
X170761925Y-60006422D01*
X170851909Y-59992171D01*
X171024139Y-59936211D01*
X171185494Y-59853996D01*
X171332001Y-59747553D01*
X171460053Y-59619501D01*
X171566496Y-59472994D01*
X171648711Y-59311639D01*
X171704671Y-59139409D01*
X171719265Y-59047259D01*
X171733000Y-58960551D01*
X171733000Y-58779448D01*
X171716519Y-58675397D01*
X171704671Y-58600591D01*
X171670921Y-58496716D01*
X171648712Y-58428363D01*
X171648711Y-58428360D01*
X171620240Y-58372484D01*
X171566496Y-58267006D01*
X171552896Y-58248287D01*
X171460058Y-58120505D01*
X171460054Y-58120500D01*
X171331999Y-57992445D01*
X171331994Y-57992441D01*
X171185497Y-57886006D01*
X171185496Y-57886005D01*
X171185494Y-57886004D01*
X171133800Y-57859664D01*
X171024139Y-57803788D01*
X171024136Y-57803787D01*
X170851910Y-57747829D01*
X170691821Y-57722473D01*
X170628686Y-57692544D01*
X170591755Y-57633232D01*
X170592753Y-57563370D01*
X170631363Y-57505137D01*
X170691821Y-57477527D01*
X170761925Y-57466422D01*
X170851909Y-57452171D01*
X171024139Y-57396211D01*
X171185494Y-57313996D01*
X171332001Y-57207553D01*
X171460053Y-57079501D01*
X171566496Y-56932994D01*
X171648711Y-56771639D01*
X171704671Y-56599409D01*
X171719265Y-56507259D01*
X171733000Y-56420551D01*
X171733000Y-56239448D01*
X171716519Y-56135397D01*
X171704671Y-56060591D01*
X171648711Y-55888361D01*
X171648711Y-55888360D01*
X171620240Y-55832484D01*
X171566496Y-55727006D01*
X171552896Y-55708287D01*
X171460058Y-55580505D01*
X171460054Y-55580500D01*
X171331999Y-55452445D01*
X171331994Y-55452441D01*
X171185497Y-55346006D01*
X171185496Y-55346005D01*
X171185494Y-55346004D01*
X171133800Y-55319664D01*
X171024139Y-55263788D01*
X171024136Y-55263787D01*
X170851910Y-55207829D01*
X170691821Y-55182473D01*
X170628686Y-55152544D01*
X170591755Y-55093232D01*
X170592753Y-55023370D01*
X170631363Y-54965137D01*
X170691821Y-54937527D01*
X170761925Y-54926422D01*
X170851909Y-54912171D01*
X171024139Y-54856211D01*
X171185494Y-54773996D01*
X171332001Y-54667553D01*
X171460053Y-54539501D01*
X171566496Y-54392994D01*
X171648711Y-54231639D01*
X171704671Y-54059409D01*
X171719265Y-53967259D01*
X171733000Y-53880551D01*
X171733000Y-53699448D01*
X171716519Y-53595397D01*
X171704671Y-53520591D01*
X171648711Y-53348361D01*
X171648711Y-53348360D01*
X171620240Y-53292484D01*
X171566496Y-53187006D01*
X171552896Y-53168287D01*
X171460058Y-53040505D01*
X171460054Y-53040500D01*
X171331999Y-52912445D01*
X171331994Y-52912441D01*
X171185497Y-52806006D01*
X171185496Y-52806005D01*
X171185494Y-52806004D01*
X171133800Y-52779664D01*
X171024139Y-52723788D01*
X171024136Y-52723787D01*
X170851910Y-52667829D01*
X170720228Y-52646972D01*
X170657094Y-52617042D01*
X170620163Y-52557731D01*
X170621161Y-52487868D01*
X170659771Y-52429636D01*
X170723735Y-52401522D01*
X170739620Y-52400499D01*
X171477364Y-52400499D01*
X171477379Y-52400497D01*
X171477382Y-52400497D01*
X171502487Y-52397586D01*
X171502488Y-52397585D01*
X171502491Y-52397585D01*
X171605265Y-52352206D01*
X171684706Y-52272765D01*
X171730085Y-52169991D01*
X171733000Y-52144865D01*
X171732999Y-50355136D01*
X171732997Y-50355117D01*
X171730086Y-50330012D01*
X171730085Y-50330010D01*
X171730085Y-50330009D01*
X171684706Y-50227235D01*
X171605265Y-50147794D01*
X171605263Y-50147793D01*
X171502492Y-50102415D01*
X171477365Y-50099500D01*
X169687643Y-50099500D01*
X169687617Y-50099502D01*
X169662512Y-50102413D01*
X169662508Y-50102415D01*
X169559735Y-50147793D01*
X169480294Y-50227234D01*
X169434915Y-50330006D01*
X169434915Y-50330008D01*
X169432000Y-50355131D01*
X169432000Y-52144856D01*
X169432002Y-52144882D01*
X169434913Y-52169987D01*
X169434915Y-52169991D01*
X169480293Y-52272764D01*
X169480294Y-52272765D01*
X169559735Y-52352206D01*
X169662509Y-52397585D01*
X169687635Y-52400500D01*
X170425373Y-52400499D01*
X170492410Y-52420183D01*
X170538165Y-52472987D01*
X170548109Y-52542146D01*
X170519084Y-52605702D01*
X170460306Y-52643476D01*
X170444770Y-52646972D01*
X170313089Y-52667829D01*
X170140863Y-52723787D01*
X170140860Y-52723788D01*
X169979502Y-52806006D01*
X169833005Y-52912441D01*
X169833000Y-52912445D01*
X169704945Y-53040500D01*
X169704941Y-53040505D01*
X169598506Y-53187002D01*
X169516288Y-53348360D01*
X169516287Y-53348363D01*
X169460329Y-53520589D01*
X169432000Y-53699448D01*
X169432000Y-53880551D01*
X169460329Y-54059410D01*
X169516287Y-54231636D01*
X169516288Y-54231639D01*
X169598506Y-54392997D01*
X169704941Y-54539494D01*
X169704945Y-54539499D01*
X169833000Y-54667554D01*
X169833005Y-54667558D01*
X169960787Y-54760396D01*
X169979506Y-54773996D01*
X170084984Y-54827740D01*
X170140860Y-54856211D01*
X170140863Y-54856212D01*
X170226976Y-54884191D01*
X170313091Y-54912171D01*
X170386139Y-54923740D01*
X170473178Y-54937527D01*
X170536313Y-54967456D01*
X170573244Y-55026768D01*
X170572246Y-55096631D01*
X170533636Y-55154863D01*
X170473178Y-55182473D01*
X170313089Y-55207829D01*
X170140863Y-55263787D01*
X170140860Y-55263788D01*
X169979502Y-55346006D01*
X169833005Y-55452441D01*
X169833000Y-55452445D01*
X169704945Y-55580500D01*
X169704941Y-55580505D01*
X169598506Y-55727002D01*
X169516288Y-55888360D01*
X169516287Y-55888363D01*
X169460329Y-56060589D01*
X169432000Y-56239448D01*
X169432000Y-56420551D01*
X169460329Y-56599410D01*
X169516287Y-56771636D01*
X169516288Y-56771639D01*
X169598506Y-56932997D01*
X169704941Y-57079494D01*
X169704945Y-57079499D01*
X169833000Y-57207554D01*
X169833005Y-57207558D01*
X169960787Y-57300396D01*
X169979506Y-57313996D01*
X170084984Y-57367740D01*
X170140860Y-57396211D01*
X170140863Y-57396212D01*
X170226976Y-57424191D01*
X170313091Y-57452171D01*
X170386139Y-57463740D01*
X170473178Y-57477527D01*
X170536313Y-57507456D01*
X170573244Y-57566768D01*
X170572246Y-57636631D01*
X170533636Y-57694863D01*
X170473178Y-57722473D01*
X170313089Y-57747829D01*
X170140863Y-57803787D01*
X170140860Y-57803788D01*
X169979502Y-57886006D01*
X169833005Y-57992441D01*
X169833000Y-57992445D01*
X169704945Y-58120500D01*
X169704941Y-58120505D01*
X169598506Y-58267002D01*
X169516288Y-58428360D01*
X169516287Y-58428363D01*
X169460329Y-58600589D01*
X169432000Y-58779448D01*
X169432000Y-58960551D01*
X169460329Y-59139410D01*
X169516287Y-59311636D01*
X169516288Y-59311639D01*
X169598506Y-59472997D01*
X169704941Y-59619494D01*
X169704945Y-59619499D01*
X169833000Y-59747554D01*
X169833005Y-59747558D01*
X169960787Y-59840396D01*
X169979506Y-59853996D01*
X170084984Y-59907740D01*
X170140860Y-59936211D01*
X170140863Y-59936212D01*
X170226976Y-59964191D01*
X170313091Y-59992171D01*
X170386139Y-60003740D01*
X170473178Y-60017527D01*
X170536313Y-60047456D01*
X170573244Y-60106768D01*
X170572246Y-60176631D01*
X170533636Y-60234863D01*
X170473178Y-60262473D01*
X170313089Y-60287829D01*
X170140863Y-60343787D01*
X170140860Y-60343788D01*
X169979502Y-60426006D01*
X169833005Y-60532441D01*
X169833000Y-60532445D01*
X169704945Y-60660500D01*
X169704941Y-60660505D01*
X169598506Y-60807002D01*
X169516288Y-60968360D01*
X169516287Y-60968363D01*
X169460329Y-61140589D01*
X169432000Y-61319448D01*
X169432000Y-61500551D01*
X169460329Y-61679410D01*
X169516287Y-61851636D01*
X169516288Y-61851639D01*
X169562950Y-61943216D01*
X169596185Y-62008443D01*
X169598506Y-62012997D01*
X169704941Y-62159494D01*
X169704945Y-62159499D01*
X169833000Y-62287554D01*
X169833005Y-62287558D01*
X169876673Y-62319284D01*
X169979506Y-62393996D01*
X170084984Y-62447740D01*
X170140860Y-62476211D01*
X170140863Y-62476212D01*
X170226976Y-62504191D01*
X170313091Y-62532171D01*
X170386139Y-62543740D01*
X170473178Y-62557527D01*
X170536313Y-62587456D01*
X170573244Y-62646768D01*
X170572246Y-62716631D01*
X170533636Y-62774863D01*
X170473178Y-62802473D01*
X170313089Y-62827829D01*
X170140863Y-62883787D01*
X170140860Y-62883788D01*
X169979502Y-62966006D01*
X169833005Y-63072441D01*
X169833000Y-63072445D01*
X169704945Y-63200500D01*
X169704941Y-63200505D01*
X169598506Y-63347002D01*
X169516288Y-63508360D01*
X169516287Y-63508363D01*
X169460329Y-63680589D01*
X169432000Y-63859448D01*
X169432000Y-64040551D01*
X169460329Y-64219410D01*
X169516287Y-64391636D01*
X169516288Y-64391639D01*
X169598506Y-64552997D01*
X169704941Y-64699494D01*
X169704945Y-64699499D01*
X169833000Y-64827554D01*
X169833005Y-64827558D01*
X169960787Y-64920396D01*
X169979506Y-64933996D01*
X170084984Y-64987740D01*
X170140860Y-65016211D01*
X170140863Y-65016212D01*
X170226976Y-65044191D01*
X170313091Y-65072171D01*
X170386139Y-65083740D01*
X170473178Y-65097527D01*
X170536313Y-65127456D01*
X170573244Y-65186768D01*
X170572246Y-65256631D01*
X170533636Y-65314863D01*
X170473178Y-65342473D01*
X170313089Y-65367829D01*
X170140863Y-65423787D01*
X170140860Y-65423788D01*
X169979502Y-65506006D01*
X169833005Y-65612441D01*
X169833000Y-65612445D01*
X169704945Y-65740500D01*
X169704941Y-65740505D01*
X169598506Y-65887002D01*
X169516288Y-66048360D01*
X169516287Y-66048363D01*
X169460329Y-66220589D01*
X169432000Y-66399448D01*
X169432000Y-66580551D01*
X169460329Y-66759410D01*
X169516287Y-66931636D01*
X169516288Y-66931639D01*
X169598506Y-67092997D01*
X169704941Y-67239494D01*
X169704945Y-67239499D01*
X169833000Y-67367554D01*
X169833005Y-67367558D01*
X169960787Y-67460396D01*
X169979506Y-67473996D01*
X170084984Y-67527740D01*
X170140860Y-67556211D01*
X170140863Y-67556212D01*
X170226976Y-67584191D01*
X170313091Y-67612171D01*
X170386139Y-67623740D01*
X170473178Y-67637527D01*
X170536313Y-67667456D01*
X170573244Y-67726768D01*
X170572246Y-67796631D01*
X170533636Y-67854863D01*
X170473178Y-67882473D01*
X170313089Y-67907829D01*
X170140863Y-67963787D01*
X170140860Y-67963788D01*
X169979502Y-68046006D01*
X169833005Y-68152441D01*
X169833000Y-68152445D01*
X169704945Y-68280500D01*
X169704941Y-68280505D01*
X169598506Y-68427002D01*
X169516288Y-68588360D01*
X169516287Y-68588363D01*
X169460329Y-68760589D01*
X169432000Y-68939448D01*
X169432000Y-69120551D01*
X169460329Y-69299410D01*
X169516287Y-69471636D01*
X169516288Y-69471639D01*
X169598506Y-69632997D01*
X169704941Y-69779494D01*
X169704945Y-69779499D01*
X169833000Y-69907554D01*
X169833005Y-69907558D01*
X169960787Y-70000396D01*
X169979506Y-70013996D01*
X170084984Y-70067740D01*
X170140860Y-70096211D01*
X170140863Y-70096212D01*
X170226976Y-70124191D01*
X170313091Y-70152171D01*
X170386139Y-70163740D01*
X170473178Y-70177527D01*
X170536313Y-70207456D01*
X170573244Y-70266768D01*
X170572246Y-70336631D01*
X170533636Y-70394863D01*
X170473178Y-70422473D01*
X170313089Y-70447829D01*
X170140863Y-70503787D01*
X170140860Y-70503788D01*
X169979502Y-70586006D01*
X169833005Y-70692441D01*
X169833000Y-70692445D01*
X169704945Y-70820500D01*
X169704941Y-70820505D01*
X169598506Y-70967002D01*
X169516288Y-71128360D01*
X169516287Y-71128363D01*
X169460329Y-71300589D01*
X169432000Y-71479448D01*
X169432000Y-71660551D01*
X169460329Y-71839410D01*
X169516287Y-72011636D01*
X169516288Y-72011639D01*
X169570492Y-72118018D01*
X169590344Y-72156980D01*
X169598506Y-72172997D01*
X169704941Y-72319494D01*
X169704945Y-72319499D01*
X169833000Y-72447554D01*
X169833005Y-72447558D01*
X169945912Y-72529589D01*
X169979506Y-72553996D01*
X170084984Y-72607740D01*
X170140860Y-72636211D01*
X170140863Y-72636212D01*
X170212461Y-72659475D01*
X170313091Y-72692171D01*
X170386139Y-72703740D01*
X170473178Y-72717527D01*
X170536313Y-72747456D01*
X170573244Y-72806768D01*
X170572246Y-72876631D01*
X170533636Y-72934863D01*
X170473178Y-72962473D01*
X170313089Y-72987829D01*
X170140863Y-73043787D01*
X170140860Y-73043788D01*
X169979502Y-73126006D01*
X169833005Y-73232441D01*
X169833000Y-73232445D01*
X169704945Y-73360500D01*
X169704941Y-73360505D01*
X169598506Y-73507002D01*
X169516288Y-73668360D01*
X169516287Y-73668363D01*
X169460329Y-73840589D01*
X169432000Y-74019448D01*
X169432000Y-74200551D01*
X169460329Y-74379410D01*
X169516287Y-74551636D01*
X169516288Y-74551639D01*
X169598506Y-74712997D01*
X169704941Y-74859494D01*
X169704945Y-74859499D01*
X169833000Y-74987554D01*
X169833005Y-74987558D01*
X169960787Y-75080396D01*
X169979506Y-75093996D01*
X170084984Y-75147740D01*
X170140860Y-75176211D01*
X170140863Y-75176212D01*
X170226976Y-75204191D01*
X170313091Y-75232171D01*
X170386139Y-75243740D01*
X170473178Y-75257527D01*
X170536313Y-75287456D01*
X170573244Y-75346768D01*
X170572246Y-75416631D01*
X170533636Y-75474863D01*
X170473178Y-75502473D01*
X170313089Y-75527829D01*
X170140863Y-75583787D01*
X170140860Y-75583788D01*
X169979502Y-75666006D01*
X169833005Y-75772441D01*
X169833000Y-75772445D01*
X169704945Y-75900500D01*
X169704941Y-75900505D01*
X169598506Y-76047002D01*
X169516288Y-76208360D01*
X169516287Y-76208363D01*
X169460329Y-76380589D01*
X169432000Y-76559448D01*
X169432000Y-76740551D01*
X169460329Y-76919410D01*
X169516287Y-77091636D01*
X169516288Y-77091639D01*
X169598506Y-77252997D01*
X169704941Y-77399494D01*
X169704945Y-77399499D01*
X169833000Y-77527554D01*
X169833005Y-77527558D01*
X169950584Y-77612983D01*
X169979506Y-77633996D01*
X170084984Y-77687740D01*
X170140860Y-77716211D01*
X170140863Y-77716212D01*
X170226976Y-77744191D01*
X170313091Y-77772171D01*
X170386139Y-77783740D01*
X170473178Y-77797527D01*
X170536313Y-77827456D01*
X170573244Y-77886768D01*
X170572246Y-77956631D01*
X170533636Y-78014863D01*
X170473178Y-78042473D01*
X170313089Y-78067829D01*
X170140863Y-78123787D01*
X170140860Y-78123788D01*
X169979502Y-78206006D01*
X169833005Y-78312441D01*
X169833000Y-78312445D01*
X169704945Y-78440500D01*
X169704941Y-78440505D01*
X169598506Y-78587002D01*
X169516288Y-78748360D01*
X169516287Y-78748363D01*
X169460329Y-78920589D01*
X169432000Y-79099448D01*
X169432000Y-79280551D01*
X169460329Y-79459410D01*
X169516287Y-79631636D01*
X169516288Y-79631639D01*
X169598506Y-79792997D01*
X169704941Y-79939494D01*
X169704945Y-79939499D01*
X169833000Y-80067554D01*
X169833005Y-80067558D01*
X169960787Y-80160396D01*
X169979506Y-80173996D01*
X170084984Y-80227740D01*
X170140860Y-80256211D01*
X170140863Y-80256212D01*
X170226976Y-80284191D01*
X170313091Y-80312171D01*
X170386139Y-80323740D01*
X170473178Y-80337527D01*
X170536313Y-80367456D01*
X170573244Y-80426768D01*
X170572246Y-80496631D01*
X170533636Y-80554863D01*
X170473178Y-80582473D01*
X170313089Y-80607829D01*
X170140863Y-80663787D01*
X170140860Y-80663788D01*
X169979502Y-80746006D01*
X169833005Y-80852441D01*
X169833000Y-80852445D01*
X169704945Y-80980500D01*
X169704941Y-80980505D01*
X169598506Y-81127002D01*
X169516288Y-81288360D01*
X169516287Y-81288363D01*
X169460329Y-81460589D01*
X169432000Y-81639448D01*
X169432000Y-81820551D01*
X169460329Y-81999410D01*
X169516287Y-82171636D01*
X169516288Y-82171639D01*
X169559380Y-82256209D01*
X169591521Y-82319290D01*
X169598506Y-82332997D01*
X169704941Y-82479494D01*
X169704945Y-82479499D01*
X169833000Y-82607554D01*
X169833005Y-82607558D01*
X169917285Y-82668790D01*
X169979506Y-82713996D01*
X170061372Y-82755709D01*
X170140860Y-82796211D01*
X170140863Y-82796212D01*
X170226976Y-82824191D01*
X170313091Y-82852171D01*
X170386139Y-82863740D01*
X170473178Y-82877527D01*
X170536313Y-82907456D01*
X170573244Y-82966768D01*
X170572246Y-83036631D01*
X170533636Y-83094863D01*
X170473178Y-83122473D01*
X170313089Y-83147829D01*
X170140863Y-83203787D01*
X170140860Y-83203788D01*
X169979502Y-83286006D01*
X169833005Y-83392441D01*
X169833000Y-83392445D01*
X169704945Y-83520500D01*
X169704941Y-83520505D01*
X169598506Y-83667002D01*
X169516288Y-83828360D01*
X169516287Y-83828363D01*
X169460329Y-84000589D01*
X169432000Y-84179448D01*
X169432000Y-84360551D01*
X169460329Y-84539410D01*
X169516287Y-84711636D01*
X169516288Y-84711639D01*
X169598506Y-84872997D01*
X169704941Y-85019494D01*
X169704945Y-85019499D01*
X169833000Y-85147554D01*
X169833005Y-85147558D01*
X169960787Y-85240396D01*
X169979506Y-85253996D01*
X170084984Y-85307740D01*
X170140860Y-85336211D01*
X170140863Y-85336212D01*
X170226976Y-85364191D01*
X170313091Y-85392171D01*
X170386139Y-85403740D01*
X170473178Y-85417527D01*
X170536313Y-85447456D01*
X170573244Y-85506768D01*
X170572246Y-85576631D01*
X170533636Y-85634863D01*
X170473178Y-85662473D01*
X170313089Y-85687829D01*
X170140863Y-85743787D01*
X170140860Y-85743788D01*
X169979502Y-85826006D01*
X169833005Y-85932441D01*
X169833000Y-85932445D01*
X169704945Y-86060500D01*
X169704941Y-86060505D01*
X169598506Y-86207002D01*
X169516288Y-86368360D01*
X169516287Y-86368363D01*
X169460329Y-86540589D01*
X169432000Y-86719448D01*
X169432000Y-86900551D01*
X169460329Y-87079410D01*
X169516287Y-87251636D01*
X169516288Y-87251639D01*
X169598506Y-87412997D01*
X169704941Y-87559494D01*
X169704945Y-87559499D01*
X169833000Y-87687554D01*
X169833005Y-87687558D01*
X169960787Y-87780396D01*
X169979506Y-87793996D01*
X170084984Y-87847740D01*
X170140860Y-87876211D01*
X170140863Y-87876212D01*
X170226976Y-87904191D01*
X170313091Y-87932171D01*
X170386139Y-87943740D01*
X170473178Y-87957527D01*
X170536313Y-87987456D01*
X170573244Y-88046768D01*
X170572246Y-88116631D01*
X170533636Y-88174863D01*
X170473178Y-88202473D01*
X170313089Y-88227829D01*
X170140863Y-88283787D01*
X170140860Y-88283788D01*
X169979502Y-88366006D01*
X169833005Y-88472441D01*
X169833000Y-88472445D01*
X169704945Y-88600500D01*
X169704941Y-88600505D01*
X169598506Y-88747002D01*
X169516288Y-88908360D01*
X169516287Y-88908363D01*
X169460329Y-89080589D01*
X169432000Y-89259448D01*
X169432000Y-89440551D01*
X169460329Y-89619410D01*
X169516287Y-89791636D01*
X169516288Y-89791639D01*
X169598506Y-89952997D01*
X169704941Y-90099494D01*
X169704945Y-90099499D01*
X169833000Y-90227554D01*
X169833005Y-90227558D01*
X169960787Y-90320396D01*
X169979506Y-90333996D01*
X170084984Y-90387740D01*
X170140860Y-90416211D01*
X170140863Y-90416212D01*
X170226976Y-90444191D01*
X170313091Y-90472171D01*
X170386139Y-90483740D01*
X170473178Y-90497527D01*
X170536313Y-90527456D01*
X170573244Y-90586768D01*
X170572246Y-90656631D01*
X170533636Y-90714863D01*
X170473178Y-90742473D01*
X170313089Y-90767829D01*
X170140863Y-90823787D01*
X170140860Y-90823788D01*
X169979502Y-90906006D01*
X169833005Y-91012441D01*
X169833000Y-91012445D01*
X169704945Y-91140500D01*
X169704941Y-91140505D01*
X169598506Y-91287002D01*
X169516288Y-91448360D01*
X169516287Y-91448363D01*
X169460329Y-91620589D01*
X169432000Y-91799448D01*
X169432000Y-91980551D01*
X169460329Y-92159410D01*
X169516287Y-92331636D01*
X169516288Y-92331639D01*
X169598506Y-92492997D01*
X169704941Y-92639494D01*
X169704945Y-92639499D01*
X169833000Y-92767554D01*
X169833005Y-92767558D01*
X169904201Y-92819284D01*
X169979506Y-92873996D01*
X170084984Y-92927740D01*
X170140860Y-92956211D01*
X170140863Y-92956212D01*
X170226976Y-92984191D01*
X170313091Y-93012171D01*
X170386139Y-93023740D01*
X170473178Y-93037527D01*
X170536313Y-93067456D01*
X170573244Y-93126768D01*
X170572246Y-93196631D01*
X170533636Y-93254863D01*
X170473178Y-93282473D01*
X170313089Y-93307829D01*
X170140863Y-93363787D01*
X170140860Y-93363788D01*
X169979502Y-93446006D01*
X169833005Y-93552441D01*
X169833000Y-93552445D01*
X169704945Y-93680500D01*
X169704941Y-93680505D01*
X169598506Y-93827002D01*
X169516288Y-93988360D01*
X169516287Y-93988363D01*
X169460329Y-94160589D01*
X169432000Y-94339448D01*
X169432000Y-94520551D01*
X169460329Y-94699410D01*
X169516287Y-94871636D01*
X169516288Y-94871639D01*
X169598506Y-95032997D01*
X169704941Y-95179494D01*
X169704945Y-95179499D01*
X169833000Y-95307554D01*
X169833005Y-95307558D01*
X169960787Y-95400396D01*
X169979506Y-95413996D01*
X170084984Y-95467740D01*
X170140860Y-95496211D01*
X170140863Y-95496212D01*
X170226976Y-95524191D01*
X170313091Y-95552171D01*
X170386139Y-95563740D01*
X170473178Y-95577527D01*
X170536313Y-95607456D01*
X170573244Y-95666768D01*
X170572246Y-95736631D01*
X170533636Y-95794863D01*
X170473178Y-95822473D01*
X170313089Y-95847829D01*
X170140863Y-95903787D01*
X170140860Y-95903788D01*
X169979502Y-95986006D01*
X169833005Y-96092441D01*
X169833000Y-96092445D01*
X169704945Y-96220500D01*
X169704941Y-96220505D01*
X169598506Y-96367002D01*
X169516288Y-96528360D01*
X169516287Y-96528363D01*
X169460329Y-96700589D01*
X169432000Y-96879448D01*
X169432000Y-97060551D01*
X169460329Y-97239410D01*
X169516287Y-97411636D01*
X169516288Y-97411639D01*
X169598506Y-97572997D01*
X169704941Y-97719494D01*
X169704945Y-97719499D01*
X169833000Y-97847554D01*
X169833005Y-97847558D01*
X169960787Y-97940396D01*
X169979506Y-97953996D01*
X170070800Y-98000513D01*
X170140860Y-98036211D01*
X170140863Y-98036212D01*
X170226976Y-98064191D01*
X170313091Y-98092171D01*
X170386139Y-98103740D01*
X170473178Y-98117527D01*
X170536313Y-98147456D01*
X170573244Y-98206768D01*
X170572246Y-98276631D01*
X170533636Y-98334863D01*
X170473178Y-98362473D01*
X170313089Y-98387829D01*
X170140863Y-98443787D01*
X170140860Y-98443788D01*
X169979502Y-98526006D01*
X169833005Y-98632441D01*
X169833000Y-98632445D01*
X169704945Y-98760500D01*
X169704941Y-98760505D01*
X169598506Y-98907002D01*
X169516288Y-99068360D01*
X169516287Y-99068363D01*
X169460329Y-99240589D01*
X169432000Y-99419448D01*
X169432000Y-99600551D01*
X169460329Y-99779410D01*
X169516287Y-99951636D01*
X169516288Y-99951639D01*
X169566954Y-100051074D01*
X169588095Y-100092566D01*
X169598506Y-100112997D01*
X169704941Y-100259494D01*
X169704945Y-100259499D01*
X169833000Y-100387554D01*
X169833005Y-100387558D01*
X169932012Y-100459490D01*
X169979506Y-100493996D01*
X170084984Y-100547740D01*
X170140860Y-100576211D01*
X170140863Y-100576212D01*
X170226976Y-100604191D01*
X170313091Y-100632171D01*
X170386139Y-100643740D01*
X170473178Y-100657527D01*
X170536313Y-100687456D01*
X170573244Y-100746768D01*
X170572246Y-100816631D01*
X170533636Y-100874863D01*
X170473178Y-100902473D01*
X170313089Y-100927829D01*
X170140863Y-100983787D01*
X170140860Y-100983788D01*
X169979502Y-101066006D01*
X169833005Y-101172441D01*
X169833000Y-101172445D01*
X169704945Y-101300500D01*
X169704941Y-101300505D01*
X169598506Y-101447002D01*
X169516288Y-101608360D01*
X169516287Y-101608363D01*
X169460329Y-101780589D01*
X169432000Y-101959448D01*
X169432000Y-102140551D01*
X169460329Y-102319410D01*
X169516287Y-102491636D01*
X169516288Y-102491639D01*
X169598506Y-102652997D01*
X169704941Y-102799494D01*
X169704945Y-102799499D01*
X169833000Y-102927554D01*
X169833005Y-102927558D01*
X169960787Y-103020396D01*
X169979506Y-103033996D01*
X170084984Y-103087740D01*
X170140860Y-103116211D01*
X170140863Y-103116212D01*
X170226976Y-103144191D01*
X170313091Y-103172171D01*
X170386139Y-103183740D01*
X170473178Y-103197527D01*
X170536313Y-103227456D01*
X170573244Y-103286768D01*
X170572246Y-103356631D01*
X170533636Y-103414863D01*
X170473178Y-103442473D01*
X170313089Y-103467829D01*
X170140863Y-103523787D01*
X170140860Y-103523788D01*
X169979502Y-103606006D01*
X169833005Y-103712441D01*
X169833000Y-103712445D01*
X169704945Y-103840500D01*
X169704941Y-103840505D01*
X169598506Y-103987002D01*
X169516288Y-104148360D01*
X169516287Y-104148363D01*
X169460329Y-104320589D01*
X169432000Y-104499448D01*
X169432000Y-104680551D01*
X169460329Y-104859410D01*
X169516287Y-105031636D01*
X169516288Y-105031639D01*
X169598506Y-105192997D01*
X169704941Y-105339494D01*
X169704945Y-105339499D01*
X169833000Y-105467554D01*
X169833005Y-105467558D01*
X169960787Y-105560396D01*
X169979506Y-105573996D01*
X170084984Y-105627740D01*
X170140860Y-105656211D01*
X170140863Y-105656212D01*
X170226976Y-105684191D01*
X170313091Y-105712171D01*
X170386139Y-105723740D01*
X170473178Y-105737527D01*
X170536313Y-105767456D01*
X170573244Y-105826768D01*
X170572246Y-105896631D01*
X170533636Y-105954863D01*
X170473178Y-105982473D01*
X170313089Y-106007829D01*
X170140863Y-106063787D01*
X170140860Y-106063788D01*
X169979502Y-106146006D01*
X169833005Y-106252441D01*
X169833000Y-106252445D01*
X169704945Y-106380500D01*
X169704941Y-106380505D01*
X169597501Y-106528385D01*
X169542171Y-106571051D01*
X169497183Y-106579500D01*
X168410025Y-106579500D01*
X168305017Y-106607637D01*
X168270014Y-106617016D01*
X168144486Y-106689489D01*
X168144483Y-106689491D01*
X163520794Y-111313181D01*
X163459471Y-111346666D01*
X163433113Y-111349500D01*
X151791887Y-111349500D01*
X151724848Y-111329815D01*
X151704206Y-111313181D01*
X149850516Y-109459491D01*
X149850515Y-109459490D01*
X149724985Y-109387016D01*
X149724986Y-109387016D01*
X149689982Y-109377637D01*
X149584975Y-109349500D01*
X149584972Y-109349500D01*
X122316887Y-109349500D01*
X122249848Y-109329815D01*
X122229206Y-109313181D01*
X116720286Y-103804261D01*
X116688193Y-103748676D01*
X116654577Y-103623216D01*
X116644640Y-103606004D01*
X116575524Y-103486290D01*
X116575518Y-103486282D01*
X116463717Y-103374481D01*
X116463709Y-103374475D01*
X116326790Y-103295426D01*
X116326786Y-103295424D01*
X116326784Y-103295423D01*
X116174057Y-103254500D01*
X116015943Y-103254500D01*
X115863216Y-103295423D01*
X115863209Y-103295426D01*
X115726290Y-103374475D01*
X115726282Y-103374481D01*
X115614481Y-103486282D01*
X115614475Y-103486290D01*
X115535426Y-103623209D01*
X115535423Y-103623216D01*
X115494500Y-103775943D01*
X115494500Y-103934057D01*
X115516606Y-104016556D01*
X115535423Y-104086783D01*
X115535426Y-104086790D01*
X115614475Y-104223709D01*
X115614481Y-104223717D01*
X115617021Y-104226257D01*
X115636727Y-104251938D01*
X115671987Y-104313011D01*
X115671989Y-104313014D01*
X115671990Y-104313015D01*
X121699485Y-110340510D01*
X121825015Y-110412984D01*
X121965025Y-110450500D01*
X149233113Y-110450500D01*
X149300152Y-110470185D01*
X149320794Y-110486819D01*
X151174485Y-112340510D01*
X151300015Y-112412984D01*
X151440025Y-112450500D01*
X151440026Y-112450500D01*
X151440028Y-112450500D01*
X163784972Y-112450500D01*
X163784974Y-112450500D01*
X163784975Y-112450500D01*
X163924985Y-112412984D01*
X164050515Y-112340510D01*
X168674206Y-107716819D01*
X168735529Y-107683334D01*
X168761887Y-107680500D01*
X169497183Y-107680500D01*
X169564222Y-107700185D01*
X169597501Y-107731615D01*
X169704941Y-107879494D01*
X169704945Y-107879499D01*
X169833000Y-108007554D01*
X169833005Y-108007558D01*
X169922353Y-108072472D01*
X169979506Y-108113996D01*
X170084984Y-108167740D01*
X170140860Y-108196211D01*
X170140863Y-108196212D01*
X170190948Y-108212485D01*
X170313091Y-108252171D01*
X170386139Y-108263740D01*
X170473178Y-108277527D01*
X170536313Y-108307456D01*
X170573244Y-108366768D01*
X170572246Y-108436631D01*
X170533636Y-108494863D01*
X170473178Y-108522473D01*
X170313089Y-108547829D01*
X170140863Y-108603787D01*
X170140860Y-108603788D01*
X169979502Y-108686006D01*
X169833005Y-108792441D01*
X169833000Y-108792445D01*
X169704945Y-108920500D01*
X169704941Y-108920505D01*
X169597501Y-109068385D01*
X169542171Y-109111051D01*
X169497183Y-109119500D01*
X168870025Y-109119500D01*
X168765017Y-109147637D01*
X168730014Y-109157016D01*
X168604486Y-109229489D01*
X168604483Y-109229491D01*
X164520794Y-113313181D01*
X164459471Y-113346666D01*
X164433113Y-113349500D01*
X151191887Y-113349500D01*
X151124848Y-113329815D01*
X151104206Y-113313181D01*
X148650516Y-110859491D01*
X148650515Y-110859490D01*
X148524985Y-110787016D01*
X148524986Y-110787016D01*
X148489982Y-110777637D01*
X148384975Y-110749500D01*
X148384972Y-110749500D01*
X109191887Y-110749500D01*
X109124848Y-110729815D01*
X109104206Y-110713181D01*
X106199319Y-107808294D01*
X106165834Y-107746971D01*
X106163000Y-107720613D01*
X106163000Y-104236532D01*
X106179614Y-104174530D01*
X106182640Y-104169290D01*
X106197077Y-104144284D01*
X106238000Y-103991557D01*
X106238000Y-103833443D01*
X106197077Y-103680716D01*
X106163876Y-103623209D01*
X106118024Y-103543790D01*
X106118018Y-103543782D01*
X106006217Y-103431981D01*
X106006209Y-103431975D01*
X105869290Y-103352926D01*
X105869286Y-103352924D01*
X105869284Y-103352923D01*
X105716557Y-103312000D01*
X105558443Y-103312000D01*
X105405716Y-103352923D01*
X105405709Y-103352926D01*
X105268790Y-103431975D01*
X105268782Y-103431981D01*
X105156981Y-103543782D01*
X105156975Y-103543790D01*
X105077926Y-103680709D01*
X105077923Y-103680716D01*
X105037000Y-103833443D01*
X85913000Y-103833443D01*
X85913000Y-102808443D01*
X98712000Y-102808443D01*
X98712000Y-102966557D01*
X98730070Y-103033993D01*
X98752923Y-103119283D01*
X98752926Y-103119290D01*
X98831975Y-103256209D01*
X98831979Y-103256214D01*
X98831980Y-103256216D01*
X98943784Y-103368020D01*
X98943786Y-103368021D01*
X98943790Y-103368024D01*
X99080709Y-103447073D01*
X99080716Y-103447077D01*
X99233443Y-103488000D01*
X99233445Y-103488000D01*
X99391555Y-103488000D01*
X99391557Y-103488000D01*
X99544284Y-103447077D01*
X99681216Y-103368020D01*
X99793020Y-103256216D01*
X99872077Y-103119284D01*
X99913000Y-102966557D01*
X99913000Y-102808443D01*
X102212000Y-102808443D01*
X102212000Y-102966557D01*
X102230070Y-103033993D01*
X102252923Y-103119283D01*
X102252926Y-103119290D01*
X102331975Y-103256209D01*
X102331979Y-103256214D01*
X102331980Y-103256216D01*
X102443784Y-103368020D01*
X102443786Y-103368021D01*
X102443790Y-103368024D01*
X102580709Y-103447073D01*
X102580716Y-103447077D01*
X102733443Y-103488000D01*
X102733445Y-103488000D01*
X102891555Y-103488000D01*
X102891557Y-103488000D01*
X103044284Y-103447077D01*
X103181216Y-103368020D01*
X103293020Y-103256216D01*
X103372077Y-103119284D01*
X103413000Y-102966557D01*
X103413000Y-102808443D01*
X109212000Y-102808443D01*
X109212000Y-102966557D01*
X109230070Y-103033993D01*
X109252923Y-103119283D01*
X109252926Y-103119290D01*
X109331975Y-103256209D01*
X109331979Y-103256214D01*
X109331980Y-103256216D01*
X109443784Y-103368020D01*
X109443786Y-103368021D01*
X109443790Y-103368024D01*
X109580709Y-103447073D01*
X109580716Y-103447077D01*
X109733443Y-103488000D01*
X109733445Y-103488000D01*
X109891555Y-103488000D01*
X109891557Y-103488000D01*
X110044284Y-103447077D01*
X110181216Y-103368020D01*
X110293020Y-103256216D01*
X110372077Y-103119284D01*
X110413000Y-102966557D01*
X110413000Y-102808443D01*
X112712000Y-102808443D01*
X112712000Y-102966557D01*
X112730070Y-103033993D01*
X112752923Y-103119283D01*
X112752926Y-103119290D01*
X112831975Y-103256209D01*
X112831979Y-103256214D01*
X112831980Y-103256216D01*
X112943784Y-103368020D01*
X112943786Y-103368021D01*
X112943790Y-103368024D01*
X113080709Y-103447073D01*
X113080716Y-103447077D01*
X113233443Y-103488000D01*
X113233445Y-103488000D01*
X113391555Y-103488000D01*
X113391557Y-103488000D01*
X113544284Y-103447077D01*
X113681216Y-103368020D01*
X113793020Y-103256216D01*
X113872077Y-103119284D01*
X113913000Y-102966557D01*
X113913000Y-102808443D01*
X119712000Y-102808443D01*
X119712000Y-102966557D01*
X119730070Y-103033993D01*
X119752923Y-103119283D01*
X119752926Y-103119290D01*
X119831975Y-103256209D01*
X119831979Y-103256214D01*
X119831980Y-103256216D01*
X119943784Y-103368020D01*
X119943786Y-103368021D01*
X119943790Y-103368024D01*
X120080709Y-103447073D01*
X120080716Y-103447077D01*
X120233443Y-103488000D01*
X120233445Y-103488000D01*
X120391555Y-103488000D01*
X120391557Y-103488000D01*
X120544284Y-103447077D01*
X120681216Y-103368020D01*
X120793020Y-103256216D01*
X120872077Y-103119284D01*
X120913000Y-102966557D01*
X120913000Y-102808443D01*
X123212000Y-102808443D01*
X123212000Y-102966557D01*
X123230070Y-103033993D01*
X123252923Y-103119283D01*
X123252926Y-103119290D01*
X123331975Y-103256209D01*
X123331979Y-103256214D01*
X123331980Y-103256216D01*
X123443784Y-103368020D01*
X123443786Y-103368021D01*
X123443790Y-103368024D01*
X123580709Y-103447073D01*
X123580716Y-103447077D01*
X123733443Y-103488000D01*
X123733445Y-103488000D01*
X123891555Y-103488000D01*
X123891557Y-103488000D01*
X124044284Y-103447077D01*
X124181216Y-103368020D01*
X124293020Y-103256216D01*
X124372077Y-103119284D01*
X124413000Y-102966557D01*
X124413000Y-102808443D01*
X130212000Y-102808443D01*
X130212000Y-102966557D01*
X130230070Y-103033993D01*
X130252923Y-103119283D01*
X130252926Y-103119290D01*
X130331975Y-103256209D01*
X130331979Y-103256214D01*
X130331980Y-103256216D01*
X130443784Y-103368020D01*
X130443786Y-103368021D01*
X130443790Y-103368024D01*
X130580709Y-103447073D01*
X130580716Y-103447077D01*
X130733443Y-103488000D01*
X130733445Y-103488000D01*
X130891555Y-103488000D01*
X130891557Y-103488000D01*
X131044284Y-103447077D01*
X131181216Y-103368020D01*
X131293020Y-103256216D01*
X131372077Y-103119284D01*
X131413000Y-102966557D01*
X131413000Y-102808443D01*
X133712000Y-102808443D01*
X133712000Y-102966557D01*
X133730070Y-103033993D01*
X133752923Y-103119283D01*
X133752926Y-103119290D01*
X133831975Y-103256209D01*
X133831979Y-103256214D01*
X133831980Y-103256216D01*
X133943784Y-103368020D01*
X133943786Y-103368021D01*
X133943790Y-103368024D01*
X134080709Y-103447073D01*
X134080716Y-103447077D01*
X134233443Y-103488000D01*
X134233445Y-103488000D01*
X134391555Y-103488000D01*
X134391557Y-103488000D01*
X134544284Y-103447077D01*
X134681216Y-103368020D01*
X134793020Y-103256216D01*
X134872077Y-103119284D01*
X134913000Y-102966557D01*
X134913000Y-102808443D01*
X140712000Y-102808443D01*
X140712000Y-102966557D01*
X140730070Y-103033993D01*
X140752923Y-103119283D01*
X140752926Y-103119290D01*
X140831975Y-103256209D01*
X140831979Y-103256214D01*
X140831980Y-103256216D01*
X140943784Y-103368020D01*
X140943786Y-103368021D01*
X140943790Y-103368024D01*
X141080709Y-103447073D01*
X141080716Y-103447077D01*
X141233443Y-103488000D01*
X141233445Y-103488000D01*
X141391555Y-103488000D01*
X141391557Y-103488000D01*
X141544284Y-103447077D01*
X141681216Y-103368020D01*
X141793020Y-103256216D01*
X141872077Y-103119284D01*
X141913000Y-102966557D01*
X141913000Y-102808443D01*
X144212000Y-102808443D01*
X144212000Y-102966557D01*
X144230070Y-103033993D01*
X144252923Y-103119283D01*
X144252926Y-103119290D01*
X144331975Y-103256209D01*
X144331979Y-103256214D01*
X144331980Y-103256216D01*
X144443784Y-103368020D01*
X144443786Y-103368021D01*
X144443790Y-103368024D01*
X144580709Y-103447073D01*
X144580716Y-103447077D01*
X144733443Y-103488000D01*
X144733445Y-103488000D01*
X144891555Y-103488000D01*
X144891557Y-103488000D01*
X145044284Y-103447077D01*
X145181216Y-103368020D01*
X145293020Y-103256216D01*
X145372077Y-103119284D01*
X145413000Y-102966557D01*
X145413000Y-102808443D01*
X145372077Y-102655716D01*
X145370507Y-102652997D01*
X145293024Y-102518790D01*
X145293018Y-102518782D01*
X145181217Y-102406981D01*
X145181209Y-102406975D01*
X145044290Y-102327926D01*
X145044286Y-102327924D01*
X145044284Y-102327923D01*
X144891557Y-102287000D01*
X144733443Y-102287000D01*
X144580716Y-102327923D01*
X144580709Y-102327926D01*
X144443790Y-102406975D01*
X144443782Y-102406981D01*
X144331981Y-102518782D01*
X144331975Y-102518790D01*
X144252926Y-102655709D01*
X144252923Y-102655716D01*
X144212000Y-102808443D01*
X141913000Y-102808443D01*
X141872077Y-102655716D01*
X141870507Y-102652997D01*
X141793024Y-102518790D01*
X141793018Y-102518782D01*
X141681217Y-102406981D01*
X141681209Y-102406975D01*
X141544290Y-102327926D01*
X141544286Y-102327924D01*
X141544284Y-102327923D01*
X141391557Y-102287000D01*
X141233443Y-102287000D01*
X141080716Y-102327923D01*
X141080709Y-102327926D01*
X140943790Y-102406975D01*
X140943782Y-102406981D01*
X140831981Y-102518782D01*
X140831975Y-102518790D01*
X140752926Y-102655709D01*
X140752923Y-102655716D01*
X140712000Y-102808443D01*
X134913000Y-102808443D01*
X134872077Y-102655716D01*
X134870507Y-102652997D01*
X134793024Y-102518790D01*
X134793018Y-102518782D01*
X134681217Y-102406981D01*
X134681209Y-102406975D01*
X134544290Y-102327926D01*
X134544286Y-102327924D01*
X134544284Y-102327923D01*
X134391557Y-102287000D01*
X134233443Y-102287000D01*
X134080716Y-102327923D01*
X134080709Y-102327926D01*
X133943790Y-102406975D01*
X133943782Y-102406981D01*
X133831981Y-102518782D01*
X133831975Y-102518790D01*
X133752926Y-102655709D01*
X133752923Y-102655716D01*
X133712000Y-102808443D01*
X131413000Y-102808443D01*
X131372077Y-102655716D01*
X131370507Y-102652997D01*
X131293024Y-102518790D01*
X131293018Y-102518782D01*
X131181217Y-102406981D01*
X131181209Y-102406975D01*
X131044290Y-102327926D01*
X131044286Y-102327924D01*
X131044284Y-102327923D01*
X130891557Y-102287000D01*
X130733443Y-102287000D01*
X130580716Y-102327923D01*
X130580709Y-102327926D01*
X130443790Y-102406975D01*
X130443782Y-102406981D01*
X130331981Y-102518782D01*
X130331975Y-102518790D01*
X130252926Y-102655709D01*
X130252923Y-102655716D01*
X130212000Y-102808443D01*
X124413000Y-102808443D01*
X124372077Y-102655716D01*
X124370507Y-102652997D01*
X124293024Y-102518790D01*
X124293018Y-102518782D01*
X124181217Y-102406981D01*
X124181209Y-102406975D01*
X124044290Y-102327926D01*
X124044286Y-102327924D01*
X124044284Y-102327923D01*
X123891557Y-102287000D01*
X123733443Y-102287000D01*
X123580716Y-102327923D01*
X123580709Y-102327926D01*
X123443790Y-102406975D01*
X123443782Y-102406981D01*
X123331981Y-102518782D01*
X123331975Y-102518790D01*
X123252926Y-102655709D01*
X123252923Y-102655716D01*
X123212000Y-102808443D01*
X120913000Y-102808443D01*
X120872077Y-102655716D01*
X120870507Y-102652997D01*
X120793024Y-102518790D01*
X120793018Y-102518782D01*
X120681217Y-102406981D01*
X120681209Y-102406975D01*
X120544290Y-102327926D01*
X120544286Y-102327924D01*
X120544284Y-102327923D01*
X120391557Y-102287000D01*
X120233443Y-102287000D01*
X120080716Y-102327923D01*
X120080709Y-102327926D01*
X119943790Y-102406975D01*
X119943782Y-102406981D01*
X119831981Y-102518782D01*
X119831975Y-102518790D01*
X119752926Y-102655709D01*
X119752923Y-102655716D01*
X119712000Y-102808443D01*
X113913000Y-102808443D01*
X113872077Y-102655716D01*
X113870507Y-102652997D01*
X113793024Y-102518790D01*
X113793018Y-102518782D01*
X113681217Y-102406981D01*
X113681209Y-102406975D01*
X113544290Y-102327926D01*
X113544286Y-102327924D01*
X113544284Y-102327923D01*
X113391557Y-102287000D01*
X113233443Y-102287000D01*
X113080716Y-102327923D01*
X113080709Y-102327926D01*
X112943790Y-102406975D01*
X112943782Y-102406981D01*
X112831981Y-102518782D01*
X112831975Y-102518790D01*
X112752926Y-102655709D01*
X112752923Y-102655716D01*
X112712000Y-102808443D01*
X110413000Y-102808443D01*
X110372077Y-102655716D01*
X110370507Y-102652997D01*
X110293024Y-102518790D01*
X110293018Y-102518782D01*
X110181217Y-102406981D01*
X110181209Y-102406975D01*
X110044290Y-102327926D01*
X110044286Y-102327924D01*
X110044284Y-102327923D01*
X109891557Y-102287000D01*
X109733443Y-102287000D01*
X109580716Y-102327923D01*
X109580709Y-102327926D01*
X109443790Y-102406975D01*
X109443782Y-102406981D01*
X109331981Y-102518782D01*
X109331975Y-102518790D01*
X109252926Y-102655709D01*
X109252923Y-102655716D01*
X109212000Y-102808443D01*
X103413000Y-102808443D01*
X103372077Y-102655716D01*
X103370507Y-102652997D01*
X103293024Y-102518790D01*
X103293018Y-102518782D01*
X103181217Y-102406981D01*
X103181209Y-102406975D01*
X103044290Y-102327926D01*
X103044286Y-102327924D01*
X103044284Y-102327923D01*
X102891557Y-102287000D01*
X102733443Y-102287000D01*
X102580716Y-102327923D01*
X102580709Y-102327926D01*
X102443790Y-102406975D01*
X102443782Y-102406981D01*
X102331981Y-102518782D01*
X102331975Y-102518790D01*
X102252926Y-102655709D01*
X102252923Y-102655716D01*
X102212000Y-102808443D01*
X99913000Y-102808443D01*
X99872077Y-102655716D01*
X99870507Y-102652997D01*
X99793024Y-102518790D01*
X99793018Y-102518782D01*
X99681217Y-102406981D01*
X99681209Y-102406975D01*
X99544290Y-102327926D01*
X99544286Y-102327924D01*
X99544284Y-102327923D01*
X99391557Y-102287000D01*
X99233443Y-102287000D01*
X99080716Y-102327923D01*
X99080709Y-102327926D01*
X98943790Y-102406975D01*
X98943782Y-102406981D01*
X98831981Y-102518782D01*
X98831975Y-102518790D01*
X98752926Y-102655709D01*
X98752923Y-102655716D01*
X98712000Y-102808443D01*
X85913000Y-102808443D01*
X85913000Y-93520943D01*
X104949500Y-93520943D01*
X104949500Y-93679057D01*
X104982994Y-93804056D01*
X104990423Y-93831783D01*
X104990424Y-93831786D01*
X105045387Y-93926985D01*
X105062000Y-93988985D01*
X105062000Y-97734976D01*
X105071518Y-97770500D01*
X105071519Y-97770500D01*
X105099516Y-97874985D01*
X105171990Y-98000515D01*
X108511985Y-101340510D01*
X108637515Y-101412984D01*
X108777525Y-101450500D01*
X153913113Y-101450500D01*
X153980152Y-101470185D01*
X154000794Y-101486819D01*
X154185803Y-101671828D01*
X154219288Y-101733151D01*
X154220595Y-101778907D01*
X154192000Y-101959448D01*
X154192000Y-102140551D01*
X154220329Y-102319410D01*
X154276287Y-102491636D01*
X154276288Y-102491639D01*
X154358506Y-102652997D01*
X154464941Y-102799494D01*
X154464945Y-102799499D01*
X154593000Y-102927554D01*
X154593005Y-102927558D01*
X154720787Y-103020396D01*
X154739506Y-103033996D01*
X154844984Y-103087740D01*
X154900860Y-103116211D01*
X154900863Y-103116212D01*
X154986976Y-103144191D01*
X155073091Y-103172171D01*
X155146139Y-103183740D01*
X155233178Y-103197527D01*
X155296313Y-103227456D01*
X155333244Y-103286768D01*
X155332246Y-103356631D01*
X155293636Y-103414863D01*
X155233178Y-103442473D01*
X155073089Y-103467829D01*
X154900863Y-103523787D01*
X154900860Y-103523788D01*
X154739502Y-103606006D01*
X154593005Y-103712441D01*
X154593000Y-103712445D01*
X154464945Y-103840500D01*
X154464941Y-103840505D01*
X154358506Y-103987002D01*
X154276288Y-104148360D01*
X154276287Y-104148363D01*
X154220329Y-104320589D01*
X154192000Y-104499448D01*
X154192000Y-104680551D01*
X154220329Y-104859410D01*
X154276287Y-105031636D01*
X154276288Y-105031639D01*
X154358506Y-105192997D01*
X154464941Y-105339494D01*
X154464945Y-105339499D01*
X154593000Y-105467554D01*
X154593005Y-105467558D01*
X154720787Y-105560396D01*
X154739506Y-105573996D01*
X154844984Y-105627740D01*
X154900860Y-105656211D01*
X154900863Y-105656212D01*
X154986976Y-105684191D01*
X155073091Y-105712171D01*
X155146139Y-105723740D01*
X155233178Y-105737527D01*
X155246433Y-105743810D01*
X155261023Y-105745352D01*
X155277370Y-105758476D01*
X155296313Y-105767456D01*
X155304067Y-105779909D01*
X155315507Y-105789094D01*
X155322163Y-105808973D01*
X155333244Y-105826768D01*
X155333034Y-105841435D01*
X155337693Y-105855347D01*
X155332545Y-105875669D01*
X155332246Y-105896631D01*
X155324138Y-105908858D01*
X155320537Y-105923078D01*
X155305221Y-105937389D01*
X155293636Y-105954863D01*
X155279299Y-105961612D01*
X155269487Y-105970782D01*
X155238916Y-105980625D01*
X155236020Y-105981989D01*
X155234570Y-105982253D01*
X155073091Y-106007829D01*
X155045994Y-106016632D01*
X155037815Y-106018124D01*
X155010999Y-106015290D01*
X154984048Y-106016060D01*
X154972220Y-106011193D01*
X154968332Y-106010783D01*
X154965294Y-106008344D01*
X154953576Y-106003523D01*
X154924985Y-105987016D01*
X154924982Y-105987015D01*
X154896936Y-105979499D01*
X154896936Y-105979500D01*
X154830177Y-105961612D01*
X154784975Y-105949500D01*
X154784974Y-105949500D01*
X140091886Y-105949500D01*
X140024847Y-105929815D01*
X140004205Y-105913181D01*
X137638016Y-103546991D01*
X137638015Y-103546990D01*
X137512485Y-103474516D01*
X137512480Y-103474514D01*
X137465776Y-103461999D01*
X137465776Y-103462000D01*
X137410082Y-103447077D01*
X137372475Y-103437000D01*
X137372474Y-103437000D01*
X137240863Y-103437000D01*
X137202320Y-103429334D01*
X137202135Y-103430027D01*
X137194285Y-103427923D01*
X137194284Y-103427923D01*
X137041557Y-103387000D01*
X136883443Y-103387000D01*
X136730716Y-103427923D01*
X136730709Y-103427926D01*
X136593790Y-103506975D01*
X136593782Y-103506981D01*
X136481981Y-103618782D01*
X136481975Y-103618790D01*
X136402926Y-103755709D01*
X136402923Y-103755716D01*
X136362000Y-103908443D01*
X136362000Y-104066557D01*
X136389526Y-104169283D01*
X136402923Y-104219283D01*
X136402926Y-104219290D01*
X136481975Y-104356209D01*
X136481979Y-104356214D01*
X136481980Y-104356216D01*
X136593784Y-104468020D01*
X136593786Y-104468021D01*
X136593790Y-104468024D01*
X136713156Y-104536939D01*
X136730716Y-104547077D01*
X136883443Y-104588000D01*
X136883445Y-104588000D01*
X137041556Y-104588000D01*
X137041557Y-104588000D01*
X137041557Y-104587999D01*
X137049614Y-104586939D01*
X137050000Y-104589877D01*
X137105643Y-104591186D01*
X137155603Y-104621628D01*
X138323070Y-105789094D01*
X139474486Y-106940510D01*
X139600015Y-107012984D01*
X139740025Y-107050500D01*
X139740026Y-107050500D01*
X139884975Y-107050500D01*
X154068000Y-107050500D01*
X154135039Y-107070185D01*
X154180794Y-107122989D01*
X154192000Y-107174500D01*
X154192000Y-107220551D01*
X154220329Y-107399410D01*
X154276287Y-107571636D01*
X154276288Y-107571639D01*
X154331757Y-107680500D01*
X154357801Y-107731615D01*
X154358506Y-107732997D01*
X154375452Y-107756322D01*
X154398932Y-107822128D01*
X154383106Y-107890182D01*
X154333001Y-107938877D01*
X154264522Y-107952752D01*
X154249047Y-107950036D01*
X154244976Y-107949500D01*
X154244975Y-107949500D01*
X154244973Y-107949500D01*
X131591887Y-107949500D01*
X131524848Y-107929815D01*
X131504206Y-107913181D01*
X127088016Y-103496991D01*
X127088015Y-103496990D01*
X126962485Y-103424516D01*
X126887785Y-103404500D01*
X126887784Y-103404499D01*
X126839974Y-103391688D01*
X126822475Y-103387000D01*
X126822474Y-103387000D01*
X126690863Y-103387000D01*
X126652320Y-103379334D01*
X126652135Y-103380027D01*
X126644285Y-103377923D01*
X126644284Y-103377923D01*
X126491557Y-103337000D01*
X126333443Y-103337000D01*
X126180716Y-103377923D01*
X126180709Y-103377926D01*
X126043790Y-103456975D01*
X126043782Y-103456981D01*
X125931981Y-103568782D01*
X125931975Y-103568790D01*
X125852926Y-103705709D01*
X125852923Y-103705716D01*
X125812000Y-103858443D01*
X125812000Y-104016557D01*
X125847318Y-104148363D01*
X125852923Y-104169283D01*
X125852926Y-104169290D01*
X125931975Y-104306209D01*
X125931979Y-104306214D01*
X125931980Y-104306216D01*
X126043784Y-104418020D01*
X126043786Y-104418021D01*
X126043790Y-104418024D01*
X126130387Y-104468020D01*
X126180716Y-104497077D01*
X126333443Y-104538000D01*
X126333445Y-104538000D01*
X126491556Y-104538000D01*
X126491557Y-104538000D01*
X126491557Y-104537999D01*
X126499614Y-104536939D01*
X126500000Y-104539877D01*
X126555643Y-104541186D01*
X126605603Y-104571628D01*
X130974485Y-108940510D01*
X131100015Y-109012984D01*
X131240025Y-109050500D01*
X153893113Y-109050500D01*
X153960152Y-109070185D01*
X153980794Y-109086819D01*
X154185803Y-109291828D01*
X154219288Y-109353151D01*
X154220595Y-109398907D01*
X154192000Y-109579448D01*
X154192000Y-109760551D01*
X154220329Y-109939410D01*
X154276287Y-110111636D01*
X154276288Y-110111639D01*
X154331757Y-110220500D01*
X154357801Y-110271615D01*
X154358506Y-110272997D01*
X154464941Y-110419494D01*
X154464945Y-110419499D01*
X154593000Y-110547554D01*
X154593005Y-110547558D01*
X154720787Y-110640396D01*
X154739506Y-110653996D01*
X154844984Y-110707740D01*
X154900860Y-110736211D01*
X154900863Y-110736212D01*
X154986976Y-110764191D01*
X155073091Y-110792171D01*
X155155929Y-110805291D01*
X155251949Y-110820500D01*
X155251954Y-110820500D01*
X155433051Y-110820500D01*
X155519759Y-110806765D01*
X155611909Y-110792171D01*
X155784139Y-110736211D01*
X155945494Y-110653996D01*
X156092001Y-110547553D01*
X156220053Y-110419501D01*
X156326496Y-110272994D01*
X156408711Y-110111639D01*
X156464671Y-109939409D01*
X156479265Y-109847259D01*
X156493000Y-109760551D01*
X156493000Y-109579448D01*
X156473999Y-109459489D01*
X156464671Y-109400591D01*
X156408711Y-109228361D01*
X156408711Y-109228360D01*
X156336591Y-109086819D01*
X156326496Y-109067006D01*
X156234592Y-108940510D01*
X156220058Y-108920505D01*
X156220054Y-108920500D01*
X156091999Y-108792445D01*
X156091994Y-108792441D01*
X155945497Y-108686006D01*
X155945496Y-108686005D01*
X155945494Y-108686004D01*
X155893800Y-108659664D01*
X155784139Y-108603788D01*
X155784136Y-108603787D01*
X155611910Y-108547829D01*
X155451821Y-108522473D01*
X155388686Y-108492544D01*
X155351755Y-108433232D01*
X155352753Y-108363370D01*
X155391363Y-108305137D01*
X155451821Y-108277527D01*
X155521925Y-108266422D01*
X155611909Y-108252171D01*
X155784139Y-108196211D01*
X155945494Y-108113996D01*
X156092001Y-108007553D01*
X156220053Y-107879501D01*
X156326496Y-107732994D01*
X156408711Y-107571639D01*
X156464671Y-107399409D01*
X156479265Y-107307259D01*
X156493000Y-107220551D01*
X156493000Y-107039448D01*
X156476519Y-106935397D01*
X156464671Y-106860591D01*
X156408711Y-106688361D01*
X156408711Y-106688360D01*
X156348938Y-106571051D01*
X156326496Y-106527006D01*
X156312896Y-106508287D01*
X156220058Y-106380505D01*
X156220054Y-106380500D01*
X156091999Y-106252445D01*
X156091994Y-106252441D01*
X155945497Y-106146006D01*
X155945496Y-106146005D01*
X155945494Y-106146004D01*
X155893800Y-106119664D01*
X155784139Y-106063788D01*
X155784136Y-106063787D01*
X155611910Y-106007829D01*
X155451821Y-105982473D01*
X155388686Y-105952544D01*
X155351755Y-105893232D01*
X155352753Y-105823370D01*
X155391363Y-105765137D01*
X155451821Y-105737527D01*
X155521925Y-105726422D01*
X155611909Y-105712171D01*
X155784139Y-105656211D01*
X155945494Y-105573996D01*
X156092001Y-105467553D01*
X156220053Y-105339501D01*
X156326496Y-105192994D01*
X156408711Y-105031639D01*
X156464671Y-104859409D01*
X156479265Y-104767259D01*
X156493000Y-104680551D01*
X156493000Y-104499448D01*
X156476519Y-104395397D01*
X156464671Y-104320591D01*
X156408711Y-104148361D01*
X156408711Y-104148360D01*
X156368320Y-104069090D01*
X156326496Y-103987006D01*
X156269417Y-103908443D01*
X156220058Y-103840505D01*
X156220054Y-103840500D01*
X156091999Y-103712445D01*
X156091994Y-103712441D01*
X155945497Y-103606006D01*
X155945496Y-103606005D01*
X155945494Y-103606004D01*
X155872446Y-103568784D01*
X155784139Y-103523788D01*
X155784136Y-103523787D01*
X155611910Y-103467829D01*
X155451821Y-103442473D01*
X155388686Y-103412544D01*
X155351755Y-103353232D01*
X155352753Y-103283370D01*
X155391363Y-103225137D01*
X155451821Y-103197527D01*
X155521925Y-103186422D01*
X155611909Y-103172171D01*
X155784139Y-103116211D01*
X155945494Y-103033996D01*
X156092001Y-102927553D01*
X156220053Y-102799501D01*
X156326496Y-102652994D01*
X156408711Y-102491639D01*
X156464671Y-102319409D01*
X156479265Y-102227259D01*
X156493000Y-102140551D01*
X156493000Y-101959448D01*
X156476519Y-101855397D01*
X156464671Y-101780591D01*
X156408711Y-101608361D01*
X156408711Y-101608360D01*
X156380240Y-101552484D01*
X156326496Y-101447006D01*
X156249123Y-101340510D01*
X156220058Y-101300505D01*
X156220054Y-101300500D01*
X156091999Y-101172445D01*
X156091994Y-101172441D01*
X155945497Y-101066006D01*
X155945496Y-101066005D01*
X155945494Y-101066004D01*
X155893800Y-101039664D01*
X155784139Y-100983788D01*
X155784136Y-100983787D01*
X155611910Y-100927829D01*
X155451821Y-100902473D01*
X155388686Y-100872544D01*
X155351755Y-100813232D01*
X155352753Y-100743370D01*
X155391363Y-100685137D01*
X155451821Y-100657527D01*
X155521925Y-100646422D01*
X155611909Y-100632171D01*
X155784139Y-100576211D01*
X155945494Y-100493996D01*
X156092001Y-100387553D01*
X156220053Y-100259501D01*
X156326496Y-100112994D01*
X156408711Y-99951639D01*
X156464671Y-99779409D01*
X156479265Y-99687259D01*
X156493000Y-99600551D01*
X156493000Y-99419448D01*
X156476519Y-99315397D01*
X156464671Y-99240591D01*
X156408711Y-99068361D01*
X156408711Y-99068360D01*
X156380240Y-99012484D01*
X156326496Y-98907006D01*
X156312896Y-98888287D01*
X156220058Y-98760505D01*
X156220054Y-98760500D01*
X156091999Y-98632445D01*
X156091994Y-98632441D01*
X155945497Y-98526006D01*
X155945496Y-98526005D01*
X155945494Y-98526004D01*
X155893800Y-98499664D01*
X155784139Y-98443788D01*
X155784136Y-98443787D01*
X155611910Y-98387829D01*
X155451821Y-98362473D01*
X155388686Y-98332544D01*
X155351755Y-98273232D01*
X155352753Y-98203370D01*
X155391363Y-98145137D01*
X155451821Y-98117527D01*
X155521925Y-98106422D01*
X155611909Y-98092171D01*
X155784139Y-98036211D01*
X155945494Y-97953996D01*
X156092001Y-97847553D01*
X156220053Y-97719501D01*
X156326496Y-97572994D01*
X156408711Y-97411639D01*
X156464671Y-97239409D01*
X156479265Y-97147259D01*
X156493000Y-97060551D01*
X156493000Y-96879448D01*
X156464671Y-96700593D01*
X156464671Y-96700591D01*
X156430921Y-96596717D01*
X156408712Y-96528363D01*
X156408711Y-96528360D01*
X156380240Y-96472484D01*
X156326496Y-96367006D01*
X156312896Y-96348287D01*
X156220058Y-96220505D01*
X156220054Y-96220500D01*
X156091999Y-96092445D01*
X156091994Y-96092441D01*
X155945497Y-95986006D01*
X155945496Y-95986005D01*
X155945494Y-95986004D01*
X155893800Y-95959664D01*
X155784139Y-95903788D01*
X155784136Y-95903787D01*
X155611910Y-95847829D01*
X155451821Y-95822473D01*
X155388686Y-95792544D01*
X155351755Y-95733232D01*
X155352753Y-95663370D01*
X155391363Y-95605137D01*
X155451821Y-95577527D01*
X155521925Y-95566422D01*
X155611909Y-95552171D01*
X155784139Y-95496211D01*
X155945494Y-95413996D01*
X156092001Y-95307553D01*
X156220053Y-95179501D01*
X156326496Y-95032994D01*
X156408711Y-94871639D01*
X156464671Y-94699409D01*
X156479265Y-94607259D01*
X156493000Y-94520551D01*
X156493000Y-94339448D01*
X156473767Y-94218020D01*
X156464671Y-94160591D01*
X156408711Y-93988361D01*
X156408711Y-93988360D01*
X156373514Y-93919283D01*
X156326496Y-93827006D01*
X156309822Y-93804056D01*
X156220058Y-93680505D01*
X156220054Y-93680500D01*
X156091999Y-93552445D01*
X156091994Y-93552441D01*
X155945497Y-93446006D01*
X155945496Y-93446005D01*
X155945494Y-93446004D01*
X155893800Y-93419664D01*
X155784139Y-93363788D01*
X155784136Y-93363787D01*
X155611910Y-93307829D01*
X155451821Y-93282473D01*
X155388686Y-93252544D01*
X155351755Y-93193232D01*
X155352753Y-93123370D01*
X155391363Y-93065137D01*
X155451821Y-93037527D01*
X155521925Y-93026422D01*
X155611909Y-93012171D01*
X155784139Y-92956211D01*
X155945494Y-92873996D01*
X156092001Y-92767553D01*
X156220053Y-92639501D01*
X156326496Y-92492994D01*
X156408711Y-92331639D01*
X156464671Y-92159409D01*
X156485496Y-92027926D01*
X156493000Y-91980551D01*
X156493000Y-91799448D01*
X156476519Y-91695397D01*
X156464671Y-91620591D01*
X156408711Y-91448361D01*
X156408711Y-91448360D01*
X156380240Y-91392484D01*
X156326496Y-91287006D01*
X156312896Y-91268287D01*
X156220058Y-91140505D01*
X156220054Y-91140500D01*
X156091999Y-91012445D01*
X156091994Y-91012441D01*
X155945497Y-90906006D01*
X155945496Y-90906005D01*
X155945494Y-90906004D01*
X155875196Y-90870185D01*
X155784139Y-90823788D01*
X155784136Y-90823787D01*
X155611910Y-90767829D01*
X155451821Y-90742473D01*
X155388686Y-90712544D01*
X155351755Y-90653232D01*
X155352753Y-90583370D01*
X155391363Y-90525137D01*
X155451821Y-90497527D01*
X155521925Y-90486422D01*
X155611909Y-90472171D01*
X155784139Y-90416211D01*
X155945494Y-90333996D01*
X156092001Y-90227553D01*
X156220053Y-90099501D01*
X156326496Y-89952994D01*
X156408711Y-89791639D01*
X156464671Y-89619409D01*
X156479265Y-89527259D01*
X156493000Y-89440551D01*
X156493000Y-89259448D01*
X156464671Y-89080593D01*
X156464671Y-89080591D01*
X156430921Y-88976717D01*
X156408712Y-88908363D01*
X156408711Y-88908360D01*
X156380240Y-88852484D01*
X156326496Y-88747006D01*
X156312896Y-88728287D01*
X156220058Y-88600505D01*
X156220054Y-88600500D01*
X156091999Y-88472445D01*
X156091994Y-88472441D01*
X155945497Y-88366006D01*
X155945496Y-88366005D01*
X155945494Y-88366004D01*
X155874470Y-88329815D01*
X155784139Y-88283788D01*
X155784136Y-88283787D01*
X155611910Y-88227829D01*
X155451821Y-88202473D01*
X155388686Y-88172544D01*
X155351755Y-88113232D01*
X155352753Y-88043370D01*
X155391363Y-87985137D01*
X155451821Y-87957527D01*
X155521925Y-87946422D01*
X155611909Y-87932171D01*
X155784139Y-87876211D01*
X155945494Y-87793996D01*
X156092001Y-87687553D01*
X156220053Y-87559501D01*
X156326496Y-87412994D01*
X156408711Y-87251639D01*
X156464671Y-87079409D01*
X156479923Y-86983113D01*
X156493000Y-86900551D01*
X156493000Y-86719448D01*
X156476519Y-86615397D01*
X156464671Y-86540591D01*
X156423209Y-86412982D01*
X156408712Y-86368363D01*
X156408711Y-86368360D01*
X156380240Y-86312484D01*
X156326496Y-86207006D01*
X156312896Y-86188287D01*
X156220058Y-86060505D01*
X156220054Y-86060500D01*
X156091999Y-85932445D01*
X156091994Y-85932441D01*
X155945497Y-85826006D01*
X155945496Y-85826005D01*
X155945494Y-85826004D01*
X155893800Y-85799664D01*
X155784139Y-85743788D01*
X155784136Y-85743787D01*
X155611910Y-85687829D01*
X155451821Y-85662473D01*
X155388686Y-85632544D01*
X155351755Y-85573232D01*
X155352753Y-85503370D01*
X155391363Y-85445137D01*
X155451821Y-85417527D01*
X155521925Y-85406422D01*
X155611909Y-85392171D01*
X155784139Y-85336211D01*
X155945494Y-85253996D01*
X156092001Y-85147553D01*
X156220053Y-85019501D01*
X156326496Y-84872994D01*
X156408711Y-84711639D01*
X156464671Y-84539409D01*
X156479265Y-84447259D01*
X156493000Y-84360551D01*
X156493000Y-84179448D01*
X156476519Y-84075397D01*
X156464671Y-84000591D01*
X156408711Y-83828361D01*
X156408711Y-83828360D01*
X156380240Y-83772484D01*
X156326496Y-83667006D01*
X156292800Y-83620627D01*
X156220058Y-83520505D01*
X156220054Y-83520500D01*
X156091999Y-83392445D01*
X156091994Y-83392441D01*
X155945497Y-83286006D01*
X155945496Y-83286005D01*
X155945494Y-83286004D01*
X155893800Y-83259664D01*
X155784139Y-83203788D01*
X155784136Y-83203787D01*
X155611910Y-83147829D01*
X155451821Y-83122473D01*
X155388686Y-83092544D01*
X155351755Y-83033232D01*
X155352753Y-82963370D01*
X155391363Y-82905137D01*
X155451821Y-82877527D01*
X155521925Y-82866422D01*
X155611909Y-82852171D01*
X155784139Y-82796211D01*
X155945494Y-82713996D01*
X156092001Y-82607553D01*
X156220053Y-82479501D01*
X156326496Y-82332994D01*
X156408711Y-82171639D01*
X156464671Y-81999409D01*
X156487431Y-81855709D01*
X156493000Y-81820551D01*
X156493000Y-81639448D01*
X156473888Y-81518784D01*
X156464671Y-81460591D01*
X156408711Y-81288361D01*
X156408711Y-81288360D01*
X156380240Y-81232484D01*
X156326496Y-81127006D01*
X156312896Y-81108287D01*
X156220058Y-80980505D01*
X156220054Y-80980500D01*
X156091999Y-80852445D01*
X156091994Y-80852441D01*
X155945497Y-80746006D01*
X155945496Y-80746005D01*
X155945494Y-80746004D01*
X155893800Y-80719664D01*
X155784139Y-80663788D01*
X155784136Y-80663787D01*
X155611910Y-80607829D01*
X155451821Y-80582473D01*
X155388686Y-80552544D01*
X155351755Y-80493232D01*
X155352753Y-80423370D01*
X155391363Y-80365137D01*
X155451821Y-80337527D01*
X155521925Y-80326422D01*
X155611909Y-80312171D01*
X155784139Y-80256211D01*
X155945494Y-80173996D01*
X156092001Y-80067553D01*
X156220053Y-79939501D01*
X156326496Y-79792994D01*
X156408711Y-79631639D01*
X156464671Y-79459409D01*
X156485197Y-79329815D01*
X156493000Y-79280551D01*
X156493000Y-79099448D01*
X156476519Y-78995397D01*
X156464671Y-78920591D01*
X156430921Y-78816716D01*
X156408712Y-78748363D01*
X156408711Y-78748360D01*
X156380240Y-78692484D01*
X156326496Y-78587006D01*
X156312896Y-78568287D01*
X156220058Y-78440505D01*
X156220054Y-78440500D01*
X156091999Y-78312445D01*
X156091994Y-78312441D01*
X155945497Y-78206006D01*
X155945496Y-78206005D01*
X155945494Y-78206004D01*
X155893800Y-78179664D01*
X155784139Y-78123788D01*
X155784136Y-78123787D01*
X155611910Y-78067829D01*
X155451821Y-78042473D01*
X155388686Y-78012544D01*
X155351755Y-77953232D01*
X155352753Y-77883370D01*
X155391363Y-77825137D01*
X155451821Y-77797527D01*
X155521925Y-77786422D01*
X155611909Y-77772171D01*
X155784139Y-77716211D01*
X155945494Y-77633996D01*
X156092001Y-77527553D01*
X156220053Y-77399501D01*
X156326496Y-77252994D01*
X156408711Y-77091639D01*
X156464671Y-76919409D01*
X156479265Y-76827259D01*
X156493000Y-76740551D01*
X156493000Y-76559448D01*
X156476519Y-76455397D01*
X156464671Y-76380591D01*
X156408711Y-76208361D01*
X156408711Y-76208360D01*
X156380240Y-76152484D01*
X156326496Y-76047006D01*
X156312896Y-76028287D01*
X156220058Y-75900505D01*
X156220054Y-75900500D01*
X156091999Y-75772445D01*
X156091994Y-75772441D01*
X155945497Y-75666006D01*
X155945496Y-75666005D01*
X155945494Y-75666004D01*
X155893800Y-75639664D01*
X155784139Y-75583788D01*
X155784136Y-75583787D01*
X155611910Y-75527829D01*
X155451821Y-75502473D01*
X155388686Y-75472544D01*
X155351755Y-75413232D01*
X155352753Y-75343370D01*
X155391363Y-75285137D01*
X155451821Y-75257527D01*
X155521925Y-75246422D01*
X155611909Y-75232171D01*
X155784139Y-75176211D01*
X155945494Y-75093996D01*
X156092001Y-74987553D01*
X156220053Y-74859501D01*
X156326496Y-74712994D01*
X156408711Y-74551639D01*
X156464671Y-74379409D01*
X156479265Y-74287259D01*
X156493000Y-74200551D01*
X156493000Y-74019448D01*
X156476519Y-73915397D01*
X156464671Y-73840591D01*
X156411846Y-73678010D01*
X156408712Y-73668363D01*
X156408711Y-73668360D01*
X156380240Y-73612484D01*
X156326496Y-73507006D01*
X156312896Y-73488287D01*
X156220058Y-73360505D01*
X156220054Y-73360500D01*
X156091999Y-73232445D01*
X156091994Y-73232441D01*
X155945497Y-73126006D01*
X155945496Y-73126005D01*
X155945494Y-73126004D01*
X155869844Y-73087458D01*
X155784139Y-73043788D01*
X155784136Y-73043787D01*
X155611910Y-72987829D01*
X155451821Y-72962473D01*
X155388686Y-72932544D01*
X155351755Y-72873232D01*
X155352753Y-72803370D01*
X155391363Y-72745137D01*
X155451821Y-72717527D01*
X155521925Y-72706422D01*
X155611909Y-72692171D01*
X155784139Y-72636211D01*
X155945494Y-72553996D01*
X156092001Y-72447553D01*
X156220053Y-72319501D01*
X156326496Y-72172994D01*
X156408711Y-72011639D01*
X156464671Y-71839409D01*
X156484129Y-71716555D01*
X156493000Y-71660551D01*
X156493000Y-71479448D01*
X156476519Y-71375397D01*
X156464671Y-71300591D01*
X156408711Y-71128361D01*
X156408711Y-71128360D01*
X156362160Y-71037000D01*
X156326496Y-70967006D01*
X156312896Y-70948287D01*
X156220058Y-70820505D01*
X156220054Y-70820500D01*
X156091999Y-70692445D01*
X156091994Y-70692441D01*
X155945497Y-70586006D01*
X155945496Y-70586005D01*
X155945494Y-70586004D01*
X155893800Y-70559664D01*
X155784139Y-70503788D01*
X155784136Y-70503787D01*
X155611910Y-70447829D01*
X155451821Y-70422473D01*
X155388686Y-70392544D01*
X155351755Y-70333232D01*
X155352753Y-70263370D01*
X155391363Y-70205137D01*
X155451821Y-70177527D01*
X155521925Y-70166422D01*
X155611909Y-70152171D01*
X155784139Y-70096211D01*
X155945494Y-70013996D01*
X156092001Y-69907553D01*
X156220053Y-69779501D01*
X156326496Y-69632994D01*
X156408711Y-69471639D01*
X156464671Y-69299409D01*
X156479265Y-69207259D01*
X156493000Y-69120551D01*
X156493000Y-68939448D01*
X156476519Y-68835397D01*
X156464671Y-68760591D01*
X156408711Y-68588361D01*
X156408711Y-68588360D01*
X156357574Y-68488000D01*
X156326496Y-68427006D01*
X156290897Y-68378008D01*
X156220058Y-68280505D01*
X156220054Y-68280500D01*
X156091999Y-68152445D01*
X156091994Y-68152441D01*
X155945497Y-68046006D01*
X155945496Y-68046005D01*
X155945494Y-68046004D01*
X155893800Y-68019664D01*
X155784139Y-67963788D01*
X155784136Y-67963787D01*
X155611910Y-67907829D01*
X155451821Y-67882473D01*
X155388686Y-67852544D01*
X155351755Y-67793232D01*
X155352753Y-67723370D01*
X155391363Y-67665137D01*
X155451821Y-67637527D01*
X155521925Y-67626422D01*
X155611909Y-67612171D01*
X155784139Y-67556211D01*
X155945494Y-67473996D01*
X156092001Y-67367553D01*
X156220053Y-67239501D01*
X156326496Y-67092994D01*
X156408711Y-66931639D01*
X156464671Y-66759409D01*
X156483898Y-66638013D01*
X156493000Y-66580551D01*
X156493000Y-66399448D01*
X156476519Y-66295397D01*
X156464671Y-66220591D01*
X156408711Y-66048361D01*
X156408711Y-66048360D01*
X156380240Y-65992484D01*
X156326496Y-65887006D01*
X156312896Y-65868287D01*
X156220058Y-65740505D01*
X156220054Y-65740500D01*
X156091999Y-65612445D01*
X156091994Y-65612441D01*
X155945497Y-65506006D01*
X155945496Y-65506005D01*
X155945494Y-65506004D01*
X155893800Y-65479664D01*
X155784139Y-65423788D01*
X155784136Y-65423787D01*
X155611910Y-65367829D01*
X155451821Y-65342473D01*
X155388686Y-65312544D01*
X155351755Y-65253232D01*
X155352753Y-65183370D01*
X155391363Y-65125137D01*
X155451821Y-65097527D01*
X155521925Y-65086422D01*
X155611909Y-65072171D01*
X155784139Y-65016211D01*
X155945494Y-64933996D01*
X156092001Y-64827553D01*
X156220053Y-64699501D01*
X156326496Y-64552994D01*
X156408711Y-64391639D01*
X156464671Y-64219409D01*
X156479265Y-64127259D01*
X156493000Y-64040551D01*
X156493000Y-63859448D01*
X156476519Y-63755397D01*
X156464671Y-63680591D01*
X156430921Y-63576716D01*
X156408712Y-63508363D01*
X156408711Y-63508360D01*
X156380240Y-63452484D01*
X156326496Y-63347006D01*
X156312896Y-63328287D01*
X156220058Y-63200505D01*
X156220054Y-63200500D01*
X156091999Y-63072445D01*
X156091994Y-63072441D01*
X155945497Y-62966006D01*
X155945496Y-62966005D01*
X155945494Y-62966004D01*
X155893800Y-62939664D01*
X155784139Y-62883788D01*
X155784136Y-62883787D01*
X155611910Y-62827829D01*
X155451821Y-62802473D01*
X155388686Y-62772544D01*
X155351755Y-62713232D01*
X155352753Y-62643370D01*
X155391363Y-62585137D01*
X155451821Y-62557527D01*
X155521925Y-62546422D01*
X155611909Y-62532171D01*
X155784139Y-62476211D01*
X155945494Y-62393996D01*
X156092001Y-62287553D01*
X156220053Y-62159501D01*
X156326496Y-62012994D01*
X156408711Y-61851639D01*
X156464671Y-61679409D01*
X156481287Y-61574500D01*
X156493000Y-61500551D01*
X156493000Y-61319448D01*
X156476519Y-61215397D01*
X156464671Y-61140591D01*
X156413612Y-60983445D01*
X156408712Y-60968363D01*
X156408711Y-60968360D01*
X156380240Y-60912484D01*
X156326496Y-60807006D01*
X156312896Y-60788287D01*
X156220058Y-60660505D01*
X156220054Y-60660500D01*
X156091999Y-60532445D01*
X156091994Y-60532441D01*
X155945497Y-60426006D01*
X155945496Y-60426005D01*
X155945494Y-60426004D01*
X155893800Y-60399664D01*
X155784139Y-60343788D01*
X155784136Y-60343787D01*
X155611910Y-60287829D01*
X155451821Y-60262473D01*
X155388686Y-60232544D01*
X155351755Y-60173232D01*
X155352753Y-60103370D01*
X155391363Y-60045137D01*
X155451821Y-60017527D01*
X155521925Y-60006422D01*
X155611909Y-59992171D01*
X155784139Y-59936211D01*
X155945494Y-59853996D01*
X156092001Y-59747553D01*
X156220053Y-59619501D01*
X156326496Y-59472994D01*
X156408711Y-59311639D01*
X156464671Y-59139409D01*
X156479265Y-59047259D01*
X156493000Y-58960551D01*
X156493000Y-58779448D01*
X156476519Y-58675397D01*
X156464671Y-58600591D01*
X156430921Y-58496716D01*
X156408712Y-58428363D01*
X156408711Y-58428360D01*
X156380240Y-58372484D01*
X156326496Y-58267006D01*
X156312896Y-58248287D01*
X156220058Y-58120505D01*
X156220054Y-58120500D01*
X156091999Y-57992445D01*
X156091994Y-57992441D01*
X155945497Y-57886006D01*
X155945496Y-57886005D01*
X155945494Y-57886004D01*
X155893800Y-57859664D01*
X155784139Y-57803788D01*
X155784136Y-57803787D01*
X155611910Y-57747829D01*
X155451821Y-57722473D01*
X155388686Y-57692544D01*
X155351755Y-57633232D01*
X155352753Y-57563370D01*
X155391363Y-57505137D01*
X155451821Y-57477527D01*
X155521925Y-57466422D01*
X155611909Y-57452171D01*
X155784139Y-57396211D01*
X155945494Y-57313996D01*
X156092001Y-57207553D01*
X156220053Y-57079501D01*
X156326496Y-56932994D01*
X156408711Y-56771639D01*
X156464671Y-56599409D01*
X156479265Y-56507259D01*
X156493000Y-56420551D01*
X156493000Y-56239448D01*
X156476519Y-56135397D01*
X156464671Y-56060591D01*
X156408711Y-55888361D01*
X156408711Y-55888360D01*
X156380240Y-55832484D01*
X156326496Y-55727006D01*
X156312896Y-55708287D01*
X156220058Y-55580505D01*
X156220054Y-55580500D01*
X156091999Y-55452445D01*
X156091994Y-55452441D01*
X155945497Y-55346006D01*
X155945496Y-55346005D01*
X155945494Y-55346004D01*
X155893800Y-55319664D01*
X155784139Y-55263788D01*
X155784136Y-55263787D01*
X155611910Y-55207829D01*
X155451821Y-55182473D01*
X155388686Y-55152544D01*
X155351755Y-55093232D01*
X155352753Y-55023370D01*
X155391363Y-54965137D01*
X155451821Y-54937527D01*
X155521925Y-54926422D01*
X155611909Y-54912171D01*
X155784139Y-54856211D01*
X155945494Y-54773996D01*
X156092001Y-54667553D01*
X156220053Y-54539501D01*
X156326496Y-54392994D01*
X156408711Y-54231639D01*
X156464671Y-54059409D01*
X156479265Y-53967259D01*
X156493000Y-53880551D01*
X156493000Y-53699448D01*
X156476519Y-53595397D01*
X156464671Y-53520591D01*
X156408711Y-53348361D01*
X156408711Y-53348360D01*
X156380240Y-53292484D01*
X156326496Y-53187006D01*
X156312896Y-53168287D01*
X156220058Y-53040505D01*
X156220054Y-53040500D01*
X156091999Y-52912445D01*
X156091994Y-52912441D01*
X155945497Y-52806006D01*
X155945496Y-52806005D01*
X155945494Y-52806004D01*
X155893800Y-52779664D01*
X155784139Y-52723788D01*
X155784136Y-52723787D01*
X155686087Y-52691930D01*
X155628412Y-52652493D01*
X155601213Y-52588134D01*
X155613127Y-52519288D01*
X155660371Y-52467812D01*
X155724405Y-52449999D01*
X156225718Y-52449999D01*
X156293749Y-52440087D01*
X156398691Y-52388784D01*
X156481287Y-52306188D01*
X156532587Y-52201251D01*
X156532588Y-52201248D01*
X156542500Y-52133219D01*
X156542500Y-51425000D01*
X155813246Y-51425000D01*
X155842500Y-51315826D01*
X155842500Y-51184174D01*
X155813246Y-51075000D01*
X156542499Y-51075000D01*
X156542499Y-50366782D01*
X156532587Y-50298750D01*
X156481284Y-50193808D01*
X156398688Y-50111212D01*
X156293751Y-50059912D01*
X156293748Y-50059911D01*
X156225720Y-50050000D01*
X155517500Y-50050000D01*
X155517500Y-50779253D01*
X155408326Y-50750000D01*
X155276674Y-50750000D01*
X155167500Y-50779253D01*
X155167500Y-50050000D01*
X154459282Y-50050000D01*
X154391250Y-50059912D01*
X154286308Y-50111215D01*
X154203712Y-50193811D01*
X154152412Y-50298748D01*
X154152411Y-50298751D01*
X154142500Y-50366780D01*
X154142500Y-51075000D01*
X154871754Y-51075000D01*
X154842500Y-51184174D01*
X154842500Y-51315826D01*
X154871754Y-51425000D01*
X154142501Y-51425000D01*
X154142501Y-52133217D01*
X154152412Y-52201249D01*
X154203715Y-52306191D01*
X154286311Y-52388787D01*
X154391248Y-52440087D01*
X154391251Y-52440088D01*
X154459280Y-52449999D01*
X154960593Y-52449999D01*
X155027632Y-52469683D01*
X155073387Y-52522487D01*
X155083331Y-52591646D01*
X155054306Y-52655202D01*
X154998911Y-52691930D01*
X154900863Y-52723787D01*
X154900860Y-52723788D01*
X154739502Y-52806006D01*
X154593005Y-52912441D01*
X154593000Y-52912445D01*
X154464945Y-53040500D01*
X154464941Y-53040505D01*
X154358506Y-53187002D01*
X154276288Y-53348360D01*
X154276287Y-53348363D01*
X154220329Y-53520589D01*
X154192000Y-53699448D01*
X154192000Y-53880551D01*
X154220329Y-54059410D01*
X154276287Y-54231636D01*
X154276288Y-54231639D01*
X154358506Y-54392997D01*
X154464941Y-54539494D01*
X154464945Y-54539499D01*
X154593000Y-54667554D01*
X154593005Y-54667558D01*
X154720787Y-54760396D01*
X154739506Y-54773996D01*
X154844984Y-54827740D01*
X154900860Y-54856211D01*
X154900863Y-54856212D01*
X154986976Y-54884191D01*
X155073091Y-54912171D01*
X155146139Y-54923740D01*
X155233178Y-54937527D01*
X155296313Y-54967456D01*
X155333244Y-55026768D01*
X155332246Y-55096631D01*
X155293636Y-55154863D01*
X155233178Y-55182473D01*
X155073089Y-55207829D01*
X154900863Y-55263787D01*
X154900860Y-55263788D01*
X154739502Y-55346006D01*
X154593005Y-55452441D01*
X154593000Y-55452445D01*
X154464945Y-55580500D01*
X154464941Y-55580505D01*
X154358506Y-55727002D01*
X154276288Y-55888360D01*
X154276287Y-55888363D01*
X154220329Y-56060589D01*
X154192000Y-56239448D01*
X154192000Y-56420551D01*
X154220595Y-56601091D01*
X154211641Y-56670384D01*
X154185803Y-56708170D01*
X146580794Y-64313181D01*
X146519471Y-64346666D01*
X146493113Y-64349500D01*
X140154386Y-64349500D01*
X140087347Y-64329815D01*
X140066705Y-64313181D01*
X137648595Y-61895070D01*
X137626762Y-61862395D01*
X137626141Y-61862754D01*
X137543024Y-61718790D01*
X137543018Y-61718782D01*
X137431217Y-61606981D01*
X137431209Y-61606975D01*
X137294290Y-61527926D01*
X137294286Y-61527924D01*
X137294284Y-61527923D01*
X137141557Y-61487000D01*
X136983443Y-61487000D01*
X136830716Y-61527923D01*
X136830709Y-61527926D01*
X136693790Y-61606975D01*
X136693782Y-61606981D01*
X136581981Y-61718782D01*
X136581975Y-61718790D01*
X136502926Y-61855709D01*
X136502923Y-61855716D01*
X136462000Y-62008443D01*
X136462000Y-62166557D01*
X136485446Y-62254056D01*
X136502923Y-62319283D01*
X136502926Y-62319290D01*
X136581975Y-62456209D01*
X136581979Y-62456214D01*
X136581980Y-62456216D01*
X136693784Y-62568020D01*
X136693786Y-62568021D01*
X136693790Y-62568024D01*
X136837754Y-62651141D01*
X136837395Y-62651762D01*
X136870070Y-62673595D01*
X139536986Y-65340510D01*
X139584304Y-65367829D01*
X139662515Y-65412984D01*
X139802525Y-65450500D01*
X139802526Y-65450500D01*
X139802528Y-65450500D01*
X146844972Y-65450500D01*
X146844974Y-65450500D01*
X146844975Y-65450500D01*
X146984985Y-65412984D01*
X147110515Y-65340510D01*
X154033144Y-58417879D01*
X154094465Y-58384396D01*
X154164157Y-58389380D01*
X154220090Y-58431252D01*
X154244507Y-58496716D01*
X154238755Y-58543878D01*
X154220328Y-58600591D01*
X154192000Y-58779448D01*
X154192000Y-58960551D01*
X154220595Y-59141091D01*
X154211641Y-59210384D01*
X154185803Y-59248170D01*
X147120794Y-66313181D01*
X147059471Y-66346666D01*
X147033113Y-66349500D01*
X131654387Y-66349500D01*
X131587348Y-66329815D01*
X131566706Y-66313181D01*
X127198595Y-61945070D01*
X127176762Y-61912395D01*
X127176141Y-61912754D01*
X127093024Y-61768790D01*
X127093018Y-61768782D01*
X126981217Y-61656981D01*
X126981209Y-61656975D01*
X126844290Y-61577926D01*
X126844286Y-61577924D01*
X126844284Y-61577923D01*
X126691557Y-61537000D01*
X126533443Y-61537000D01*
X126380716Y-61577923D01*
X126380709Y-61577926D01*
X126243790Y-61656975D01*
X126243782Y-61656981D01*
X126131981Y-61768782D01*
X126131975Y-61768790D01*
X126052926Y-61905709D01*
X126052923Y-61905716D01*
X126012000Y-62058443D01*
X126012000Y-62216557D01*
X126039526Y-62319283D01*
X126052923Y-62369283D01*
X126052926Y-62369290D01*
X126131975Y-62506209D01*
X126131979Y-62506214D01*
X126131980Y-62506216D01*
X126243784Y-62618020D01*
X126243786Y-62618021D01*
X126243790Y-62618024D01*
X126387754Y-62701141D01*
X126387395Y-62701762D01*
X126420070Y-62723595D01*
X130871794Y-67175319D01*
X130905279Y-67236642D01*
X130900295Y-67306334D01*
X130858423Y-67362267D01*
X130792959Y-67386684D01*
X130784113Y-67387000D01*
X122016887Y-67387000D01*
X121949848Y-67367315D01*
X121929206Y-67350681D01*
X116661095Y-62082570D01*
X116639262Y-62049895D01*
X116638641Y-62050254D01*
X116555524Y-61906290D01*
X116555518Y-61906282D01*
X116443717Y-61794481D01*
X116443709Y-61794475D01*
X116306790Y-61715426D01*
X116306786Y-61715424D01*
X116306784Y-61715423D01*
X116154057Y-61674500D01*
X115995943Y-61674500D01*
X115843216Y-61715423D01*
X115843209Y-61715426D01*
X115706290Y-61794475D01*
X115706282Y-61794481D01*
X115594481Y-61906282D01*
X115594475Y-61906290D01*
X115515426Y-62043209D01*
X115515423Y-62043216D01*
X115474500Y-62195943D01*
X115474500Y-62354057D01*
X115507232Y-62476212D01*
X115515423Y-62506783D01*
X115515426Y-62506790D01*
X115594475Y-62643709D01*
X115594479Y-62643714D01*
X115594480Y-62643716D01*
X115706284Y-62755520D01*
X115706286Y-62755521D01*
X115706290Y-62755524D01*
X115850254Y-62838641D01*
X115849895Y-62839262D01*
X115882570Y-62861095D01*
X121399485Y-68378010D01*
X121525015Y-68450484D01*
X121665025Y-68488000D01*
X121665028Y-68488000D01*
X148887472Y-68488000D01*
X148887474Y-68488000D01*
X148887475Y-68488000D01*
X149027485Y-68450484D01*
X149153015Y-68378010D01*
X154033144Y-63497879D01*
X154094465Y-63464396D01*
X154164157Y-63469380D01*
X154220090Y-63511252D01*
X154244507Y-63576716D01*
X154238755Y-63623878D01*
X154220328Y-63680591D01*
X154192000Y-63859448D01*
X154192000Y-64040551D01*
X154220595Y-64221092D01*
X154211640Y-64290385D01*
X154185803Y-64328171D01*
X149763294Y-68750681D01*
X149701971Y-68784166D01*
X149675613Y-68787000D01*
X108891887Y-68787000D01*
X108824848Y-68767315D01*
X108804206Y-68750681D01*
X106161819Y-66108294D01*
X106128334Y-66046971D01*
X106125500Y-66020613D01*
X106125500Y-62453362D01*
X106133167Y-62414822D01*
X106132473Y-62414636D01*
X106134577Y-62406784D01*
X106175500Y-62254057D01*
X106175500Y-62095943D01*
X106134577Y-61943216D01*
X106113258Y-61906290D01*
X106055524Y-61806290D01*
X106055518Y-61806282D01*
X105943717Y-61694481D01*
X105943709Y-61694475D01*
X105806790Y-61615426D01*
X105806786Y-61615424D01*
X105806784Y-61615423D01*
X105654057Y-61574500D01*
X105495943Y-61574500D01*
X105343216Y-61615423D01*
X105343209Y-61615426D01*
X105206290Y-61694475D01*
X105206282Y-61694481D01*
X105094481Y-61806282D01*
X105094475Y-61806290D01*
X105015426Y-61943209D01*
X105015423Y-61943216D01*
X104974500Y-62095943D01*
X104974500Y-62254057D01*
X105015423Y-62406784D01*
X105017527Y-62414636D01*
X105016832Y-62414822D01*
X105024500Y-62453362D01*
X105024500Y-66372479D01*
X105031728Y-66399453D01*
X105031729Y-66399453D01*
X105031729Y-66399454D01*
X105062016Y-66512485D01*
X105134490Y-66638015D01*
X108274485Y-69778010D01*
X108400015Y-69850484D01*
X108540025Y-69888000D01*
X108540026Y-69888000D01*
X108540028Y-69888000D01*
X150027472Y-69888000D01*
X150027474Y-69888000D01*
X150027475Y-69888000D01*
X150167485Y-69850484D01*
X150293015Y-69778010D01*
X154033143Y-66037879D01*
X154094466Y-66004395D01*
X154164158Y-66009379D01*
X154220091Y-66051251D01*
X154244508Y-66116715D01*
X154238755Y-66163878D01*
X154220329Y-66220587D01*
X154192000Y-66399448D01*
X154192000Y-66580551D01*
X154220329Y-66759410D01*
X154276287Y-66931636D01*
X154276288Y-66931639D01*
X154358506Y-67092997D01*
X154464941Y-67239494D01*
X154464945Y-67239499D01*
X154593000Y-67367554D01*
X154593005Y-67367558D01*
X154720787Y-67460396D01*
X154739506Y-67473996D01*
X154844984Y-67527740D01*
X154900860Y-67556211D01*
X154900863Y-67556212D01*
X154986976Y-67584191D01*
X155073091Y-67612171D01*
X155146139Y-67623740D01*
X155233178Y-67637527D01*
X155296313Y-67667456D01*
X155333244Y-67726768D01*
X155332246Y-67796631D01*
X155293636Y-67854863D01*
X155233178Y-67882473D01*
X155073089Y-67907829D01*
X154900863Y-67963787D01*
X154900860Y-67963788D01*
X154739502Y-68046006D01*
X154593005Y-68152441D01*
X154593000Y-68152445D01*
X154464945Y-68280500D01*
X154464941Y-68280505D01*
X154358506Y-68427002D01*
X154276288Y-68588360D01*
X154276287Y-68588363D01*
X154220329Y-68760589D01*
X154192000Y-68939448D01*
X154192000Y-69120551D01*
X154220595Y-69301092D01*
X154211640Y-69370385D01*
X154185803Y-69408171D01*
X150943294Y-72650681D01*
X150881971Y-72684166D01*
X150855613Y-72687000D01*
X137991887Y-72687000D01*
X137924848Y-72667315D01*
X137904206Y-72650681D01*
X137698595Y-72445070D01*
X137676762Y-72412395D01*
X137676141Y-72412754D01*
X137593024Y-72268790D01*
X137593018Y-72268782D01*
X137481217Y-72156981D01*
X137481209Y-72156975D01*
X137344290Y-72077926D01*
X137344286Y-72077924D01*
X137344284Y-72077923D01*
X137191557Y-72037000D01*
X137033443Y-72037000D01*
X136880716Y-72077923D01*
X136880709Y-72077926D01*
X136743790Y-72156975D01*
X136743782Y-72156981D01*
X136631981Y-72268782D01*
X136631975Y-72268790D01*
X136552926Y-72405709D01*
X136552923Y-72405716D01*
X136512000Y-72558443D01*
X136512000Y-72716557D01*
X136548843Y-72854055D01*
X136552923Y-72869283D01*
X136552926Y-72869290D01*
X136631975Y-73006209D01*
X136631979Y-73006214D01*
X136631980Y-73006216D01*
X136743784Y-73118020D01*
X136743786Y-73118021D01*
X136743790Y-73118024D01*
X136887754Y-73201141D01*
X136887395Y-73201762D01*
X136920070Y-73223595D01*
X137374485Y-73678010D01*
X137500015Y-73750484D01*
X137640025Y-73788000D01*
X137640026Y-73788000D01*
X137640028Y-73788000D01*
X151207472Y-73788000D01*
X151207474Y-73788000D01*
X151207475Y-73788000D01*
X151347485Y-73750484D01*
X151473015Y-73678010D01*
X154033144Y-71117879D01*
X154094466Y-71084395D01*
X154164158Y-71089379D01*
X154220091Y-71131251D01*
X154244508Y-71196715D01*
X154238755Y-71243878D01*
X154220329Y-71300587D01*
X154192000Y-71479448D01*
X154192000Y-71660551D01*
X154220595Y-71841091D01*
X154211641Y-71910384D01*
X154185803Y-71948170D01*
X149620794Y-76513181D01*
X149559471Y-76546666D01*
X149533113Y-76549500D01*
X131329386Y-76549500D01*
X131262347Y-76529815D01*
X131241705Y-76513181D01*
X127259420Y-72530895D01*
X127227325Y-72475304D01*
X127222076Y-72455714D01*
X127222076Y-72455713D01*
X127143024Y-72318790D01*
X127143018Y-72318782D01*
X127031217Y-72206981D01*
X127031209Y-72206975D01*
X126894290Y-72127926D01*
X126894286Y-72127924D01*
X126894284Y-72127923D01*
X126741557Y-72087000D01*
X126583443Y-72087000D01*
X126430716Y-72127923D01*
X126430709Y-72127926D01*
X126293790Y-72206975D01*
X126293782Y-72206981D01*
X126181981Y-72318782D01*
X126181975Y-72318790D01*
X126102926Y-72455709D01*
X126102924Y-72455714D01*
X126102923Y-72455716D01*
X126062000Y-72608443D01*
X126062000Y-72766557D01*
X126100429Y-72909974D01*
X126102923Y-72919283D01*
X126102926Y-72919290D01*
X126181975Y-73056209D01*
X126181979Y-73056214D01*
X126181980Y-73056216D01*
X126293784Y-73168020D01*
X126387800Y-73222300D01*
X126413480Y-73242005D01*
X130711986Y-77540510D01*
X130837515Y-77612984D01*
X130977525Y-77650500D01*
X130977526Y-77650500D01*
X130977528Y-77650500D01*
X149884972Y-77650500D01*
X149884974Y-77650500D01*
X149884975Y-77650500D01*
X150024985Y-77612984D01*
X150150515Y-77540510D01*
X154033144Y-73657879D01*
X154094465Y-73624396D01*
X154164157Y-73629380D01*
X154220090Y-73671252D01*
X154244507Y-73736716D01*
X154238755Y-73783878D01*
X154220328Y-73840591D01*
X154192000Y-74019448D01*
X154192000Y-74200551D01*
X154220595Y-74381092D01*
X154211640Y-74450385D01*
X154185803Y-74488171D01*
X150760794Y-77913181D01*
X150699471Y-77946666D01*
X150673113Y-77949500D01*
X122054387Y-77949500D01*
X121987348Y-77929815D01*
X121966706Y-77913181D01*
X116749319Y-72695794D01*
X116715834Y-72634471D01*
X116713000Y-72608113D01*
X116713000Y-72558445D01*
X116713000Y-72558443D01*
X116672077Y-72405716D01*
X116668478Y-72399482D01*
X116593024Y-72268790D01*
X116593018Y-72268782D01*
X116481217Y-72156981D01*
X116481209Y-72156975D01*
X116344290Y-72077926D01*
X116344286Y-72077924D01*
X116344284Y-72077923D01*
X116191557Y-72037000D01*
X116033443Y-72037000D01*
X115880716Y-72077923D01*
X115880709Y-72077926D01*
X115743790Y-72156975D01*
X115743782Y-72156981D01*
X115631981Y-72268782D01*
X115631975Y-72268790D01*
X115552926Y-72405709D01*
X115552923Y-72405716D01*
X115512000Y-72558443D01*
X115512000Y-72716557D01*
X115548843Y-72854056D01*
X115555027Y-72877136D01*
X115554332Y-72877322D01*
X115559268Y-72902133D01*
X115560939Y-72901914D01*
X115561999Y-72909970D01*
X115562000Y-72909973D01*
X115562000Y-72909974D01*
X115599516Y-73049985D01*
X115671990Y-73175515D01*
X121436985Y-78940510D01*
X121562515Y-79012984D01*
X121702525Y-79050500D01*
X121702528Y-79050500D01*
X151024972Y-79050500D01*
X151024974Y-79050500D01*
X151024975Y-79050500D01*
X151164985Y-79012984D01*
X151290515Y-78940510D01*
X154033144Y-76197879D01*
X154094466Y-76164395D01*
X154164158Y-76169379D01*
X154220091Y-76211251D01*
X154244508Y-76276715D01*
X154238755Y-76323878D01*
X154220329Y-76380587D01*
X154192000Y-76559448D01*
X154192000Y-76740551D01*
X154220595Y-76921091D01*
X154211641Y-76990384D01*
X154185803Y-77028170D01*
X151900794Y-79313181D01*
X151839471Y-79346666D01*
X151813113Y-79349500D01*
X108929387Y-79349500D01*
X108862348Y-79329815D01*
X108841706Y-79313181D01*
X106199319Y-76670794D01*
X106165834Y-76609471D01*
X106163000Y-76583113D01*
X106163000Y-72917032D01*
X106167225Y-72884939D01*
X106169451Y-72876631D01*
X106175500Y-72854057D01*
X106175500Y-72695943D01*
X106134577Y-72543216D01*
X106133142Y-72540730D01*
X106125958Y-72526162D01*
X106125485Y-72525019D01*
X106125484Y-72525015D01*
X106125481Y-72525010D01*
X106125480Y-72525007D01*
X106080761Y-72447553D01*
X106053009Y-72399485D01*
X105950515Y-72296991D01*
X105824985Y-72224516D01*
X105824980Y-72224514D01*
X105823815Y-72224032D01*
X105809274Y-72216860D01*
X105806787Y-72215424D01*
X105806784Y-72215423D01*
X105654057Y-72174500D01*
X105495943Y-72174500D01*
X105343216Y-72215423D01*
X105343209Y-72215426D01*
X105206290Y-72294475D01*
X105206282Y-72294481D01*
X105094481Y-72406282D01*
X105094475Y-72406290D01*
X105015426Y-72543209D01*
X105015424Y-72543214D01*
X105015423Y-72543216D01*
X104974500Y-72695943D01*
X104974500Y-72854057D01*
X105015423Y-73006784D01*
X105043962Y-73056216D01*
X105045387Y-73058683D01*
X105062000Y-73120683D01*
X105062000Y-76790026D01*
X105062000Y-76934974D01*
X105099516Y-77074985D01*
X105171990Y-77200515D01*
X108311985Y-80340510D01*
X108437515Y-80412984D01*
X108577525Y-80450500D01*
X108577526Y-80450500D01*
X108577528Y-80450500D01*
X152164972Y-80450500D01*
X152164974Y-80450500D01*
X152164975Y-80450500D01*
X152304985Y-80412984D01*
X152430515Y-80340510D01*
X154033145Y-78737879D01*
X154094465Y-78704396D01*
X154164156Y-78709380D01*
X154220090Y-78751252D01*
X154244507Y-78816716D01*
X154238755Y-78863878D01*
X154220328Y-78920591D01*
X154192000Y-79099448D01*
X154192000Y-79280551D01*
X154220329Y-79459410D01*
X154276287Y-79631636D01*
X154276288Y-79631639D01*
X154358506Y-79792997D01*
X154464941Y-79939494D01*
X154464945Y-79939499D01*
X154593000Y-80067554D01*
X154593005Y-80067558D01*
X154720787Y-80160396D01*
X154739506Y-80173996D01*
X154844984Y-80227740D01*
X154900860Y-80256211D01*
X154900863Y-80256212D01*
X154986976Y-80284191D01*
X155073091Y-80312171D01*
X155146139Y-80323740D01*
X155233178Y-80337527D01*
X155296313Y-80367456D01*
X155333244Y-80426768D01*
X155332246Y-80496631D01*
X155293636Y-80554863D01*
X155233178Y-80582473D01*
X155073089Y-80607829D01*
X154900863Y-80663787D01*
X154900860Y-80663788D01*
X154739502Y-80746006D01*
X154593005Y-80852441D01*
X154593000Y-80852445D01*
X154464945Y-80980500D01*
X154464941Y-80980505D01*
X154358506Y-81127002D01*
X154276288Y-81288360D01*
X154276287Y-81288363D01*
X154220329Y-81460589D01*
X154192000Y-81639448D01*
X154192000Y-81820551D01*
X154220595Y-82001092D01*
X154211640Y-82070385D01*
X154185803Y-82108171D01*
X150980794Y-85313181D01*
X150919471Y-85346666D01*
X150893113Y-85349500D01*
X140229386Y-85349500D01*
X140162347Y-85329815D01*
X140141705Y-85313181D01*
X137438017Y-82609492D01*
X137438016Y-82609491D01*
X137438015Y-82609490D01*
X137438012Y-82609488D01*
X137431566Y-82604542D01*
X137431932Y-82604064D01*
X137416323Y-82592087D01*
X137331217Y-82506981D01*
X137331209Y-82506975D01*
X137194290Y-82427926D01*
X137194286Y-82427924D01*
X137194284Y-82427923D01*
X137041557Y-82387000D01*
X136883443Y-82387000D01*
X136730716Y-82427923D01*
X136730709Y-82427926D01*
X136593790Y-82506975D01*
X136593782Y-82506981D01*
X136481981Y-82618782D01*
X136481975Y-82618790D01*
X136402926Y-82755709D01*
X136402923Y-82755716D01*
X136362000Y-82908443D01*
X136362000Y-83066557D01*
X136402193Y-83216557D01*
X136402923Y-83219283D01*
X136402926Y-83219290D01*
X136481975Y-83356209D01*
X136481979Y-83356214D01*
X136481980Y-83356216D01*
X136593784Y-83468020D01*
X136593786Y-83468021D01*
X136593790Y-83468024D01*
X136730709Y-83547073D01*
X136730716Y-83547077D01*
X136818609Y-83570627D01*
X136874196Y-83602721D01*
X139611986Y-86340510D01*
X139662181Y-86369490D01*
X139737515Y-86412984D01*
X139877525Y-86450500D01*
X139877526Y-86450500D01*
X139877528Y-86450500D01*
X151244972Y-86450500D01*
X151244974Y-86450500D01*
X151244975Y-86450500D01*
X151384985Y-86412984D01*
X151510515Y-86340510D01*
X154033144Y-83817879D01*
X154094466Y-83784395D01*
X154164158Y-83789379D01*
X154220091Y-83831251D01*
X154244508Y-83896715D01*
X154238755Y-83943878D01*
X154220329Y-84000587D01*
X154192000Y-84179448D01*
X154192000Y-84360551D01*
X154220595Y-84541091D01*
X154211641Y-84610384D01*
X154185803Y-84648170D01*
X151920794Y-86913181D01*
X151859471Y-86946666D01*
X151833113Y-86949500D01*
X131329386Y-86949500D01*
X131262347Y-86929815D01*
X131241705Y-86913181D01*
X126988017Y-82659492D01*
X126988016Y-82659491D01*
X126988015Y-82659490D01*
X126988012Y-82659488D01*
X126981566Y-82654542D01*
X126981932Y-82654064D01*
X126966323Y-82642087D01*
X126881217Y-82556981D01*
X126881209Y-82556975D01*
X126744290Y-82477926D01*
X126744286Y-82477924D01*
X126744284Y-82477923D01*
X126591557Y-82437000D01*
X126433443Y-82437000D01*
X126280716Y-82477923D01*
X126280709Y-82477926D01*
X126143790Y-82556975D01*
X126143782Y-82556981D01*
X126031981Y-82668782D01*
X126031975Y-82668790D01*
X125952926Y-82805709D01*
X125952923Y-82805716D01*
X125912000Y-82958443D01*
X125912000Y-83116557D01*
X125939526Y-83219283D01*
X125952923Y-83269283D01*
X125952926Y-83269290D01*
X126031975Y-83406209D01*
X126031979Y-83406214D01*
X126031980Y-83406216D01*
X126143784Y-83518020D01*
X126143786Y-83518021D01*
X126143790Y-83518024D01*
X126280709Y-83597073D01*
X126280716Y-83597077D01*
X126368609Y-83620627D01*
X126424196Y-83652721D01*
X130711986Y-87940510D01*
X130746610Y-87960500D01*
X130837511Y-88012982D01*
X130837512Y-88012982D01*
X130837515Y-88012984D01*
X130977525Y-88050500D01*
X130977526Y-88050500D01*
X130977528Y-88050500D01*
X152184972Y-88050500D01*
X152184974Y-88050500D01*
X152184975Y-88050500D01*
X152324985Y-88012984D01*
X152450515Y-87940510D01*
X154033145Y-86357879D01*
X154094465Y-86324396D01*
X154164156Y-86329380D01*
X154220090Y-86371252D01*
X154244507Y-86436716D01*
X154238755Y-86483878D01*
X154220328Y-86540591D01*
X154192000Y-86719448D01*
X154192000Y-86900551D01*
X154220595Y-87081091D01*
X154211641Y-87150384D01*
X154185803Y-87188170D01*
X153060794Y-88313181D01*
X152999471Y-88346666D01*
X152973113Y-88349500D01*
X122054387Y-88349500D01*
X121987348Y-88329815D01*
X121966706Y-88313181D01*
X116686871Y-83033346D01*
X116654778Y-82977761D01*
X116622077Y-82855716D01*
X116571891Y-82768790D01*
X116543024Y-82718790D01*
X116543018Y-82718782D01*
X116431217Y-82606981D01*
X116431209Y-82606975D01*
X116294290Y-82527926D01*
X116294286Y-82527924D01*
X116294284Y-82527923D01*
X116141557Y-82487000D01*
X115983443Y-82487000D01*
X115830716Y-82527923D01*
X115830709Y-82527926D01*
X115693790Y-82606975D01*
X115693782Y-82606981D01*
X115581981Y-82718782D01*
X115581975Y-82718790D01*
X115502926Y-82855709D01*
X115502923Y-82855716D01*
X115462000Y-83008443D01*
X115462000Y-83166557D01*
X115489526Y-83269283D01*
X115502923Y-83319283D01*
X115502926Y-83319290D01*
X115581975Y-83456209D01*
X115581981Y-83456217D01*
X115620436Y-83494672D01*
X115640142Y-83520353D01*
X115671987Y-83575511D01*
X115671989Y-83575514D01*
X115671990Y-83575515D01*
X121436985Y-89340510D01*
X121562515Y-89412984D01*
X121702525Y-89450500D01*
X121702528Y-89450500D01*
X153324972Y-89450500D01*
X153324974Y-89450500D01*
X153324975Y-89450500D01*
X153464985Y-89412984D01*
X153590515Y-89340510D01*
X154033143Y-88897881D01*
X154094465Y-88864397D01*
X154164156Y-88869381D01*
X154220090Y-88911252D01*
X154244507Y-88976717D01*
X154238755Y-89023880D01*
X154220328Y-89080593D01*
X154192000Y-89259448D01*
X154192000Y-89440551D01*
X154218221Y-89606102D01*
X154209267Y-89675395D01*
X154164270Y-89728847D01*
X154097519Y-89749487D01*
X154095748Y-89749500D01*
X108929387Y-89749500D01*
X108862348Y-89729815D01*
X108841706Y-89713181D01*
X106199319Y-87070794D01*
X106165834Y-87009471D01*
X106163000Y-86983113D01*
X106163000Y-83415862D01*
X106170667Y-83377322D01*
X106169973Y-83377136D01*
X106175578Y-83356217D01*
X106213000Y-83216557D01*
X106213000Y-83058443D01*
X106172077Y-82905716D01*
X106141163Y-82852171D01*
X106093024Y-82768790D01*
X106093018Y-82768782D01*
X105981217Y-82656981D01*
X105981209Y-82656975D01*
X105844290Y-82577926D01*
X105844286Y-82577924D01*
X105844284Y-82577923D01*
X105691557Y-82537000D01*
X105533443Y-82537000D01*
X105380716Y-82577923D01*
X105380709Y-82577926D01*
X105243790Y-82656975D01*
X105243782Y-82656981D01*
X105131981Y-82768782D01*
X105131975Y-82768790D01*
X105052926Y-82905709D01*
X105052923Y-82905716D01*
X105012000Y-83058443D01*
X105012000Y-83216557D01*
X105049422Y-83356217D01*
X105055027Y-83377136D01*
X105054332Y-83377322D01*
X105062000Y-83415862D01*
X105062000Y-87190026D01*
X105062000Y-87334974D01*
X105099516Y-87474985D01*
X105171990Y-87600515D01*
X108311985Y-90740510D01*
X108437515Y-90812984D01*
X108577525Y-90850500D01*
X108577526Y-90850500D01*
X108577528Y-90850500D01*
X154455584Y-90850500D01*
X154522623Y-90870185D01*
X154568378Y-90922989D01*
X154578322Y-90992147D01*
X154549297Y-91055703D01*
X154543265Y-91062181D01*
X154464945Y-91140500D01*
X154464941Y-91140505D01*
X154358506Y-91287002D01*
X154276288Y-91448360D01*
X154276287Y-91448363D01*
X154220329Y-91620589D01*
X154192000Y-91799448D01*
X154192000Y-91980551D01*
X154220329Y-92159410D01*
X154276287Y-92331636D01*
X154276288Y-92331639D01*
X154358506Y-92492997D01*
X154464941Y-92639494D01*
X154464945Y-92639499D01*
X154593000Y-92767554D01*
X154593005Y-92767558D01*
X154664201Y-92819284D01*
X154739506Y-92873996D01*
X154844984Y-92927740D01*
X154900860Y-92956211D01*
X154900863Y-92956212D01*
X154986976Y-92984191D01*
X155073091Y-93012171D01*
X155146139Y-93023740D01*
X155233178Y-93037527D01*
X155296313Y-93067456D01*
X155333244Y-93126768D01*
X155332246Y-93196631D01*
X155293636Y-93254863D01*
X155233178Y-93282473D01*
X155073089Y-93307829D01*
X154900863Y-93363787D01*
X154900860Y-93363788D01*
X154739502Y-93446006D01*
X154593005Y-93552441D01*
X154593000Y-93552445D01*
X154464945Y-93680500D01*
X154464941Y-93680505D01*
X154358506Y-93827002D01*
X154276288Y-93988360D01*
X154276287Y-93988363D01*
X154220329Y-94160589D01*
X154192000Y-94339448D01*
X154192000Y-94520551D01*
X154220595Y-94701091D01*
X154211641Y-94770384D01*
X154185803Y-94808170D01*
X153180794Y-95813181D01*
X153119471Y-95846666D01*
X153093113Y-95849500D01*
X140329387Y-95849500D01*
X140262348Y-95829815D01*
X140241706Y-95813181D01*
X137713016Y-93284491D01*
X137713015Y-93284490D01*
X137587485Y-93212016D01*
X137587486Y-93212016D01*
X137552482Y-93202637D01*
X137447475Y-93174500D01*
X137447472Y-93174500D01*
X137303363Y-93174500D01*
X137264820Y-93166834D01*
X137264635Y-93167527D01*
X137256785Y-93165423D01*
X137256784Y-93165423D01*
X137104057Y-93124500D01*
X136945943Y-93124500D01*
X136793216Y-93165423D01*
X136793209Y-93165426D01*
X136656290Y-93244475D01*
X136656282Y-93244481D01*
X136544481Y-93356282D01*
X136544475Y-93356290D01*
X136465426Y-93493209D01*
X136465423Y-93493216D01*
X136424500Y-93645943D01*
X136424500Y-93804057D01*
X136457439Y-93926985D01*
X136465423Y-93956783D01*
X136465426Y-93956790D01*
X136544475Y-94093709D01*
X136544479Y-94093714D01*
X136544480Y-94093716D01*
X136656284Y-94205520D01*
X136656286Y-94205521D01*
X136656290Y-94205524D01*
X136728263Y-94247077D01*
X136793216Y-94284577D01*
X136945943Y-94325500D01*
X136945945Y-94325500D01*
X137104054Y-94325500D01*
X137104057Y-94325500D01*
X137108180Y-94324395D01*
X137111795Y-94324480D01*
X137112113Y-94324439D01*
X137112119Y-94324488D01*
X137178027Y-94326052D01*
X137227961Y-94356486D01*
X139711985Y-96840510D01*
X139799711Y-96891158D01*
X139837515Y-96912984D01*
X139977525Y-96950500D01*
X139977528Y-96950500D01*
X153444972Y-96950500D01*
X153444974Y-96950500D01*
X153444975Y-96950500D01*
X153584985Y-96912984D01*
X153622789Y-96891158D01*
X153710515Y-96840510D01*
X154033143Y-96517881D01*
X154094465Y-96484397D01*
X154164156Y-96489381D01*
X154220090Y-96531252D01*
X154244507Y-96596717D01*
X154238755Y-96643880D01*
X154220328Y-96700593D01*
X154192000Y-96879448D01*
X154192000Y-97060551D01*
X154220595Y-97241091D01*
X154219894Y-97246515D01*
X154221806Y-97251642D01*
X154215464Y-97280795D01*
X154211641Y-97310384D01*
X154207809Y-97315987D01*
X154206955Y-97319915D01*
X154185803Y-97348170D01*
X154020792Y-97513182D01*
X153959472Y-97546666D01*
X153933113Y-97549500D01*
X131529387Y-97549500D01*
X131462348Y-97529815D01*
X131441706Y-97513181D01*
X127175516Y-93246991D01*
X127175515Y-93246990D01*
X127049985Y-93174516D01*
X127049982Y-93174515D01*
X127016048Y-93165422D01*
X127016048Y-93165421D01*
X126925797Y-93141238D01*
X126895895Y-93128853D01*
X126894286Y-93127924D01*
X126894285Y-93127923D01*
X126894284Y-93127923D01*
X126741557Y-93087000D01*
X126583443Y-93087000D01*
X126430716Y-93127923D01*
X126430709Y-93127926D01*
X126293790Y-93206975D01*
X126293782Y-93206981D01*
X126181981Y-93318782D01*
X126181975Y-93318790D01*
X126102926Y-93455709D01*
X126102923Y-93455716D01*
X126062000Y-93608443D01*
X126062000Y-93766557D01*
X126079478Y-93831784D01*
X126102923Y-93919283D01*
X126102926Y-93919290D01*
X126181975Y-94056209D01*
X126181979Y-94056214D01*
X126181980Y-94056216D01*
X126293784Y-94168020D01*
X126293786Y-94168021D01*
X126293790Y-94168024D01*
X126380387Y-94218020D01*
X126430716Y-94247077D01*
X126583443Y-94288000D01*
X126608113Y-94288000D01*
X126675152Y-94307685D01*
X126695794Y-94324319D01*
X130911985Y-98540510D01*
X131037515Y-98612984D01*
X131177525Y-98650500D01*
X131177528Y-98650500D01*
X154284967Y-98650500D01*
X154284974Y-98650500D01*
X154284975Y-98650500D01*
X154284982Y-98650497D01*
X154286189Y-98650339D01*
X154287222Y-98650500D01*
X154293102Y-98650500D01*
X154293102Y-98651416D01*
X154355226Y-98661096D01*
X154407487Y-98707469D01*
X154426381Y-98774736D01*
X154405909Y-98841539D01*
X154402710Y-98846159D01*
X154364769Y-98898383D01*
X154309440Y-98941050D01*
X154264449Y-98949500D01*
X122254386Y-98949500D01*
X122187347Y-98929815D01*
X122166705Y-98913181D01*
X116798595Y-93545070D01*
X116776762Y-93512395D01*
X116776141Y-93512754D01*
X116693024Y-93368790D01*
X116693018Y-93368782D01*
X116581217Y-93256981D01*
X116581209Y-93256975D01*
X116444290Y-93177926D01*
X116444286Y-93177924D01*
X116444284Y-93177923D01*
X116291557Y-93137000D01*
X116133443Y-93137000D01*
X115980716Y-93177923D01*
X115980709Y-93177926D01*
X115843790Y-93256975D01*
X115843782Y-93256981D01*
X115731981Y-93368782D01*
X115731975Y-93368790D01*
X115652926Y-93505709D01*
X115652923Y-93505716D01*
X115612000Y-93658443D01*
X115612000Y-93816557D01*
X115649576Y-93956790D01*
X115652923Y-93969283D01*
X115652926Y-93969290D01*
X115731975Y-94106209D01*
X115731979Y-94106214D01*
X115731980Y-94106216D01*
X115843784Y-94218020D01*
X115843786Y-94218021D01*
X115843790Y-94218024D01*
X115987754Y-94301141D01*
X115987395Y-94301762D01*
X116020070Y-94323595D01*
X121636986Y-99940510D01*
X121762515Y-100012984D01*
X121902525Y-100050500D01*
X121902526Y-100050500D01*
X122047474Y-100050500D01*
X154250765Y-100050500D01*
X154256652Y-100052228D01*
X154262678Y-100051074D01*
X154289780Y-100061956D01*
X154317804Y-100070185D01*
X154323272Y-100075403D01*
X154327516Y-100077108D01*
X154341253Y-100092566D01*
X154351846Y-100102676D01*
X154356796Y-100109643D01*
X154358504Y-100112994D01*
X154389122Y-100155136D01*
X154389519Y-100155695D01*
X154400705Y-100188121D01*
X154412236Y-100220441D01*
X154412082Y-100221102D01*
X154412304Y-100221746D01*
X154404173Y-100255112D01*
X154396410Y-100288495D01*
X154395923Y-100288968D01*
X154395762Y-100289629D01*
X154370899Y-100313286D01*
X154346304Y-100337189D01*
X154345637Y-100337323D01*
X154345145Y-100337793D01*
X154311448Y-100344251D01*
X154277826Y-100351064D01*
X154276599Y-100350930D01*
X154276525Y-100350945D01*
X154276448Y-100350914D01*
X154272253Y-100350458D01*
X154264976Y-100349500D01*
X154264975Y-100349500D01*
X109129387Y-100349500D01*
X109062348Y-100329815D01*
X109041706Y-100313181D01*
X106199319Y-97470794D01*
X106165834Y-97409471D01*
X106163000Y-97383113D01*
X106163000Y-93590027D01*
X106162999Y-93590023D01*
X106154725Y-93559141D01*
X106150500Y-93527049D01*
X106150500Y-93520945D01*
X106150500Y-93520943D01*
X106109577Y-93368216D01*
X106061239Y-93284491D01*
X106030524Y-93231290D01*
X106030518Y-93231282D01*
X105918717Y-93119481D01*
X105918709Y-93119475D01*
X105781790Y-93040426D01*
X105781786Y-93040424D01*
X105781784Y-93040423D01*
X105629057Y-92999500D01*
X105470943Y-92999500D01*
X105318216Y-93040423D01*
X105318209Y-93040426D01*
X105181290Y-93119475D01*
X105181282Y-93119481D01*
X105069481Y-93231282D01*
X105069475Y-93231290D01*
X104990426Y-93368209D01*
X104990423Y-93368216D01*
X104949500Y-93520943D01*
X85913000Y-93520943D01*
X85913000Y-92508443D01*
X98712000Y-92508443D01*
X98712000Y-92666557D01*
X98725398Y-92716557D01*
X98752923Y-92819283D01*
X98752926Y-92819290D01*
X98831975Y-92956209D01*
X98831979Y-92956214D01*
X98831980Y-92956216D01*
X98943784Y-93068020D01*
X98943786Y-93068021D01*
X98943790Y-93068024D01*
X99047545Y-93127926D01*
X99080716Y-93147077D01*
X99233443Y-93188000D01*
X99233445Y-93188000D01*
X99391555Y-93188000D01*
X99391557Y-93188000D01*
X99544284Y-93147077D01*
X99681216Y-93068020D01*
X99793020Y-92956216D01*
X99872077Y-92819284D01*
X99913000Y-92666557D01*
X99913000Y-92508443D01*
X102212000Y-92508443D01*
X102212000Y-92666557D01*
X102225398Y-92716557D01*
X102252923Y-92819283D01*
X102252926Y-92819290D01*
X102331975Y-92956209D01*
X102331979Y-92956214D01*
X102331980Y-92956216D01*
X102443784Y-93068020D01*
X102443786Y-93068021D01*
X102443790Y-93068024D01*
X102547545Y-93127926D01*
X102580716Y-93147077D01*
X102733443Y-93188000D01*
X102733445Y-93188000D01*
X102891555Y-93188000D01*
X102891557Y-93188000D01*
X103044284Y-93147077D01*
X103181216Y-93068020D01*
X103293020Y-92956216D01*
X103372077Y-92819284D01*
X103413000Y-92666557D01*
X103413000Y-92558443D01*
X109212000Y-92558443D01*
X109212000Y-92716557D01*
X109239526Y-92819283D01*
X109252923Y-92869283D01*
X109252926Y-92869290D01*
X109331975Y-93006209D01*
X109331979Y-93006214D01*
X109331980Y-93006216D01*
X109443784Y-93118020D01*
X109443786Y-93118021D01*
X109443790Y-93118024D01*
X109525887Y-93165422D01*
X109580716Y-93197077D01*
X109733443Y-93238000D01*
X109733445Y-93238000D01*
X109891555Y-93238000D01*
X109891557Y-93238000D01*
X110044284Y-93197077D01*
X110181216Y-93118020D01*
X110293020Y-93006216D01*
X110372077Y-92869284D01*
X110413000Y-92716557D01*
X110413000Y-92558443D01*
X112712000Y-92558443D01*
X112712000Y-92716557D01*
X112739526Y-92819283D01*
X112752923Y-92869283D01*
X112752926Y-92869290D01*
X112831975Y-93006209D01*
X112831979Y-93006214D01*
X112831980Y-93006216D01*
X112943784Y-93118020D01*
X112943786Y-93118021D01*
X112943790Y-93118024D01*
X113025887Y-93165422D01*
X113080716Y-93197077D01*
X113233443Y-93238000D01*
X113233445Y-93238000D01*
X113391555Y-93238000D01*
X113391557Y-93238000D01*
X113544284Y-93197077D01*
X113681216Y-93118020D01*
X113793020Y-93006216D01*
X113872077Y-92869284D01*
X113913000Y-92716557D01*
X113913000Y-92558443D01*
X119712000Y-92558443D01*
X119712000Y-92716557D01*
X119739526Y-92819283D01*
X119752923Y-92869283D01*
X119752926Y-92869290D01*
X119831975Y-93006209D01*
X119831979Y-93006214D01*
X119831980Y-93006216D01*
X119943784Y-93118020D01*
X119943786Y-93118021D01*
X119943790Y-93118024D01*
X120025887Y-93165422D01*
X120080716Y-93197077D01*
X120233443Y-93238000D01*
X120233445Y-93238000D01*
X120391555Y-93238000D01*
X120391557Y-93238000D01*
X120544284Y-93197077D01*
X120681216Y-93118020D01*
X120793020Y-93006216D01*
X120872077Y-92869284D01*
X120913000Y-92716557D01*
X120913000Y-92558443D01*
X123212000Y-92558443D01*
X123212000Y-92716557D01*
X123239526Y-92819283D01*
X123252923Y-92869283D01*
X123252926Y-92869290D01*
X123331975Y-93006209D01*
X123331979Y-93006214D01*
X123331980Y-93006216D01*
X123443784Y-93118020D01*
X123443786Y-93118021D01*
X123443790Y-93118024D01*
X123525887Y-93165422D01*
X123580716Y-93197077D01*
X123733443Y-93238000D01*
X123733445Y-93238000D01*
X123891555Y-93238000D01*
X123891557Y-93238000D01*
X124044284Y-93197077D01*
X124181216Y-93118020D01*
X124293020Y-93006216D01*
X124372077Y-92869284D01*
X124413000Y-92716557D01*
X124413000Y-92558443D01*
X130212000Y-92558443D01*
X130212000Y-92716557D01*
X130239526Y-92819283D01*
X130252923Y-92869283D01*
X130252926Y-92869290D01*
X130331975Y-93006209D01*
X130331979Y-93006214D01*
X130331980Y-93006216D01*
X130443784Y-93118020D01*
X130443786Y-93118021D01*
X130443790Y-93118024D01*
X130525887Y-93165422D01*
X130580716Y-93197077D01*
X130733443Y-93238000D01*
X130733445Y-93238000D01*
X130891555Y-93238000D01*
X130891557Y-93238000D01*
X131044284Y-93197077D01*
X131181216Y-93118020D01*
X131293020Y-93006216D01*
X131372077Y-92869284D01*
X131413000Y-92716557D01*
X131413000Y-92558443D01*
X133712000Y-92558443D01*
X133712000Y-92716557D01*
X133739526Y-92819283D01*
X133752923Y-92869283D01*
X133752926Y-92869290D01*
X133831975Y-93006209D01*
X133831979Y-93006214D01*
X133831980Y-93006216D01*
X133943784Y-93118020D01*
X133943786Y-93118021D01*
X133943790Y-93118024D01*
X134025887Y-93165422D01*
X134080716Y-93197077D01*
X134233443Y-93238000D01*
X134233445Y-93238000D01*
X134391555Y-93238000D01*
X134391557Y-93238000D01*
X134544284Y-93197077D01*
X134681216Y-93118020D01*
X134793020Y-93006216D01*
X134872077Y-92869284D01*
X134913000Y-92716557D01*
X134913000Y-92558443D01*
X140712000Y-92558443D01*
X140712000Y-92716557D01*
X140739526Y-92819283D01*
X140752923Y-92869283D01*
X140752926Y-92869290D01*
X140831975Y-93006209D01*
X140831979Y-93006214D01*
X140831980Y-93006216D01*
X140943784Y-93118020D01*
X140943786Y-93118021D01*
X140943790Y-93118024D01*
X141025887Y-93165422D01*
X141080716Y-93197077D01*
X141233443Y-93238000D01*
X141233445Y-93238000D01*
X141391555Y-93238000D01*
X141391557Y-93238000D01*
X141544284Y-93197077D01*
X141681216Y-93118020D01*
X141793020Y-93006216D01*
X141872077Y-92869284D01*
X141913000Y-92716557D01*
X141913000Y-92558443D01*
X144212000Y-92558443D01*
X144212000Y-92716557D01*
X144239526Y-92819283D01*
X144252923Y-92869283D01*
X144252926Y-92869290D01*
X144331975Y-93006209D01*
X144331979Y-93006214D01*
X144331980Y-93006216D01*
X144443784Y-93118020D01*
X144443786Y-93118021D01*
X144443790Y-93118024D01*
X144525887Y-93165422D01*
X144580716Y-93197077D01*
X144733443Y-93238000D01*
X144733445Y-93238000D01*
X144891555Y-93238000D01*
X144891557Y-93238000D01*
X145044284Y-93197077D01*
X145181216Y-93118020D01*
X145293020Y-93006216D01*
X145372077Y-92869284D01*
X145413000Y-92716557D01*
X145413000Y-92558443D01*
X145372077Y-92405716D01*
X145329309Y-92331639D01*
X145293024Y-92268790D01*
X145293018Y-92268782D01*
X145181217Y-92156981D01*
X145181209Y-92156975D01*
X145044290Y-92077926D01*
X145044286Y-92077924D01*
X145044284Y-92077923D01*
X144891557Y-92037000D01*
X144733443Y-92037000D01*
X144580716Y-92077923D01*
X144580709Y-92077926D01*
X144443790Y-92156975D01*
X144443782Y-92156981D01*
X144331981Y-92268782D01*
X144331975Y-92268790D01*
X144252926Y-92405709D01*
X144252923Y-92405716D01*
X144212000Y-92558443D01*
X141913000Y-92558443D01*
X141872077Y-92405716D01*
X141829309Y-92331639D01*
X141793024Y-92268790D01*
X141793018Y-92268782D01*
X141681217Y-92156981D01*
X141681209Y-92156975D01*
X141544290Y-92077926D01*
X141544286Y-92077924D01*
X141544284Y-92077923D01*
X141391557Y-92037000D01*
X141233443Y-92037000D01*
X141080716Y-92077923D01*
X141080709Y-92077926D01*
X140943790Y-92156975D01*
X140943782Y-92156981D01*
X140831981Y-92268782D01*
X140831975Y-92268790D01*
X140752926Y-92405709D01*
X140752923Y-92405716D01*
X140712000Y-92558443D01*
X134913000Y-92558443D01*
X134872077Y-92405716D01*
X134829309Y-92331639D01*
X134793024Y-92268790D01*
X134793018Y-92268782D01*
X134681217Y-92156981D01*
X134681209Y-92156975D01*
X134544290Y-92077926D01*
X134544286Y-92077924D01*
X134544284Y-92077923D01*
X134391557Y-92037000D01*
X134233443Y-92037000D01*
X134080716Y-92077923D01*
X134080709Y-92077926D01*
X133943790Y-92156975D01*
X133943782Y-92156981D01*
X133831981Y-92268782D01*
X133831975Y-92268790D01*
X133752926Y-92405709D01*
X133752923Y-92405716D01*
X133712000Y-92558443D01*
X131413000Y-92558443D01*
X131372077Y-92405716D01*
X131329309Y-92331639D01*
X131293024Y-92268790D01*
X131293018Y-92268782D01*
X131181217Y-92156981D01*
X131181209Y-92156975D01*
X131044290Y-92077926D01*
X131044286Y-92077924D01*
X131044284Y-92077923D01*
X130891557Y-92037000D01*
X130733443Y-92037000D01*
X130580716Y-92077923D01*
X130580709Y-92077926D01*
X130443790Y-92156975D01*
X130443782Y-92156981D01*
X130331981Y-92268782D01*
X130331975Y-92268790D01*
X130252926Y-92405709D01*
X130252923Y-92405716D01*
X130212000Y-92558443D01*
X124413000Y-92558443D01*
X124372077Y-92405716D01*
X124329309Y-92331639D01*
X124293024Y-92268790D01*
X124293018Y-92268782D01*
X124181217Y-92156981D01*
X124181209Y-92156975D01*
X124044290Y-92077926D01*
X124044286Y-92077924D01*
X124044284Y-92077923D01*
X123891557Y-92037000D01*
X123733443Y-92037000D01*
X123580716Y-92077923D01*
X123580709Y-92077926D01*
X123443790Y-92156975D01*
X123443782Y-92156981D01*
X123331981Y-92268782D01*
X123331975Y-92268790D01*
X123252926Y-92405709D01*
X123252923Y-92405716D01*
X123212000Y-92558443D01*
X120913000Y-92558443D01*
X120872077Y-92405716D01*
X120829309Y-92331639D01*
X120793024Y-92268790D01*
X120793018Y-92268782D01*
X120681217Y-92156981D01*
X120681209Y-92156975D01*
X120544290Y-92077926D01*
X120544286Y-92077924D01*
X120544284Y-92077923D01*
X120391557Y-92037000D01*
X120233443Y-92037000D01*
X120080716Y-92077923D01*
X120080709Y-92077926D01*
X119943790Y-92156975D01*
X119943782Y-92156981D01*
X119831981Y-92268782D01*
X119831975Y-92268790D01*
X119752926Y-92405709D01*
X119752923Y-92405716D01*
X119712000Y-92558443D01*
X113913000Y-92558443D01*
X113872077Y-92405716D01*
X113829309Y-92331639D01*
X113793024Y-92268790D01*
X113793018Y-92268782D01*
X113681217Y-92156981D01*
X113681209Y-92156975D01*
X113544290Y-92077926D01*
X113544286Y-92077924D01*
X113544284Y-92077923D01*
X113391557Y-92037000D01*
X113233443Y-92037000D01*
X113080716Y-92077923D01*
X113080709Y-92077926D01*
X112943790Y-92156975D01*
X112943782Y-92156981D01*
X112831981Y-92268782D01*
X112831975Y-92268790D01*
X112752926Y-92405709D01*
X112752923Y-92405716D01*
X112712000Y-92558443D01*
X110413000Y-92558443D01*
X110372077Y-92405716D01*
X110329309Y-92331639D01*
X110293024Y-92268790D01*
X110293018Y-92268782D01*
X110181217Y-92156981D01*
X110181209Y-92156975D01*
X110044290Y-92077926D01*
X110044286Y-92077924D01*
X110044284Y-92077923D01*
X109891557Y-92037000D01*
X109733443Y-92037000D01*
X109580716Y-92077923D01*
X109580709Y-92077926D01*
X109443790Y-92156975D01*
X109443782Y-92156981D01*
X109331981Y-92268782D01*
X109331975Y-92268790D01*
X109252926Y-92405709D01*
X109252923Y-92405716D01*
X109212000Y-92558443D01*
X103413000Y-92558443D01*
X103413000Y-92508443D01*
X103372077Y-92355716D01*
X103321891Y-92268790D01*
X103293024Y-92218790D01*
X103293018Y-92218782D01*
X103181217Y-92106981D01*
X103181209Y-92106975D01*
X103044290Y-92027926D01*
X103044286Y-92027924D01*
X103044284Y-92027923D01*
X102891557Y-91987000D01*
X102733443Y-91987000D01*
X102580716Y-92027923D01*
X102580709Y-92027926D01*
X102443790Y-92106975D01*
X102443782Y-92106981D01*
X102331981Y-92218782D01*
X102331975Y-92218790D01*
X102252926Y-92355709D01*
X102252923Y-92355716D01*
X102212000Y-92508443D01*
X99913000Y-92508443D01*
X99872077Y-92355716D01*
X99821891Y-92268790D01*
X99793024Y-92218790D01*
X99793018Y-92218782D01*
X99681217Y-92106981D01*
X99681209Y-92106975D01*
X99544290Y-92027926D01*
X99544286Y-92027924D01*
X99544284Y-92027923D01*
X99391557Y-91987000D01*
X99233443Y-91987000D01*
X99080716Y-92027923D01*
X99080709Y-92027926D01*
X98943790Y-92106975D01*
X98943782Y-92106981D01*
X98831981Y-92218782D01*
X98831975Y-92218790D01*
X98752926Y-92355709D01*
X98752923Y-92355716D01*
X98712000Y-92508443D01*
X85913000Y-92508443D01*
X85913000Y-82008443D01*
X98712000Y-82008443D01*
X98712000Y-82166557D01*
X98739526Y-82269283D01*
X98752923Y-82319283D01*
X98752926Y-82319290D01*
X98831975Y-82456209D01*
X98831979Y-82456214D01*
X98831980Y-82456216D01*
X98943784Y-82568020D01*
X98943786Y-82568021D01*
X98943790Y-82568024D01*
X99031721Y-82618790D01*
X99080716Y-82647077D01*
X99233443Y-82688000D01*
X99233445Y-82688000D01*
X99391555Y-82688000D01*
X99391557Y-82688000D01*
X99544284Y-82647077D01*
X99681216Y-82568020D01*
X99793020Y-82456216D01*
X99872077Y-82319284D01*
X99913000Y-82166557D01*
X99913000Y-82008443D01*
X102212000Y-82008443D01*
X102212000Y-82166557D01*
X102239526Y-82269283D01*
X102252923Y-82319283D01*
X102252926Y-82319290D01*
X102331975Y-82456209D01*
X102331979Y-82456214D01*
X102331980Y-82456216D01*
X102443784Y-82568020D01*
X102443786Y-82568021D01*
X102443790Y-82568024D01*
X102531721Y-82618790D01*
X102580716Y-82647077D01*
X102733443Y-82688000D01*
X102733445Y-82688000D01*
X102891555Y-82688000D01*
X102891557Y-82688000D01*
X103044284Y-82647077D01*
X103181216Y-82568020D01*
X103293020Y-82456216D01*
X103372077Y-82319284D01*
X103413000Y-82166557D01*
X103413000Y-82008443D01*
X103399603Y-81958443D01*
X109212000Y-81958443D01*
X109212000Y-82116557D01*
X109249422Y-82256216D01*
X109252923Y-82269283D01*
X109252926Y-82269290D01*
X109331975Y-82406209D01*
X109331979Y-82406214D01*
X109331980Y-82406216D01*
X109443784Y-82518020D01*
X109443786Y-82518021D01*
X109443790Y-82518024D01*
X109530387Y-82568020D01*
X109580716Y-82597077D01*
X109733443Y-82638000D01*
X109733445Y-82638000D01*
X109891555Y-82638000D01*
X109891557Y-82638000D01*
X110044284Y-82597077D01*
X110181216Y-82518020D01*
X110293020Y-82406216D01*
X110372077Y-82269284D01*
X110413000Y-82116557D01*
X110413000Y-81958443D01*
X112712000Y-81958443D01*
X112712000Y-82116557D01*
X112749422Y-82256216D01*
X112752923Y-82269283D01*
X112752926Y-82269290D01*
X112831975Y-82406209D01*
X112831979Y-82406214D01*
X112831980Y-82406216D01*
X112943784Y-82518020D01*
X112943786Y-82518021D01*
X112943790Y-82518024D01*
X113030387Y-82568020D01*
X113080716Y-82597077D01*
X113233443Y-82638000D01*
X113233445Y-82638000D01*
X113391555Y-82638000D01*
X113391557Y-82638000D01*
X113544284Y-82597077D01*
X113681216Y-82518020D01*
X113793020Y-82406216D01*
X113872077Y-82269284D01*
X113913000Y-82116557D01*
X113913000Y-81958443D01*
X113872808Y-81808443D01*
X119712000Y-81808443D01*
X119712000Y-81966557D01*
X119752193Y-82116557D01*
X119752923Y-82119283D01*
X119752926Y-82119290D01*
X119831975Y-82256209D01*
X119831979Y-82256214D01*
X119831980Y-82256216D01*
X119943784Y-82368020D01*
X119943786Y-82368021D01*
X119943790Y-82368024D01*
X120047540Y-82427923D01*
X120080716Y-82447077D01*
X120233443Y-82488000D01*
X120233445Y-82488000D01*
X120391555Y-82488000D01*
X120391557Y-82488000D01*
X120544284Y-82447077D01*
X120681216Y-82368020D01*
X120793020Y-82256216D01*
X120872077Y-82119284D01*
X120913000Y-81966557D01*
X120913000Y-81808443D01*
X123212000Y-81808443D01*
X123212000Y-81966557D01*
X123252193Y-82116557D01*
X123252923Y-82119283D01*
X123252926Y-82119290D01*
X123331975Y-82256209D01*
X123331979Y-82256214D01*
X123331980Y-82256216D01*
X123443784Y-82368020D01*
X123443786Y-82368021D01*
X123443790Y-82368024D01*
X123547540Y-82427923D01*
X123580716Y-82447077D01*
X123733443Y-82488000D01*
X123733445Y-82488000D01*
X123891555Y-82488000D01*
X123891557Y-82488000D01*
X124044284Y-82447077D01*
X124181216Y-82368020D01*
X124293020Y-82256216D01*
X124372077Y-82119284D01*
X124413000Y-81966557D01*
X124413000Y-81808443D01*
X130212000Y-81808443D01*
X130212000Y-81966557D01*
X130252193Y-82116557D01*
X130252923Y-82119283D01*
X130252926Y-82119290D01*
X130331975Y-82256209D01*
X130331979Y-82256214D01*
X130331980Y-82256216D01*
X130443784Y-82368020D01*
X130443786Y-82368021D01*
X130443790Y-82368024D01*
X130547540Y-82427923D01*
X130580716Y-82447077D01*
X130733443Y-82488000D01*
X130733445Y-82488000D01*
X130891555Y-82488000D01*
X130891557Y-82488000D01*
X131044284Y-82447077D01*
X131181216Y-82368020D01*
X131293020Y-82256216D01*
X131372077Y-82119284D01*
X131413000Y-81966557D01*
X131413000Y-81808443D01*
X133712000Y-81808443D01*
X133712000Y-81966557D01*
X133752193Y-82116557D01*
X133752923Y-82119283D01*
X133752926Y-82119290D01*
X133831975Y-82256209D01*
X133831979Y-82256214D01*
X133831980Y-82256216D01*
X133943784Y-82368020D01*
X133943786Y-82368021D01*
X133943790Y-82368024D01*
X134047540Y-82427923D01*
X134080716Y-82447077D01*
X134233443Y-82488000D01*
X134233445Y-82488000D01*
X134391555Y-82488000D01*
X134391557Y-82488000D01*
X134544284Y-82447077D01*
X134681216Y-82368020D01*
X134793020Y-82256216D01*
X134872077Y-82119284D01*
X134913000Y-81966557D01*
X134913000Y-81808443D01*
X140712000Y-81808443D01*
X140712000Y-81966557D01*
X140752193Y-82116557D01*
X140752923Y-82119283D01*
X140752926Y-82119290D01*
X140831975Y-82256209D01*
X140831979Y-82256214D01*
X140831980Y-82256216D01*
X140943784Y-82368020D01*
X140943786Y-82368021D01*
X140943790Y-82368024D01*
X141047540Y-82427923D01*
X141080716Y-82447077D01*
X141233443Y-82488000D01*
X141233445Y-82488000D01*
X141391555Y-82488000D01*
X141391557Y-82488000D01*
X141544284Y-82447077D01*
X141681216Y-82368020D01*
X141793020Y-82256216D01*
X141872077Y-82119284D01*
X141913000Y-81966557D01*
X141913000Y-81808443D01*
X144212000Y-81808443D01*
X144212000Y-81966557D01*
X144252193Y-82116557D01*
X144252923Y-82119283D01*
X144252926Y-82119290D01*
X144331975Y-82256209D01*
X144331979Y-82256214D01*
X144331980Y-82256216D01*
X144443784Y-82368020D01*
X144443786Y-82368021D01*
X144443790Y-82368024D01*
X144547540Y-82427923D01*
X144580716Y-82447077D01*
X144733443Y-82488000D01*
X144733445Y-82488000D01*
X144891555Y-82488000D01*
X144891557Y-82488000D01*
X145044284Y-82447077D01*
X145181216Y-82368020D01*
X145293020Y-82256216D01*
X145372077Y-82119284D01*
X145413000Y-81966557D01*
X145413000Y-81808443D01*
X145372077Y-81655716D01*
X145315073Y-81556981D01*
X145293024Y-81518790D01*
X145293018Y-81518782D01*
X145181217Y-81406981D01*
X145181209Y-81406975D01*
X145044290Y-81327926D01*
X145044286Y-81327924D01*
X145044284Y-81327923D01*
X144891557Y-81287000D01*
X144733443Y-81287000D01*
X144580716Y-81327923D01*
X144580709Y-81327926D01*
X144443790Y-81406975D01*
X144443782Y-81406981D01*
X144331981Y-81518782D01*
X144331975Y-81518790D01*
X144252926Y-81655709D01*
X144252923Y-81655716D01*
X144212000Y-81808443D01*
X141913000Y-81808443D01*
X141872077Y-81655716D01*
X141815073Y-81556981D01*
X141793024Y-81518790D01*
X141793018Y-81518782D01*
X141681217Y-81406981D01*
X141681209Y-81406975D01*
X141544290Y-81327926D01*
X141544286Y-81327924D01*
X141544284Y-81327923D01*
X141391557Y-81287000D01*
X141233443Y-81287000D01*
X141080716Y-81327923D01*
X141080709Y-81327926D01*
X140943790Y-81406975D01*
X140943782Y-81406981D01*
X140831981Y-81518782D01*
X140831975Y-81518790D01*
X140752926Y-81655709D01*
X140752923Y-81655716D01*
X140712000Y-81808443D01*
X134913000Y-81808443D01*
X134872077Y-81655716D01*
X134815073Y-81556981D01*
X134793024Y-81518790D01*
X134793018Y-81518782D01*
X134681217Y-81406981D01*
X134681209Y-81406975D01*
X134544290Y-81327926D01*
X134544286Y-81327924D01*
X134544284Y-81327923D01*
X134391557Y-81287000D01*
X134233443Y-81287000D01*
X134080716Y-81327923D01*
X134080709Y-81327926D01*
X133943790Y-81406975D01*
X133943782Y-81406981D01*
X133831981Y-81518782D01*
X133831975Y-81518790D01*
X133752926Y-81655709D01*
X133752923Y-81655716D01*
X133712000Y-81808443D01*
X131413000Y-81808443D01*
X131372077Y-81655716D01*
X131315073Y-81556981D01*
X131293024Y-81518790D01*
X131293018Y-81518782D01*
X131181217Y-81406981D01*
X131181209Y-81406975D01*
X131044290Y-81327926D01*
X131044286Y-81327924D01*
X131044284Y-81327923D01*
X130891557Y-81287000D01*
X130733443Y-81287000D01*
X130580716Y-81327923D01*
X130580709Y-81327926D01*
X130443790Y-81406975D01*
X130443782Y-81406981D01*
X130331981Y-81518782D01*
X130331975Y-81518790D01*
X130252926Y-81655709D01*
X130252923Y-81655716D01*
X130212000Y-81808443D01*
X124413000Y-81808443D01*
X124372077Y-81655716D01*
X124315073Y-81556981D01*
X124293024Y-81518790D01*
X124293018Y-81518782D01*
X124181217Y-81406981D01*
X124181209Y-81406975D01*
X124044290Y-81327926D01*
X124044286Y-81327924D01*
X124044284Y-81327923D01*
X123891557Y-81287000D01*
X123733443Y-81287000D01*
X123580716Y-81327923D01*
X123580709Y-81327926D01*
X123443790Y-81406975D01*
X123443782Y-81406981D01*
X123331981Y-81518782D01*
X123331975Y-81518790D01*
X123252926Y-81655709D01*
X123252923Y-81655716D01*
X123212000Y-81808443D01*
X120913000Y-81808443D01*
X120872077Y-81655716D01*
X120815073Y-81556981D01*
X120793024Y-81518790D01*
X120793018Y-81518782D01*
X120681217Y-81406981D01*
X120681209Y-81406975D01*
X120544290Y-81327926D01*
X120544286Y-81327924D01*
X120544284Y-81327923D01*
X120391557Y-81287000D01*
X120233443Y-81287000D01*
X120080716Y-81327923D01*
X120080709Y-81327926D01*
X119943790Y-81406975D01*
X119943782Y-81406981D01*
X119831981Y-81518782D01*
X119831975Y-81518790D01*
X119752926Y-81655709D01*
X119752923Y-81655716D01*
X119712000Y-81808443D01*
X113872808Y-81808443D01*
X113872077Y-81805716D01*
X113821891Y-81718790D01*
X113793024Y-81668790D01*
X113793018Y-81668782D01*
X113681217Y-81556981D01*
X113681209Y-81556975D01*
X113544290Y-81477926D01*
X113544286Y-81477924D01*
X113544284Y-81477923D01*
X113391557Y-81437000D01*
X113233443Y-81437000D01*
X113080716Y-81477923D01*
X113080709Y-81477926D01*
X112943790Y-81556975D01*
X112943782Y-81556981D01*
X112831981Y-81668782D01*
X112831975Y-81668790D01*
X112752926Y-81805709D01*
X112752923Y-81805716D01*
X112712000Y-81958443D01*
X110413000Y-81958443D01*
X110372077Y-81805716D01*
X110321891Y-81718790D01*
X110293024Y-81668790D01*
X110293018Y-81668782D01*
X110181217Y-81556981D01*
X110181209Y-81556975D01*
X110044290Y-81477926D01*
X110044286Y-81477924D01*
X110044284Y-81477923D01*
X109891557Y-81437000D01*
X109733443Y-81437000D01*
X109580716Y-81477923D01*
X109580709Y-81477926D01*
X109443790Y-81556975D01*
X109443782Y-81556981D01*
X109331981Y-81668782D01*
X109331975Y-81668790D01*
X109252926Y-81805709D01*
X109252923Y-81805716D01*
X109212000Y-81958443D01*
X103399603Y-81958443D01*
X103372077Y-81855716D01*
X103351772Y-81820546D01*
X103293024Y-81718790D01*
X103293018Y-81718782D01*
X103181217Y-81606981D01*
X103181209Y-81606975D01*
X103044290Y-81527926D01*
X103044286Y-81527924D01*
X103044284Y-81527923D01*
X102891557Y-81487000D01*
X102733443Y-81487000D01*
X102580716Y-81527923D01*
X102580709Y-81527926D01*
X102443790Y-81606975D01*
X102443782Y-81606981D01*
X102331981Y-81718782D01*
X102331975Y-81718790D01*
X102252926Y-81855709D01*
X102252924Y-81855714D01*
X102252923Y-81855716D01*
X102212000Y-82008443D01*
X99913000Y-82008443D01*
X99872077Y-81855716D01*
X99851772Y-81820546D01*
X99793024Y-81718790D01*
X99793018Y-81718782D01*
X99681217Y-81606981D01*
X99681209Y-81606975D01*
X99544290Y-81527926D01*
X99544286Y-81527924D01*
X99544284Y-81527923D01*
X99391557Y-81487000D01*
X99233443Y-81487000D01*
X99080716Y-81527923D01*
X99080709Y-81527926D01*
X98943790Y-81606975D01*
X98943782Y-81606981D01*
X98831981Y-81718782D01*
X98831975Y-81718790D01*
X98752926Y-81855709D01*
X98752924Y-81855714D01*
X98752923Y-81855716D01*
X98712000Y-82008443D01*
X85913000Y-82008443D01*
X85913000Y-71558443D01*
X98712000Y-71558443D01*
X98712000Y-71716557D01*
X98744919Y-71839410D01*
X98752923Y-71869283D01*
X98752926Y-71869290D01*
X98831975Y-72006209D01*
X98831979Y-72006214D01*
X98831980Y-72006216D01*
X98943784Y-72118020D01*
X98943786Y-72118021D01*
X98943790Y-72118024D01*
X99039008Y-72172997D01*
X99080716Y-72197077D01*
X99233443Y-72238000D01*
X99233445Y-72238000D01*
X99391555Y-72238000D01*
X99391557Y-72238000D01*
X99544284Y-72197077D01*
X99681216Y-72118020D01*
X99793020Y-72006216D01*
X99872077Y-71869284D01*
X99913000Y-71716557D01*
X99913000Y-71558443D01*
X102212000Y-71558443D01*
X102212000Y-71716557D01*
X102244919Y-71839410D01*
X102252923Y-71869283D01*
X102252926Y-71869290D01*
X102331975Y-72006209D01*
X102331979Y-72006214D01*
X102331980Y-72006216D01*
X102443784Y-72118020D01*
X102443786Y-72118021D01*
X102443790Y-72118024D01*
X102539008Y-72172997D01*
X102580716Y-72197077D01*
X102733443Y-72238000D01*
X102733445Y-72238000D01*
X102891555Y-72238000D01*
X102891557Y-72238000D01*
X103044284Y-72197077D01*
X103181216Y-72118020D01*
X103293020Y-72006216D01*
X103372077Y-71869284D01*
X103413000Y-71716557D01*
X103413000Y-71558443D01*
X109222000Y-71558443D01*
X109222000Y-71716557D01*
X109254919Y-71839410D01*
X109262923Y-71869283D01*
X109262926Y-71869290D01*
X109341975Y-72006209D01*
X109341979Y-72006214D01*
X109341980Y-72006216D01*
X109453784Y-72118020D01*
X109453786Y-72118021D01*
X109453790Y-72118024D01*
X109549008Y-72172997D01*
X109590716Y-72197077D01*
X109743443Y-72238000D01*
X109743445Y-72238000D01*
X109901555Y-72238000D01*
X109901557Y-72238000D01*
X110054284Y-72197077D01*
X110191216Y-72118020D01*
X110303020Y-72006216D01*
X110382077Y-71869284D01*
X110423000Y-71716557D01*
X110423000Y-71558443D01*
X112722000Y-71558443D01*
X112722000Y-71716557D01*
X112754919Y-71839410D01*
X112762923Y-71869283D01*
X112762926Y-71869290D01*
X112841975Y-72006209D01*
X112841979Y-72006214D01*
X112841980Y-72006216D01*
X112953784Y-72118020D01*
X112953786Y-72118021D01*
X112953790Y-72118024D01*
X113049008Y-72172997D01*
X113090716Y-72197077D01*
X113243443Y-72238000D01*
X113243445Y-72238000D01*
X113401555Y-72238000D01*
X113401557Y-72238000D01*
X113554284Y-72197077D01*
X113691216Y-72118020D01*
X113803020Y-72006216D01*
X113882077Y-71869284D01*
X113923000Y-71716557D01*
X113923000Y-71558443D01*
X119712000Y-71558443D01*
X119712000Y-71716557D01*
X119744919Y-71839410D01*
X119752923Y-71869283D01*
X119752926Y-71869290D01*
X119831975Y-72006209D01*
X119831979Y-72006214D01*
X119831980Y-72006216D01*
X119943784Y-72118020D01*
X119943786Y-72118021D01*
X119943790Y-72118024D01*
X120039008Y-72172997D01*
X120080716Y-72197077D01*
X120233443Y-72238000D01*
X120233445Y-72238000D01*
X120391555Y-72238000D01*
X120391557Y-72238000D01*
X120544284Y-72197077D01*
X120681216Y-72118020D01*
X120793020Y-72006216D01*
X120872077Y-71869284D01*
X120913000Y-71716557D01*
X120913000Y-71558443D01*
X123212000Y-71558443D01*
X123212000Y-71716557D01*
X123244919Y-71839410D01*
X123252923Y-71869283D01*
X123252926Y-71869290D01*
X123331975Y-72006209D01*
X123331979Y-72006214D01*
X123331980Y-72006216D01*
X123443784Y-72118020D01*
X123443786Y-72118021D01*
X123443790Y-72118024D01*
X123539008Y-72172997D01*
X123580716Y-72197077D01*
X123733443Y-72238000D01*
X123733445Y-72238000D01*
X123891555Y-72238000D01*
X123891557Y-72238000D01*
X124044284Y-72197077D01*
X124181216Y-72118020D01*
X124293020Y-72006216D01*
X124372077Y-71869284D01*
X124413000Y-71716557D01*
X124413000Y-71558443D01*
X130212000Y-71558443D01*
X130212000Y-71716557D01*
X130244919Y-71839410D01*
X130252923Y-71869283D01*
X130252926Y-71869290D01*
X130331975Y-72006209D01*
X130331979Y-72006214D01*
X130331980Y-72006216D01*
X130443784Y-72118020D01*
X130443786Y-72118021D01*
X130443790Y-72118024D01*
X130539008Y-72172997D01*
X130580716Y-72197077D01*
X130733443Y-72238000D01*
X130733445Y-72238000D01*
X130891555Y-72238000D01*
X130891557Y-72238000D01*
X131044284Y-72197077D01*
X131181216Y-72118020D01*
X131293020Y-72006216D01*
X131372077Y-71869284D01*
X131413000Y-71716557D01*
X131413000Y-71558443D01*
X133712000Y-71558443D01*
X133712000Y-71716557D01*
X133744919Y-71839410D01*
X133752923Y-71869283D01*
X133752926Y-71869290D01*
X133831975Y-72006209D01*
X133831979Y-72006214D01*
X133831980Y-72006216D01*
X133943784Y-72118020D01*
X133943786Y-72118021D01*
X133943790Y-72118024D01*
X134039008Y-72172997D01*
X134080716Y-72197077D01*
X134233443Y-72238000D01*
X134233445Y-72238000D01*
X134391555Y-72238000D01*
X134391557Y-72238000D01*
X134544284Y-72197077D01*
X134681216Y-72118020D01*
X134793020Y-72006216D01*
X134872077Y-71869284D01*
X134913000Y-71716557D01*
X134913000Y-71558443D01*
X140712000Y-71558443D01*
X140712000Y-71716557D01*
X140744919Y-71839410D01*
X140752923Y-71869283D01*
X140752926Y-71869290D01*
X140831975Y-72006209D01*
X140831979Y-72006214D01*
X140831980Y-72006216D01*
X140943784Y-72118020D01*
X140943786Y-72118021D01*
X140943790Y-72118024D01*
X141039008Y-72172997D01*
X141080716Y-72197077D01*
X141233443Y-72238000D01*
X141233445Y-72238000D01*
X141391555Y-72238000D01*
X141391557Y-72238000D01*
X141544284Y-72197077D01*
X141681216Y-72118020D01*
X141793020Y-72006216D01*
X141872077Y-71869284D01*
X141913000Y-71716557D01*
X141913000Y-71558443D01*
X144212000Y-71558443D01*
X144212000Y-71716557D01*
X144244919Y-71839410D01*
X144252923Y-71869283D01*
X144252926Y-71869290D01*
X144331975Y-72006209D01*
X144331979Y-72006214D01*
X144331980Y-72006216D01*
X144443784Y-72118020D01*
X144443786Y-72118021D01*
X144443790Y-72118024D01*
X144539008Y-72172997D01*
X144580716Y-72197077D01*
X144733443Y-72238000D01*
X144733445Y-72238000D01*
X144891555Y-72238000D01*
X144891557Y-72238000D01*
X145044284Y-72197077D01*
X145181216Y-72118020D01*
X145293020Y-72006216D01*
X145372077Y-71869284D01*
X145413000Y-71716557D01*
X145413000Y-71558443D01*
X145372077Y-71405716D01*
X145311384Y-71300591D01*
X145293024Y-71268790D01*
X145293018Y-71268782D01*
X145181217Y-71156981D01*
X145181209Y-71156975D01*
X145044290Y-71077926D01*
X145044286Y-71077924D01*
X145044284Y-71077923D01*
X144891557Y-71037000D01*
X144733443Y-71037000D01*
X144580716Y-71077923D01*
X144580709Y-71077926D01*
X144443790Y-71156975D01*
X144443782Y-71156981D01*
X144331981Y-71268782D01*
X144331975Y-71268790D01*
X144252926Y-71405709D01*
X144252923Y-71405716D01*
X144212000Y-71558443D01*
X141913000Y-71558443D01*
X141872077Y-71405716D01*
X141811384Y-71300591D01*
X141793024Y-71268790D01*
X141793018Y-71268782D01*
X141681217Y-71156981D01*
X141681209Y-71156975D01*
X141544290Y-71077926D01*
X141544286Y-71077924D01*
X141544284Y-71077923D01*
X141391557Y-71037000D01*
X141233443Y-71037000D01*
X141080716Y-71077923D01*
X141080709Y-71077926D01*
X140943790Y-71156975D01*
X140943782Y-71156981D01*
X140831981Y-71268782D01*
X140831975Y-71268790D01*
X140752926Y-71405709D01*
X140752923Y-71405716D01*
X140712000Y-71558443D01*
X134913000Y-71558443D01*
X134872077Y-71405716D01*
X134811384Y-71300591D01*
X134793024Y-71268790D01*
X134793018Y-71268782D01*
X134681217Y-71156981D01*
X134681209Y-71156975D01*
X134544290Y-71077926D01*
X134544286Y-71077924D01*
X134544284Y-71077923D01*
X134391557Y-71037000D01*
X134233443Y-71037000D01*
X134080716Y-71077923D01*
X134080709Y-71077926D01*
X133943790Y-71156975D01*
X133943782Y-71156981D01*
X133831981Y-71268782D01*
X133831975Y-71268790D01*
X133752926Y-71405709D01*
X133752923Y-71405716D01*
X133712000Y-71558443D01*
X131413000Y-71558443D01*
X131372077Y-71405716D01*
X131311384Y-71300591D01*
X131293024Y-71268790D01*
X131293018Y-71268782D01*
X131181217Y-71156981D01*
X131181209Y-71156975D01*
X131044290Y-71077926D01*
X131044286Y-71077924D01*
X131044284Y-71077923D01*
X130891557Y-71037000D01*
X130733443Y-71037000D01*
X130580716Y-71077923D01*
X130580709Y-71077926D01*
X130443790Y-71156975D01*
X130443782Y-71156981D01*
X130331981Y-71268782D01*
X130331975Y-71268790D01*
X130252926Y-71405709D01*
X130252923Y-71405716D01*
X130212000Y-71558443D01*
X124413000Y-71558443D01*
X124372077Y-71405716D01*
X124311384Y-71300591D01*
X124293024Y-71268790D01*
X124293018Y-71268782D01*
X124181217Y-71156981D01*
X124181209Y-71156975D01*
X124044290Y-71077926D01*
X124044286Y-71077924D01*
X124044284Y-71077923D01*
X123891557Y-71037000D01*
X123733443Y-71037000D01*
X123580716Y-71077923D01*
X123580709Y-71077926D01*
X123443790Y-71156975D01*
X123443782Y-71156981D01*
X123331981Y-71268782D01*
X123331975Y-71268790D01*
X123252926Y-71405709D01*
X123252923Y-71405716D01*
X123212000Y-71558443D01*
X120913000Y-71558443D01*
X120872077Y-71405716D01*
X120811384Y-71300591D01*
X120793024Y-71268790D01*
X120793018Y-71268782D01*
X120681217Y-71156981D01*
X120681209Y-71156975D01*
X120544290Y-71077926D01*
X120544286Y-71077924D01*
X120544284Y-71077923D01*
X120391557Y-71037000D01*
X120233443Y-71037000D01*
X120080716Y-71077923D01*
X120080709Y-71077926D01*
X119943790Y-71156975D01*
X119943782Y-71156981D01*
X119831981Y-71268782D01*
X119831975Y-71268790D01*
X119752926Y-71405709D01*
X119752923Y-71405716D01*
X119712000Y-71558443D01*
X113923000Y-71558443D01*
X113882077Y-71405716D01*
X113821384Y-71300591D01*
X113803024Y-71268790D01*
X113803018Y-71268782D01*
X113691217Y-71156981D01*
X113691209Y-71156975D01*
X113554290Y-71077926D01*
X113554286Y-71077924D01*
X113554284Y-71077923D01*
X113401557Y-71037000D01*
X113243443Y-71037000D01*
X113090716Y-71077923D01*
X113090709Y-71077926D01*
X112953790Y-71156975D01*
X112953782Y-71156981D01*
X112841981Y-71268782D01*
X112841975Y-71268790D01*
X112762926Y-71405709D01*
X112762923Y-71405716D01*
X112722000Y-71558443D01*
X110423000Y-71558443D01*
X110382077Y-71405716D01*
X110321384Y-71300591D01*
X110303024Y-71268790D01*
X110303018Y-71268782D01*
X110191217Y-71156981D01*
X110191209Y-71156975D01*
X110054290Y-71077926D01*
X110054286Y-71077924D01*
X110054284Y-71077923D01*
X109901557Y-71037000D01*
X109743443Y-71037000D01*
X109590716Y-71077923D01*
X109590709Y-71077926D01*
X109453790Y-71156975D01*
X109453782Y-71156981D01*
X109341981Y-71268782D01*
X109341975Y-71268790D01*
X109262926Y-71405709D01*
X109262923Y-71405716D01*
X109222000Y-71558443D01*
X103413000Y-71558443D01*
X103372077Y-71405716D01*
X103311384Y-71300591D01*
X103293024Y-71268790D01*
X103293018Y-71268782D01*
X103181217Y-71156981D01*
X103181209Y-71156975D01*
X103044290Y-71077926D01*
X103044286Y-71077924D01*
X103044284Y-71077923D01*
X102891557Y-71037000D01*
X102733443Y-71037000D01*
X102580716Y-71077923D01*
X102580709Y-71077926D01*
X102443790Y-71156975D01*
X102443782Y-71156981D01*
X102331981Y-71268782D01*
X102331975Y-71268790D01*
X102252926Y-71405709D01*
X102252923Y-71405716D01*
X102212000Y-71558443D01*
X99913000Y-71558443D01*
X99872077Y-71405716D01*
X99811384Y-71300591D01*
X99793024Y-71268790D01*
X99793018Y-71268782D01*
X99681217Y-71156981D01*
X99681209Y-71156975D01*
X99544290Y-71077926D01*
X99544286Y-71077924D01*
X99544284Y-71077923D01*
X99391557Y-71037000D01*
X99233443Y-71037000D01*
X99080716Y-71077923D01*
X99080709Y-71077926D01*
X98943790Y-71156975D01*
X98943782Y-71156981D01*
X98831981Y-71268782D01*
X98831975Y-71268790D01*
X98752926Y-71405709D01*
X98752923Y-71405716D01*
X98712000Y-71558443D01*
X85913000Y-71558443D01*
X85913000Y-60983443D01*
X98712000Y-60983443D01*
X98712000Y-61141557D01*
X98746225Y-61269284D01*
X98752923Y-61294283D01*
X98752926Y-61294290D01*
X98831975Y-61431209D01*
X98831979Y-61431214D01*
X98831980Y-61431216D01*
X98943784Y-61543020D01*
X98943786Y-61543021D01*
X98943790Y-61543024D01*
X99069191Y-61615423D01*
X99080716Y-61622077D01*
X99233443Y-61663000D01*
X99233445Y-61663000D01*
X99391555Y-61663000D01*
X99391557Y-61663000D01*
X99544284Y-61622077D01*
X99681216Y-61543020D01*
X99793020Y-61431216D01*
X99872077Y-61294284D01*
X99913000Y-61141557D01*
X99913000Y-60983443D01*
X102212000Y-60983443D01*
X102212000Y-61141557D01*
X102246225Y-61269284D01*
X102252923Y-61294283D01*
X102252926Y-61294290D01*
X102331975Y-61431209D01*
X102331979Y-61431214D01*
X102331980Y-61431216D01*
X102443784Y-61543020D01*
X102443786Y-61543021D01*
X102443790Y-61543024D01*
X102569191Y-61615423D01*
X102580716Y-61622077D01*
X102733443Y-61663000D01*
X102733445Y-61663000D01*
X102891555Y-61663000D01*
X102891557Y-61663000D01*
X103044284Y-61622077D01*
X103181216Y-61543020D01*
X103293020Y-61431216D01*
X103372077Y-61294284D01*
X103413000Y-61141557D01*
X103413000Y-60983443D01*
X109212000Y-60983443D01*
X109212000Y-61141557D01*
X109246225Y-61269284D01*
X109252923Y-61294283D01*
X109252926Y-61294290D01*
X109331975Y-61431209D01*
X109331979Y-61431214D01*
X109331980Y-61431216D01*
X109443784Y-61543020D01*
X109443786Y-61543021D01*
X109443790Y-61543024D01*
X109569191Y-61615423D01*
X109580716Y-61622077D01*
X109733443Y-61663000D01*
X109733445Y-61663000D01*
X109891555Y-61663000D01*
X109891557Y-61663000D01*
X110044284Y-61622077D01*
X110181216Y-61543020D01*
X110293020Y-61431216D01*
X110372077Y-61294284D01*
X110413000Y-61141557D01*
X110413000Y-60983443D01*
X112712000Y-60983443D01*
X112712000Y-61141557D01*
X112746225Y-61269284D01*
X112752923Y-61294283D01*
X112752926Y-61294290D01*
X112831975Y-61431209D01*
X112831979Y-61431214D01*
X112831980Y-61431216D01*
X112943784Y-61543020D01*
X112943786Y-61543021D01*
X112943790Y-61543024D01*
X113069191Y-61615423D01*
X113080716Y-61622077D01*
X113233443Y-61663000D01*
X113233445Y-61663000D01*
X113391555Y-61663000D01*
X113391557Y-61663000D01*
X113544284Y-61622077D01*
X113681216Y-61543020D01*
X113793020Y-61431216D01*
X113872077Y-61294284D01*
X113913000Y-61141557D01*
X113913000Y-60983443D01*
X113906301Y-60958443D01*
X119712000Y-60958443D01*
X119712000Y-61116557D01*
X119718699Y-61141556D01*
X119752923Y-61269283D01*
X119752926Y-61269290D01*
X119831975Y-61406209D01*
X119831979Y-61406214D01*
X119831980Y-61406216D01*
X119943784Y-61518020D01*
X119943786Y-61518021D01*
X119943790Y-61518024D01*
X120041611Y-61574500D01*
X120080716Y-61597077D01*
X120233443Y-61638000D01*
X120233445Y-61638000D01*
X120391555Y-61638000D01*
X120391557Y-61638000D01*
X120544284Y-61597077D01*
X120681216Y-61518020D01*
X120793020Y-61406216D01*
X120872077Y-61269284D01*
X120913000Y-61116557D01*
X120913000Y-60958443D01*
X123212000Y-60958443D01*
X123212000Y-61116557D01*
X123218699Y-61141556D01*
X123252923Y-61269283D01*
X123252926Y-61269290D01*
X123331975Y-61406209D01*
X123331979Y-61406214D01*
X123331980Y-61406216D01*
X123443784Y-61518020D01*
X123443786Y-61518021D01*
X123443790Y-61518024D01*
X123541611Y-61574500D01*
X123580716Y-61597077D01*
X123733443Y-61638000D01*
X123733445Y-61638000D01*
X123891555Y-61638000D01*
X123891557Y-61638000D01*
X124044284Y-61597077D01*
X124181216Y-61518020D01*
X124293020Y-61406216D01*
X124372077Y-61269284D01*
X124413000Y-61116557D01*
X124413000Y-60983443D01*
X130212000Y-60983443D01*
X130212000Y-61141557D01*
X130246225Y-61269284D01*
X130252923Y-61294283D01*
X130252926Y-61294290D01*
X130331975Y-61431209D01*
X130331979Y-61431214D01*
X130331980Y-61431216D01*
X130443784Y-61543020D01*
X130443786Y-61543021D01*
X130443790Y-61543024D01*
X130569191Y-61615423D01*
X130580716Y-61622077D01*
X130733443Y-61663000D01*
X130733445Y-61663000D01*
X130891555Y-61663000D01*
X130891557Y-61663000D01*
X131044284Y-61622077D01*
X131181216Y-61543020D01*
X131293020Y-61431216D01*
X131372077Y-61294284D01*
X131413000Y-61141557D01*
X131413000Y-60983443D01*
X133712000Y-60983443D01*
X133712000Y-61141557D01*
X133746225Y-61269284D01*
X133752923Y-61294283D01*
X133752926Y-61294290D01*
X133831975Y-61431209D01*
X133831979Y-61431214D01*
X133831980Y-61431216D01*
X133943784Y-61543020D01*
X133943786Y-61543021D01*
X133943790Y-61543024D01*
X134069191Y-61615423D01*
X134080716Y-61622077D01*
X134233443Y-61663000D01*
X134233445Y-61663000D01*
X134391555Y-61663000D01*
X134391557Y-61663000D01*
X134544284Y-61622077D01*
X134681216Y-61543020D01*
X134793020Y-61431216D01*
X134872077Y-61294284D01*
X134913000Y-61141557D01*
X134913000Y-60983443D01*
X134906301Y-60958443D01*
X140712000Y-60958443D01*
X140712000Y-61116557D01*
X140718699Y-61141556D01*
X140752923Y-61269283D01*
X140752926Y-61269290D01*
X140831975Y-61406209D01*
X140831979Y-61406214D01*
X140831980Y-61406216D01*
X140943784Y-61518020D01*
X140943786Y-61518021D01*
X140943790Y-61518024D01*
X141041611Y-61574500D01*
X141080716Y-61597077D01*
X141233443Y-61638000D01*
X141233445Y-61638000D01*
X141391555Y-61638000D01*
X141391557Y-61638000D01*
X141544284Y-61597077D01*
X141681216Y-61518020D01*
X141793020Y-61406216D01*
X141872077Y-61269284D01*
X141913000Y-61116557D01*
X141913000Y-60958443D01*
X144212000Y-60958443D01*
X144212000Y-61116557D01*
X144218699Y-61141556D01*
X144252923Y-61269283D01*
X144252926Y-61269290D01*
X144331975Y-61406209D01*
X144331979Y-61406214D01*
X144331980Y-61406216D01*
X144443784Y-61518020D01*
X144443786Y-61518021D01*
X144443790Y-61518024D01*
X144541611Y-61574500D01*
X144580716Y-61597077D01*
X144733443Y-61638000D01*
X144733445Y-61638000D01*
X144891555Y-61638000D01*
X144891557Y-61638000D01*
X145044284Y-61597077D01*
X145181216Y-61518020D01*
X145293020Y-61406216D01*
X145372077Y-61269284D01*
X145413000Y-61116557D01*
X145413000Y-60958443D01*
X145372077Y-60805716D01*
X145372073Y-60805709D01*
X145293024Y-60668790D01*
X145293018Y-60668782D01*
X145181217Y-60556981D01*
X145181209Y-60556975D01*
X145044290Y-60477926D01*
X145044286Y-60477924D01*
X145044284Y-60477923D01*
X144891557Y-60437000D01*
X144733443Y-60437000D01*
X144580716Y-60477923D01*
X144580709Y-60477926D01*
X144443790Y-60556975D01*
X144443782Y-60556981D01*
X144331981Y-60668782D01*
X144331975Y-60668790D01*
X144252926Y-60805709D01*
X144252923Y-60805716D01*
X144212000Y-60958443D01*
X141913000Y-60958443D01*
X141872077Y-60805716D01*
X141872073Y-60805709D01*
X141793024Y-60668790D01*
X141793018Y-60668782D01*
X141681217Y-60556981D01*
X141681209Y-60556975D01*
X141544290Y-60477926D01*
X141544286Y-60477924D01*
X141544284Y-60477923D01*
X141391557Y-60437000D01*
X141233443Y-60437000D01*
X141080716Y-60477923D01*
X141080709Y-60477926D01*
X140943790Y-60556975D01*
X140943782Y-60556981D01*
X140831981Y-60668782D01*
X140831975Y-60668790D01*
X140752926Y-60805709D01*
X140752923Y-60805716D01*
X140712000Y-60958443D01*
X134906301Y-60958443D01*
X134872077Y-60830716D01*
X134858386Y-60807002D01*
X134793024Y-60693790D01*
X134793018Y-60693782D01*
X134681217Y-60581981D01*
X134681209Y-60581975D01*
X134544290Y-60502926D01*
X134544286Y-60502924D01*
X134544284Y-60502923D01*
X134391557Y-60462000D01*
X134233443Y-60462000D01*
X134080716Y-60502923D01*
X134080709Y-60502926D01*
X133943790Y-60581975D01*
X133943782Y-60581981D01*
X133831981Y-60693782D01*
X133831975Y-60693790D01*
X133752926Y-60830709D01*
X133752924Y-60830714D01*
X133752923Y-60830716D01*
X133712000Y-60983443D01*
X131413000Y-60983443D01*
X131372077Y-60830716D01*
X131358386Y-60807002D01*
X131293024Y-60693790D01*
X131293018Y-60693782D01*
X131181217Y-60581981D01*
X131181209Y-60581975D01*
X131044290Y-60502926D01*
X131044286Y-60502924D01*
X131044284Y-60502923D01*
X130891557Y-60462000D01*
X130733443Y-60462000D01*
X130580716Y-60502923D01*
X130580709Y-60502926D01*
X130443790Y-60581975D01*
X130443782Y-60581981D01*
X130331981Y-60693782D01*
X130331975Y-60693790D01*
X130252926Y-60830709D01*
X130252924Y-60830714D01*
X130252923Y-60830716D01*
X130212000Y-60983443D01*
X124413000Y-60983443D01*
X124413000Y-60958443D01*
X124372077Y-60805716D01*
X124372073Y-60805709D01*
X124293024Y-60668790D01*
X124293018Y-60668782D01*
X124181217Y-60556981D01*
X124181209Y-60556975D01*
X124044290Y-60477926D01*
X124044286Y-60477924D01*
X124044284Y-60477923D01*
X123891557Y-60437000D01*
X123733443Y-60437000D01*
X123580716Y-60477923D01*
X123580709Y-60477926D01*
X123443790Y-60556975D01*
X123443782Y-60556981D01*
X123331981Y-60668782D01*
X123331975Y-60668790D01*
X123252926Y-60805709D01*
X123252923Y-60805716D01*
X123212000Y-60958443D01*
X120913000Y-60958443D01*
X120872077Y-60805716D01*
X120872073Y-60805709D01*
X120793024Y-60668790D01*
X120793018Y-60668782D01*
X120681217Y-60556981D01*
X120681209Y-60556975D01*
X120544290Y-60477926D01*
X120544286Y-60477924D01*
X120544284Y-60477923D01*
X120391557Y-60437000D01*
X120233443Y-60437000D01*
X120080716Y-60477923D01*
X120080709Y-60477926D01*
X119943790Y-60556975D01*
X119943782Y-60556981D01*
X119831981Y-60668782D01*
X119831975Y-60668790D01*
X119752926Y-60805709D01*
X119752923Y-60805716D01*
X119712000Y-60958443D01*
X113906301Y-60958443D01*
X113872077Y-60830716D01*
X113858386Y-60807002D01*
X113793024Y-60693790D01*
X113793018Y-60693782D01*
X113681217Y-60581981D01*
X113681209Y-60581975D01*
X113544290Y-60502926D01*
X113544286Y-60502924D01*
X113544284Y-60502923D01*
X113391557Y-60462000D01*
X113233443Y-60462000D01*
X113080716Y-60502923D01*
X113080709Y-60502926D01*
X112943790Y-60581975D01*
X112943782Y-60581981D01*
X112831981Y-60693782D01*
X112831975Y-60693790D01*
X112752926Y-60830709D01*
X112752924Y-60830714D01*
X112752923Y-60830716D01*
X112712000Y-60983443D01*
X110413000Y-60983443D01*
X110372077Y-60830716D01*
X110358386Y-60807002D01*
X110293024Y-60693790D01*
X110293018Y-60693782D01*
X110181217Y-60581981D01*
X110181209Y-60581975D01*
X110044290Y-60502926D01*
X110044286Y-60502924D01*
X110044284Y-60502923D01*
X109891557Y-60462000D01*
X109733443Y-60462000D01*
X109580716Y-60502923D01*
X109580709Y-60502926D01*
X109443790Y-60581975D01*
X109443782Y-60581981D01*
X109331981Y-60693782D01*
X109331975Y-60693790D01*
X109252926Y-60830709D01*
X109252924Y-60830714D01*
X109252923Y-60830716D01*
X109212000Y-60983443D01*
X103413000Y-60983443D01*
X103372077Y-60830716D01*
X103358386Y-60807002D01*
X103293024Y-60693790D01*
X103293018Y-60693782D01*
X103181217Y-60581981D01*
X103181209Y-60581975D01*
X103044290Y-60502926D01*
X103044286Y-60502924D01*
X103044284Y-60502923D01*
X102891557Y-60462000D01*
X102733443Y-60462000D01*
X102580716Y-60502923D01*
X102580709Y-60502926D01*
X102443790Y-60581975D01*
X102443782Y-60581981D01*
X102331981Y-60693782D01*
X102331975Y-60693790D01*
X102252926Y-60830709D01*
X102252924Y-60830714D01*
X102252923Y-60830716D01*
X102212000Y-60983443D01*
X99913000Y-60983443D01*
X99872077Y-60830716D01*
X99858386Y-60807002D01*
X99793024Y-60693790D01*
X99793018Y-60693782D01*
X99681217Y-60581981D01*
X99681209Y-60581975D01*
X99544290Y-60502926D01*
X99544286Y-60502924D01*
X99544284Y-60502923D01*
X99391557Y-60462000D01*
X99233443Y-60462000D01*
X99080716Y-60502923D01*
X99080709Y-60502926D01*
X98943790Y-60581975D01*
X98943782Y-60581981D01*
X98831981Y-60693782D01*
X98831975Y-60693790D01*
X98752926Y-60830709D01*
X98752924Y-60830714D01*
X98752923Y-60830716D01*
X98712000Y-60983443D01*
X85913000Y-60983443D01*
X85913000Y-51703480D01*
X85913195Y-51696527D01*
X85921030Y-51557007D01*
X85930213Y-51393494D01*
X85931767Y-51379700D01*
X85982023Y-51083915D01*
X85985116Y-51070363D01*
X86042693Y-50870513D01*
X86068173Y-50782068D01*
X86072765Y-50768948D01*
X86162847Y-50551469D01*
X86187575Y-50491768D01*
X86193597Y-50479262D01*
X86338730Y-50216665D01*
X86346125Y-50204897D01*
X86353991Y-50193811D01*
X86519745Y-49960201D01*
X86528396Y-49949354D01*
X86728316Y-49725645D01*
X86738147Y-49715815D01*
X86961854Y-49515896D01*
X86972701Y-49507245D01*
X87217402Y-49333621D01*
X87229165Y-49326230D01*
X87491762Y-49181097D01*
X87504268Y-49175075D01*
X87781448Y-49060265D01*
X87794568Y-49055673D01*
X88082869Y-48972614D01*
X88096415Y-48969523D01*
X88392200Y-48919267D01*
X88405994Y-48917713D01*
X88709028Y-48900695D01*
X88715981Y-48900500D01*
X88752382Y-48900500D01*
X182672618Y-48900500D01*
X182709019Y-48900500D01*
X182715972Y-48900695D01*
G37*
%TD.AperFunction*%
%TD*%
M02*
